<svg width="104" height="139" viewBox="0 0 104 139" fill="none" xmlns="http://www.w3.org/2000/svg">
<path d="M6 7V131H98V7H6Z" fill="white"/>
<path d="M8.59932 2.39328C9.30687 3.06223 11.4923 5.43429 12.298 5.51151C12.6902 5.5491 13.043 5.28953 13.3315 5.05384C15.311 3.43681 14.9056 0.54001 15.301 0.247637C15.5608 0.0555764 17.1151 0.0720283 17.4545 0.148394C17.5905 0.17898 17.6786 0.224672 17.7631 0.342449C17.9298 0.57502 17.9609 1.99065 18.0431 2.36613C18.0729 2.50199 18.1078 2.63647 18.1481 2.76957C18.1883 2.90267 18.2337 3.03398 18.2843 3.16351C18.3348 3.29303 18.3903 3.42037 18.4508 3.54552C18.5113 3.67067 18.5767 3.79324 18.6468 3.91324C19.0442 4.59518 19.5937 5.1566 20.3802 5.34704C21.0359 5.50578 21.779 5.37854 22.3521 5.02476C23.3152 4.4303 23.8419 3.13593 23.9713 2.05303C24.0406 1.47403 24.0274 0.880494 24.1652 0.312162C24.3015 0.155616 24.4123 0.14269 24.6058 0.0763816C25.209 0.0668543 25.9258 -0.00890842 26.515 0.0964179C26.7311 0.135071 26.8695 0.185731 26.9593 0.399812C27.0722 0.66897 27.0514 1.02334 27.0629 1.31326C27.1032 2.33862 27.276 3.31885 27.8657 4.18343C28.2719 4.779 28.8579 5.1948 29.5731 5.31883C29.6142 5.3263 29.6555 5.33275 29.6969 5.33818C29.7383 5.3436 29.7798 5.348 29.8214 5.35137C29.8631 5.35473 29.9048 5.35705 29.9465 5.35834C29.9882 5.35963 30.03 5.35989 30.0718 5.35911C30.1135 5.35832 30.1552 5.3565 30.1969 5.35365C30.2386 5.3508 30.2801 5.34691 30.3216 5.34199C30.3631 5.33707 30.4044 5.33112 30.4456 5.32415C30.4868 5.31717 30.5278 5.30918 30.5685 5.30018C30.6093 5.29117 30.6498 5.28115 30.6901 5.27012C30.7304 5.2591 30.7704 5.24708 30.8102 5.23408C30.8498 5.22106 30.8892 5.20707 30.9282 5.19211C30.9672 5.17714 31.0058 5.16122 31.0441 5.14433C31.0822 5.12745 31.12 5.10963 31.1573 5.09087C31.1947 5.07211 31.2315 5.05243 31.2679 5.03184C31.3043 5.01125 31.3401 4.98977 31.3754 4.9674C31.4107 4.94502 31.4454 4.92179 31.4796 4.8977C32.3517 4.27162 32.8593 3.10253 32.9932 2.06252C33.055 1.58275 33.0509 1.08637 33.1375 0.610977C33.1671 0.448291 33.2017 0.276221 33.355 0.190619C33.6477 0.0272917 35.179 0.058945 35.5032 0.196226C35.8362 0.337264 35.8209 1.96559 35.8793 2.33188C35.9094 2.5202 35.9501 2.70619 36.0013 2.88984C36.0526 3.0735 36.1142 3.25363 36.1861 3.43022C36.5044 4.20441 37.0323 4.96972 37.8307 5.29737C38.4125 5.53622 39.0781 5.50398 39.6522 5.25823C40.8382 4.75053 41.6157 3.25524 41.7699 2.02632C41.8402 1.46584 41.7801 0.774559 41.9864 0.251281C42.3874 0.0133327 43.8599 0.000249311 44.3063 0.14657C44.4896 0.206677 44.5876 0.328584 44.6379 0.511895C44.7171 0.800567 44.704 1.12753 44.7151 1.42507C44.7479 2.30483 44.823 3.14787 45.2231 3.94942C45.5816 4.6677 46.1588 5.23654 46.9281 5.49065C47.5383 5.69221 48.1683 5.66152 48.7434 5.36874C49.8724 4.79389 50.559 3.23101 50.6899 2.02864C50.7515 1.46262 50.6794 0.77962 50.8495 0.238815C50.92 0.195644 50.9811 0.160308 51.0609 0.13645C51.486 0.00940193 52.991 -0.0386462 53.3455 0.163488C53.6902 0.552597 53.5895 1.41362 53.6586 1.92241C53.797 2.94254 54.2438 4.18379 55.1009 4.81751C55.6489 5.22271 56.4113 5.34633 57.0748 5.23738C58.545 4.996 59.3958 3.40966 59.608 2.05409C59.6898 1.53223 59.5609 0.521416 59.8641 0.105727C60.3728 -0.0299967 61.2966 -0.0141986 61.8295 0.0379636C62.6866 0.121865 62.4222 1.87302 62.54 2.48211C62.6737 3.1735 63.0237 3.89078 63.4883 4.41901C63.9429 4.93588 64.5618 5.32527 65.263 5.35715C66.88 5.43069 67.9739 3.7767 68.2535 2.36348C68.3634 1.80791 68.2988 1.22554 68.4106 0.678491C68.4497 0.487363 68.5149 0.275871 68.67 0.145962C68.934 -0.0751457 70.1349 0.0107634 70.485 0.0605753C70.6219 0.0800363 70.7863 0.106169 70.8737 0.228497C71.1476 0.611557 70.8932 2.83074 72.1355 4.36682C72.5707 4.90495 73.157 5.29181 73.8572 5.35185C77.3405 5.6505 77.0496 0.385527 77.4011 0.160125C77.7493 -0.0631164 79.1404 -0.00160199 79.563 0.0642922C79.9368 0.539033 79.9125 1.4838 80.0315 2.07282C80.2566 3.18569 80.8287 4.51873 81.8145 5.16008C81.8502 5.18288 81.8865 5.20479 81.9233 5.2258C81.9601 5.24681 81.9974 5.2669 82.0351 5.28607C82.0729 5.30524 82.1111 5.32347 82.1498 5.34074C82.1885 5.35803 82.2276 5.37435 82.2671 5.3897C82.3066 5.40504 82.3464 5.41941 82.3865 5.43279C82.4268 5.44617 82.4673 5.45855 82.508 5.46994C82.5488 5.48132 82.5899 5.49168 82.6312 5.50104C82.6725 5.51039 82.714 5.51872 82.7557 5.52603C82.7974 5.53333 82.8393 5.5396 82.8813 5.54484C82.9233 5.55007 82.9654 5.55426 83.0077 5.55741C83.0499 5.56057 83.0921 5.56268 83.1344 5.56375C83.1768 5.56481 83.2192 5.56483 83.2615 5.5638C83.3038 5.56277 83.3461 5.5607 83.3884 5.55758C83.4305 5.55447 83.4727 5.55031 83.5147 5.54512C83.5567 5.53992 83.5986 5.53369 83.6403 5.52642C83.682 5.51915 83.7235 5.51086 83.7648 5.50155C85.3168 5.15532 86.0148 3.32586 86.2249 1.92314C86.2995 1.42523 86.2342 0.616771 86.5028 0.204183C87.0565 -0.0734971 88.0765 0.0351796 88.6848 0.104957C89.0597 0.378584 88.4709 2.49553 90.0279 4.64644C90.3399 5.07742 90.753 5.52317 91.3106 5.58891C92.5337 5.73307 94.3776 3.42581 95.3446 2.66337L103.634 11.0585C102.265 11.9861 99.2942 12.9064 98.6203 14.5056C98.453 14.9027 98.436 15.3092 98.6043 15.7088C99.1801 17.0749 102.148 18.4109 103.497 18.9392C103.493 19.4755 103.512 20.013 103.522 20.5493C102.549 20.9363 101.531 21.2695 100.604 21.7542C99.8468 22.1496 98.9982 22.6732 98.7384 23.5427C98.5796 24.0745 98.6261 24.6773 98.8925 25.1658C99.682 26.6134 102.006 27.2822 103.486 27.7362L103.508 29.7446C102.427 30.0047 101.308 30.2821 100.329 30.8262C99.6183 31.2214 98.888 31.8022 98.6618 32.6218C98.5105 33.1698 98.6049 33.7524 98.8904 34.2392C99.7767 35.7507 101.924 36.3711 103.523 36.7721C103.491 37.5146 103.482 38.2471 103.566 38.9865C102.511 39.1608 101.376 39.4352 100.42 39.9207C99.6849 40.2939 99.0047 40.8455 98.7439 41.6571C98.565 42.2139 98.5845 42.8053 98.8627 43.3259C99.6468 44.7932 102.018 45.281 103.507 45.7225C103.51 46.5044 103.526 47.281 103.572 48.0617C102.454 48.3329 101.333 48.583 100.309 49.1284C99.613 49.4989 98.9157 50.0225 98.6842 50.8143C98.5279 51.3488 98.5791 51.9469 98.848 52.4366C99.5859 53.7803 102.143 54.4107 103.514 54.8291C103.418 55.591 103.448 56.2715 103.549 57.027C102.356 57.3833 101.167 57.6161 100.065 58.2319C99.4231 58.5907 98.8123 59.0974 98.6144 59.8372C98.5975 59.9007 98.5837 59.9648 98.573 60.0296C98.5622 60.0944 98.5546 60.1596 98.5503 60.2251C98.5459 60.2907 98.5447 60.3563 98.5467 60.422C98.5487 60.4876 98.5539 60.553 98.5622 60.6182C98.5705 60.6834 98.582 60.748 98.5966 60.812C98.6113 60.876 98.629 60.9392 98.6497 61.0015C98.6705 61.0638 98.6943 61.1249 98.7209 61.1849C98.7477 61.2449 98.7772 61.3034 98.8096 61.3605C99.6456 62.8139 102.055 63.3111 103.56 63.7227C103.478 64.5036 103.482 65.2161 103.592 65.9931C102.356 66.2324 100.977 66.5788 99.9051 67.2556C99.2957 67.6405 98.7282 68.1868 98.579 68.9209C98.4672 69.4704 98.6042 70.0409 98.9118 70.504C99.857 71.9274 102.089 72.4858 103.662 72.8118C103.441 73.738 103.373 74.2379 103.716 75.161C102.459 75.4506 101.156 75.634 100.005 76.2526C99.3806 76.5883 98.8158 77.0644 98.6183 77.7723C98.4647 78.3228 98.5359 78.9353 98.8288 79.4271C99.6954 80.8819 102.083 81.4575 103.607 81.8459C103.428 82.7172 103.473 83.3577 103.593 84.2354C102.379 84.4346 101.162 84.7129 100.081 85.3249C99.4379 85.6886 98.7664 86.2189 98.5766 86.9709C98.4516 87.466 98.5702 87.9961 98.8237 88.4305C99.6958 89.9249 102.039 90.3768 103.585 90.7634C103.528 91.4928 103.458 92.18 103.602 92.9055C102.437 93.1712 101.271 93.4486 100.215 94.0275C99.4986 94.4197 98.7115 95.03 98.4893 95.859C98.3511 96.3743 98.4338 96.8971 98.696 97.3569C99.5795 98.9071 101.983 99.5495 103.602 99.9731C103.418 100.743 103.406 101.232 103.582 102.017C102.126 102.579 100.458 102.773 99.2713 103.894C98.8248 104.316 98.5171 104.846 98.5126 105.478C98.5085 106.081 98.7923 106.62 99.2103 107.038C99.9916 107.82 102.481 108.973 103.622 108.962C103.66 109.656 103.566 110.322 103.68 111.018C103.364 111.263 102.829 111.331 102.446 111.435C101.229 111.764 99.5885 112.337 98.8823 113.459C98.5895 113.924 98.5138 114.506 98.6422 115.038C99.0068 116.549 101.017 117.171 102.314 117.6C102.721 117.733 103.219 117.853 103.578 118.084C103.636 118.53 103.628 119.02 103.624 119.471C103.622 119.65 103.652 119.845 103.517 119.984C103.041 120.475 100.635 120.728 99.4277 121.941C98.9426 122.428 98.6473 123.074 98.6596 123.769C98.6895 125.454 100.663 126.415 102.01 126.945C102.441 127.115 103.179 127.292 103.506 127.628C103.611 127.736 103.606 127.771 103.608 127.912C103.179 128.613 102.313 129.212 101.727 129.798C100.89 130.637 95.9737 135.811 95.3931 135.987C94.5813 135.887 92.7384 133.241 91.9326 132.67C91.7001 132.505 91.4321 132.403 91.1459 132.468C90.7126 132.566 90.3649 132.96 90.0994 133.295C89.4696 134.089 88.9542 135.05 88.7956 136.062C88.7062 136.633 88.8432 137.398 88.5114 137.887C88.0714 138.213 86.9801 138.041 86.4338 138.041C86.1084 137.772 86.0894 136.143 85.9979 135.683C85.8988 135.184 85.744 134.688 85.5093 134.236C85.1243 133.495 84.5004 132.872 83.6885 132.627C83.0549 132.437 82.2197 132.439 81.6516 132.798C81.4168 132.947 81.2075 133.157 80.962 133.283C80.9394 133.295 80.9165 133.306 80.8938 133.317C80.7531 133.579 80.5613 133.812 80.4193 134.076C79.7933 135.238 79.7963 136.252 79.7124 137.526C79.7034 137.664 79.6579 137.774 79.5519 137.862C79.2604 138.108 77.8655 138.06 77.4758 137.982C77.3178 137.951 77.191 137.915 77.108 137.767C76.8008 137.222 77.1754 135.369 76.2228 133.905C75.7984 133.253 75.1492 132.782 74.3832 132.624C73.6973 132.482 72.9931 132.612 72.4147 133.011C70.8265 134.108 70.9915 136.126 70.6791 137.796C70.6514 137.814 70.6244 137.834 70.596 137.851C70.2715 138.051 68.891 138.031 68.5091 137.939C68.3482 137.9 68.2063 137.807 68.156 137.643C68.0743 137.375 68.0918 137.023 68.0788 136.742C68.03 135.691 67.8737 134.742 67.2796 133.847C66.8472 133.195 66.2851 132.72 65.5025 132.577C64.7973 132.449 64.0277 132.577 63.4399 133C62.5176 133.665 62.0667 134.945 61.9677 136.037C61.9274 136.483 61.9726 136.982 61.872 137.414C61.8296 137.596 61.7748 137.739 61.6081 137.84C61.3849 137.974 59.8169 137.967 59.5228 137.9C59.1521 137.579 59.2439 136.447 59.188 135.942C59.0682 134.858 58.6075 133.741 57.7322 133.054C57.1684 132.611 56.4759 132.447 55.7687 132.535C54.1521 132.737 53.3384 134.366 53.1343 135.831C53.0622 136.348 53.1816 137.519 52.8794 137.908C52.6125 137.973 50.7581 137.999 50.5262 137.865C50.1713 137.662 50.2128 135.714 50.0737 135.15C49.8623 134.293 49.386 133.386 48.6035 132.927C47.971 132.558 47.1221 132.464 46.4197 132.666C45.0895 133.047 44.3731 134.63 44.2527 135.908C44.198 136.487 44.3149 137.345 44.0338 137.856C43.5635 138.077 42.7419 137.976 42.2224 137.957C42.0353 137.951 41.7771 137.962 41.6431 137.811C41.4045 137.541 41.8809 135.035 40.3277 133.394C39.8515 132.891 39.2126 132.56 38.5128 132.551C36.8117 132.527 35.7548 134.022 35.4365 135.548C35.3105 136.151 35.4647 137.482 35.038 137.905C34.4847 137.981 33.7174 137.993 33.1698 137.891C33.0934 137.877 32.9563 137.846 32.898 137.789C32.7937 137.686 32.7807 137.112 32.7657 136.949C32.6601 135.798 32.4962 134.726 31.8324 133.746C31.4278 133.148 30.8751 132.695 30.154 132.565C29.5087 132.448 28.7407 132.577 28.2003 132.959C27.2319 133.644 26.6904 135.029 26.6445 136.185C26.6287 136.581 26.7225 137.051 26.6456 137.434C26.61 137.612 26.5132 137.763 26.3555 137.855C25.951 138.088 24.7105 138.137 24.2636 138.007C23.4622 137.775 23.6031 136.061 23.4668 135.372C23.439 135.237 23.4055 135.102 23.3661 134.969C23.3267 134.836 23.2817 134.705 23.2311 134.576C23.1805 134.447 23.1244 134.32 23.0629 134.196C23.0013 134.072 22.9346 133.951 22.8626 133.833C22.487 133.222 21.9412 132.802 21.238 132.649C20.5709 132.505 19.8956 132.593 19.3178 132.969C18.3646 133.587 17.8154 134.837 17.7002 135.937C17.6397 136.513 17.6806 137.101 17.5584 137.671C17.419 137.822 17.2861 137.865 17.0833 137.899C16.6179 137.976 15.4225 138.065 15.0357 137.793C14.9325 137.469 14.9224 137.093 14.881 136.755C14.7751 135.891 14.6415 135.028 14.3055 134.219C14.0088 133.503 13.5539 132.869 12.8127 132.579C12.5741 132.486 12.2363 132.387 11.9846 132.454C11.0747 132.698 9.09142 135.451 8.41717 135.716C8.39407 135.724 8.3704 135.732 8.34702 135.74C8.32569 135.736 8.30365 135.734 8.28304 135.727C7.81915 135.567 0.249006 128.142 0 127.601C0.272257 127.224 2.12177 126.492 2.67481 126.169C3.20184 125.861 3.70036 125.491 4.1155 125.041C4.53009 124.591 4.82092 124.041 4.77808 123.412C4.66137 121.7 2.5484 120.929 1.21068 120.426C0.919463 120.317 0.46871 120.211 0.243938 120.002C0.219108 119.979 0.195932 119.954 0.17193 119.93L0.164314 117.851C0.196455 117.854 0.250259 117.861 0.28539 117.859C0.513894 117.843 0.813514 117.704 1.03217 117.627C2.1874 117.222 3.59941 116.654 4.35359 115.647C4.68046 115.21 4.82957 114.722 4.74606 114.175C4.5 112.566 2.51668 111.905 1.20072 111.439C0.917411 111.339 0.48275 111.245 0.247231 111.061C0.22219 111.042 0.198161 111.02 0.173626 111C0.15453 110.298 0.129281 109.596 0.0978788 108.895C0.527739 108.962 1.41316 108.543 1.82489 108.365C2.83104 107.929 4.13734 107.225 4.55253 106.131C4.72975 105.665 4.69898 105.171 4.48999 104.722C3.77453 103.184 1.59218 102.53 0.118744 102.01C0.138208 101.302 0.152406 100.594 0.161339 99.8858C0.73208 99.6803 1.29661 99.4588 1.85494 99.2214C2.86909 98.7828 4.23571 98.103 4.64108 96.9951C4.78988 96.5884 4.76181 96.1551 4.57482 95.7659C3.86742 94.2935 1.57845 93.6365 0.153337 93.1312C0.148444 92.4348 0.147799 91.7385 0.151401 91.0423C0.725395 90.8429 1.30206 90.615 1.85233 90.3569C2.84848 89.8896 4.19928 89.0901 4.57224 87.973C4.73088 87.4977 4.6919 87.0249 4.47142 86.577C3.7475 85.1058 1.575 84.3926 0.117958 83.9163C0.160643 83.196 0.125318 82.4656 0.111812 81.7442C1.03439 81.5027 2.00966 81.157 2.84447 80.6966C3.57754 80.2923 4.42109 79.6681 4.64323 78.8108C4.76894 78.3257 4.65394 77.84 4.39449 77.4228C3.56559 76.09 1.62135 75.4715 0.168345 75.121C0.251908 74.3908 0.201293 73.6586 0.170362 72.9264C0.764188 72.7572 1.34551 72.5524 1.91434 72.3119C2.9011 71.8862 4.198 71.1424 4.59253 70.0679C4.75717 69.6196 4.73192 69.1514 4.53556 68.7195C3.80076 67.1031 1.68312 66.4649 0.148289 65.8929C0.232567 65.1924 0.204322 64.4897 0.176449 63.787C0.679373 63.6387 1.18369 63.4529 1.66778 63.2516C2.72997 62.8097 4.12923 62.1214 4.58174 60.9826C4.75538 60.5456 4.74417 60.0995 4.55411 59.6699C3.88334 58.1543 1.6319 57.4309 0.193036 56.9042C0.242744 56.1995 0.228593 55.4879 0.230356 54.7816C1.14616 54.4599 2.10087 54.1473 2.93361 53.6403C3.84887 53.0831 4.41353 52.4216 4.66583 51.374C4.60964 51.1327 4.54287 50.8805 4.43725 50.6557C3.70891 49.1057 1.71173 48.5503 0.221047 48.0304C0.288188 47.3057 0.263716 46.5501 0.285684 45.8207C0.871856 45.6677 1.46223 45.4575 2.01792 45.2157C2.96838 44.802 4.16671 44.1295 4.55274 43.0961C4.74663 42.577 4.70019 42.012 4.46086 41.5161C3.71349 39.9673 1.7226 39.3964 0.228761 38.8923C0.281257 38.1186 0.264044 37.3339 0.269843 36.5584C0.953405 36.3809 1.60873 36.1727 2.24894 35.8726C3.20209 35.4258 4.33709 34.7235 4.6989 33.6676C4.85481 33.2125 4.81935 32.753 4.60161 32.3253C3.81584 30.782 1.75129 30.2357 0.229813 29.7502C0.251122 29.0334 0.190113 28.3189 0.21847 27.6004C0.728957 27.4205 1.24414 27.2453 1.74742 27.046C2.78784 26.634 4.17016 26.0132 4.62804 24.9142C4.8283 24.4336 4.84575 23.872 4.63896 23.3904C4.00693 21.9187 1.59632 21.1892 0.212317 20.6316C0.314873 20.0844 0.291388 19.5514 0.274505 18.9986C0.735298 18.806 1.186 18.5685 1.61821 18.3181C2.68108 17.7021 4.17653 16.8707 4.50054 15.593C4.64383 15.028 4.54551 14.4351 4.25013 13.9356C3.47833 12.6306 1.56166 12.0182 0.179688 11.6578L0.167635 9.93624C0.700968 9.8284 1.13995 9.67097 1.58691 9.35696C2.36934 8.80723 3.02482 8.01227 3.68887 7.32796C4.69276 6.29757 5.70194 5.27243 6.71642 4.25253C7.33518 3.6267 7.93109 2.96636 8.59932 2.39328ZM35.2341 0.532098C35.2323 0.534752 35.2307 0.537549 35.2295 0.540489C35.2282 0.543428 35.2273 0.546463 35.2265 0.549593C35.2258 0.552722 35.2253 0.555889 35.2252 0.559093C35.225 0.562305 35.2252 0.565495 35.2257 0.568666C35.2262 0.571843 35.2269 0.574949 35.2279 0.577983C35.229 0.581025 35.2303 0.58394 35.2319 0.586731C35.2334 0.589521 35.2353 0.592145 35.2374 0.594602C35.2394 0.597053 35.2417 0.599293 35.2442 0.601323C35.2467 0.603353 35.2493 0.605135 35.2521 0.606669C35.2549 0.608203 35.2579 0.609466 35.2609 0.610457C35.264 0.611448 35.2671 0.612148 35.2703 0.612555C35.2734 0.612969 35.2766 0.613085 35.2798 0.612901C35.283 0.612718 35.2862 0.612239 35.2893 0.611465C35.2924 0.610692 35.2954 0.609639 35.2983 0.608309C35.3012 0.606978 35.304 0.605386 35.3065 0.603533C35.3092 0.601686 35.3116 0.599612 35.3138 0.597311C35.3172 0.593869 35.32 0.590037 35.3223 0.585814C35.3246 0.581592 35.3262 0.577138 35.3273 0.572454C35.3283 0.567769 35.3286 0.563034 35.3284 0.558248C35.3281 0.553455 35.3272 0.548792 35.3256 0.544257C35.3241 0.539722 35.3219 0.535486 35.3191 0.531548C35.3164 0.527611 35.3132 0.524125 35.3095 0.52109C35.3058 0.518055 35.3017 0.515588 35.2973 0.513687C35.2929 0.511779 35.2883 0.510513 35.2836 0.509888C35.2788 0.509264 35.2741 0.509298 35.2694 0.50999C35.2646 0.510683 35.2601 0.512007 35.2558 0.513962C35.2514 0.515924 35.2473 0.518446 35.2437 0.521528C35.24 0.52461 35.2368 0.528133 35.2341 0.532098ZM51.9242 0.483657L52.0145 0.562423C52.3622 0.574042 52.6909 0.564552 53.0367 0.526558C53.0345 0.528765 53.0326 0.531161 53.0309 0.533748C53.0292 0.536334 53.0277 0.539063 53.0265 0.541935C53.0254 0.544806 53.0245 0.547766 53.0239 0.550815C53.0233 0.553856 53.023 0.556928 53.0231 0.56003C53.0231 0.563133 53.0234 0.566205 53.024 0.569246C53.0246 0.572287 53.0255 0.575237 53.0268 0.578095C53.028 0.580953 53.0294 0.583669 53.0311 0.586242C53.0329 0.588815 53.0348 0.591194 53.037 0.59338C53.0392 0.595566 53.0416 0.597518 53.0442 0.599235C53.0468 0.600953 53.0495 0.602402 53.0523 0.603584C53.0552 0.604765 53.0581 0.605651 53.0612 0.606242C53.0642 0.606839 53.0673 0.607134 53.0704 0.607127C53.0735 0.607114 53.0766 0.606798 53.0797 0.60618C53.0826 0.605563 53.0856 0.604656 53.0885 0.603462C53.0913 0.60226 53.0941 0.60079 53.0966 0.599052C53.0992 0.597321 53.1016 0.595352 53.1037 0.593146C53.1059 0.59094 53.1079 0.588543 53.1096 0.585957C53.1113 0.583363 53.1127 0.580627 53.1139 0.577749C53.1151 0.574877 53.116 0.571917 53.1165 0.568869C53.1171 0.565814 53.1174 0.562736 53.1174 0.559633C53.1174 0.556524 53.1171 0.553449 53.1164 0.550407C53.1158 0.547359 53.1149 0.544403 53.1138 0.541538C53.1126 0.538673 53.1111 0.535954 53.1093 0.533381C53.1076 0.530808 53.1057 0.528429 53.1034 0.526243C53.1013 0.524057 53.0989 0.522108 53.0962 0.520397C53.0936 0.51868 53.0909 0.517234 53.0881 0.51606C53.0853 0.514885 53.0823 0.514003 53.0793 0.513412C53.0762 0.512821 53.0731 0.512533 53.07 0.512546C53.0669 0.51256 53.0638 0.512876 53.0608 0.513493C53.0577 0.514118 53.0548 0.515031 53.0519 0.516233C53.0491 0.517434 53.0464 0.518904 53.0438 0.520642C53.0412 0.52238 53.0389 0.524352 53.0367 0.526558C52.7328 0.397433 52.2497 0.455602 51.9242 0.483657ZM51.2267 0.596456C51.2239 0.594432 51.2211 0.592688 51.218 0.591221C51.215 0.589755 51.2118 0.588594 51.2085 0.587739C51.2052 0.586877 51.2019 0.586337 51.1985 0.58612C51.1951 0.585902 51.1918 0.586008 51.1885 0.586435C51.1851 0.586863 51.1818 0.587606 51.1786 0.588665C51.1754 0.589724 51.1723 0.591082 51.1693 0.592739C51.1664 0.594395 51.1636 0.596316 51.161 0.598502C51.1584 0.600688 51.156 0.603102 51.1539 0.605743C51.1518 0.608383 51.15 0.611204 51.1484 0.614205C51.1468 0.617205 51.1455 0.620328 51.1445 0.623573C51.1435 0.626825 51.1429 0.630138 51.1426 0.633512C51.1422 0.636886 51.1421 0.640263 51.1425 0.643644C51.1427 0.647025 51.1433 0.650348 51.1443 0.653613C51.1452 0.656879 51.1465 0.660022 51.1479 0.663043C51.1495 0.666071 51.1513 0.668926 51.1534 0.671607C51.1555 0.674282 51.1578 0.676736 51.1603 0.67897C51.1639 0.682113 51.1679 0.684723 51.1721 0.6868C51.1765 0.688878 51.181 0.690348 51.1856 0.69121C51.1903 0.692072 51.195 0.692296 51.1997 0.691882C51.2045 0.691468 51.2091 0.690432 51.2136 0.688776C51.218 0.687119 51.2222 0.684896 51.2261 0.682106C51.2299 0.679323 51.2334 0.676071 51.2364 0.67235C51.2394 0.66863 51.2418 0.664581 51.2437 0.660202C51.2456 0.655823 51.2469 0.651268 51.2476 0.646536C51.2483 0.641804 51.2483 0.637069 51.2477 0.632331C51.2471 0.627592 51.2459 0.623017 51.244 0.618604C51.2421 0.614198 51.2397 0.610114 51.2368 0.606353C51.2339 0.602599 51.2305 0.5993 51.2267 0.596456ZM25.8227 137.289C25.8189 137.292 25.8154 137.295 25.8124 137.298C25.8094 137.301 25.8069 137.305 25.8049 137.309C25.8029 137.314 25.8015 137.318 25.8007 137.322C25.7999 137.327 25.7997 137.332 25.8001 137.337C25.8006 137.341 25.8016 137.346 25.8033 137.35C25.8051 137.355 25.8074 137.359 25.8101 137.362C25.813 137.366 25.8163 137.37 25.82 137.372C25.8237 137.375 25.8277 137.377 25.8321 137.38C25.8364 137.382 25.8409 137.383 25.8456 137.383C25.8503 137.383 25.8549 137.383 25.8595 137.383C25.8641 137.382 25.8686 137.381 25.8729 137.378C25.8772 137.376 25.8811 137.374 25.8847 137.371C25.8873 137.369 25.8896 137.367 25.8917 137.364C25.8938 137.361 25.8956 137.359 25.8972 137.356C25.8988 137.353 25.9001 137.35 25.9011 137.347C25.9022 137.344 25.9028 137.341 25.9032 137.338C25.9036 137.334 25.9037 137.331 25.9035 137.328C25.9032 137.324 25.9027 137.321 25.9018 137.317C25.901 137.315 25.8998 137.312 25.8984 137.308C25.8969 137.305 25.8952 137.303 25.8932 137.3C25.8912 137.297 25.8889 137.295 25.8865 137.293C25.8841 137.291 25.8814 137.289 25.8786 137.287C25.8757 137.285 25.8728 137.284 25.8698 137.283C25.8666 137.281 25.8635 137.281 25.8602 137.281C25.857 137.28 25.8537 137.28 25.8504 137.28C25.8471 137.28 25.8439 137.28 25.8406 137.281C25.8374 137.281 25.8343 137.282 25.8314 137.284C25.8283 137.285 25.8254 137.287 25.8227 137.289ZM15.6183 0.509298L15.6362 0.635864C15.7745 0.639306 15.9032 0.632443 16.0409 0.618665C15.8727 0.500826 15.8503 0.46493 15.6357 0.503707C15.6297 0.504787 15.6241 0.507434 15.6183 0.509298ZM25.743 0.505632C25.7423 0.510642 25.7423 0.515652 25.743 0.520662C25.7437 0.525679 25.7451 0.530489 25.7472 0.535092C25.7493 0.539701 25.7519 0.543921 25.7552 0.547749C25.7585 0.551585 25.7623 0.554871 25.7666 0.557607C25.7708 0.560343 25.7754 0.562423 25.7802 0.563849C25.785 0.565275 25.79 0.565988 25.795 0.565988C25.8 0.565988 25.805 0.565275 25.8098 0.563849C25.8146 0.562423 25.8192 0.560343 25.8234 0.557607C25.8277 0.554871 25.8315 0.551585 25.8348 0.547749C25.8381 0.543921 25.8407 0.539701 25.8428 0.535092C25.8449 0.530489 25.8463 0.525679 25.847 0.520662C25.8477 0.515652 25.8477 0.510642 25.847 0.505632C25.8465 0.50253 25.8458 0.499495 25.8449 0.496528C25.8439 0.493555 25.8426 0.490693 25.8411 0.487944C25.8396 0.485201 25.8378 0.482611 25.8358 0.480174C25.8339 0.477737 25.8317 0.475493 25.8293 0.473443C25.827 0.471393 25.8244 0.46957 25.8217 0.467975C25.8191 0.466379 25.8163 0.465035 25.8133 0.463942C25.8104 0.462849 25.8074 0.462028 25.8043 0.461478C25.8012 0.460921 25.7981 0.460643 25.795 0.460643C25.7919 0.460643 25.7888 0.460921 25.7857 0.461478C25.7826 0.462028 25.7796 0.462849 25.7767 0.463942C25.7737 0.465035 25.7709 0.466379 25.7683 0.467975C25.7656 0.46957 25.763 0.471393 25.7607 0.473443C25.7583 0.475493 25.7561 0.477737 25.7542 0.480174C25.7522 0.482611 25.7505 0.485201 25.7489 0.487944C25.7474 0.490693 25.7462 0.493555 25.7451 0.496528C25.7442 0.499495 25.7435 0.50253 25.743 0.505632ZM33.837 0.503443C33.8727 0.504817 33.9377 0.514797 33.9706 0.503422L33.837 0.503443ZM43.9791 0.521996C44.0454 0.540275 44.1009 0.566772 44.1696 0.552922L44.0763 0.478239L43.9791 0.521996ZM51.4421 0.503728L51.5747 0.503534C51.5361 0.500551 51.476 0.48498 51.4421 0.503728ZM61.8491 0.501773C61.8503 0.506932 61.8523 0.511745 61.8552 0.516212C61.858 0.520686 61.8615 0.524559 61.8657 0.527831C61.8699 0.53111 61.8744 0.533609 61.8795 0.535326C61.8845 0.537037 61.8896 0.537875 61.8949 0.537841C61.9002 0.5378 61.9053 0.536887 61.9103 0.535102C61.9153 0.53331 61.9198 0.530747 61.9239 0.527414C61.9281 0.52408 61.9315 0.520157 61.9343 0.515642C61.9371 0.511134 61.939 0.50629 61.9402 0.501111C61.9412 0.496515 61.9415 0.491871 61.9411 0.48718C61.9408 0.482489 61.9397 0.477961 61.938 0.473596C61.9363 0.469224 61.9339 0.465205 61.9309 0.461539C61.928 0.457873 61.9245 0.454726 61.9207 0.452099C61.9168 0.449472 61.9126 0.447479 61.9081 0.446122C61.9036 0.444757 61.899 0.444092 61.8943 0.444126C61.8895 0.44416 61.8849 0.444889 61.8805 0.446315C61.876 0.447734 61.8718 0.449788 61.868 0.452476C61.8641 0.455157 61.8607 0.458348 61.8578 0.462048C61.8549 0.465755 61.8526 0.469808 61.8509 0.474207C61.8492 0.478599 61.8482 0.483148 61.848 0.487852C61.8476 0.49255 61.848 0.49719 61.8491 0.501773ZM42.2608 0.569297C42.2613 0.572203 42.262 0.575044 42.2631 0.57782C42.264 0.58059 42.2652 0.583258 42.2666 0.585824C42.2681 0.588384 42.2698 0.590797 42.2716 0.593064C42.2735 0.595339 42.2755 0.597426 42.2778 0.599327C42.28 0.601235 42.2824 0.602932 42.2849 0.604419C42.2875 0.605905 42.2901 0.607158 42.2929 0.608176C42.2956 0.609195 42.2984 0.609965 42.3013 0.610488C42.3043 0.611011 42.3072 0.611275 42.3101 0.611282C42.313 0.611289 42.3159 0.611038 42.3188 0.610529C42.3217 0.610019 42.3246 0.609259 42.3273 0.608248C42.3301 0.607243 42.3327 0.606001 42.3353 0.604521C42.3378 0.603047 42.3402 0.60136 42.3425 0.59946C42.3447 0.597559 42.3468 0.595478 42.3487 0.593217C42.3505 0.590957 42.3522 0.588547 42.3537 0.585987C42.3551 0.583428 42.3563 0.58076 42.3573 0.577983C42.3583 0.575213 42.3591 0.572376 42.3595 0.56947C42.3604 0.564664 42.3605 0.55984 42.3598 0.555C42.3592 0.550159 42.358 0.545502 42.3561 0.541029C42.3541 0.536562 42.3516 0.532465 42.3485 0.528738C42.3453 0.525017 42.3417 0.52182 42.3376 0.519145C42.3335 0.51647 42.3292 0.514434 42.3245 0.513035C42.3198 0.511643 42.3151 0.510941 42.3103 0.510927C42.3054 0.51092 42.3006 0.511606 42.296 0.512984C42.2913 0.514369 42.2869 0.516389 42.2829 0.519043C42.2788 0.521704 42.2752 0.524895 42.272 0.528615C42.2689 0.532329 42.2663 0.536419 42.2644 0.540886C42.2624 0.545346 42.2611 0.549993 42.2605 0.554827C42.2599 0.559667 42.26 0.564491 42.2608 0.569297ZM17.3557 0.717798C17.3525 0.72477 17.3503 0.732044 17.3492 0.73962C17.3481 0.747197 17.348 0.754783 17.349 0.76238C17.35 0.769976 17.352 0.777291 17.3551 0.784324C17.358 0.791358 17.362 0.797838 17.3668 0.803764C17.3717 0.809691 17.3773 0.814837 17.3835 0.819202C17.3898 0.82356 17.3966 0.826975 17.4038 0.829446C17.4111 0.83191 17.4185 0.833329 17.4261 0.833703C17.4337 0.834083 17.4413 0.833404 17.4487 0.831666C17.4561 0.829928 17.4632 0.827196 17.4699 0.823469C17.4766 0.819748 17.4826 0.815176 17.488 0.809752C17.4934 0.804334 17.498 0.798272 17.5017 0.791565C17.5054 0.784864 17.5081 0.77778 17.5098 0.770312C17.511 0.765404 17.5117 0.760431 17.5119 0.755394C17.5121 0.750357 17.5118 0.745343 17.5112 0.740354C17.5104 0.735364 17.5093 0.730479 17.5077 0.7257C17.5061 0.720921 17.504 0.716328 17.5016 0.711922C17.4992 0.707523 17.4963 0.703382 17.4931 0.699499C17.4899 0.695616 17.4864 0.692062 17.4825 0.688837C17.4787 0.685612 17.4745 0.682768 17.4701 0.680304C17.4657 0.677832 17.4612 0.675789 17.4564 0.674173C17.4517 0.672551 17.4468 0.67138 17.4418 0.67066C17.4369 0.66994 17.4319 0.669679 17.4269 0.669876C17.4218 0.67008 17.4168 0.670742 17.4119 0.671862C17.4071 0.672982 17.4023 0.67454 17.3976 0.676536C17.393 0.678532 17.3886 0.680935 17.3845 0.683745C17.3803 0.686556 17.3764 0.689726 17.3728 0.693256C17.3692 0.69678 17.366 0.700605 17.3631 0.704733C17.3602 0.708861 17.3578 0.713216 17.3557 0.717798ZM16.7657 0.840047C16.7662 0.845315 16.7671 0.850498 16.7684 0.855596C16.7699 0.860688 16.7717 0.86561 16.774 0.870362C16.7764 0.875107 16.7791 0.879598 16.7822 0.883834C16.7854 0.88807 16.7889 0.891977 16.7928 0.895555C16.7967 0.899133 16.8009 0.90232 16.8054 0.905117C16.8099 0.907914 16.8145 0.910273 16.8194 0.912194C16.8244 0.914115 16.8294 0.915568 16.8347 0.916553C16.8398 0.91753 16.845 0.918019 16.8503 0.918019C16.8556 0.918026 16.8608 0.917544 16.8659 0.916573C16.8711 0.915602 16.8762 0.91416 16.8811 0.912245C16.886 0.910338 16.8907 0.907989 16.8952 0.905198C16.8997 0.902408 16.9038 0.899231 16.9078 0.895667C16.9116 0.892096 16.9152 0.888196 16.9183 0.883967C16.9215 0.879744 16.9243 0.875263 16.9266 0.870525C16.9289 0.865786 16.9307 0.860871 16.9322 0.85578C16.9336 0.850688 16.9345 0.845512 16.935 0.84025C16.9357 0.832396 16.9353 0.824595 16.9338 0.816849C16.9323 0.809103 16.9298 0.801707 16.9263 0.79466C16.9227 0.78762 16.9183 0.781191 16.913 0.775373C16.9077 0.769562 16.9017 0.764586 16.895 0.760445C16.8883 0.756304 16.8811 0.753154 16.8736 0.750995C16.866 0.748843 16.8583 0.74776 16.8505 0.747747C16.8426 0.74774 16.8349 0.748806 16.8273 0.750944C16.8198 0.753082 16.8126 0.756216 16.8059 0.760343C16.7992 0.764464 16.7932 0.769426 16.7878 0.775231C16.7825 0.781028 16.7781 0.787447 16.7745 0.794487C16.771 0.80152 16.7685 0.808907 16.7669 0.816646C16.7654 0.824392 16.765 0.832192 16.7657 0.840047ZM16.9688 1.52243C16.9681 1.52849 16.9683 1.53451 16.9694 1.54052C16.9704 1.54652 16.9723 1.55227 16.9749 1.55774C16.9776 1.56323 16.9809 1.56824 16.985 1.57279C16.989 1.57732 16.9936 1.58121 16.9988 1.58445C17.0039 1.58768 17.0094 1.59013 17.0152 1.59182C17.0211 1.59349 17.0271 1.59433 17.0332 1.59433C17.0392 1.59433 17.0452 1.59349 17.0511 1.59181C17.0569 1.59012 17.0624 1.58766 17.0675 1.58442C17.0727 1.58119 17.0773 1.57731 17.0813 1.57278C17.0854 1.56824 17.0888 1.56323 17.0915 1.55774C17.0941 1.55226 17.096 1.54651 17.097 1.5405C17.0981 1.5345 17.0983 1.52846 17.0976 1.5224C17.0972 1.51846 17.0964 1.51458 17.0953 1.51078C17.0941 1.50698 17.0927 1.50331 17.0909 1.49977C17.0891 1.49624 17.0869 1.49291 17.0845 1.48976C17.0821 1.48662 17.0794 1.48372 17.0765 1.48108C17.0735 1.47842 17.0703 1.47606 17.067 1.47399C17.0636 1.47192 17.0601 1.47017 17.0564 1.46875C17.0526 1.46734 17.0488 1.46627 17.045 1.46555C17.0411 1.46482 17.0371 1.46446 17.0332 1.46446C17.0293 1.46446 17.0254 1.46482 17.0214 1.46555C17.0175 1.46627 17.0137 1.46734 17.01 1.46875C17.0063 1.47018 17.0028 1.47193 16.9994 1.474C16.996 1.47607 16.9929 1.47843 16.9899 1.48109C16.987 1.48373 16.9843 1.48663 16.9819 1.48978C16.9795 1.49293 16.9773 1.49627 16.9755 1.4998C16.9738 1.50333 16.9723 1.507 16.9712 1.5108C16.97 1.51461 16.9692 1.51849 16.9688 1.52243ZM25.5376 1.78647C25.5341 1.79203 25.5313 1.79796 25.5293 1.80426C25.5274 1.81056 25.5262 1.81701 25.526 1.82362C25.5257 1.83022 25.5263 1.83673 25.5278 1.84317C25.5293 1.8496 25.5316 1.85573 25.5347 1.86156C25.5378 1.86738 25.5416 1.8727 25.5462 1.8775C25.5507 1.8823 25.5558 1.88642 25.5614 1.88986C25.567 1.8933 25.573 1.89594 25.5793 1.89778C25.5856 1.89962 25.5921 1.9006 25.5987 1.90071C25.6053 1.90083 25.6118 1.90008 25.6182 1.89845C25.6245 1.89682 25.6306 1.89439 25.6364 1.89114C25.6421 1.88789 25.6473 1.88394 25.652 1.8793C25.6567 1.87465 25.6607 1.86947 25.664 1.86376C25.6664 1.8596 25.6684 1.85526 25.67 1.85071C25.6715 1.84617 25.6726 1.84153 25.6732 1.83677C25.6739 1.83201 25.6741 1.82724 25.6738 1.82245C25.6736 1.81765 25.6729 1.81293 25.6717 1.80827C25.6705 1.80361 25.6689 1.79912 25.6668 1.79478C25.6648 1.79044 25.6624 1.78634 25.6595 1.78248C25.6567 1.77861 25.6535 1.77506 25.65 1.77182C25.6464 1.76857 25.6426 1.7657 25.6385 1.7632C25.6344 1.7607 25.6301 1.75862 25.6256 1.75695C25.6211 1.75528 25.6165 1.75407 25.6118 1.7533C25.607 1.75253 25.6023 1.75222 25.5976 1.75238C25.5928 1.75254 25.588 1.75316 25.5833 1.75423C25.5787 1.75531 25.5741 1.75683 25.5697 1.75878C25.5654 1.76074 25.5613 1.76309 25.5573 1.76586C25.5534 1.76862 25.5498 1.77174 25.5465 1.77521C25.5432 1.77868 25.5402 1.78243 25.5376 1.78647ZM53.7125 4.64345C53.7126 4.64683 53.7131 4.65017 53.7139 4.65347C53.7147 4.65677 53.7158 4.65996 53.7172 4.66305C53.7186 4.66613 53.7203 4.66905 53.7221 4.67181C53.7241 4.67458 53.7263 4.67713 53.7288 4.67947C53.7312 4.68181 53.7338 4.68389 53.7367 4.68572C53.7395 4.68756 53.7425 4.6891 53.7457 4.69036C53.7488 4.69161 53.752 4.69256 53.7554 4.6932C53.7587 4.69383 53.762 4.69414 53.7654 4.69413C53.7688 4.69413 53.7722 4.6938 53.7755 4.69316C53.7788 4.69251 53.782 4.69155 53.7851 4.69029C53.7882 4.68902 53.7912 4.68746 53.7941 4.68562C53.7969 4.68378 53.7995 4.68169 53.802 4.67934C53.8044 4.677 53.8066 4.67444 53.8086 4.67167C53.8105 4.6689 53.8121 4.66597 53.8136 4.66288C53.8149 4.6598 53.816 4.65661 53.8168 4.65332C53.8176 4.65002 53.818 4.64668 53.8181 4.6433C53.8183 4.63853 53.8179 4.63383 53.8168 4.62918C53.8157 4.62453 53.814 4.62011 53.8117 4.61592C53.8095 4.61172 53.8067 4.60791 53.8034 4.60447C53.8001 4.60103 53.7964 4.59809 53.7923 4.59565C53.7882 4.59321 53.7839 4.59136 53.7793 4.59009C53.7747 4.58884 53.77 4.58821 53.7652 4.58822C53.7605 4.58823 53.7558 4.58887 53.7512 4.59014C53.7466 4.59142 53.7423 4.59328 53.7382 4.59574C53.7341 4.59818 53.7304 4.60113 53.7271 4.60457C53.7238 4.60802 53.721 4.61185 53.7188 4.61605C53.7166 4.62025 53.7149 4.62467 53.7138 4.62932C53.7127 4.63398 53.7123 4.63869 53.7125 4.64345ZM58.7177 5.32324C58.7174 5.32799 58.7177 5.33269 58.7186 5.33734C58.7196 5.342 58.7211 5.34644 58.7233 5.35067C58.7255 5.3549 58.7282 5.35876 58.7314 5.36224C58.7347 5.36572 58.7383 5.36869 58.7424 5.37117C58.7465 5.37365 58.7507 5.37553 58.7553 5.37681C58.7599 5.3781 58.7646 5.37874 58.7693 5.37874C58.774 5.37874 58.7787 5.3781 58.7833 5.37681C58.7879 5.37553 58.7922 5.37365 58.7962 5.37117C58.8003 5.36869 58.8039 5.36572 58.8072 5.36224C58.8104 5.35876 58.813 5.35491 58.8152 5.35068C58.8174 5.34645 58.819 5.34201 58.82 5.33735C58.8209 5.3327 58.8212 5.328 58.8209 5.32325C58.8207 5.32001 58.8201 5.31681 58.8193 5.31367C58.8185 5.31052 58.8174 5.30748 58.816 5.30454C58.8146 5.30161 58.8129 5.29883 58.811 5.29621C58.8091 5.29359 58.8069 5.29116 58.8045 5.28894C58.8022 5.28673 58.7996 5.28475 58.7969 5.28302C58.7942 5.28128 58.7913 5.27982 58.7883 5.27863C58.7852 5.27743 58.7821 5.27653 58.7789 5.27593C58.7758 5.27532 58.7725 5.27501 58.7693 5.27501C58.766 5.27501 58.7628 5.27532 58.7597 5.27593C58.7565 5.27653 58.7534 5.27743 58.7503 5.27863C58.7473 5.27982 58.7445 5.28128 58.7417 5.28302C58.739 5.28475 58.7364 5.28672 58.7341 5.28894C58.7317 5.29116 58.7295 5.29358 58.7276 5.2962C58.7257 5.29882 58.724 5.3016 58.7226 5.30454C58.7212 5.30748 58.7201 5.31051 58.7192 5.31366C58.7184 5.3168 58.7179 5.32 58.7177 5.32324ZM6.46288 7.07535C6.11984 7.56331 6.30169 8.82862 6.30674 9.45839L6.31645 92.9439L6.26145 120.733C6.25845 122.537 6.27656 124.343 6.23703 126.145C6.21258 127.26 6.03015 129.63 6.21405 130.596C6.21729 130.614 6.22231 130.63 6.22645 130.647C6.56957 130.868 7.3459 130.745 7.75943 130.74C17.4748 130.672 27.1902 130.676 36.9054 130.751L73.4277 130.745L90.5046 130.85C92.093 130.864 93.6814 130.871 95.2697 130.869C95.8373 130.869 96.5447 130.955 97.0914 130.844C97.1662 130.829 97.2275 130.798 97.2952 130.765L97.3699 130.671L97.3818 130.718C97.613 130.054 97.4691 124.877 97.4686 123.771L97.4669 107.923L97.3422 17.8933C97.3275 15.5841 97.2501 13.279 97.2169 10.9711C97.2042 10.0851 97.4056 8.08187 97.1375 7.34037C96.9198 7.11906 96.7048 7.13675 96.4089 7.13421L37.8678 7.13513L17.6295 7.10272C15.2217 7.07391 12.8138 7.06618 10.4058 7.07954C9.09899 7.07446 7.76676 7.0087 6.46288 7.07535ZM103.071 127.763C103.07 127.767 103.071 127.772 103.072 127.777C103.073 127.782 103.074 127.786 103.077 127.791C103.079 127.795 103.082 127.799 103.085 127.802C103.088 127.806 103.092 127.809 103.096 127.811C103.1 127.814 103.105 127.816 103.109 127.818C103.114 127.819 103.119 127.82 103.124 127.82C103.128 127.82 103.133 127.819 103.138 127.818C103.143 127.816 103.147 127.814 103.151 127.811C103.155 127.809 103.159 127.806 103.162 127.802C103.166 127.799 103.168 127.795 103.17 127.79C103.172 127.786 103.174 127.782 103.174 127.777C103.176 127.772 103.176 127.767 103.175 127.763C103.175 127.759 103.175 127.756 103.173 127.752C103.173 127.75 103.172 127.747 103.17 127.743C103.169 127.74 103.167 127.738 103.165 127.735C103.163 127.732 103.161 127.73 103.159 127.728C103.157 127.726 103.154 127.724 103.151 127.722C103.148 127.72 103.146 127.718 103.143 127.718C103.14 127.716 103.137 127.715 103.134 127.715C103.13 127.714 103.127 127.714 103.124 127.714C103.12 127.714 103.117 127.714 103.114 127.715C103.11 127.715 103.107 127.716 103.104 127.717C103.101 127.718 103.098 127.72 103.095 127.722C103.093 127.723 103.09 127.725 103.087 127.728C103.085 127.73 103.083 127.732 103.081 127.735C103.079 127.738 103.077 127.74 103.076 127.743C103.075 127.747 103.074 127.75 103.073 127.752C103.072 127.756 103.071 127.759 103.071 127.763ZM25.4124 136.507C25.4067 136.51 25.4012 136.514 25.3961 136.519C25.3909 136.524 25.386 136.529 25.3814 136.533C25.3769 136.539 25.3727 136.544 25.3689 136.55C25.3652 136.556 25.3618 136.562 25.3588 136.568C25.3558 136.574 25.3533 136.58 25.3512 136.586C25.3491 136.593 25.3474 136.6 25.3462 136.607C25.345 136.613 25.3442 136.62 25.344 136.627C25.3436 136.634 25.3438 136.641 25.3445 136.647C25.3451 136.654 25.3463 136.661 25.3478 136.668C25.3494 136.674 25.3514 136.681 25.3539 136.687C25.3564 136.694 25.3592 136.7 25.3626 136.705C25.3659 136.711 25.3696 136.717 25.3737 136.723C25.3778 136.729 25.3822 136.734 25.387 136.739C25.3919 136.744 25.397 136.748 25.4025 136.752C25.4079 136.756 25.4136 136.76 25.4195 136.763C25.4255 136.767 25.4316 136.77 25.438 136.773C25.4444 136.775 25.4509 136.777 25.4575 136.779C25.4641 136.781 25.4708 136.782 25.4776 136.783C25.4844 136.783 25.4912 136.784 25.498 136.784C25.5049 136.783 25.5117 136.782 25.5184 136.782C25.5252 136.78 25.5319 136.779 25.5384 136.777C25.5449 136.775 25.5513 136.772 25.5574 136.77C25.5637 136.767 25.5697 136.763 25.5754 136.759C25.5811 136.756 25.5866 136.752 25.5918 136.747C25.5953 136.744 25.5987 136.74 25.6019 136.737C25.6052 136.734 25.6083 136.73 25.6112 136.727C25.6141 136.723 25.6168 136.72 25.6194 136.716C25.622 136.711 25.6243 136.707 25.6265 136.703C25.6287 136.699 25.6306 136.695 25.6324 136.69C25.6342 136.686 25.6357 136.682 25.6371 136.677C25.6385 136.673 25.6396 136.668 25.6405 136.664C25.6415 136.659 25.6422 136.654 25.6428 136.649C25.6432 136.645 25.6435 136.64 25.6436 136.635C25.6436 136.631 25.6435 136.627 25.6432 136.622C25.6428 136.617 25.6422 136.612 25.6413 136.608C25.6405 136.603 25.6395 136.598 25.6383 136.593C25.637 136.589 25.6355 136.585 25.6339 136.58C25.6323 136.576 25.6304 136.572 25.6283 136.568C25.6263 136.563 25.6241 136.559 25.6216 136.555C25.6191 136.551 25.6165 136.548 25.6137 136.543C25.6109 136.539 25.608 136.536 25.6048 136.532C25.6017 136.529 25.5984 136.525 25.5949 136.522C25.5915 136.519 25.5879 136.517 25.5841 136.514C25.5803 136.511 25.5765 136.508 25.5725 136.506C25.5685 136.503 25.5644 136.501 25.5602 136.499C25.556 136.497 25.5517 136.495 25.5473 136.493C25.543 136.491 25.5385 136.49 25.534 136.488C25.5295 136.487 25.5249 136.486 25.5203 136.485C25.5157 136.485 25.511 136.484 25.5064 136.483C25.5017 136.483 25.497 136.483 25.4922 136.483C25.4876 136.483 25.4829 136.483 25.4782 136.483C25.4736 136.484 25.4689 136.485 25.4643 136.485C25.4597 136.487 25.4552 136.488 25.4507 136.489C25.4462 136.491 25.4417 136.492 25.4374 136.494C25.4331 136.496 25.4288 136.498 25.4246 136.5C25.4204 136.502 25.4163 136.504 25.4124 136.507ZM15.9434 136.728C15.942 136.734 15.9412 136.74 15.9409 136.746C15.9407 136.753 15.9411 136.759 15.942 136.765C15.943 136.772 15.9446 136.778 15.9468 136.784C15.949 136.79 15.9517 136.796 15.9549 136.801C15.9582 136.807 15.9619 136.812 15.9662 136.816C15.9705 136.82 15.9751 136.825 15.9802 136.829C15.9852 136.833 15.9906 136.836 15.9964 136.839C16.002 136.841 16.0079 136.844 16.014 136.845C16.0201 136.846 16.0263 136.847 16.0326 136.848C16.0388 136.849 16.0451 136.848 16.0513 136.847C16.0575 136.846 16.0636 136.845 16.0696 136.843C16.0756 136.841 16.0813 136.838 16.0867 136.836C16.0922 136.832 16.0974 136.829 16.1022 136.825C16.1069 136.82 16.1113 136.816 16.1152 136.811C16.1191 136.806 16.1225 136.8 16.1253 136.795C16.1283 136.79 16.1306 136.784 16.1323 136.778C16.1349 136.77 16.1362 136.761 16.1363 136.752C16.1365 136.743 16.1356 136.735 16.1335 136.726C16.1313 136.718 16.1281 136.709 16.1238 136.701C16.1195 136.694 16.1142 136.687 16.1081 136.681C16.1019 136.675 16.095 136.669 16.0875 136.665C16.0799 136.661 16.0718 136.658 16.0634 136.655C16.0549 136.653 16.0463 136.651 16.0376 136.651C16.0288 136.651 16.0202 136.653 16.0118 136.655C16.0034 136.658 15.9955 136.662 15.988 136.666C15.9805 136.67 15.9737 136.676 15.9677 136.682C15.9618 136.689 15.9567 136.696 15.9526 136.703C15.9485 136.711 15.9454 136.719 15.9434 136.728ZM16.8016 137.403C16.7946 137.411 16.7888 137.42 16.7842 137.43C16.7796 137.44 16.7765 137.45 16.7746 137.461C16.7727 137.472 16.7723 137.483 16.7734 137.494C16.7744 137.504 16.7769 137.515 16.7807 137.525C16.7846 137.535 16.7897 137.545 16.7961 137.554C16.8024 137.562 16.8098 137.57 16.8182 137.577C16.8266 137.584 16.8358 137.589 16.8457 137.593C16.8556 137.598 16.8659 137.601 16.8766 137.603C16.8873 137.604 16.898 137.604 16.9088 137.604C16.9196 137.602 16.93 137.599 16.9401 137.595C16.9502 137.591 16.9595 137.586 16.9682 137.579C16.9769 137.573 16.9845 137.566 16.9912 137.557C16.9936 137.553 16.9959 137.55 16.998 137.547C17.0001 137.544 17.002 137.54 17.0038 137.536C17.0055 137.533 17.0071 137.53 17.0085 137.526C17.0099 137.522 17.0112 137.518 17.0123 137.515C17.0134 137.511 17.0142 137.507 17.0149 137.503C17.0156 137.499 17.0161 137.496 17.0164 137.492C17.0167 137.487 17.0168 137.483 17.0168 137.479C17.0167 137.475 17.0164 137.471 17.0159 137.468C17.0155 137.464 17.0149 137.46 17.014 137.456C17.0132 137.452 17.0122 137.448 17.011 137.445C17.0098 137.441 17.0085 137.437 17.0069 137.433C17.0053 137.43 17.0036 137.426 17.0016 137.422C16.9997 137.419 16.9977 137.416 16.9954 137.413C16.9932 137.41 16.9908 137.406 16.9883 137.403C16.9858 137.4 16.9831 137.397 16.9803 137.395C16.9774 137.392 16.9745 137.389 16.9715 137.387C16.9684 137.384 16.9652 137.382 16.9619 137.38C16.9587 137.377 16.9553 137.375 16.9518 137.373C16.9483 137.371 16.9447 137.37 16.9411 137.368C16.9374 137.367 16.9337 137.366 16.9299 137.364C16.9262 137.364 16.9224 137.363 16.9184 137.362C16.9146 137.361 16.9107 137.36 16.9068 137.36C16.9029 137.359 16.899 137.359 16.895 137.359C16.8911 137.359 16.8871 137.359 16.8832 137.36C16.8793 137.36 16.8754 137.361 16.8715 137.362C16.8677 137.363 16.8638 137.364 16.86 137.364C16.8563 137.366 16.8526 137.367 16.849 137.368C16.8453 137.37 16.8417 137.371 16.8382 137.373C16.8348 137.375 16.8314 137.377 16.8281 137.38C16.8247 137.382 16.8215 137.384 16.8185 137.387C16.8155 137.389 16.8125 137.391 16.8097 137.394C16.8068 137.397 16.8041 137.4 16.8016 137.403ZM17.2119 137.386C17.2075 137.391 17.2038 137.396 17.201 137.402C17.1981 137.408 17.1961 137.414 17.195 137.421C17.1939 137.428 17.1937 137.435 17.1944 137.442C17.1951 137.448 17.1967 137.455 17.1992 137.461C17.2016 137.467 17.2048 137.473 17.2089 137.478C17.2129 137.484 17.2175 137.488 17.2228 137.493C17.2281 137.497 17.2338 137.5 17.24 137.502C17.2462 137.504 17.2526 137.506 17.2592 137.507C17.2658 137.507 17.2724 137.507 17.279 137.507C17.2856 137.505 17.292 137.503 17.2981 137.501C17.3041 137.498 17.3097 137.494 17.3148 137.489C17.3199 137.485 17.3244 137.481 17.3281 137.475C17.3308 137.471 17.333 137.467 17.3348 137.463C17.3367 137.459 17.3381 137.455 17.3391 137.45C17.3401 137.445 17.3407 137.441 17.3409 137.437C17.3411 137.432 17.3408 137.427 17.34 137.422C17.3393 137.418 17.3382 137.413 17.3366 137.409C17.335 137.404 17.3331 137.4 17.3308 137.396C17.3284 137.392 17.3257 137.388 17.3226 137.385C17.3195 137.381 17.3162 137.378 17.3125 137.375C17.3088 137.373 17.3049 137.37 17.3007 137.368C17.2966 137.366 17.2923 137.365 17.2877 137.363C17.2833 137.362 17.2787 137.361 17.2741 137.36C17.2694 137.36 17.2648 137.36 17.2602 137.36C17.2555 137.361 17.251 137.362 17.2465 137.363C17.242 137.365 17.2377 137.366 17.2336 137.368C17.2295 137.37 17.2256 137.373 17.2219 137.376C17.2183 137.379 17.2149 137.382 17.2119 137.386ZM25.7967 137.378L25.625 137.54L25.7955 137.515L25.9781 137.544C25.9152 137.466 25.8847 137.432 25.7967 137.378ZM16.2121 137.605C16.2119 137.611 16.2125 137.617 16.2139 137.623C16.2153 137.629 16.2175 137.635 16.2205 137.64C16.2235 137.646 16.2271 137.651 16.2315 137.655C16.2357 137.66 16.2405 137.663 16.2459 137.667C16.2512 137.67 16.2569 137.672 16.263 137.674C16.269 137.676 16.2752 137.677 16.2814 137.677C16.2877 137.677 16.2938 137.676 16.2999 137.674C16.306 137.672 16.3116 137.67 16.317 137.667C16.3223 137.663 16.3272 137.66 16.3315 137.655C16.3358 137.651 16.3394 137.646 16.3424 137.64C16.3454 137.635 16.3476 137.629 16.3491 137.623C16.3505 137.617 16.3511 137.611 16.3509 137.605C16.3508 137.6 16.3502 137.595 16.3492 137.591C16.3482 137.587 16.3467 137.583 16.3449 137.579C16.3432 137.575 16.341 137.571 16.3384 137.567C16.3358 137.563 16.333 137.56 16.3298 137.557C16.3266 137.554 16.3231 137.551 16.3193 137.549C16.3156 137.546 16.3117 137.544 16.3075 137.542C16.3034 137.541 16.2991 137.54 16.2947 137.538C16.2904 137.538 16.286 137.537 16.2815 137.537C16.2771 137.537 16.2726 137.538 16.2682 137.538C16.2639 137.539 16.2597 137.54 16.2555 137.542C16.2513 137.544 16.2474 137.546 16.2437 137.549C16.2399 137.551 16.2365 137.554 16.2333 137.557C16.23 137.56 16.2271 137.563 16.2246 137.567C16.222 137.571 16.2198 137.575 16.2181 137.579C16.2162 137.583 16.2148 137.587 16.2138 137.591C16.2128 137.595 16.2122 137.6 16.2121 137.605ZM25.3506 137.606C25.35 137.612 25.3504 137.619 25.3517 137.625C25.353 137.632 25.3551 137.638 25.3581 137.644C25.3611 137.65 25.3648 137.655 25.3693 137.661C25.3738 137.665 25.3789 137.669 25.3845 137.673C25.3901 137.676 25.3961 137.679 25.4026 137.681C25.4089 137.682 25.4154 137.683 25.4221 137.683C25.4287 137.683 25.4352 137.682 25.4416 137.681C25.448 137.679 25.454 137.676 25.4596 137.673C25.4653 137.669 25.4703 137.665 25.4749 137.661C25.4793 137.655 25.4831 137.65 25.486 137.644C25.4891 137.638 25.4912 137.632 25.4924 137.625C25.4937 137.619 25.4941 137.612 25.4936 137.606C25.4932 137.601 25.4924 137.596 25.4912 137.592C25.4901 137.588 25.4885 137.584 25.4866 137.58C25.4846 137.576 25.4823 137.572 25.4797 137.569C25.477 137.565 25.474 137.561 25.4707 137.559C25.4675 137.555 25.4639 137.553 25.4602 137.551C25.4564 137.548 25.4524 137.546 25.4482 137.544C25.444 137.542 25.4398 137.541 25.4354 137.54C25.431 137.54 25.4265 137.539 25.4221 137.539C25.4176 137.539 25.4132 137.54 25.4088 137.54C25.4044 137.541 25.4001 137.542 25.396 137.544C25.3918 137.546 25.3878 137.548 25.384 137.551C25.3802 137.553 25.3767 137.555 25.3734 137.559C25.3701 137.561 25.3671 137.565 25.3645 137.569C25.3618 137.572 25.3595 137.576 25.3576 137.58C25.3556 137.584 25.3541 137.588 25.3529 137.592C25.3517 137.596 25.3509 137.601 25.3506 137.606ZM88.2335 137.6C88.234 137.603 88.2347 137.606 88.2356 137.609C88.2366 137.611 88.2378 137.614 88.2392 137.616C88.2406 137.618 88.2422 137.621 88.244 137.623C88.2458 137.625 88.2477 137.627 88.2498 137.629C88.252 137.631 88.2543 137.633 88.2567 137.634C88.2591 137.635 88.2616 137.636 88.2642 137.637C88.2668 137.638 88.2695 137.639 88.2722 137.639C88.275 137.64 88.2777 137.64 88.2805 137.64C88.2833 137.64 88.286 137.64 88.2887 137.639C88.2915 137.639 88.2941 137.638 88.2968 137.637C88.2993 137.636 88.3018 137.635 88.3043 137.634C88.3067 137.633 88.3089 137.631 88.3111 137.629C88.3133 137.628 88.3152 137.626 88.317 137.624C88.3188 137.622 88.3204 137.619 88.3219 137.617C88.3233 137.615 88.3245 137.612 88.3255 137.61C88.3265 137.607 88.3273 137.604 88.3279 137.601C88.3289 137.597 88.3291 137.592 88.3287 137.587C88.3283 137.582 88.3271 137.578 88.3253 137.573C88.3235 137.569 88.3211 137.565 88.3181 137.561C88.3151 137.557 88.3116 137.554 88.3076 137.552C88.3037 137.549 88.2994 137.547 88.2948 137.545C88.2903 137.544 88.2857 137.543 88.2809 137.543C88.2762 137.543 88.2716 137.544 88.267 137.545C88.2624 137.547 88.2581 137.549 88.2542 137.552C88.2503 137.554 88.2468 137.557 88.2438 137.561C88.2408 137.565 88.2384 137.569 88.2365 137.573C88.2347 137.577 88.2335 137.581 88.233 137.586C88.2324 137.591 88.2326 137.596 88.2335 137.6Z" fill="#6D538B"/>
<path d="M68.908 19.724C68.876 19.708 68.828 19.68 68.764 19.64C68.708 19.592 68.648 19.54 68.584 19.484C68.528 19.42 68.488 19.364 68.464 19.316C68.44 19.276 68.44 19.204 68.464 19.1C68.496 18.996 68.528 18.944 68.56 18.944C68.584 18.96 68.624 18.932 68.68 18.86C68.736 18.788 68.792 18.712 68.848 18.632C68.904 18.544 68.932 18.492 68.932 18.476C68.94 18.444 68.96 18.42 68.992 18.404C69.032 18.38 69.068 18.356 69.1 18.332C69.14 18.268 69.192 18.204 69.256 18.14C69.328 18.068 69.384 18.008 69.424 17.96C69.488 17.88 69.604 17.76 69.772 17.6C69.94 17.44 70.104 17.276 70.264 17.108C70.432 16.924 70.58 16.764 70.708 16.628C70.836 16.484 70.904 16.384 70.912 16.328C70.912 16.328 70.924 16.316 70.948 16.292C70.98 16.26 71.016 16.232 71.056 16.208C71.096 16.184 71.148 16.144 71.212 16.088C71.284 16.032 71.344 15.98 71.392 15.932C71.408 15.868 71.452 15.78 71.524 15.668C71.604 15.548 71.684 15.448 71.764 15.368C71.828 15.272 71.888 15.168 71.944 15.056C72 14.936 72.036 14.848 72.052 14.792C72.076 14.704 72.076 14.652 72.052 14.636C72.028 14.612 71.928 14.572 71.752 14.516C71.56 14.452 71.348 14.428 71.116 14.444C70.892 14.452 70.64 14.556 70.36 14.756C70.248 14.78 70.144 14.812 70.048 14.852C69.96 14.892 69.884 14.908 69.82 14.9C69.788 14.884 69.752 14.848 69.712 14.792C69.672 14.736 69.628 14.684 69.58 14.636L69.46 14.384L69.832 14.18C70.16 13.972 70.456 13.828 70.72 13.748C70.992 13.668 71.24 13.664 71.464 13.736C71.552 13.736 71.632 13.748 71.704 13.772C71.776 13.788 71.812 13.796 71.812 13.796C71.876 13.788 71.956 13.824 72.052 13.904C72.148 13.976 72.24 14.068 72.328 14.18C72.424 14.292 72.496 14.404 72.544 14.516C72.672 14.708 72.712 14.912 72.664 15.128C72.624 15.336 72.504 15.588 72.304 15.884C72.264 15.932 72.176 16.032 72.04 16.184C71.904 16.336 71.748 16.508 71.572 16.7C71.404 16.884 71.248 17.048 71.104 17.192C70.968 17.336 70.88 17.428 70.84 17.468C70.784 17.492 70.688 17.576 70.552 17.72C70.424 17.856 70.284 18.008 70.132 18.176C69.988 18.336 69.864 18.48 69.76 18.608C69.664 18.728 69.624 18.788 69.64 18.788C69.632 18.82 69.644 18.836 69.676 18.836C69.708 18.828 69.76 18.812 69.832 18.788C69.952 18.748 70.108 18.708 70.3 18.668C70.5 18.628 70.704 18.596 70.912 18.572C71.12 18.54 71.3 18.52 71.452 18.512C71.612 18.504 71.704 18.512 71.728 18.536C71.744 18.576 71.756 18.592 71.764 18.584C71.78 18.568 71.788 18.56 71.788 18.56C71.804 18.504 71.904 18.488 72.088 18.512C72.28 18.536 72.452 18.572 72.604 18.62C72.692 18.644 72.76 18.664 72.808 18.68C72.864 18.696 72.892 18.72 72.892 18.752C72.892 18.752 72.9 18.772 72.916 18.812C72.94 18.844 72.976 18.888 73.024 18.944C73.152 19.048 73.168 19.116 73.072 19.148C72.976 19.18 72.768 19.168 72.448 19.112C72.24 19.112 72.068 19.124 71.932 19.148C71.9 19.164 71.832 19.172 71.728 19.172C71.624 19.172 71.524 19.176 71.428 19.184C71.284 19.168 71.14 19.176 70.996 19.208C70.852 19.232 70.68 19.276 70.48 19.34C70.408 19.364 70.296 19.4 70.144 19.448C69.992 19.496 69.828 19.544 69.652 19.592C69.476 19.64 69.316 19.676 69.172 19.7C69.036 19.724 68.948 19.732 68.908 19.724ZM75.7623 19.748C75.7063 19.748 75.6183 19.724 75.4983 19.676C75.3863 19.62 75.2663 19.556 75.1383 19.484C75.0103 19.404 74.9063 19.328 74.8263 19.256C74.6503 19.088 74.5023 18.884 74.3823 18.644C74.2623 18.404 74.1783 18.148 74.1303 17.876C74.0823 17.596 74.0783 17.328 74.1183 17.072C74.2063 16.56 74.3983 16.056 74.6943 15.56C74.9903 15.056 75.3303 14.64 75.7143 14.312C75.9223 14.128 76.1103 13.988 76.2783 13.892C76.4463 13.788 76.6503 13.708 76.8903 13.652C76.9783 13.628 77.0743 13.616 77.1783 13.616C77.2823 13.608 77.3623 13.604 77.4183 13.604C77.5783 13.604 77.7383 13.636 77.8983 13.7C78.0583 13.764 78.1943 13.844 78.3063 13.94C78.4183 14.028 78.4743 14.112 78.4743 14.192C78.4743 14.248 78.4703 14.292 78.4623 14.324C78.4543 14.348 78.4183 14.344 78.3543 14.312H78.2343L78.3543 14.66C78.3863 14.724 78.4143 14.812 78.4383 14.924C78.4623 15.028 78.4743 15.124 78.4743 15.212C78.4743 15.284 78.4623 15.4 78.4383 15.56C78.4143 15.712 78.3823 15.876 78.3423 16.052C78.3023 16.228 78.2623 16.392 78.2223 16.544C78.1823 16.696 78.1463 16.808 78.1143 16.88C78.0903 16.928 78.0743 16.976 78.0663 17.024C78.0663 17.064 78.0663 17.1 78.0663 17.132C78.0343 17.188 77.9823 17.296 77.9103 17.456C77.8463 17.616 77.7983 17.728 77.7663 17.792C77.7343 17.824 77.7063 17.852 77.6823 17.876C77.6663 17.9 77.6743 17.928 77.7063 17.96C77.7063 17.976 77.6863 18.028 77.6463 18.116C77.6063 18.196 77.5623 18.272 77.5143 18.344C77.4743 18.416 77.4423 18.452 77.4183 18.452C77.4183 18.452 77.4063 18.456 77.3823 18.464C77.3663 18.464 77.3583 18.476 77.3583 18.5C77.3583 18.532 77.3063 18.616 77.2023 18.752C77.0983 18.88 76.9743 19.016 76.8303 19.16C76.7503 19.24 76.6383 19.328 76.4943 19.424C76.3583 19.512 76.2223 19.588 76.0863 19.652C75.9503 19.716 75.8423 19.748 75.7623 19.748ZM75.7263 18.992C75.8143 18.992 75.8983 18.98 75.9783 18.956C76.0583 18.924 76.1263 18.88 76.1823 18.824C76.3263 18.728 76.4943 18.572 76.6863 18.356C76.8783 18.132 77.0183 17.916 77.1063 17.708C77.1943 17.588 77.2623 17.464 77.3103 17.336C77.3663 17.2 77.4503 16.972 77.5623 16.652C77.6263 16.564 77.6703 16.456 77.6943 16.328C77.7183 16.2 77.7303 16.092 77.7303 16.004C77.7303 15.916 77.7303 15.796 77.7303 15.644C77.7383 15.492 77.7583 15.364 77.7903 15.26C77.7903 15.052 77.7863 14.916 77.7783 14.852C77.7703 14.78 77.7383 14.712 77.6823 14.648C77.6503 14.624 77.6063 14.6 77.5503 14.576C77.5023 14.552 77.4503 14.54 77.3943 14.54C77.3383 14.54 77.2343 14.572 77.0823 14.636C76.9303 14.692 76.8223 14.74 76.7583 14.78C76.7023 14.812 76.6383 14.816 76.5663 14.792C76.5023 14.768 76.4703 14.736 76.4703 14.696C76.4703 14.584 76.3983 14.576 76.2543 14.672C76.1103 14.76 75.9503 14.912 75.7743 15.128C75.6303 15.272 75.5063 15.42 75.4023 15.572C75.3063 15.716 75.2583 15.804 75.2583 15.836C75.2583 15.868 75.2463 15.908 75.2223 15.956C75.1983 16.004 75.1743 16.06 75.1503 16.124C75.1103 16.18 75.0623 16.272 75.0063 16.4C74.9503 16.528 74.8943 16.656 74.8383 16.784C74.7903 16.904 74.7583 16.996 74.7423 17.06C74.7423 17.092 74.7423 17.18 74.7423 17.324C74.7423 17.46 74.7423 17.588 74.7423 17.708C74.7423 17.844 74.7463 17.96 74.7543 18.056C74.7703 18.152 74.7903 18.236 74.8143 18.308C74.8383 18.372 74.8703 18.444 74.9103 18.524C74.9423 18.58 74.9903 18.648 75.0543 18.728C75.1263 18.8 75.1743 18.852 75.1983 18.884C75.2863 18.964 75.3583 19.012 75.4143 19.028C75.4703 19.036 75.5743 19.024 75.7263 18.992ZM79.7127 19.724C79.6807 19.708 79.6327 19.68 79.5687 19.64C79.5127 19.592 79.4527 19.54 79.3887 19.484C79.3327 19.42 79.2927 19.364 79.2687 19.316C79.2447 19.276 79.2447 19.204 79.2687 19.1C79.3007 18.996 79.3327 18.944 79.3647 18.944C79.3887 18.96 79.4287 18.932 79.4847 18.86C79.5407 18.788 79.5967 18.712 79.6527 18.632C79.7087 18.544 79.7367 18.492 79.7367 18.476C79.7447 18.444 79.7647 18.42 79.7967 18.404C79.8367 18.38 79.8727 18.356 79.9047 18.332C79.9447 18.268 79.9967 18.204 80.0607 18.14C80.1327 18.068 80.1887 18.008 80.2287 17.96C80.2927 17.88 80.4087 17.76 80.5767 17.6C80.7447 17.44 80.9087 17.276 81.0687 17.108C81.2367 16.924 81.3847 16.764 81.5127 16.628C81.6407 16.484 81.7087 16.384 81.7167 16.328C81.7167 16.328 81.7287 16.316 81.7527 16.292C81.7847 16.26 81.8207 16.232 81.8607 16.208C81.9007 16.184 81.9527 16.144 82.0167 16.088C82.0887 16.032 82.1487 15.98 82.1967 15.932C82.2127 15.868 82.2567 15.78 82.3287 15.668C82.4087 15.548 82.4887 15.448 82.5687 15.368C82.6327 15.272 82.6927 15.168 82.7487 15.056C82.8047 14.936 82.8407 14.848 82.8567 14.792C82.8807 14.704 82.8807 14.652 82.8567 14.636C82.8327 14.612 82.7327 14.572 82.5567 14.516C82.3647 14.452 82.1527 14.428 81.9207 14.444C81.6967 14.452 81.4447 14.556 81.1647 14.756C81.0527 14.78 80.9487 14.812 80.8527 14.852C80.7647 14.892 80.6887 14.908 80.6247 14.9C80.5927 14.884 80.5567 14.848 80.5167 14.792C80.4767 14.736 80.4327 14.684 80.3847 14.636L80.2647 14.384L80.6367 14.18C80.9647 13.972 81.2607 13.828 81.5247 13.748C81.7967 13.668 82.0447 13.664 82.2687 13.736C82.3567 13.736 82.4367 13.748 82.5087 13.772C82.5807 13.788 82.6167 13.796 82.6167 13.796C82.6807 13.788 82.7607 13.824 82.8567 13.904C82.9527 13.976 83.0447 14.068 83.1327 14.18C83.2287 14.292 83.3007 14.404 83.3487 14.516C83.4767 14.708 83.5167 14.912 83.4687 15.128C83.4287 15.336 83.3087 15.588 83.1087 15.884C83.0687 15.932 82.9807 16.032 82.8447 16.184C82.7087 16.336 82.5527 16.508 82.3767 16.7C82.2087 16.884 82.0527 17.048 81.9087 17.192C81.7727 17.336 81.6847 17.428 81.6447 17.468C81.5887 17.492 81.4927 17.576 81.3567 17.72C81.2287 17.856 81.0887 18.008 80.9367 18.176C80.7927 18.336 80.6687 18.48 80.5647 18.608C80.4687 18.728 80.4287 18.788 80.4447 18.788C80.4367 18.82 80.4487 18.836 80.4807 18.836C80.5127 18.828 80.5647 18.812 80.6367 18.788C80.7567 18.748 80.9127 18.708 81.1047 18.668C81.3047 18.628 81.5087 18.596 81.7167 18.572C81.9247 18.54 82.1047 18.52 82.2567 18.512C82.4167 18.504 82.5087 18.512 82.5327 18.536C82.5487 18.576 82.5607 18.592 82.5687 18.584C82.5847 18.568 82.5927 18.56 82.5927 18.56C82.6087 18.504 82.7087 18.488 82.8927 18.512C83.0847 18.536 83.2567 18.572 83.4087 18.62C83.4967 18.644 83.5647 18.664 83.6127 18.68C83.6687 18.696 83.6967 18.72 83.6967 18.752C83.6967 18.752 83.7047 18.772 83.7207 18.812C83.7447 18.844 83.7807 18.888 83.8287 18.944C83.9567 19.048 83.9727 19.116 83.8767 19.148C83.7807 19.18 83.5727 19.168 83.2527 19.112C83.0447 19.112 82.8727 19.124 82.7367 19.148C82.7047 19.164 82.6367 19.172 82.5327 19.172C82.4287 19.172 82.3287 19.176 82.2327 19.184C82.0887 19.168 81.9447 19.176 81.8007 19.208C81.6567 19.232 81.4847 19.276 81.2847 19.34C81.2127 19.364 81.1007 19.4 80.9487 19.448C80.7967 19.496 80.6327 19.544 80.4567 19.592C80.2807 19.64 80.1207 19.676 79.9767 19.7C79.8407 19.724 79.7527 19.732 79.7127 19.724ZM85.211 19.712C85.067 19.608 84.995 19.52 84.995 19.448C84.963 19.4 84.927 19.376 84.887 19.376C84.863 19.384 84.839 19.36 84.815 19.304C84.799 19.248 84.783 19.184 84.767 19.112C84.759 19.032 84.759 18.976 84.767 18.944C84.799 18.88 84.847 18.844 84.911 18.836C84.975 18.82 85.035 18.828 85.091 18.86C85.155 18.884 85.191 18.928 85.199 18.992C85.215 19.056 85.275 19.108 85.379 19.148C85.491 19.188 85.635 19.204 85.811 19.196C86.035 19.188 86.267 19.132 86.507 19.028C86.755 18.924 86.983 18.792 87.191 18.632C87.407 18.472 87.579 18.308 87.707 18.14C87.763 18.028 87.815 17.88 87.863 17.696C87.911 17.512 87.943 17.348 87.959 17.204C87.975 17.06 87.963 16.988 87.923 16.988C87.923 16.988 87.915 16.96 87.899 16.904C87.891 16.848 87.875 16.788 87.851 16.724C87.811 16.604 87.719 16.484 87.575 16.364C87.431 16.236 87.291 16.144 87.155 16.088C87.099 16.072 86.995 16.06 86.843 16.052C86.699 16.036 86.567 16.036 86.447 16.052C86.319 16.06 86.203 16.06 86.099 16.052C86.003 16.044 85.955 16.04 85.955 16.04C85.915 16.032 85.855 16 85.775 15.944C85.703 15.888 85.635 15.828 85.571 15.764C85.507 15.7 85.475 15.648 85.475 15.608C85.491 15.552 85.531 15.464 85.595 15.344C85.659 15.216 85.735 15.076 85.823 14.924C85.919 14.764 86.019 14.616 86.123 14.48C86.227 14.336 86.327 14.216 86.423 14.12C86.663 13.856 86.935 13.66 87.239 13.532C87.551 13.396 87.871 13.336 88.199 13.352C88.431 13.36 88.595 13.38 88.691 13.412C88.795 13.436 88.895 13.512 88.991 13.64C89.055 13.752 89.083 13.852 89.075 13.94C89.067 14.028 89.035 14.088 88.979 14.12C88.923 14.152 88.847 14.144 88.751 14.096C88.639 14.024 88.483 13.996 88.283 14.012C88.091 14.028 87.887 14.068 87.671 14.132C87.503 14.196 87.323 14.3 87.131 14.444C86.947 14.58 86.835 14.692 86.795 14.78C86.763 14.804 86.739 14.828 86.723 14.852C86.715 14.876 86.695 14.884 86.663 14.876C86.663 14.876 86.651 14.892 86.627 14.924C86.603 14.948 86.591 14.976 86.591 15.008C86.551 15.056 86.523 15.092 86.507 15.116C86.499 15.132 86.479 15.124 86.447 15.092C86.447 15.092 86.447 15.104 86.447 15.128C86.447 15.152 86.443 15.18 86.435 15.212C86.427 15.268 86.431 15.316 86.447 15.356C86.471 15.388 86.559 15.412 86.711 15.428C86.911 15.46 87.063 15.492 87.167 15.524C87.271 15.548 87.423 15.62 87.623 15.74C87.847 15.868 88.027 16.04 88.163 16.256C88.299 16.464 88.391 16.7 88.439 16.964C88.495 17.228 88.503 17.496 88.463 17.768C88.439 17.944 88.415 18.08 88.391 18.176C88.367 18.272 88.299 18.404 88.187 18.572C88.003 18.828 87.779 19.056 87.515 19.256C87.251 19.448 86.975 19.6 86.687 19.712C86.399 19.816 86.123 19.872 85.859 19.88C85.603 19.888 85.387 19.832 85.211 19.712Z" fill="black"/>
<path d="M33.8631 68.7643C31.4799 72.2769 25.7265 78.8865 29.9021 83.0621C32.1714 85.3314 35.5419 86.8197 38.4384 88.061C43.5926 90.27 48.3685 91.8642 53.9648 92.7211C58.9261 93.4807 64.7522 93.5513 69.4911 91.5984C74.7356 89.4373 77.4398 84.3942 77.858 78.9104C78.0332 76.6135 77.8284 74.8552 76.46 72.9477C75.0351 70.9615 73.0807 68.8565 70.9103 67.6628C66.0545 64.9921 60.6338 63.2358 55.0768 63.2358C50.167 63.2358 44.9836 63.0648 40.1329 63.9136C37.8788 64.3081 35.0616 65.1332 33.1853 66.4978C32.3805 67.0831 31.0035 68.9613 31.0035 69.9081" stroke="#6D538B" stroke-linecap="round"/>
<path d="M39.5821 66.4771C36.9597 64.6216 35.1645 63.08 36.7543 59.6353C37.491 58.0392 39.7311 56.9678 41.3826 56.7969C43.6816 56.5591 44.9461 57.8024 46.5298 59.2329C47.5319 60.138 47.2374 61.4517 47.017 62.6643" stroke="#6D538B" stroke-linecap="round"/>
<path d="M65.3181 64.3801C65.3181 62.4319 67.3626 61.2568 68.8131 60.2072C70.7045 58.8387 72.1592 58.8516 74.3734 58.8516C76.5872 58.8516 80.1922 59.4712 80.3679 62.283C80.6427 66.6805 74.8833 68.3834 71.4185 68.3834" stroke="#6D538B" stroke-linecap="round"/>
<path d="M35.7693 72.959C37.1871 79.3018 43.5776 82.8003 48.7962 85.7529C51.0419 87.0235 53.7876 87.6475 56.284 88.2947C58.175 88.785 60.4235 89.0462 62.3738 88.6972C66.376 87.981 70.8466 85.061 70.8466 80.5845" stroke="#6D538B" stroke-linecap="round"/>
<path d="M34.8161 88.9727C35.029 91.5536 35.1945 94.9552 33.8206 97.3183C33.2185 98.354 32.5427 99.8129 31.5753 100.559C29.235 102.365 26.4993 103.593 24.0981 105.283C22.8866 106.135 22.4482 107.203 21.5774 108.322C20.8876 109.209 22.1307 109.819 22.8271 109.742C24.1977 109.589 24.754 108.842 25.7079 108.079C26.177 107.704 26.0468 108.955 26.0468 109.085C26.0468 109.741 26.0765 110.367 26.4281 110.938C27.0067 111.879 27.7746 111.812 28.6416 111.171C29.0138 110.896 30.893 108.393 31.4694 109.381C31.797 109.943 31.7162 110.595 31.9989 111.171C32.4161 112.022 32.9898 112.842 33.8629 113.279C34.7672 113.731 38.5203 115.036 39.0208 113.618C39.3938 112.561 39.3914 111.577 39.3914 110.472C39.3914 109.641 38.8431 108.958 38.6712 108.142C38.3502 106.617 38.2476 105.139 38.2476 103.567C38.2476 102.198 38.5959 100.98 38.9042 99.659C39.2204 98.304 39.1974 96.9337 39.4868 95.6026C39.7141 94.5566 39.9633 93.1888 39.9633 92.1182C39.9633 91.7386 40.1301 91.1995 40.387 90.9426C40.8978 90.4317 40.881 89.9096 41.2978 89.3539" stroke="#6D538B" stroke-linecap="round"/>
<path d="M59.0271 94.501C58.4563 97.0698 57.8636 98.9179 56.4217 101.152C55.6145 102.403 54.6319 103.633 54.0282 105.007C53.6038 105.973 53.2694 106.892 52.5878 107.697C52.3882 107.933 51.8974 108.467 51.7829 108.725C51.4868 109.391 51.5922 110.184 51.5922 110.896C51.5922 112.206 53.6993 111.515 54.2612 111.182C56.1143 110.082 55.1807 111.043 55.7863 112.315C56.3362 113.47 56.7899 113.197 57.7985 112.654C58.523 112.264 59.33 111.616 59.8532 110.981C60.3265 110.406 60.6455 111.357 60.9547 111.764C61.7825 112.856 63.3983 114.089 64.7039 114.476C65.6052 114.743 66.953 114.98 67.6905 114.243C68.6587 113.274 68.5922 110.901 68.273 109.689C67.5805 107.057 64.5774 106.343 63.4118 104.128C62.4462 102.294 62.364 100.187 61.929 98.2291C61.5636 96.5845 61.8867 95.1739 61.8867 93.5479" stroke="#6D538B" stroke-linecap="round"/>
<path d="M34.0536 64.9521C33.5945 62.5602 33.7433 59.8116 31.3212 58.7458C29.6794 58.0235 27.6188 58.0081 25.9727 58.6505C23.5945 59.5786 22.1412 61.3342 20.6137 63.3317C19.2314 65.1393 17.6647 67.246 16.981 69.4215C16.741 70.1851 16.2219 70.8198 15.9219 71.5609C15.6686 72.1868 15.6401 72.8528 15.3712 73.4885C15.0102 74.3415 14.3905 75.5144 14.2273 76.4116C13.5431 80.175 13.0835 83.8609 13.0835 87.7227C13.0835 88.8492 13.0132 89.9619 13.3589 91.0483C13.6554 91.9802 13.3615 92.9951 13.6554 93.9502C13.8854 94.6978 14.3484 95.1244 14.6086 95.6448" stroke="#6D538B" stroke-linecap="round"/>
<path d="M18.9933 82.6814C21.2639 80.59 23.3281 78.3223 26.4811 77.9155C27.1712 77.8264 27.8163 77.4969 28.5252 77.5342C29.6332 77.5925 29.2877 79.1835 29.2877 79.9066C29.2877 80.4622 28.9582 80.6673 28.7582 81.1563C28.5094 81.7643 28.4138 82.4991 28.1545 83.1474C27.5653 84.6204 26.9609 86.1694 26.0469 87.4897C25.2627 88.6223 24.3101 89.5771 23.5686 90.7305C23.4741 90.8775 22.7279 91.9595 22.912 92.012C23.229 92.1026 23.5961 92.1533 23.7592 92.5204C24.2307 93.5811 25.4136 94.1771 25.6762 95.3588C25.8903 96.3221 26.5609 97.0805 26.6188 98.123C26.6431 98.5606 26.9802 99.1152 27.0954 99.5528C27.2474 100.13 27.0606 100.761 27.2331 101.322C27.2542 101.39 27.5499 102.364 27.2754 102.285C26.4581 102.052 26.9371 101.225 25.9198 101.957C25.0582 102.577 22.8689 105.642 22.1494 103.81C21.814 102.957 21.8306 101.475 21.0479 100.834C20.6643 100.52 19.3467 101.669 18.9086 101.83C18.2282 102.08 17.4954 102.399 16.8221 102.698C16.4211 102.877 16.6901 102.029 16.4726 101.788C16.1335 101.411 14.1964 102.09 13.7931 102.116C12.736 102.184 11.6976 102.273 10.8065 101.66C8.65284 100.18 13.3656 97.0784 14.2274 96.2167" stroke="#6D538B" stroke-linecap="round"/>
<path d="M75.8032 71.4336C76.2998 70.7241 77.1332 70.4189 77.7202 69.8026C78.1064 69.3971 78.7208 68.7646 79.33 68.7646C80.3425 68.7646 80.6334 69.185 81.2258 70.0144C82.6691 72.035 82.0943 74.9468 82.0943 77.3645C82.0943 78.7692 81.5027 79.9789 81.3317 81.3467C81.141 82.8726 80.7246 84.8031 79.9761 86.1339C79.0408 87.7966 77.736 89.6557 77.1377 91.4505" stroke="#6D538B" stroke-linecap="round"/>
<path d="M74.4687 88.21C73.9395 88.7603 73.5553 89.2228 73.0284 89.7351C71.8285 90.9016 70.6883 92.0447 69.7663 93.4631C69.3831 94.0527 68.8692 94.8196 68.7602 95.5283C68.6994 95.9239 68.6408 96.5147 68.4107 96.831C68.2425 97.0623 68.3826 97.6615 68.3683 97.9325C68.3429 98.4156 67.9871 98.834 67.9871 99.3623C67.9871 100.347 67.9871 101.332 67.9871 102.317" stroke="#6D538B" stroke-linecap="round"/>
<path d="M66.0808 101.555C65.4417 101.82 63.6025 102.57 63.6025 103.27" stroke="#6D538B" stroke-linecap="round"/>
<path d="M64.5557 104.605C65.7291 104.903 66.762 104.796 67.9554 104.796C69.2371 104.796 69.0138 105.398 69.4381 106.448C70.0261 107.902 70.875 109.361 71.3657 110.833C71.4935 111.216 71.5621 111.795 71.8952 111.055C72.026 110.764 72.7664 108.82 73.2403 108.82C73.505 108.82 73.8616 109.517 73.9499 109.646C74.6079 110.614 75.268 111.537 76.1316 112.336C76.518 112.694 77.2652 113.397 77.8156 113.554C78.8729 113.857 79.8067 111.288 79.8067 110.525C79.8067 109.632 80.2644 109.371 81.0564 109.371C81.6622 109.371 85.3798 109.93 85.5152 109.456C85.8324 108.346 83.7219 107.336 83.0793 106.999C81.5744 106.209 79.9089 105.811 78.7052 104.563C78.1136 103.949 77.987 103.121 77.6673 102.402C77.1092 101.146 77.5073 98.9548 77.8579 97.6574C78.4112 95.6104 78.2644 93.5648 78.8111 91.5146C79.032 90.6863 78.5638 89.5709 78.8958 88.7821C79.1247 88.2387 79.2348 87.6601 79.2348 87.0664" stroke="#6D538B" stroke-linecap="round"/>
<path d="M37.8665 102.508C38.3494 102.942 39.3901 103.649 40.0058 103.8C41.5969 104.191 43.2934 104.96 44.9412 104.986C45.9785 105.003 47.0175 104.986 48.055 104.986C49.4868 104.986 50.8459 104.978 52.2596 104.711C53.4579 104.484 54.5936 104.041 55.7864 103.842" stroke="#6D538B" stroke-linecap="round"/>
<path d="M40.9165 61.3303C40.8611 61.4308 39.7727 63.3586 39.7727 63.1307C39.7727 62.7287 39.9079 62.35 40.154 62.0293C40.4663 61.6223 40.9012 61.3807 41.2554 61.0973C41.8394 60.6301 41.9602 62.8252 41.2978 63.046" stroke="#6D538B" stroke-linecap="round"/>
<path d="M71.2279 65.5238C69.458 65.8964 70.6336 62.506 71.8951 63.0667C73.9743 63.9908 69.5342 66.9465 69.3215 66.0957" stroke="#6D538B" stroke-linecap="round"/>
<path d="M44.9201 37.4999C45.1382 36.5839 45.4776 35.7782 45.9156 35.0217C46.8006 33.4931 47.4864 37.1375 47.6843 37.7753C47.7325 37.9305 48.217 39.0712 47.6949 38.7073C47.1886 38.3544 46.705 37.9369 46.1698 37.627C46.077 37.5733 43.9392 37.1704 44.1787 36.8221C44.3247 36.6097 46.7764 36.5707 47.2077 36.5468C47.6402 36.5227 48.3415 36.3874 47.8856 36.8433C46.5318 38.197 44.5142 38.4778 43.2043 39.7876" stroke="#6D538B" stroke-linecap="round"/>
<path d="M72.5624 40.7405C72.2846 39.3238 71.5401 37.5831 71.6516 36.1335C71.6756 35.8212 72.1844 36.5835 72.2235 36.6312C72.8705 37.4202 73.1369 38.323 73.7804 39.1095C74.1812 39.5994 72.2463 39.0407 72.0435 39.0248C71.6056 38.9905 67.0776 38.6541 67.1187 38.9824C67.2145 39.7493 73.7336 35.9964 73.971 36.1864C74.2117 36.379 72.2945 39.3912 72.2024 39.5755C71.6433 40.6936 71.4234 41.8701 71.0373 43.0282" stroke="#6D538B" stroke-linecap="round"/>
<path d="M60.5523 20.9149C61.1731 19.6486 61.7097 18.3676 62.4163 17.1445C63.0089 16.1189 62.6493 17.5299 62.6493 18.1824C62.6493 19.3218 62.8374 20.3592 62.9459 21.4444C62.9487 21.4728 62.5497 21.118 62.5328 21.1055C61.9163 20.6512 61.1652 20.4222 60.4994 20.057C60.1955 19.8904 58.688 18.8179 59.6309 18.8179C60.5494 18.8179 61.4075 18.9109 62.321 18.9979C62.7991 19.0435 63.5812 18.9372 62.6599 19.411C60.9773 20.2763 58.9381 20.9676 57.1208 21.4868" stroke="#6D538B" stroke-linecap="round"/>
<path d="M23.7593 28.9212C23.598 25.7608 23.5789 22.5219 22.9861 19.4C22.794 18.3881 22.3884 17.4483 22.1706 16.4451C22.1428 16.3171 21.8255 15.1437 22.1706 15.0471C22.5994 14.927 23.0752 15.5208 23.2933 15.8096C23.8697 16.573 24.4744 17.4226 25.009 18.2138C25.4863 18.9201 27.2121 20.6296 25.475 20.3002C23.1759 19.8642 21.1319 18.6268 18.718 18.6268C17.7337 18.6268 19.1245 18.4828 19.3958 18.415C20.8383 18.0544 22.1919 17.4068 23.6216 16.9958C24.9425 16.616 26.6355 16.3863 27.8262 15.6719C28.0666 15.5277 28.4196 15.2304 28.1439 15.7672C27.7614 16.5122 27.1002 17.0541 26.6612 17.7584C25.9236 18.9416 25.3716 20.2796 24.7019 21.5076C24.271 22.2975 23.8725 23.1889 23.2721 23.8693C22.8884 24.3042 22.6154 24.5143 22.6154 25.1085" stroke="#6D538B" stroke-linecap="round"/>
</svg>
