<svg width="24" height="24" viewBox="0 0 24 24" fill="none" xmlns="http://www.w3.org/2000/svg">
<path d="M17.9607 10.7595C12.4734 5.86702 11.2864 6.29871 6.38291 3.11244C6.2358 3.0117 6.05685 2.97676 5.88538 3.0153C5.7139 3.05385 5.56392 3.16272 5.46837 3.318C5.25432 3.64691 5.02082 17.7076 5.02082 17.7076C4.94612 18.563 5.07313 19.4247 5.39053 20.2155C6.26616 21.634 8.23147 20.8528 9.63247 20.0305C11.0335 19.2083 14.283 16.6387 17.0267 14.398C17.4742 14.0486 18.7974 13.3702 18.9725 12.3424C19.1477 11.3145 18.4471 11.1501 17.9607 10.7595ZM11.2475 15.9398C10.027 17.0212 8.67174 17.9204 7.21963 18.6121C7.21963 18.3038 6.98613 5.312 6.98613 5.22977C11.7534 8.39549 12.3567 8.16937 16.4818 12.1574C16.1705 12.3218 11.2475 15.9398 11.2475 15.9398Z" fill="#D9BAFA"/>
<path d="M11.2475 15.9398C10.027 17.0212 8.67174 17.9204 7.21963 18.6121C7.21963 18.3038 6.98613 5.312 6.98613 5.22977C11.7534 8.39549 12.3567 8.16937 16.4818 12.1574C16.1705 12.3218 11.2475 15.9398 11.2475 15.9398Z" fill="#D9BAFA" fill-opacity="0.4"/>
</svg>
