<svg width="24" height="24" viewBox="0 0 24 24" fill="none" xmlns="http://www.w3.org/2000/svg">
<path fill-rule="evenodd" clip-rule="evenodd" d="M10.5398 9.51006C11.0478 9.10697 11.6282 8.80487 12.2498 8.62006C12.872 8.41846 13.5303 8.35365 14.1798 8.43006C14.2226 8.44025 14.267 8.44151 14.3103 8.43376C14.3536 8.42601 14.3949 8.40942 14.4315 8.38503C14.4681 8.36063 14.4992 8.32895 14.523 8.29196C14.5469 8.25497 14.5628 8.21348 14.5698 8.17006C14.58 8.12595 14.581 8.08023 14.5727 8.03572C14.5644 7.99122 14.5471 7.9489 14.5218 7.91138C14.4964 7.87386 14.4637 7.84196 14.4255 7.81765C14.3873 7.79333 14.3445 7.77714 14.2998 7.77006C13.5545 7.61506 12.7852 7.61506 12.0398 7.77006C11.2849 7.91911 10.5633 8.20371 9.90983 8.61006C9.63711 8.75018 9.39718 8.94651 9.20586 9.1861C9.01453 9.42569 8.87615 9.7031 8.79983 10.0001C8.77301 10.2383 8.80146 10.4795 8.88298 10.705C8.96449 10.9304 9.09686 11.1341 9.26983 11.3001C9.49013 11.5471 9.75748 11.7478 10.0562 11.8903C10.355 12.0328 10.6792 12.1143 11.0098 12.1301C11.6576 12.1422 12.3029 12.0476 12.9198 11.8501C13.3947 11.684 13.8975 11.6127 14.3998 11.6401C15.2198 11.7701 16.0898 12.2801 16.9498 12.4501C17.3967 12.5554 17.8641 12.5346 18.2998 12.3901C18.3966 12.3609 18.4779 12.2945 18.5257 12.2054C18.5735 12.1163 18.584 12.0119 18.5548 11.9151C18.5257 11.8183 18.4592 11.737 18.3701 11.6892C18.2811 11.6414 18.1766 11.6309 18.0798 11.6601C17.7716 11.7401 17.4481 11.7401 17.1398 11.6601C16.2798 11.4201 15.4298 10.8201 14.6098 10.6601C13.9458 10.5399 13.2638 10.5637 12.6098 10.7301C12.1085 10.869 11.59 10.9363 11.0698 10.9301C10.7274 10.9095 10.4056 10.7593 10.1698 10.5101C10.0498 10.3801 9.96983 10.3001 10.0098 10.2001C10.1027 9.9164 10.2897 9.67296 10.5398 9.51006Z" fill="black"/>
<path fill-rule="evenodd" clip-rule="evenodd" d="M22.2098 8.16C21.1398 7.71 20.2098 7.16 19.1598 6.65C18.4677 6.29769 17.7447 6.00981 16.9998 5.79C15.7462 5.44224 14.4305 5.38072 13.1498 5.61C13.3331 4.91804 13.4602 4.21241 13.5298 3.5C13.5892 2.87595 13.5623 2.24669 13.4498 1.63C13.1998 0.44 12.5598 0 11.9998 0C11.6264 0.0350233 11.2674 0.162044 10.9551 0.369706C10.6427 0.577367 10.3867 0.859198 10.2098 1.19L9.49985 2.44C9.00622 3.54924 8.58207 4.6881 8.22985 5.85C8.22985 5.85 8.13985 5.85 8.10985 5.85C7.24237 6.4221 6.48944 7.15129 5.88985 8C5.57889 8.40643 5.30765 8.84176 5.07985 9.3C4.84717 9.76662 4.66288 10.2558 4.52985 10.76C4.4283 11.136 4.4052 11.529 4.46197 11.9143C4.51874 12.2997 4.65417 12.6692 4.85985 13C5.05889 13.2646 5.35406 13.4401 5.68154 13.4888C6.00902 13.5375 6.34249 13.4553 6.60985 13.26C6.31305 14.4858 6.14547 15.7393 6.10985 17C6.11847 17.1552 6.14191 17.3092 6.17985 17.46C6.21124 17.6208 6.25813 17.7782 6.31985 17.93C6.46982 18.2826 6.65758 18.6179 6.87985 18.93C7.00985 19.24 7.70985 19.42 8.94985 18.27C9.08003 18.1498 9.20042 18.0194 9.30985 17.88C9.42116 17.7414 9.52147 17.5943 9.60985 17.44C9.78184 17.0848 9.93538 16.721 10.0698 16.35C10.4357 16.6663 10.8558 16.9136 11.3098 17.08C11.5766 17.1791 11.856 17.2397 12.1398 17.26C12.5735 17.2904 13.0092 17.2498 13.4298 17.14C13.5198 17.14 13.5898 17.03 13.6798 16.99C14.4011 17.4536 15.2331 17.716 16.0898 17.75C16.6857 17.7437 17.2791 17.6733 17.8598 17.54C18.6615 17.3253 19.4766 17.165 20.2998 17.06C20.4006 17.06 20.4973 17.02 20.5685 16.9487C20.6398 16.8774 20.6798 16.7808 20.6798 16.68C20.6798 16.5792 20.6398 16.4826 20.5685 16.4113C20.4973 16.34 20.4006 16.3 20.2998 16.3C19.2999 16.2265 18.2952 16.2499 17.2998 16.37L16.1698 16.48H15.4498C15.1135 16.4807 14.778 16.4438 14.4498 16.37C14.5664 16.2485 14.6641 16.1103 14.7398 15.96C14.8712 15.6789 14.8959 15.3596 14.8094 15.0616C14.723 14.7636 14.5312 14.5072 14.2698 14.34C14.2698 14.34 14.1798 14.34 14.1298 14.34C14.3592 14.1884 14.5548 13.9912 14.7045 13.7606C14.8541 13.5301 14.9547 13.2712 14.9998 13C15.0394 12.7477 15.0001 12.4894 14.8874 12.2603C14.7746 12.0312 14.5939 11.8425 14.3698 11.72C14.2887 11.6687 14.191 11.6501 14.0967 11.6678C14.0023 11.6856 13.9181 11.7384 13.8611 11.8157C13.8041 11.893 13.7784 11.989 13.7893 12.0844C13.8002 12.1798 13.8469 12.2676 13.9198 12.33C13.9857 12.3888 14.0323 12.4659 14.0537 12.5515C14.0751 12.6371 14.0703 12.7272 14.0398 12.81C13.9738 12.9526 13.8751 13.0775 13.7518 13.1748C13.6284 13.2721 13.4839 13.339 13.3298 13.37C13.0853 13.416 12.8344 13.416 12.5898 13.37L11.9898 13.31C11.6967 13.2664 11.4062 13.2063 11.1198 13.13V12.58C11.1422 12.5359 11.1547 12.4875 11.1565 12.4381C11.1583 12.3887 11.1492 12.3395 11.13 12.2939C11.1108 12.2484 11.0819 12.2076 11.0453 12.1743C11.0087 12.1411 10.9653 12.1162 10.9181 12.1015C10.8709 12.0867 10.8211 12.0825 10.7721 12.0889C10.7231 12.0954 10.6761 12.1125 10.6344 12.139C10.5926 12.1656 10.5572 12.2009 10.5305 12.2425C10.5038 12.2841 10.4865 12.331 10.4798 12.38C10.3798 12.56 9.73985 13.82 9.68985 13.98C9.64264 14.1509 9.6059 14.3246 9.57985 14.5C9.57498 14.5733 9.57498 14.6467 9.57985 14.72C9.31985 14.61 9.09985 14.48 8.83985 14.38C8.73189 14.3284 8.61755 14.2914 8.49985 14.27C8.38816 14.2436 8.2744 14.2269 8.15985 14.22C7.84985 14.22 7.58985 14.28 7.28985 14.3H7.22985C7.76985 12.19 8.31985 9.99 8.94985 7.83C9.39312 6.18047 9.958 4.56605 10.6398 3L11.1998 1.85C11.4298 1.46 11.6698 1.15 11.9498 1.14C12.2298 1.13 12.3198 1.41 12.4398 1.88C12.5696 2.40291 12.6235 2.94175 12.5998 3.48C12.5658 4.3288 12.4519 5.17251 12.2598 6C12.2384 6.09797 12.2556 6.20042 12.3077 6.28608C12.3598 6.37175 12.443 6.43403 12.5398 6.46C12.6192 6.47488 12.7013 6.46338 12.7735 6.42727C12.8457 6.39116 12.9041 6.33242 12.9398 6.26C12.982 6.27448 13.0277 6.27448 13.0698 6.26C13.9794 6.26223 14.8832 6.40388 15.7498 6.68C16.0698 6.78 16.3898 6.9 16.6998 7.01C17.1898 7.18 17.6998 7.37 18.1498 7.55C19.3898 8.02 20.6398 8.5 21.9598 8.86C22.0567 8.89201 22.1622 8.88482 22.2538 8.83995C22.3454 8.79509 22.4158 8.71613 22.4498 8.62C22.4782 8.52717 22.4689 8.42693 22.424 8.34088C22.3791 8.25484 22.3022 8.18988 22.2098 8.16ZM6.63985 12C6.51846 12.1469 6.36434 12.2634 6.18985 12.34C6.07683 12.3813 5.95286 12.3813 5.83985 12.34C5.75985 12.34 5.75985 12.21 5.72985 12.12C5.62038 11.7649 5.62038 11.3851 5.72985 11.03C5.87672 10.516 6.06397 10.0145 6.28985 9.53C6.50904 9.02953 6.763 8.54501 7.04985 8.08C7.2904 7.72929 7.55434 7.3952 7.83985 7.08C7.83985 7.26 7.72985 7.42 7.67985 7.6C7.36058 8.9235 7.08708 10.2576 6.85985 11.6C6.80985 11.74 6.73985 11.87 6.63985 12ZM11.9998 14.6C12.5193 14.7497 13.0704 14.7497 13.5898 14.6C13.5649 14.6691 13.5612 14.744 13.579 14.8152C13.5968 14.8865 13.6354 14.9508 13.6898 15C13.759 15.0827 13.7969 15.1872 13.7969 15.295C13.7969 15.4028 13.759 15.5073 13.6898 15.59C13.615 15.689 13.5204 15.7713 13.4119 15.8316C13.3034 15.8919 13.1835 15.9288 13.0598 15.94C12.758 16.0067 12.4487 16.0336 12.1398 16.02C11.8049 16.0357 11.4693 16.0122 11.1398 15.95C10.826 15.8823 10.5231 15.7712 10.2398 15.62C10.3698 15.38 10.4998 15.15 10.6098 14.91C10.6862 14.7486 10.7497 14.5814 10.7998 14.41C10.8246 14.3245 10.8446 14.2377 10.8598 14.15C11.22 14.3462 11.6028 14.4973 11.9998 14.6ZM7.08985 15C7.33456 15.1755 7.59193 15.3326 7.85985 15.47C7.97127 15.5216 8.08891 15.5586 8.20985 15.58C8.33297 15.5903 8.45673 15.5903 8.57985 15.58C8.87085 15.5716 9.16124 15.5482 9.44985 15.51V15.74C9.41907 15.8205 9.41907 15.9095 9.44985 15.99C9.1203 16.2477 8.80641 16.5249 8.50985 16.82C8.34202 17.0249 8.18513 17.2385 8.03985 17.46C7.86985 17.72 7.71985 17.99 7.55985 18.25C7.55985 18.0167 7.53985 17.7867 7.49985 17.56C7.47774 17.3166 7.43424 17.0757 7.36985 16.84C7.22999 16.4419 7.04193 16.0624 6.80985 15.71C6.80985 15.71 6.86985 15.64 6.87985 15.6C6.93985 15.38 6.99985 15.15 7.04985 14.93C7.05985 15 7.06985 15 7.08985 15Z" fill="black"/>
<path fill-rule="evenodd" clip-rule="evenodd" d="M10.88 21.42C9.75689 20.9816 8.53096 20.8775 7.34999 21.12L6.16999 21.42L4.89999 21.6C4.63854 21.6103 4.37679 21.5901 4.11999 21.54C3.87936 21.4896 3.64707 21.4054 3.42999 21.29C3.01999 21.08 2.73999 20.83 2.68999 20.52C2.66997 20.3274 2.7021 20.133 2.78303 19.957C2.86396 19.7811 2.9907 19.6302 3.14999 19.52C3.53041 19.1926 3.97238 18.9444 4.44999 18.79C4.9511 18.6322 5.47475 18.5579 5.99999 18.57C6.07891 18.5563 6.15047 18.5152 6.20204 18.4539C6.25362 18.3926 6.2819 18.3151 6.2819 18.235C6.2819 18.1549 6.25362 18.0774 6.20204 18.0161C6.15047 17.9548 6.07891 17.9137 5.99999 17.9C5.4085 17.8362 4.81053 17.8699 4.22999 18C3.61872 18.1334 3.04056 18.3884 2.52999 18.75C2.20858 18.9458 1.946 19.2248 1.76999 19.5575C1.59398 19.8901 1.51106 20.2641 1.52999 20.64C1.58418 21.0167 1.73019 21.3742 1.95515 21.6812C2.18011 21.9881 2.47712 22.235 2.81999 22.4C3.13035 22.5826 3.46796 22.7143 3.81999 22.79C4.17475 22.8654 4.53764 22.8957 4.89999 22.88C5.16493 22.8727 5.42897 22.846 5.68999 22.8C5.93999 22.8 6.18999 22.7 6.43999 22.64L7.63999 22.25C8.55303 21.9747 9.52695 21.9747 10.44 22.25C10.6 22.32 10.75 22.39 10.79 22.54C10.83 22.69 10.79 23.02 10.5 23.38C10.4698 23.4201 10.4478 23.4657 10.4352 23.5142C10.4226 23.5628 10.4197 23.6134 10.4267 23.6631C10.4337 23.7127 10.4503 23.7606 10.4758 23.8038C10.5012 23.847 10.5349 23.8848 10.575 23.915C10.615 23.9452 10.6607 23.9672 10.7092 23.9798C10.7578 23.9924 10.8083 23.9953 10.858 23.9883C10.9584 23.9743 11.049 23.9209 11.11 23.84C11.3067 23.6433 11.4551 23.4037 11.5436 23.1399C11.6321 22.8762 11.6582 22.5956 11.62 22.32C11.5679 22.1259 11.4749 21.9452 11.3473 21.79C11.2197 21.6348 11.0603 21.5086 10.88 21.42Z" fill="black"/>
</svg>
