<svg width="24" height="24" viewBox="0 0 24 24" fill="none" xmlns="http://www.w3.org/2000/svg">
<g clip-path="url(#clip0_42_977)">
<path fill-rule="evenodd" clip-rule="evenodd" d="M23.5598 3.93996C23.5403 3.88889 23.5108 3.84224 23.473 3.80274C23.4352 3.76324 23.3899 3.73169 23.3398 3.70996C23.2698 3.70996 23.1098 3.70996 23.0398 3.64996L22.5298 3.50996L20.9998 3.12996H20.8998C20.9882 2.88124 21.0617 2.62745 21.1198 2.36996C21.208 1.99229 21.2616 1.60736 21.2798 1.21996C21.3038 0.97053 21.3038 0.719381 21.2798 0.469956C21.2479 0.341689 21.1823 0.224289 21.0898 0.129956C21.0084 0.0599845 20.9089 0.014416 20.8027 -0.00150593C20.6966 -0.0174278 20.5881 -0.00305602 20.4898 0.0399556C20.1698 0.139956 19.4198 0.489956 19.3498 0.519956C18.7598 0.789956 18.1598 1.04996 17.5998 1.34996C17.2073 1.56411 16.8297 1.80466 16.4698 2.06996C16.2083 2.22879 15.9608 2.40943 15.7298 2.60996C15.6105 2.70263 15.5202 2.82756 15.4698 2.96996C15.3641 3.30284 15.3134 3.65075 15.3198 3.99996C15.3198 4.55996 15.4098 5.17996 15.4598 5.69996L14.9998 6.07996C14.5543 6.47707 14.1304 6.89767 13.7298 7.33996C12.8193 8.37278 11.9743 9.46157 11.1998 10.6C11.1503 10.6684 11.1289 10.7532 11.1401 10.8369C11.1513 10.9206 11.1941 10.9969 11.2598 11.05C11.2932 11.0757 11.3314 11.0946 11.3722 11.1055C11.4129 11.1164 11.4554 11.1191 11.4973 11.1136C11.5391 11.108 11.5794 11.0942 11.6159 11.073C11.6523 11.0518 11.6843 11.0236 11.7098 10.99C12.6114 9.94191 13.566 8.94061 14.5698 7.98996C14.9798 7.58996 15.4198 7.21996 15.8598 6.83996H15.9498C16.3098 6.83996 16.6698 6.95996 17.0298 7.03996C17.3685 7.12119 17.7023 7.22135 18.0298 7.33996C18.2604 7.4342 18.4977 7.51108 18.7398 7.56996C18.9335 7.59973 19.1317 7.57191 19.3098 7.48996C19.6363 7.3195 19.9417 7.11142 20.2198 6.86996C20.738 6.344 21.2963 5.8592 21.8898 5.41996C22.1098 5.26996 22.5998 5.06996 22.9598 4.83996C23.1771 4.71874 23.3622 4.5473 23.4998 4.33996C23.5403 4.28259 23.5668 4.21653 23.5773 4.14708C23.5877 4.07762 23.5817 4.00669 23.5598 3.93996ZM16.1198 4.07996C16.2298 3.19996 16.5598 3.21996 17.0398 2.91996C17.3782 2.69424 17.7287 2.48726 18.0898 2.29996C18.6398 1.99996 19.1998 1.72996 19.7698 1.44996L20.4098 1.09996C20.4123 1.14325 20.4123 1.18666 20.4098 1.22996C20.4386 1.56267 20.4386 1.89724 20.4098 2.22996C20.3685 2.49967 20.3118 2.76678 20.2398 3.02996C20.2398 3.02996 20.2398 3.02996 20.1598 3.02996C18.8395 3.52922 17.5865 4.19098 16.4298 4.99996L16.0798 5.27996C16.0715 4.87953 16.0849 4.47895 16.1198 4.07996ZM21.3798 4.54996C21.1628 4.66903 20.9584 4.80974 20.7698 4.96996C20.4198 5.24996 20.0998 5.57996 19.7698 5.89996C18.6398 7.02996 18.8598 6.66996 18.2998 6.53996C17.9202 6.45307 17.5364 6.38632 17.1498 6.33996L16.4698 6.26996L16.6098 6.14996C20.5398 2.87996 20.4998 3.53996 22.2098 4.19996C21.8898 4.32996 21.5598 4.44996 21.3798 4.54996Z" fill="black"/>
<path fill-rule="evenodd" clip-rule="evenodd" d="M10.3597 10.0001C10.4326 9.98416 10.4962 9.93993 10.5365 9.8771C10.5769 9.81428 10.5906 9.73801 10.5747 9.66507C10.5587 9.59214 10.5145 9.52851 10.4517 9.48819C10.3889 9.44787 10.3126 9.43416 10.2397 9.45007C9.94928 9.51292 9.67465 9.63392 9.43232 9.80579C9.18999 9.97765 8.98498 10.1968 8.82965 10.4501C8.65701 10.7234 8.55317 11.0344 8.52705 11.3566C8.50093 11.6788 8.55329 12.0025 8.67965 12.3001C8.83957 12.6459 9.08696 12.9441 9.39738 13.165C9.7078 13.386 10.0705 13.5222 10.4497 13.5601C10.8135 13.604 11.1826 13.5647 11.529 13.4452C11.8755 13.3257 12.1903 13.129 12.4497 12.8701C12.5073 12.8073 12.5393 12.7253 12.5393 12.6401C12.5393 12.5549 12.5073 12.4728 12.4497 12.4101C12.3886 12.3531 12.3082 12.3215 12.2247 12.3215C12.1411 12.3215 12.0607 12.3531 11.9997 12.4101C11.8014 12.5492 11.5758 12.6444 11.3378 12.6892C11.0998 12.7341 10.8549 12.7275 10.6197 12.6701C10.4095 12.6243 10.2135 12.5286 10.0482 12.3911C9.88282 12.2536 9.75299 12.0783 9.66965 11.8801C9.58356 11.729 9.53418 11.5597 9.52549 11.386C9.51681 11.2123 9.54906 11.039 9.61965 10.8801C9.67906 10.6919 9.77501 10.5174 9.90199 10.3664C10.029 10.2154 10.1845 10.0909 10.3597 10.0001Z" fill="black"/>
<path fill-rule="evenodd" clip-rule="evenodd" d="M11.8798 8.06991C11.8854 8.03309 11.8837 7.99552 11.8746 7.95938C11.8656 7.92325 11.8494 7.88929 11.827 7.85949C11.8047 7.82969 11.7766 7.80465 11.7444 7.78583C11.7123 7.76702 11.6767 7.75481 11.6398 7.74992C11.2642 7.70934 10.8854 7.70934 10.5098 7.74992C10.1239 7.77761 9.74364 7.85837 9.37979 7.98991C8.57341 8.27778 7.86437 8.78686 7.33382 9.45889C6.80327 10.1309 6.47265 10.9387 6.37979 11.7899C6.27736 12.6778 6.50069 13.5728 7.00831 14.3084C7.51593 15.0441 8.27332 15.5705 9.13979 15.7899C10.1796 16.0962 11.2894 16.0679 12.3123 15.709C13.3351 15.3501 14.2193 14.6788 14.8398 13.7899C15.2738 13.2796 15.5607 12.6609 15.6698 11.9999C15.7053 11.6382 15.664 11.273 15.5485 10.9283C15.433 10.5837 15.2461 10.2673 14.9998 9.99992C14.9743 9.96632 14.9423 9.9381 14.9059 9.91688C14.8694 9.89567 14.8291 9.88188 14.7873 9.8763C14.7454 9.87072 14.7029 9.87347 14.6622 9.88439C14.6214 9.89531 14.5832 9.91418 14.5498 9.93991C14.5165 9.96453 14.4885 9.99555 14.4674 10.0312C14.4463 10.0668 14.4326 10.1063 14.427 10.1473C14.4214 10.1883 14.4241 10.23 14.4349 10.2699C14.4456 10.3099 14.4643 10.3473 14.4898 10.3799C14.6712 10.5808 14.81 10.8165 14.8976 11.0726C14.9853 11.3287 15.02 11.6 14.9998 11.8699C14.8841 12.3966 14.6363 12.8853 14.2798 13.2899C13.7199 13.9839 12.9636 14.4927 12.1098 14.7499C11.271 15.0199 10.3686 15.0199 9.52979 14.7499C8.89279 14.5943 8.33307 14.2147 7.95298 13.6803C7.57289 13.146 7.39783 12.4927 7.45979 11.8399C7.4904 11.1504 7.70868 10.4824 8.0911 9.90792C8.47352 9.33341 9.00555 8.87423 9.62979 8.57991C9.9343 8.45583 10.2536 8.37179 10.5798 8.32991C10.9115 8.28326 11.2481 8.28326 11.5798 8.32991C11.6166 8.33264 11.6535 8.32806 11.6886 8.31645C11.7236 8.30485 11.756 8.28643 11.7838 8.26227C11.8117 8.23811 11.8345 8.20868 11.851 8.17567C11.8675 8.14266 11.8773 8.10672 11.8798 8.06991Z" fill="black"/>
<path fill-rule="evenodd" clip-rule="evenodd" d="M17.3398 14.0899C17.2929 14.0201 17.2205 13.9716 17.1382 13.9547C17.0559 13.9379 16.9702 13.9541 16.8998 13.9999C16.8641 14.0221 16.8334 14.0514 16.8095 14.0859C16.7855 14.1204 16.7688 14.1594 16.7604 14.2006C16.752 14.2417 16.752 14.2841 16.7605 14.3253C16.769 14.3664 16.7857 14.4054 16.8098 14.4399C17.3424 15.3006 17.7657 16.2244 18.0698 17.1899C18.2994 17.7608 18.3584 18.3861 18.2398 18.9899C18.0538 19.3913 17.7458 19.7238 17.3598 19.9399C16.7059 20.317 16.0115 20.6189 15.2898 20.8399L11.7698 22.0399C10.7549 22.4731 9.6846 22.7625 8.58975 22.8999C7.90275 22.9642 7.21122 22.8397 6.58975 22.5399C6.51222 22.487 6.45011 22.4146 6.40975 22.3299C6.29975 22.1599 6.22975 21.9799 6.14975 21.8299C5.92975 21.4099 5.71975 20.9799 5.51975 20.5399C5.31975 20.0999 5.13975 19.6599 4.95975 19.2099C4.07975 17.0099 3.04975 14.5899 2.25975 12.1499C1.73473 10.5726 1.36301 8.94845 1.14975 7.29987C1.14602 7.26301 1.13501 7.22727 1.11736 7.1947C1.09972 7.16213 1.07578 7.13339 1.04695 7.11014C1.01812 7.08689 0.984958 7.06959 0.949392 7.05924C0.913826 7.04889 0.87656 7.04571 0.839754 7.04987C0.766383 7.05985 0.699612 7.09753 0.653128 7.15517C0.606645 7.21281 0.58397 7.28604 0.589754 7.35986C0.770321 9.05348 1.10504 10.7271 1.58975 12.3599C2.29975 14.8399 3.23975 17.3599 4.04975 19.5699C4.21975 20.0399 4.39975 20.4999 4.60975 20.9599C4.81975 21.4199 5.01975 21.8699 5.24975 22.3099C5.37567 22.6029 5.53327 22.8812 5.71975 23.1399C5.84438 23.2952 6.00135 23.4214 6.17975 23.5099C6.95277 23.8877 7.81122 24.0566 8.66975 23.9999C9.8639 23.8287 11.0284 23.4921 12.1298 22.9999L15.5998 21.6999C16.3777 21.4322 17.1225 21.0766 17.8198 20.6399C18.3521 20.3197 18.7661 19.8354 18.9998 19.2599C19.1472 18.5003 19.0672 17.7141 18.7698 16.9999C18.4132 15.9753 17.933 14.9981 17.3398 14.0899Z" fill="black"/>
<path fill-rule="evenodd" clip-rule="evenodd" d="M0.889828 6.86984C0.950376 6.83242 0.995045 6.77403 1.01533 6.7058C1.03561 6.63757 1.0301 6.56427 0.999828 6.49984C0.952779 6.35943 0.942786 6.20924 0.970817 6.06383C0.998848 5.91842 1.06395 5.78271 1.15983 5.66984C1.35833 5.40924 1.59817 5.18291 1.86983 4.99984C1.86983 5.35984 1.96983 5.70984 2.03983 6.06984C2.23983 7.06984 2.49983 8.11984 2.69983 9.13984C2.87983 9.98984 3.05983 10.8498 3.27983 11.7098C3.61983 12.9998 3.99983 14.2798 4.44983 15.5198C5.15631 17.5002 6.00865 19.4255 6.99983 21.2798C6.9266 21.2854 6.85306 21.2854 6.77983 21.2798C6.70464 21.2875 6.6354 21.3241 6.58684 21.382C6.53827 21.4399 6.51423 21.5145 6.51983 21.5898C6.52236 21.6266 6.53214 21.6626 6.54861 21.6956C6.56508 21.7286 6.58791 21.758 6.61579 21.7822C6.64366 21.8064 6.67604 21.8248 6.71106 21.8364C6.74607 21.848 6.78304 21.8526 6.81983 21.8498C8.0246 21.8216 9.22088 21.6402 10.3798 21.3098C10.8398 21.1798 11.2898 21.0398 11.7398 20.8798C12.3998 20.6398 13.0498 20.3598 13.7398 20.0998C14.5798 19.7198 15.4198 19.3598 16.2398 18.9698C16.7998 18.6998 17.3398 18.4298 17.8798 18.1198C17.9521 18.0795 18.0059 18.0128 18.03 17.9336C18.0541 17.8545 18.0466 17.769 18.0091 17.6953C17.9716 17.6215 17.907 17.5652 17.8288 17.5381C17.7506 17.511 17.665 17.5152 17.5898 17.5498C17.0398 17.7998 16.4898 18.0198 15.9298 18.2298C15.0798 18.5398 14.2198 18.8298 13.3498 19.1198L11.0498 19.9998C10.2998 20.2898 9.55983 20.5998 8.78983 20.8298C8.42983 20.9398 8.05983 21.0398 7.67983 21.1198C6.98324 19.5756 6.36577 17.9969 5.82983 16.3898C5.40983 15.1998 4.99983 13.9998 4.66983 12.7098C4.33983 11.4198 3.90983 10.1998 3.57983 8.99984C3.29983 7.99984 2.99983 6.99984 2.67983 5.99984C2.56983 5.57984 2.46983 5.15984 2.38983 4.73984C2.65983 4.57984 2.94983 4.42984 3.26983 4.26984L3.65983 4.10984L4.33983 4.99984C4.41983 5.10984 4.49983 5.26984 4.57983 5.39984C4.64343 5.48855 4.72112 5.56624 4.80983 5.62984C4.94363 5.73335 5.1112 5.78326 5.27983 5.76984C5.59544 5.75639 5.90963 5.71962 6.21983 5.65984C6.53114 5.62158 6.83882 5.55803 7.13983 5.46984C7.77983 5.26984 8.39983 4.99984 9.04983 4.84984C9.33886 4.7916 9.62302 4.71137 9.89983 4.60984C10.0608 4.55334 10.2005 4.44858 10.2998 4.30984C10.3773 4.16763 10.4249 4.01111 10.4398 3.84984C10.4398 3.60984 10.4398 3.30984 10.4898 3.12984C10.5306 2.83619 10.5907 2.54556 10.6698 2.25984C10.6698 2.11984 10.7498 1.99984 10.7898 1.85984L11.7898 1.67984C12.0398 1.67984 12.2398 1.89984 12.4298 2.16984C12.7698 2.68056 13.0453 3.23142 13.2498 3.80984C13.2751 3.89065 13.3315 3.95812 13.4064 3.99749C13.4814 4.03685 13.5689 4.04489 13.6498 4.01984C13.7291 3.99238 13.795 3.93572 13.834 3.86141C13.873 3.7871 13.8823 3.70072 13.8598 3.61984C13.6422 2.8486 13.3048 2.11634 12.8598 1.44984C12.7347 1.26218 12.5652 1.10831 12.3663 1.0019C12.1674 0.895489 11.9454 0.839822 11.7198 0.839844C11.3598 0.839844 10.9698 0.919844 10.5798 0.979844H10.4998C9.37664 1.14082 8.26451 1.37127 7.16983 1.66984C6.2746 1.92063 5.39617 2.22792 4.53983 2.58984C3.96427 2.83758 3.40335 3.11804 2.85983 3.42984C1.04983 4.47984 -0.000172332 5.68984 0.519828 6.71984C0.550553 6.78748 0.606061 6.84074 0.674905 6.86865C0.743749 6.89656 0.820679 6.89699 0.889828 6.86984ZM4.88983 3.55984C5.68983 3.25984 6.55983 2.97984 7.42983 2.71984C8.29983 2.45984 9.12983 2.23984 9.93983 2.04984C9.82983 2.34984 9.72983 2.65984 9.64983 2.96984C9.49983 3.64984 9.64983 3.62984 8.77983 3.83984L6.02983 4.63984C5.09983 4.88984 5.29983 4.88984 4.89983 4.48984L4.27983 3.79984L4.88983 3.55984Z" fill="black"/>
</g>
<defs>
<clipPath id="clip0_42_977">
<rect width="24" height="24" fill="white"/>
</clipPath>
</defs>
</svg>
