<svg width="24" height="24" viewBox="0 0 24 24" fill="none" xmlns="http://www.w3.org/2000/svg">
<path fill-rule="evenodd" clip-rule="evenodd" d="M7.18418 4.14052C4.89718 3.58652 3.38718 4.68752 4.24218 7.14552C4.78918 8.69552 8.30618 18.6495 10.2312 19.6155C10.6645 19.8027 11.1458 19.8489 11.6068 19.7475C12.0679 19.6461 12.4854 19.4023 12.8002 19.0505C13.3846 17.8928 13.8175 16.6647 14.0882 15.3965C14.5352 13.4715 13.8822 14.1395 16.3562 13.2465C17.8162 12.7195 19.4902 12.1725 19.7892 10.6495C19.869 10.2927 19.8248 9.91939 19.6639 9.59108C19.503 9.26277 19.235 8.99909 18.9042 8.84352C15.1958 6.82101 11.262 5.24246 7.18418 4.14052ZM18.4922 9.56052C19.4752 10.1525 18.7352 11.3205 17.5322 11.7525C12.4702 13.5615 13.7052 12.2365 12.9632 15.1195C12.697 16.2015 12.3231 17.2541 11.8472 18.2615C11.7019 18.4089 11.5132 18.5059 11.3088 18.5383C11.1044 18.5707 10.8949 18.5368 10.7112 18.4415C9.51518 17.6175 6.07218 8.51352 5.43118 6.72252C5.00318 5.53752 5.20918 4.93552 6.90418 5.32052C10.9188 6.28134 14.8074 7.70767 18.4912 9.57052V9.56252L18.4922 9.56052Z" fill="black"/>
<path d="M18.4922 9.56052C19.4752 10.1525 18.7352 11.3205 17.5322 11.7525C12.4702 13.5615 13.7052 12.2365 12.9632 15.1195C12.697 16.2015 12.3231 17.2541 11.8472 18.2615C11.7019 18.4089 11.5132 18.5059 11.3088 18.5383C11.1044 18.5707 10.8949 18.5368 10.7112 18.4415C9.51518 17.6175 6.07218 8.51352 5.43118 6.72252C5.00318 5.53752 5.20918 4.93552 6.90418 5.32052C10.9188 6.28134 14.8074 7.70767 18.4912 9.57052V9.56252L18.4922 9.56052Z" fill="white"/>
</svg>
