<svg width="24" height="23" viewBox="0 0 24 23" fill="none" xmlns="http://www.w3.org/2000/svg">
<path d="M15.3811 12.5663C15.3811 13.5251 13.3835 14.9633 12.3848 15.5626C14.3823 17.3604 18.737 21.0759 20.1752 21.5553C21.6135 22.0347 21.973 20.157 21.973 19.1582C19.7757 16.5614 15.3811 11.6074 15.3811 12.5663Z" fill="white"/>
<circle cx="9.06258" cy="9.04696" r="7.63876" fill="#D9D9D9" fill-opacity="0.1"/>
<path d="M20.3152 19.771C20.3153 19.771 20.3153 19.771 20.3152 19.771L20.3152 19.771ZM20.3152 19.771C20.3153 19.7709 20.3154 19.7708 20.3155 19.7708L20.4537 19.9787L20.3152 19.771ZM4.37918 4.96934L4.37921 4.96937L4.38288 4.96582C5.07055 4.29883 5.89874 3.79416 6.80676 3.4888C7.71478 3.18344 8.67962 3.08512 9.63058 3.20106C10.5815 3.31699 11.4945 3.64423 12.3026 4.1588C13.1106 4.67337 13.7933 5.36223 14.3006 6.17489L14.3011 6.17579C14.9123 7.14568 15.2344 8.26967 15.2296 9.41604C15.2248 10.5624 14.8934 11.6837 14.2742 12.6484C13.6549 13.6132 12.7736 14.3815 11.7333 14.8633C10.6931 15.345 9.53709 15.5203 8.40079 15.3686L8.38804 15.3669L8.37518 15.3665C7.33529 15.3354 6.31303 15.0899 5.37241 14.6455C5.27671 14.5961 5.17234 14.5657 5.06505 14.556C4.95589 14.5461 4.84585 14.5578 4.74121 14.5904C4.63657 14.6231 4.53938 14.676 4.45519 14.7462C4.37101 14.8164 4.30147 14.9025 4.25055 14.9995C4.19963 15.0966 4.16833 15.2027 4.15843 15.3119C4.14853 15.421 4.16023 15.5311 4.19286 15.6357C4.22549 15.7404 4.27841 15.8376 4.3486 15.9217C4.41799 16.005 4.50291 16.0739 4.59862 16.1246C6.45953 17.1671 8.62907 17.5182 10.7239 17.1158C12.7297 16.7305 14.5434 15.6781 15.8722 14.134C16.539 14.7886 17.4425 15.7017 18.2628 16.6635C19.1634 17.7194 19.9349 18.8017 20.2063 19.6516C20.2124 19.7097 20.2284 19.7587 20.24 19.791C20.2418 19.7962 20.2438 19.8016 20.2458 19.8069C20.2068 19.8219 20.1654 19.8301 20.1234 19.831C19.3372 19.6698 18.6068 19.3052 18.0054 18.7732L17.9953 18.7643L17.9843 18.7565C17.0428 18.0891 16.4187 17.5809 15.9665 17.2126C15.7746 17.0563 15.6136 16.9252 15.4724 16.8179C15.253 16.651 15.0463 16.5124 14.8406 16.4834C14.5893 16.448 14.4074 16.5763 14.2619 16.736C14.1244 16.8803 14.0476 17.072 14.0476 17.2715C14.0476 17.471 14.1244 17.6628 14.262 17.8071C15.1267 18.7564 16.2123 19.8763 17.1337 20.7135C17.554 21.2048 18.0777 21.5972 18.6674 21.8627C19.262 22.1304 19.9089 22.2624 20.5609 22.249L20.5609 22.2491L20.5699 22.2486C20.9559 22.2268 21.3308 22.1115 21.6625 21.9128C21.9941 21.7141 22.2726 21.4379 22.474 21.1079C22.6754 20.7778 22.7936 20.4039 22.8186 20.018C22.8436 19.6322 22.7746 19.2461 22.6175 18.8929L22.6178 18.8927L22.6123 18.8818C21.7923 17.2566 20.6507 15.8149 19.2567 14.6441L19.256 14.6435L19.2559 14.6434C19.1536 14.5582 18.567 14.0694 17.9738 13.5889C17.6772 13.3486 17.3777 13.1094 17.1357 12.9234C17.0155 12.831 16.9077 12.7504 16.8207 12.6889C17.3722 11.5026 17.6404 10.2032 17.6029 8.89349C17.5633 7.50822 17.1828 6.15408 16.4951 4.95089L16.4951 4.95088L16.4938 4.94868C15.8243 3.80449 14.8959 2.83315 13.7832 2.11257C12.6705 1.392 11.4043 0.942244 10.0864 0.799394C8.76842 0.656545 7.43533 0.824575 6.19405 1.29001C4.95376 1.75506 3.83963 2.5041 2.94089 3.47712C1.42903 5.03435 0.772328 7.14073 0.750562 9.08886C0.728896 11.0279 1.33706 12.8649 2.42555 13.864C2.57234 14.0031 2.76822 14.0786 2.97049 14.0739C3.17366 14.0692 3.36664 13.9839 3.50696 13.8369C3.64729 13.6899 3.72346 13.4932 3.71874 13.29C3.71405 13.0882 3.62991 12.8964 3.4847 12.7563C2.81062 12.0724 2.42369 10.6951 2.52524 9.16979C2.62615 7.65415 3.20646 6.06118 4.37918 4.96934ZM20.2732 19.8823C20.2731 19.8822 20.273 19.8817 20.2728 19.8807L20.2732 19.8823Z" fill="#6D538B" stroke="white" stroke-width="0.5"/>
<path fill-rule="evenodd" clip-rule="evenodd" d="M11.8986 9.08082C12.0809 8.54571 12.1267 7.97355 12.0319 7.41625C11.937 6.85896 11.7045 6.33417 11.3554 5.88951C10.969 5.45448 10.4772 5.12608 9.92723 4.93583C9.37731 4.74559 8.78771 4.69989 8.21504 4.80311C8.06226 4.80311 7.36629 5.05774 7.28141 5.22749C7.19654 5.39724 7.04376 5.70279 7.28141 5.92346C7.51906 6.14414 9.21657 5.92346 9.94649 6.58549C10.2664 6.83434 10.5084 7.16963 10.6438 7.55167C10.7791 7.93372 10.8022 8.34654 10.7104 8.74132C10.6653 8.89889 10.6848 9.06789 10.7643 9.21114C10.8439 9.3544 10.9772 9.46017 11.1347 9.50519C11.2923 9.55021 11.4613 9.53079 11.6046 9.45121C11.7478 9.37162 11.8536 9.23839 11.8986 9.08082Z" fill="white"/>
</svg>
