<svg width="24" height="24" viewBox="0 0 24 24" fill="none" xmlns="http://www.w3.org/2000/svg">
<path fill-rule="evenodd" clip-rule="evenodd" d="M16.0001 12.0601C16.0001 11.6701 15.7401 11.5301 15.6301 11.3301C15.3901 10.8701 14.8601 10.4401 15.0101 10.0901C15.2501 9.56008 16.0101 9.45008 16.5801 9.59008C16.98 9.77483 17.3908 9.93513 17.8101 10.0701C18.1801 10.1301 18.4701 9.76008 18.8101 9.35008C19.2821 8.82452 19.6426 8.2088 19.8701 7.54008C19.8782 7.42445 19.8503 7.30915 19.7901 7.21008C19.1753 6.56369 18.4716 6.00812 17.7001 5.56008C17.7001 5.56008 17.5601 5.42008 17.4601 5.35008C17.744 4.81454 17.8884 4.21614 17.8801 3.61008C17.8333 3.16912 17.6643 2.75001 17.392 2.39999C17.1198 2.04997 16.7552 1.78297 16.3393 1.62909C15.9234 1.47522 15.4728 1.44059 15.0383 1.5291C14.6038 1.61762 14.2027 1.82577 13.8801 2.13008C13.3701 2.70008 14.2201 3.00008 14.2901 2.51008L14.6101 2.26008C14.8865 2.11151 15.1975 2.03951 15.511 2.05153C15.8245 2.06356 16.1291 2.15917 16.3933 2.32847C16.6574 2.49776 16.8715 2.7346 17.0134 3.01443C17.1552 3.29427 17.2197 3.60695 17.2001 3.92008C17.1175 4.37503 16.9549 4.81176 16.7201 5.21008C16.3301 6.01008 17.2101 5.87008 19.0201 7.57008C18.7133 8.13267 18.3183 8.64246 17.8501 9.08008L16.8501 8.66008C16.3455 8.48104 15.7943 8.48288 15.2908 8.66529C14.7874 8.8477 14.363 9.19934 14.0901 9.66008C13.6301 10.6601 14.3701 11.1901 14.7101 11.8401C14.9301 12.2801 15.0601 11.9801 14.7101 12.6601C14.44 13.1933 14.104 13.6905 13.7101 14.1401C12.7101 13.8201 7.21012 10.9101 6.55012 9.80008C6.74535 9.07287 7.08549 8.39259 7.55012 7.80008C8.68012 8.40008 9.36012 8.91008 10.3901 8.32008C12.4901 7.10008 11.8101 4.70008 9.44012 4.32008C9.70595 3.71007 10.0415 3.1329 10.4401 2.60008C10.6901 2.33008 11.7001 2.83008 12.0001 2.98008C12.077 3.01854 12.1661 3.02487 12.2476 2.99767C12.3292 2.97048 12.3967 2.91199 12.4351 2.83508C12.4736 2.75817 12.4799 2.66913 12.4527 2.58755C12.4255 2.50597 12.367 2.43854 12.2901 2.40008C10.0601 1.20008 10.0001 1.84008 8.77012 4.00008C8.61012 4.28008 8.41012 4.59008 8.64012 4.87008C8.87012 5.15008 9.56012 5.08008 9.82012 5.17008C10.5201 5.42008 11.1001 6.11008 10.7401 6.76008C10.5001 7.18008 9.91012 7.70008 9.42012 7.63008C7.42012 6.78008 7.53012 6.13008 6.62012 7.46008C6.07997 8.14593 5.73454 8.9646 5.62012 9.83008C5.62012 11.6201 13.3701 15.2201 13.8701 15.2401C14.7501 15.2901 16.0001 12.6201 16.0001 12.0601Z" fill="black"/>
<path fill-rule="evenodd" clip-rule="evenodd" d="M8.71 19.5701C8.39 18.1801 8.97 14.4901 7.33 14.5201C5.87 14.5201 6.15 15.7101 5.63 17.1201C5.49 17.5101 5.51 17.5501 4.63 16.7401C4.46092 16.5696 4.3101 16.3819 4.18 16.1801C4.26 15.7901 4.1 16.0801 4.4 13.5801C4.51 12.6901 4.47 11.6501 3.68 11.2301C3.43282 11.0934 3.14783 11.0409 2.86817 11.0806C2.58851 11.1203 2.32938 11.25 2.13 11.4501C2.01215 11.2819 1.84919 11.1505 1.65988 11.0708C1.47058 10.9912 1.26263 10.9667 1.06 11.0001C0 11.1201 0 12.3401 0 13.3701C0.06 16.1101 2.2 19.0501 4.24 20.8801L4.86 22.4601C4.95 22.7301 5.53 22.4101 5.43 22.1401L5 20.4701C5 20.3401 0.77 16.9901 0.81 13.3601C0.81 12.9501 0.81 11.8401 1.19 11.8001C1.77 11.7401 1.66 12.2601 2.46 14.3501C2.74704 15.1347 3.11221 15.8885 3.55 16.6001C3.99568 17.2529 4.61115 17.7715 5.33 18.1001C6.58 18.3301 6.41 16.2801 6.79 15.7001C6.88 15.5501 7.05 15.4801 7.33 15.4701C8.33 15.4701 7.55 19.8301 8.21 20.1201C8.44 20.2301 8.9 19.9101 8.75 19.7101C8.77 19.6901 8.72 19.6301 8.71 19.5701ZM2.41 11.9201C2.52754 11.7883 2.69 11.705 2.86567 11.6865C3.04133 11.668 3.21758 11.7156 3.36 11.8201C3.76 12.0901 3.67 13.0701 3.63 13.6201C3.58366 14.1569 3.60044 14.6973 3.68 15.2301C3.19766 14.1503 2.77372 13.0454 2.41 11.9201Z" fill="black"/>
<path fill-rule="evenodd" clip-rule="evenodd" d="M15.2502 19.71C15.1002 19.91 15.5602 20.23 15.7902 20.12C16.4502 19.83 15.7002 15.43 16.6702 15.47C16.9502 15.47 17.1202 15.55 17.2102 15.7C17.5902 16.28 17.4202 18.33 18.6702 18.1C19.389 17.7714 20.0045 17.2527 20.4502 16.6C20.9018 15.89 21.2804 15.1362 21.5802 14.35C22.3802 12.26 22.2702 11.74 22.8502 11.8C23.2602 11.8 23.2302 12.95 23.2302 13.36C23.2302 16.99 19.0902 20.36 19.0402 20.47L18.5702 22.14C18.4702 22.41 19.0502 22.73 19.1402 22.46L19.7602 20.88C21.7602 19.05 23.9402 16.11 24.0002 13.37C24.0002 12.37 24.0002 11.12 22.9402 11C22.7329 10.9605 22.5187 10.982 22.3234 11.0619C22.1282 11.1417 21.9603 11.2766 21.8402 11.45C21.6408 11.2499 21.3817 11.1202 21.102 11.0805C20.8223 11.0408 20.5374 11.0933 20.2902 11.23C19.5002 11.65 19.4602 12.69 19.5702 13.58C19.8802 16.18 19.7102 15.81 19.7902 16.18C19.6601 16.3818 19.5092 16.5695 19.3402 16.74C18.4902 17.55 18.5102 17.51 18.3402 17.12C17.8202 15.71 18.1002 14.54 16.6402 14.52C14.9902 14.52 15.5802 18.18 15.2602 19.57C15.2802 19.63 15.2302 19.69 15.2502 19.71ZM20.3202 15.23C20.3997 14.6971 20.4165 14.1568 20.3702 13.62C20.3702 13.07 20.2402 12.09 20.6402 11.82C20.7826 11.7155 20.9588 11.6678 21.1345 11.6863C21.3102 11.7048 21.4726 11.7881 21.5902 11.92C21.2265 13.0453 20.8025 14.1502 20.3202 15.23Z" fill="black"/>
</svg>
