<svg width="104" height="139" viewBox="0 0 104 139" fill="none" xmlns="http://www.w3.org/2000/svg">
<path d="M6 7V131H98V7H6Z" fill="white"/>
<path d="M8.59932 2.39328C9.30687 3.06223 11.4923 5.43429 12.298 5.51151C12.6902 5.5491 13.043 5.28953 13.3315 5.05384C15.311 3.43681 14.9056 0.54001 15.301 0.247637C15.5608 0.0555764 17.1151 0.0720283 17.4545 0.148394C17.5905 0.17898 17.6786 0.224672 17.7631 0.342449C17.9298 0.57502 17.9609 1.99065 18.0431 2.36613C18.0729 2.50199 18.1078 2.63647 18.1481 2.76957C18.1883 2.90267 18.2337 3.03398 18.2843 3.16351C18.3348 3.29303 18.3903 3.42037 18.4508 3.54552C18.5113 3.67067 18.5767 3.79324 18.6468 3.91324C19.0442 4.59518 19.5937 5.1566 20.3802 5.34704C21.0359 5.50578 21.779 5.37854 22.3521 5.02476C23.3152 4.4303 23.8419 3.13593 23.9713 2.05303C24.0406 1.47403 24.0274 0.880494 24.1652 0.312162C24.3015 0.155616 24.4123 0.14269 24.6058 0.0763816C25.209 0.0668543 25.9258 -0.00890842 26.515 0.0964179C26.7311 0.135071 26.8695 0.185731 26.9593 0.399812C27.0722 0.66897 27.0514 1.02334 27.0629 1.31326C27.1032 2.33862 27.276 3.31885 27.8657 4.18343C28.2719 4.779 28.8579 5.1948 29.5731 5.31883C29.6142 5.3263 29.6555 5.33275 29.6969 5.33818C29.7383 5.3436 29.7798 5.348 29.8214 5.35137C29.8631 5.35473 29.9048 5.35705 29.9465 5.35834C29.9882 5.35963 30.03 5.35989 30.0718 5.35911C30.1135 5.35832 30.1552 5.3565 30.1969 5.35365C30.2386 5.3508 30.2801 5.34691 30.3216 5.34199C30.3631 5.33707 30.4044 5.33112 30.4456 5.32415C30.4868 5.31717 30.5278 5.30918 30.5685 5.30018C30.6093 5.29117 30.6498 5.28115 30.6901 5.27012C30.7304 5.2591 30.7704 5.24708 30.8102 5.23408C30.8498 5.22106 30.8892 5.20707 30.9282 5.19211C30.9672 5.17714 31.0058 5.16122 31.0441 5.14433C31.0822 5.12745 31.12 5.10963 31.1573 5.09087C31.1947 5.07211 31.2315 5.05243 31.2679 5.03184C31.3043 5.01125 31.3401 4.98977 31.3754 4.9674C31.4107 4.94502 31.4454 4.92179 31.4796 4.8977C32.3517 4.27162 32.8593 3.10253 32.9932 2.06252C33.055 1.58275 33.0509 1.08637 33.1375 0.610977C33.1671 0.448291 33.2017 0.276221 33.355 0.190619C33.6477 0.0272917 35.179 0.058945 35.5032 0.196226C35.8362 0.337264 35.8209 1.96559 35.8793 2.33188C35.9094 2.5202 35.9501 2.70619 36.0013 2.88984C36.0526 3.0735 36.1142 3.25363 36.1861 3.43022C36.5044 4.20441 37.0323 4.96972 37.8307 5.29737C38.4125 5.53622 39.0781 5.50398 39.6522 5.25823C40.8382 4.75053 41.6157 3.25524 41.7699 2.02632C41.8402 1.46584 41.7801 0.774559 41.9864 0.251281C42.3874 0.0133327 43.8599 0.000249311 44.3063 0.14657C44.4896 0.206677 44.5876 0.328584 44.6379 0.511895C44.7171 0.800567 44.704 1.12753 44.7151 1.42507C44.7479 2.30483 44.823 3.14787 45.2231 3.94942C45.5816 4.6677 46.1588 5.23654 46.9281 5.49065C47.5383 5.69221 48.1683 5.66152 48.7434 5.36874C49.8724 4.79389 50.559 3.23101 50.6899 2.02864C50.7515 1.46262 50.6794 0.77962 50.8495 0.238815C50.92 0.195644 50.9811 0.160308 51.0609 0.13645C51.486 0.00940193 52.991 -0.0386462 53.3455 0.163488C53.6902 0.552597 53.5895 1.41362 53.6586 1.92241C53.797 2.94254 54.2438 4.18379 55.1009 4.81751C55.6489 5.22271 56.4113 5.34633 57.0748 5.23738C58.545 4.996 59.3958 3.40966 59.608 2.05409C59.6898 1.53223 59.5609 0.521416 59.8641 0.105727C60.3728 -0.0299967 61.2966 -0.0141986 61.8295 0.0379636C62.6866 0.121865 62.4222 1.87302 62.54 2.48211C62.6737 3.1735 63.0237 3.89078 63.4883 4.41901C63.9429 4.93588 64.5618 5.32527 65.263 5.35715C66.88 5.43069 67.9739 3.7767 68.2535 2.36348C68.3634 1.80791 68.2988 1.22554 68.4106 0.678491C68.4497 0.487363 68.5149 0.275871 68.67 0.145962C68.934 -0.0751457 70.1349 0.0107634 70.485 0.0605753C70.6219 0.0800363 70.7863 0.106169 70.8737 0.228497C71.1476 0.611557 70.8932 2.83074 72.1355 4.36682C72.5707 4.90495 73.157 5.29181 73.8572 5.35185C77.3405 5.6505 77.0496 0.385527 77.4011 0.160125C77.7493 -0.0631164 79.1404 -0.00160199 79.563 0.0642922C79.9368 0.539033 79.9125 1.4838 80.0315 2.07282C80.2566 3.18569 80.8287 4.51873 81.8145 5.16008C81.8502 5.18288 81.8865 5.20479 81.9233 5.2258C81.9601 5.24681 81.9974 5.2669 82.0351 5.28607C82.0729 5.30524 82.1111 5.32347 82.1498 5.34074C82.1885 5.35803 82.2276 5.37435 82.2671 5.3897C82.3066 5.40504 82.3464 5.41941 82.3865 5.43279C82.4268 5.44617 82.4673 5.45855 82.508 5.46994C82.5488 5.48132 82.5899 5.49168 82.6312 5.50104C82.6725 5.51039 82.714 5.51872 82.7557 5.52603C82.7974 5.53333 82.8393 5.5396 82.8813 5.54484C82.9233 5.55007 82.9654 5.55426 83.0077 5.55741C83.0499 5.56057 83.0921 5.56268 83.1344 5.56375C83.1768 5.56481 83.2192 5.56483 83.2615 5.5638C83.3038 5.56277 83.3461 5.5607 83.3884 5.55758C83.4305 5.55447 83.4727 5.55031 83.5147 5.54512C83.5567 5.53992 83.5986 5.53369 83.6403 5.52642C83.682 5.51915 83.7235 5.51086 83.7648 5.50155C85.3168 5.15532 86.0148 3.32586 86.2249 1.92314C86.2995 1.42523 86.2342 0.616771 86.5028 0.204183C87.0565 -0.0734971 88.0765 0.0351796 88.6848 0.104957C89.0597 0.378584 88.4709 2.49553 90.0279 4.64644C90.3399 5.07742 90.753 5.52317 91.3106 5.58891C92.5337 5.73307 94.3776 3.42581 95.3446 2.66337L103.634 11.0585C102.265 11.9861 99.2942 12.9064 98.6203 14.5056C98.453 14.9027 98.436 15.3092 98.6043 15.7088C99.1801 17.0749 102.148 18.4109 103.497 18.9392C103.493 19.4755 103.512 20.013 103.522 20.5493C102.549 20.9363 101.531 21.2695 100.604 21.7542C99.8468 22.1496 98.9982 22.6732 98.7384 23.5427C98.5796 24.0745 98.6261 24.6773 98.8925 25.1658C99.682 26.6134 102.006 27.2822 103.486 27.7362L103.508 29.7446C102.427 30.0047 101.308 30.2821 100.329 30.8262C99.6183 31.2214 98.888 31.8022 98.6618 32.6218C98.5105 33.1698 98.6049 33.7524 98.8904 34.2392C99.7767 35.7507 101.924 36.3711 103.523 36.7721C103.491 37.5146 103.482 38.2471 103.566 38.9865C102.511 39.1608 101.376 39.4352 100.42 39.9207C99.6849 40.2939 99.0047 40.8455 98.7439 41.6571C98.565 42.2139 98.5845 42.8053 98.8627 43.3259C99.6468 44.7932 102.018 45.281 103.507 45.7225C103.51 46.5044 103.526 47.281 103.572 48.0617C102.454 48.3329 101.333 48.583 100.309 49.1284C99.613 49.4989 98.9157 50.0225 98.6842 50.8143C98.5279 51.3488 98.5791 51.9469 98.848 52.4366C99.5859 53.7803 102.143 54.4107 103.514 54.8291C103.418 55.591 103.448 56.2715 103.549 57.027C102.356 57.3833 101.167 57.6161 100.065 58.2319C99.4231 58.5907 98.8123 59.0974 98.6144 59.8372C98.5975 59.9007 98.5837 59.9648 98.573 60.0296C98.5622 60.0944 98.5546 60.1596 98.5503 60.2251C98.5459 60.2907 98.5447 60.3563 98.5467 60.422C98.5487 60.4876 98.5539 60.553 98.5622 60.6182C98.5705 60.6834 98.582 60.748 98.5966 60.812C98.6113 60.876 98.629 60.9392 98.6497 61.0015C98.6705 61.0638 98.6943 61.1249 98.7209 61.1849C98.7477 61.2449 98.7772 61.3034 98.8096 61.3605C99.6456 62.8139 102.055 63.3111 103.56 63.7227C103.478 64.5036 103.482 65.2161 103.592 65.9931C102.356 66.2324 100.977 66.5788 99.9051 67.2556C99.2957 67.6405 98.7282 68.1868 98.579 68.9209C98.4672 69.4704 98.6042 70.0409 98.9118 70.504C99.857 71.9274 102.089 72.4858 103.662 72.8118C103.441 73.738 103.373 74.2379 103.716 75.161C102.459 75.4506 101.156 75.634 100.005 76.2526C99.3806 76.5883 98.8158 77.0644 98.6183 77.7723C98.4647 78.3228 98.5359 78.9353 98.8288 79.4271C99.6954 80.8819 102.083 81.4575 103.607 81.8459C103.428 82.7172 103.473 83.3577 103.593 84.2354C102.379 84.4346 101.162 84.7129 100.081 85.3249C99.4379 85.6886 98.7664 86.2189 98.5766 86.9709C98.4516 87.466 98.5702 87.9961 98.8237 88.4305C99.6958 89.9249 102.039 90.3768 103.585 90.7634C103.528 91.4928 103.458 92.18 103.602 92.9055C102.437 93.1712 101.271 93.4486 100.215 94.0275C99.4986 94.4197 98.7115 95.03 98.4893 95.859C98.3511 96.3743 98.4338 96.8971 98.696 97.3569C99.5795 98.9071 101.983 99.5495 103.602 99.9731C103.418 100.743 103.406 101.232 103.582 102.017C102.126 102.579 100.458 102.773 99.2713 103.894C98.8248 104.316 98.5171 104.846 98.5126 105.478C98.5085 106.081 98.7923 106.62 99.2103 107.038C99.9916 107.82 102.481 108.973 103.622 108.962C103.66 109.656 103.566 110.322 103.68 111.018C103.364 111.263 102.829 111.331 102.446 111.435C101.229 111.764 99.5885 112.337 98.8823 113.459C98.5895 113.924 98.5138 114.506 98.6422 115.038C99.0068 116.549 101.017 117.171 102.314 117.6C102.721 117.733 103.219 117.853 103.578 118.084C103.636 118.53 103.628 119.02 103.624 119.471C103.622 119.65 103.652 119.845 103.517 119.984C103.041 120.475 100.635 120.728 99.4277 121.941C98.9426 122.428 98.6473 123.074 98.6596 123.769C98.6895 125.454 100.663 126.415 102.01 126.945C102.441 127.115 103.179 127.292 103.506 127.628C103.611 127.736 103.606 127.771 103.608 127.912C103.179 128.613 102.313 129.212 101.727 129.798C100.89 130.637 95.9737 135.811 95.3931 135.987C94.5813 135.887 92.7384 133.241 91.9326 132.67C91.7001 132.505 91.4321 132.403 91.1459 132.468C90.7126 132.566 90.3649 132.96 90.0994 133.295C89.4696 134.089 88.9542 135.05 88.7956 136.062C88.7062 136.633 88.8432 137.398 88.5114 137.887C88.0714 138.213 86.9801 138.041 86.4338 138.041C86.1084 137.772 86.0894 136.143 85.9979 135.683C85.8988 135.184 85.744 134.688 85.5093 134.236C85.1243 133.495 84.5004 132.872 83.6885 132.627C83.0549 132.437 82.2197 132.439 81.6516 132.798C81.4168 132.947 81.2075 133.157 80.962 133.283C80.9394 133.295 80.9165 133.306 80.8938 133.317C80.7531 133.579 80.5613 133.812 80.4193 134.076C79.7933 135.238 79.7963 136.252 79.7124 137.526C79.7034 137.664 79.6579 137.774 79.5519 137.862C79.2604 138.108 77.8655 138.06 77.4758 137.982C77.3178 137.951 77.191 137.915 77.108 137.767C76.8008 137.222 77.1754 135.369 76.2228 133.905C75.7984 133.253 75.1492 132.782 74.3832 132.624C73.6973 132.482 72.9931 132.612 72.4147 133.011C70.8265 134.108 70.9915 136.126 70.6791 137.796C70.6514 137.814 70.6244 137.834 70.596 137.851C70.2715 138.051 68.891 138.031 68.5091 137.939C68.3482 137.9 68.2063 137.807 68.156 137.643C68.0743 137.375 68.0918 137.023 68.0788 136.742C68.03 135.691 67.8737 134.742 67.2796 133.847C66.8472 133.195 66.2851 132.72 65.5025 132.577C64.7973 132.449 64.0277 132.577 63.4399 133C62.5176 133.665 62.0667 134.945 61.9677 136.037C61.9274 136.483 61.9726 136.982 61.872 137.414C61.8296 137.596 61.7748 137.739 61.6081 137.84C61.3849 137.974 59.8169 137.967 59.5228 137.9C59.1521 137.579 59.2439 136.447 59.188 135.942C59.0682 134.858 58.6075 133.741 57.7322 133.054C57.1684 132.611 56.4759 132.447 55.7687 132.535C54.1521 132.737 53.3384 134.366 53.1343 135.831C53.0622 136.348 53.1816 137.519 52.8794 137.908C52.6125 137.973 50.7581 137.999 50.5262 137.865C50.1713 137.662 50.2128 135.714 50.0737 135.15C49.8623 134.293 49.386 133.386 48.6035 132.927C47.971 132.558 47.1221 132.464 46.4197 132.666C45.0895 133.047 44.3731 134.63 44.2527 135.908C44.198 136.487 44.3149 137.345 44.0338 137.856C43.5635 138.077 42.7419 137.976 42.2224 137.957C42.0353 137.951 41.7771 137.962 41.6431 137.811C41.4045 137.541 41.8809 135.035 40.3277 133.394C39.8515 132.891 39.2126 132.56 38.5128 132.551C36.8117 132.527 35.7548 134.022 35.4365 135.548C35.3105 136.151 35.4647 137.482 35.038 137.905C34.4847 137.981 33.7174 137.993 33.1698 137.891C33.0934 137.877 32.9563 137.846 32.898 137.789C32.7937 137.686 32.7807 137.112 32.7657 136.949C32.6601 135.798 32.4962 134.726 31.8324 133.746C31.4278 133.148 30.8751 132.695 30.154 132.565C29.5087 132.448 28.7407 132.577 28.2003 132.959C27.2319 133.644 26.6904 135.029 26.6445 136.185C26.6287 136.581 26.7225 137.051 26.6456 137.434C26.61 137.612 26.5132 137.763 26.3555 137.855C25.951 138.088 24.7105 138.137 24.2636 138.007C23.4622 137.775 23.6031 136.061 23.4668 135.372C23.439 135.237 23.4055 135.102 23.3661 134.969C23.3267 134.836 23.2817 134.705 23.2311 134.576C23.1805 134.447 23.1244 134.32 23.0629 134.196C23.0013 134.072 22.9346 133.951 22.8626 133.833C22.487 133.222 21.9412 132.802 21.238 132.649C20.5709 132.505 19.8956 132.593 19.3178 132.969C18.3646 133.587 17.8154 134.837 17.7002 135.937C17.6397 136.513 17.6806 137.101 17.5584 137.671C17.419 137.822 17.2861 137.865 17.0833 137.899C16.6179 137.976 15.4225 138.065 15.0357 137.793C14.9325 137.469 14.9224 137.093 14.881 136.755C14.7751 135.891 14.6415 135.028 14.3055 134.219C14.0088 133.503 13.5539 132.869 12.8127 132.579C12.5741 132.486 12.2363 132.387 11.9846 132.454C11.0747 132.698 9.09142 135.451 8.41717 135.716C8.39407 135.724 8.3704 135.732 8.34702 135.74C8.32569 135.736 8.30365 135.734 8.28304 135.727C7.81915 135.567 0.249006 128.142 0 127.601C0.272257 127.224 2.12177 126.492 2.67481 126.169C3.20184 125.861 3.70036 125.491 4.1155 125.041C4.53009 124.591 4.82092 124.041 4.77808 123.412C4.66137 121.7 2.5484 120.929 1.21068 120.426C0.919463 120.317 0.46871 120.211 0.243938 120.002C0.219108 119.979 0.195932 119.954 0.17193 119.93L0.164314 117.851C0.196455 117.854 0.250259 117.861 0.28539 117.859C0.513894 117.843 0.813514 117.704 1.03217 117.627C2.1874 117.222 3.59941 116.654 4.35359 115.647C4.68046 115.21 4.82957 114.722 4.74606 114.175C4.5 112.566 2.51668 111.905 1.20072 111.439C0.917411 111.339 0.48275 111.245 0.247231 111.061C0.22219 111.042 0.198161 111.02 0.173626 111C0.15453 110.298 0.129281 109.596 0.0978788 108.895C0.527739 108.962 1.41316 108.543 1.82489 108.365C2.83104 107.929 4.13734 107.225 4.55253 106.131C4.72975 105.665 4.69898 105.171 4.48999 104.722C3.77453 103.184 1.59218 102.53 0.118744 102.01C0.138208 101.302 0.152406 100.594 0.161339 99.8858C0.73208 99.6803 1.29661 99.4588 1.85494 99.2214C2.86909 98.7828 4.23571 98.103 4.64108 96.9951C4.78988 96.5884 4.76181 96.1551 4.57482 95.7659C3.86742 94.2935 1.57845 93.6365 0.153337 93.1312C0.148444 92.4348 0.147799 91.7385 0.151401 91.0423C0.725395 90.8429 1.30206 90.615 1.85233 90.3569C2.84848 89.8896 4.19928 89.0901 4.57224 87.973C4.73088 87.4977 4.6919 87.0249 4.47142 86.577C3.7475 85.1058 1.575 84.3926 0.117958 83.9163C0.160643 83.196 0.125318 82.4656 0.111812 81.7442C1.03439 81.5027 2.00966 81.157 2.84447 80.6966C3.57754 80.2923 4.42109 79.6681 4.64323 78.8108C4.76894 78.3257 4.65394 77.84 4.39449 77.4228C3.56559 76.09 1.62135 75.4715 0.168345 75.121C0.251908 74.3908 0.201293 73.6586 0.170362 72.9264C0.764188 72.7572 1.34551 72.5524 1.91434 72.3119C2.9011 71.8862 4.198 71.1424 4.59253 70.0679C4.75717 69.6196 4.73192 69.1514 4.53556 68.7195C3.80076 67.1031 1.68312 66.4649 0.148289 65.8929C0.232567 65.1924 0.204322 64.4897 0.176449 63.787C0.679373 63.6387 1.18369 63.4529 1.66778 63.2516C2.72997 62.8097 4.12923 62.1214 4.58174 60.9826C4.75538 60.5456 4.74417 60.0995 4.55411 59.6699C3.88334 58.1543 1.6319 57.4309 0.193036 56.9042C0.242744 56.1995 0.228593 55.4879 0.230356 54.7816C1.14616 54.4599 2.10087 54.1473 2.93361 53.6403C3.84887 53.0831 4.41353 52.4216 4.66583 51.374C4.60964 51.1327 4.54287 50.8805 4.43725 50.6557C3.70891 49.1057 1.71173 48.5503 0.221047 48.0304C0.288188 47.3057 0.263716 46.5501 0.285684 45.8207C0.871856 45.6677 1.46223 45.4575 2.01792 45.2157C2.96838 44.802 4.16671 44.1295 4.55274 43.0961C4.74663 42.577 4.70019 42.012 4.46086 41.5161C3.71349 39.9673 1.7226 39.3964 0.228761 38.8923C0.281257 38.1186 0.264044 37.3339 0.269843 36.5584C0.953405 36.3809 1.60873 36.1727 2.24894 35.8726C3.20209 35.4258 4.33709 34.7235 4.6989 33.6676C4.85481 33.2125 4.81935 32.753 4.60161 32.3253C3.81584 30.782 1.75129 30.2357 0.229813 29.7502C0.251122 29.0334 0.190113 28.3189 0.21847 27.6004C0.728957 27.4205 1.24414 27.2453 1.74742 27.046C2.78784 26.634 4.17016 26.0132 4.62804 24.9142C4.8283 24.4336 4.84575 23.872 4.63896 23.3904C4.00693 21.9187 1.59632 21.1892 0.212317 20.6316C0.314873 20.0844 0.291388 19.5514 0.274505 18.9986C0.735298 18.806 1.186 18.5685 1.61821 18.3181C2.68108 17.7021 4.17653 16.8707 4.50054 15.593C4.64383 15.028 4.54551 14.4351 4.25013 13.9356C3.47833 12.6306 1.56166 12.0182 0.179688 11.6578L0.167635 9.93624C0.700968 9.8284 1.13995 9.67097 1.58691 9.35696C2.36934 8.80723 3.02482 8.01227 3.68887 7.32796C4.69276 6.29757 5.70194 5.27243 6.71642 4.25253C7.33518 3.6267 7.93109 2.96636 8.59932 2.39328ZM35.2341 0.532098C35.2323 0.534752 35.2307 0.537549 35.2295 0.540489C35.2282 0.543428 35.2273 0.546463 35.2265 0.549593C35.2258 0.552722 35.2253 0.555889 35.2252 0.559093C35.225 0.562305 35.2252 0.565495 35.2257 0.568666C35.2262 0.571843 35.2269 0.574949 35.2279 0.577983C35.229 0.581025 35.2303 0.58394 35.2319 0.586731C35.2334 0.589521 35.2353 0.592145 35.2374 0.594602C35.2394 0.597053 35.2417 0.599293 35.2442 0.601323C35.2467 0.603353 35.2493 0.605135 35.2521 0.606669C35.2549 0.608203 35.2579 0.609466 35.2609 0.610457C35.264 0.611448 35.2671 0.612148 35.2703 0.612555C35.2734 0.612969 35.2766 0.613085 35.2798 0.612901C35.283 0.612718 35.2862 0.612239 35.2893 0.611465C35.2924 0.610692 35.2954 0.609639 35.2983 0.608309C35.3012 0.606978 35.304 0.605386 35.3065 0.603533C35.3092 0.601686 35.3116 0.599612 35.3138 0.597311C35.3172 0.593869 35.32 0.590037 35.3223 0.585814C35.3246 0.581592 35.3262 0.577138 35.3273 0.572454C35.3283 0.567769 35.3286 0.563034 35.3284 0.558248C35.3281 0.553455 35.3272 0.548792 35.3256 0.544257C35.3241 0.539722 35.3219 0.535486 35.3191 0.531548C35.3164 0.527611 35.3132 0.524125 35.3095 0.52109C35.3058 0.518055 35.3017 0.515588 35.2973 0.513687C35.2929 0.511779 35.2883 0.510513 35.2836 0.509888C35.2788 0.509264 35.2741 0.509298 35.2694 0.50999C35.2646 0.510683 35.2601 0.512007 35.2558 0.513962C35.2514 0.515924 35.2473 0.518446 35.2437 0.521528C35.24 0.52461 35.2368 0.528133 35.2341 0.532098ZM51.9242 0.483657L52.0145 0.562423C52.3622 0.574042 52.6909 0.564552 53.0367 0.526558C53.0345 0.528765 53.0326 0.531161 53.0309 0.533748C53.0292 0.536334 53.0277 0.539063 53.0265 0.541935C53.0254 0.544806 53.0245 0.547766 53.0239 0.550815C53.0233 0.553856 53.023 0.556928 53.0231 0.56003C53.0231 0.563133 53.0234 0.566205 53.024 0.569246C53.0246 0.572287 53.0255 0.575237 53.0268 0.578095C53.028 0.580953 53.0294 0.583669 53.0311 0.586242C53.0329 0.588815 53.0348 0.591194 53.037 0.59338C53.0392 0.595566 53.0416 0.597518 53.0442 0.599235C53.0468 0.600953 53.0495 0.602402 53.0523 0.603584C53.0552 0.604765 53.0581 0.605651 53.0612 0.606242C53.0642 0.606839 53.0673 0.607134 53.0704 0.607127C53.0735 0.607114 53.0766 0.606798 53.0797 0.60618C53.0826 0.605563 53.0856 0.604656 53.0885 0.603462C53.0913 0.60226 53.0941 0.60079 53.0966 0.599052C53.0992 0.597321 53.1016 0.595352 53.1037 0.593146C53.1059 0.59094 53.1079 0.588543 53.1096 0.585957C53.1113 0.583363 53.1127 0.580627 53.1139 0.577749C53.1151 0.574877 53.116 0.571917 53.1165 0.568869C53.1171 0.565814 53.1174 0.562736 53.1174 0.559633C53.1174 0.556524 53.1171 0.553449 53.1164 0.550407C53.1158 0.547359 53.1149 0.544403 53.1138 0.541538C53.1126 0.538673 53.1111 0.535954 53.1093 0.533381C53.1076 0.530808 53.1057 0.528429 53.1034 0.526243C53.1013 0.524057 53.0989 0.522108 53.0962 0.520397C53.0936 0.51868 53.0909 0.517234 53.0881 0.51606C53.0853 0.514885 53.0823 0.514003 53.0793 0.513412C53.0762 0.512821 53.0731 0.512533 53.07 0.512546C53.0669 0.51256 53.0638 0.512876 53.0608 0.513493C53.0577 0.514118 53.0548 0.515031 53.0519 0.516233C53.0491 0.517434 53.0464 0.518904 53.0438 0.520642C53.0412 0.52238 53.0389 0.524352 53.0367 0.526558C52.7328 0.397433 52.2497 0.455602 51.9242 0.483657ZM51.2267 0.596456C51.2239 0.594432 51.2211 0.592688 51.218 0.591221C51.215 0.589755 51.2118 0.588594 51.2085 0.587739C51.2052 0.586877 51.2019 0.586337 51.1985 0.58612C51.1951 0.585902 51.1918 0.586008 51.1885 0.586435C51.1851 0.586863 51.1818 0.587606 51.1786 0.588665C51.1754 0.589724 51.1723 0.591082 51.1693 0.592739C51.1664 0.594395 51.1636 0.596316 51.161 0.598502C51.1584 0.600688 51.156 0.603102 51.1539 0.605743C51.1518 0.608383 51.15 0.611204 51.1484 0.614205C51.1468 0.617205 51.1455 0.620328 51.1445 0.623573C51.1435 0.626825 51.1429 0.630138 51.1426 0.633512C51.1422 0.636886 51.1421 0.640263 51.1425 0.643644C51.1427 0.647025 51.1433 0.650348 51.1443 0.653613C51.1452 0.656879 51.1465 0.660022 51.1479 0.663043C51.1495 0.666071 51.1513 0.668926 51.1534 0.671607C51.1555 0.674282 51.1578 0.676736 51.1603 0.67897C51.1639 0.682113 51.1679 0.684723 51.1721 0.6868C51.1765 0.688878 51.181 0.690348 51.1856 0.69121C51.1903 0.692072 51.195 0.692296 51.1997 0.691882C51.2045 0.691468 51.2091 0.690432 51.2136 0.688776C51.218 0.687119 51.2222 0.684896 51.2261 0.682106C51.2299 0.679323 51.2334 0.676071 51.2364 0.67235C51.2394 0.66863 51.2418 0.664581 51.2437 0.660202C51.2456 0.655823 51.2469 0.651268 51.2476 0.646536C51.2483 0.641804 51.2483 0.637069 51.2477 0.632331C51.2471 0.627592 51.2459 0.623017 51.244 0.618604C51.2421 0.614198 51.2397 0.610114 51.2368 0.606353C51.2339 0.602599 51.2305 0.5993 51.2267 0.596456ZM25.8227 137.289C25.8189 137.292 25.8154 137.295 25.8124 137.298C25.8094 137.301 25.8069 137.305 25.8049 137.309C25.8029 137.314 25.8015 137.318 25.8007 137.322C25.7999 137.327 25.7997 137.332 25.8001 137.337C25.8006 137.341 25.8016 137.346 25.8033 137.35C25.8051 137.355 25.8074 137.359 25.8101 137.362C25.813 137.366 25.8163 137.37 25.82 137.372C25.8237 137.375 25.8277 137.377 25.8321 137.38C25.8364 137.382 25.8409 137.383 25.8456 137.383C25.8503 137.383 25.8549 137.383 25.8595 137.383C25.8641 137.382 25.8686 137.381 25.8729 137.378C25.8772 137.376 25.8811 137.374 25.8847 137.371C25.8873 137.369 25.8896 137.367 25.8917 137.364C25.8938 137.361 25.8956 137.359 25.8972 137.356C25.8988 137.353 25.9001 137.35 25.9011 137.347C25.9022 137.344 25.9028 137.341 25.9032 137.338C25.9036 137.334 25.9037 137.331 25.9035 137.328C25.9032 137.324 25.9027 137.321 25.9018 137.317C25.901 137.315 25.8998 137.312 25.8984 137.308C25.8969 137.305 25.8952 137.303 25.8932 137.3C25.8912 137.297 25.8889 137.295 25.8865 137.293C25.8841 137.291 25.8814 137.289 25.8786 137.287C25.8757 137.285 25.8728 137.284 25.8698 137.283C25.8666 137.281 25.8635 137.281 25.8602 137.281C25.857 137.28 25.8537 137.28 25.8504 137.28C25.8471 137.28 25.8439 137.28 25.8406 137.281C25.8374 137.281 25.8343 137.282 25.8314 137.284C25.8283 137.285 25.8254 137.287 25.8227 137.289ZM15.6183 0.509298L15.6362 0.635864C15.7745 0.639306 15.9032 0.632443 16.0409 0.618665C15.8727 0.500826 15.8503 0.46493 15.6357 0.503707C15.6297 0.504787 15.6241 0.507434 15.6183 0.509298ZM25.743 0.505632C25.7423 0.510642 25.7423 0.515652 25.743 0.520662C25.7437 0.525679 25.7451 0.530489 25.7472 0.535092C25.7493 0.539701 25.7519 0.543921 25.7552 0.547749C25.7585 0.551585 25.7623 0.554871 25.7666 0.557607C25.7708 0.560343 25.7754 0.562423 25.7802 0.563849C25.785 0.565275 25.79 0.565988 25.795 0.565988C25.8 0.565988 25.805 0.565275 25.8098 0.563849C25.8146 0.562423 25.8192 0.560343 25.8234 0.557607C25.8277 0.554871 25.8315 0.551585 25.8348 0.547749C25.8381 0.543921 25.8407 0.539701 25.8428 0.535092C25.8449 0.530489 25.8463 0.525679 25.847 0.520662C25.8477 0.515652 25.8477 0.510642 25.847 0.505632C25.8465 0.50253 25.8458 0.499495 25.8449 0.496528C25.8439 0.493555 25.8426 0.490693 25.8411 0.487944C25.8396 0.485201 25.8378 0.482611 25.8358 0.480174C25.8339 0.477737 25.8317 0.475493 25.8293 0.473443C25.827 0.471393 25.8244 0.46957 25.8217 0.467975C25.8191 0.466379 25.8163 0.465035 25.8133 0.463942C25.8104 0.462849 25.8074 0.462028 25.8043 0.461478C25.8012 0.460921 25.7981 0.460643 25.795 0.460643C25.7919 0.460643 25.7888 0.460921 25.7857 0.461478C25.7826 0.462028 25.7796 0.462849 25.7767 0.463942C25.7737 0.465035 25.7709 0.466379 25.7683 0.467975C25.7656 0.46957 25.763 0.471393 25.7607 0.473443C25.7583 0.475493 25.7561 0.477737 25.7542 0.480174C25.7522 0.482611 25.7505 0.485201 25.7489 0.487944C25.7474 0.490693 25.7462 0.493555 25.7451 0.496528C25.7442 0.499495 25.7435 0.50253 25.743 0.505632ZM33.837 0.503443C33.8727 0.504817 33.9377 0.514797 33.9706 0.503422L33.837 0.503443ZM43.9791 0.521996C44.0454 0.540275 44.1009 0.566772 44.1696 0.552922L44.0763 0.478239L43.9791 0.521996ZM51.4421 0.503728L51.5747 0.503534C51.5361 0.500551 51.476 0.48498 51.4421 0.503728ZM61.8491 0.501773C61.8503 0.506932 61.8523 0.511745 61.8552 0.516212C61.858 0.520686 61.8615 0.524559 61.8657 0.527831C61.8699 0.53111 61.8744 0.533609 61.8795 0.535326C61.8845 0.537037 61.8896 0.537875 61.8949 0.537841C61.9002 0.5378 61.9053 0.536887 61.9103 0.535102C61.9153 0.53331 61.9198 0.530747 61.9239 0.527414C61.9281 0.52408 61.9315 0.520157 61.9343 0.515642C61.9371 0.511134 61.939 0.50629 61.9402 0.501111C61.9412 0.496515 61.9415 0.491871 61.9411 0.48718C61.9408 0.482489 61.9397 0.477961 61.938 0.473596C61.9363 0.469224 61.9339 0.465205 61.9309 0.461539C61.928 0.457873 61.9245 0.454726 61.9207 0.452099C61.9168 0.449472 61.9126 0.447479 61.9081 0.446122C61.9036 0.444757 61.899 0.444092 61.8943 0.444126C61.8895 0.44416 61.8849 0.444889 61.8805 0.446315C61.876 0.447734 61.8718 0.449788 61.868 0.452476C61.8641 0.455157 61.8607 0.458348 61.8578 0.462048C61.8549 0.465755 61.8526 0.469808 61.8509 0.474207C61.8492 0.478599 61.8482 0.483148 61.848 0.487852C61.8476 0.49255 61.848 0.49719 61.8491 0.501773ZM42.2608 0.569297C42.2613 0.572203 42.262 0.575044 42.2631 0.57782C42.264 0.58059 42.2652 0.583258 42.2666 0.585824C42.2681 0.588384 42.2698 0.590797 42.2716 0.593064C42.2735 0.595339 42.2755 0.597426 42.2778 0.599327C42.28 0.601235 42.2824 0.602932 42.2849 0.604419C42.2875 0.605905 42.2901 0.607158 42.2929 0.608176C42.2956 0.609195 42.2984 0.609965 42.3013 0.610488C42.3043 0.611011 42.3072 0.611275 42.3101 0.611282C42.313 0.611289 42.3159 0.611038 42.3188 0.610529C42.3217 0.610019 42.3246 0.609259 42.3273 0.608248C42.3301 0.607243 42.3327 0.606001 42.3353 0.604521C42.3378 0.603047 42.3402 0.60136 42.3425 0.59946C42.3447 0.597559 42.3468 0.595478 42.3487 0.593217C42.3505 0.590957 42.3522 0.588547 42.3537 0.585987C42.3551 0.583428 42.3563 0.58076 42.3573 0.577983C42.3583 0.575213 42.3591 0.572376 42.3595 0.56947C42.3604 0.564664 42.3605 0.55984 42.3598 0.555C42.3592 0.550159 42.358 0.545502 42.3561 0.541029C42.3541 0.536562 42.3516 0.532465 42.3485 0.528738C42.3453 0.525017 42.3417 0.52182 42.3376 0.519145C42.3335 0.51647 42.3292 0.514434 42.3245 0.513035C42.3198 0.511643 42.3151 0.510941 42.3103 0.510927C42.3054 0.51092 42.3006 0.511606 42.296 0.512984C42.2913 0.514369 42.2869 0.516389 42.2829 0.519043C42.2788 0.521704 42.2752 0.524895 42.272 0.528615C42.2689 0.532329 42.2663 0.536419 42.2644 0.540886C42.2624 0.545346 42.2611 0.549993 42.2605 0.554827C42.2599 0.559667 42.26 0.564491 42.2608 0.569297ZM17.3557 0.717798C17.3525 0.72477 17.3503 0.732044 17.3492 0.73962C17.3481 0.747197 17.348 0.754783 17.349 0.76238C17.35 0.769976 17.352 0.777291 17.3551 0.784324C17.358 0.791358 17.362 0.797838 17.3668 0.803764C17.3717 0.809691 17.3773 0.814837 17.3835 0.819202C17.3898 0.82356 17.3966 0.826975 17.4038 0.829446C17.4111 0.83191 17.4185 0.833329 17.4261 0.833703C17.4337 0.834083 17.4413 0.833404 17.4487 0.831666C17.4561 0.829928 17.4632 0.827196 17.4699 0.823469C17.4766 0.819748 17.4826 0.815176 17.488 0.809752C17.4934 0.804334 17.498 0.798272 17.5017 0.791565C17.5054 0.784864 17.5081 0.77778 17.5098 0.770312C17.511 0.765404 17.5117 0.760431 17.5119 0.755394C17.5121 0.750357 17.5118 0.745343 17.5112 0.740354C17.5104 0.735364 17.5093 0.730479 17.5077 0.7257C17.5061 0.720921 17.504 0.716328 17.5016 0.711922C17.4992 0.707523 17.4963 0.703382 17.4931 0.699499C17.4899 0.695616 17.4864 0.692062 17.4825 0.688837C17.4787 0.685612 17.4745 0.682768 17.4701 0.680304C17.4657 0.677832 17.4612 0.675789 17.4564 0.674173C17.4517 0.672551 17.4468 0.67138 17.4418 0.67066C17.4369 0.66994 17.4319 0.669679 17.4269 0.669876C17.4218 0.67008 17.4168 0.670742 17.4119 0.671862C17.4071 0.672982 17.4023 0.67454 17.3976 0.676536C17.393 0.678532 17.3886 0.680935 17.3845 0.683745C17.3803 0.686556 17.3764 0.689726 17.3728 0.693256C17.3692 0.69678 17.366 0.700605 17.3631 0.704733C17.3602 0.708861 17.3578 0.713216 17.3557 0.717798ZM16.7657 0.840047C16.7662 0.845315 16.7671 0.850498 16.7684 0.855596C16.7699 0.860688 16.7717 0.86561 16.774 0.870362C16.7764 0.875107 16.7791 0.879598 16.7822 0.883834C16.7854 0.88807 16.7889 0.891977 16.7928 0.895555C16.7967 0.899133 16.8009 0.90232 16.8054 0.905117C16.8099 0.907914 16.8145 0.910273 16.8194 0.912194C16.8244 0.914115 16.8294 0.915568 16.8347 0.916553C16.8398 0.91753 16.845 0.918019 16.8503 0.918019C16.8556 0.918026 16.8608 0.917544 16.8659 0.916573C16.8711 0.915602 16.8762 0.91416 16.8811 0.912245C16.886 0.910338 16.8907 0.907989 16.8952 0.905198C16.8997 0.902408 16.9038 0.899231 16.9078 0.895667C16.9116 0.892096 16.9152 0.888196 16.9183 0.883967C16.9215 0.879744 16.9243 0.875263 16.9266 0.870525C16.9289 0.865786 16.9307 0.860871 16.9322 0.85578C16.9336 0.850688 16.9345 0.845512 16.935 0.84025C16.9357 0.832396 16.9353 0.824595 16.9338 0.816849C16.9323 0.809103 16.9298 0.801707 16.9263 0.79466C16.9227 0.78762 16.9183 0.781191 16.913 0.775373C16.9077 0.769562 16.9017 0.764586 16.895 0.760445C16.8883 0.756304 16.8811 0.753154 16.8736 0.750995C16.866 0.748843 16.8583 0.74776 16.8505 0.747747C16.8426 0.74774 16.8349 0.748806 16.8273 0.750944C16.8198 0.753082 16.8126 0.756216 16.8059 0.760343C16.7992 0.764464 16.7932 0.769426 16.7878 0.775231C16.7825 0.781028 16.7781 0.787447 16.7745 0.794487C16.771 0.80152 16.7685 0.808907 16.7669 0.816646C16.7654 0.824392 16.765 0.832192 16.7657 0.840047ZM16.9688 1.52243C16.9681 1.52849 16.9683 1.53451 16.9694 1.54052C16.9704 1.54652 16.9723 1.55227 16.9749 1.55774C16.9776 1.56323 16.9809 1.56824 16.985 1.57279C16.989 1.57732 16.9936 1.58121 16.9988 1.58445C17.0039 1.58768 17.0094 1.59013 17.0152 1.59182C17.0211 1.59349 17.0271 1.59433 17.0332 1.59433C17.0392 1.59433 17.0452 1.59349 17.0511 1.59181C17.0569 1.59012 17.0624 1.58766 17.0675 1.58442C17.0727 1.58119 17.0773 1.57731 17.0813 1.57278C17.0854 1.56824 17.0888 1.56323 17.0915 1.55774C17.0941 1.55226 17.096 1.54651 17.097 1.5405C17.0981 1.5345 17.0983 1.52846 17.0976 1.5224C17.0972 1.51846 17.0964 1.51458 17.0953 1.51078C17.0941 1.50698 17.0927 1.50331 17.0909 1.49977C17.0891 1.49624 17.0869 1.49291 17.0845 1.48976C17.0821 1.48662 17.0794 1.48372 17.0765 1.48108C17.0735 1.47842 17.0703 1.47606 17.067 1.47399C17.0636 1.47192 17.0601 1.47017 17.0564 1.46875C17.0526 1.46734 17.0488 1.46627 17.045 1.46555C17.0411 1.46482 17.0371 1.46446 17.0332 1.46446C17.0293 1.46446 17.0254 1.46482 17.0214 1.46555C17.0175 1.46627 17.0137 1.46734 17.01 1.46875C17.0063 1.47018 17.0028 1.47193 16.9994 1.474C16.996 1.47607 16.9929 1.47843 16.9899 1.48109C16.987 1.48373 16.9843 1.48663 16.9819 1.48978C16.9795 1.49293 16.9773 1.49627 16.9755 1.4998C16.9738 1.50333 16.9723 1.507 16.9712 1.5108C16.97 1.51461 16.9692 1.51849 16.9688 1.52243ZM25.5376 1.78647C25.5341 1.79203 25.5313 1.79796 25.5293 1.80426C25.5274 1.81056 25.5262 1.81701 25.526 1.82362C25.5257 1.83022 25.5263 1.83673 25.5278 1.84317C25.5293 1.8496 25.5316 1.85573 25.5347 1.86156C25.5378 1.86738 25.5416 1.8727 25.5462 1.8775C25.5507 1.8823 25.5558 1.88642 25.5614 1.88986C25.567 1.8933 25.573 1.89594 25.5793 1.89778C25.5856 1.89962 25.5921 1.9006 25.5987 1.90071C25.6053 1.90083 25.6118 1.90008 25.6182 1.89845C25.6245 1.89682 25.6306 1.89439 25.6364 1.89114C25.6421 1.88789 25.6473 1.88394 25.652 1.8793C25.6567 1.87465 25.6607 1.86947 25.664 1.86376C25.6664 1.8596 25.6684 1.85526 25.67 1.85071C25.6715 1.84617 25.6726 1.84153 25.6732 1.83677C25.6739 1.83201 25.6741 1.82724 25.6738 1.82245C25.6736 1.81765 25.6729 1.81293 25.6717 1.80827C25.6705 1.80361 25.6689 1.79912 25.6668 1.79478C25.6648 1.79044 25.6624 1.78634 25.6595 1.78248C25.6567 1.77861 25.6535 1.77506 25.65 1.77182C25.6464 1.76857 25.6426 1.7657 25.6385 1.7632C25.6344 1.7607 25.6301 1.75862 25.6256 1.75695C25.6211 1.75528 25.6165 1.75407 25.6118 1.7533C25.607 1.75253 25.6023 1.75222 25.5976 1.75238C25.5928 1.75254 25.588 1.75316 25.5833 1.75423C25.5787 1.75531 25.5741 1.75683 25.5697 1.75878C25.5654 1.76074 25.5613 1.76309 25.5573 1.76586C25.5534 1.76862 25.5498 1.77174 25.5465 1.77521C25.5432 1.77868 25.5402 1.78243 25.5376 1.78647ZM53.7125 4.64345C53.7126 4.64683 53.7131 4.65017 53.7139 4.65347C53.7147 4.65677 53.7158 4.65996 53.7172 4.66305C53.7186 4.66613 53.7203 4.66905 53.7221 4.67181C53.7241 4.67458 53.7263 4.67713 53.7288 4.67947C53.7312 4.68181 53.7338 4.68389 53.7367 4.68572C53.7395 4.68756 53.7425 4.6891 53.7457 4.69036C53.7488 4.69161 53.752 4.69256 53.7554 4.6932C53.7587 4.69383 53.762 4.69414 53.7654 4.69413C53.7688 4.69413 53.7722 4.6938 53.7755 4.69316C53.7788 4.69251 53.782 4.69155 53.7851 4.69029C53.7882 4.68902 53.7912 4.68746 53.7941 4.68562C53.7969 4.68378 53.7995 4.68169 53.802 4.67934C53.8044 4.677 53.8066 4.67444 53.8086 4.67167C53.8105 4.6689 53.8121 4.66597 53.8136 4.66288C53.8149 4.6598 53.816 4.65661 53.8168 4.65332C53.8176 4.65002 53.818 4.64668 53.8181 4.6433C53.8183 4.63853 53.8179 4.63383 53.8168 4.62918C53.8157 4.62453 53.814 4.62011 53.8117 4.61592C53.8095 4.61172 53.8067 4.60791 53.8034 4.60447C53.8001 4.60103 53.7964 4.59809 53.7923 4.59565C53.7882 4.59321 53.7839 4.59136 53.7793 4.59009C53.7747 4.58884 53.77 4.58821 53.7652 4.58822C53.7605 4.58823 53.7558 4.58887 53.7512 4.59014C53.7466 4.59142 53.7423 4.59328 53.7382 4.59574C53.7341 4.59818 53.7304 4.60113 53.7271 4.60457C53.7238 4.60802 53.721 4.61185 53.7188 4.61605C53.7166 4.62025 53.7149 4.62467 53.7138 4.62932C53.7127 4.63398 53.7123 4.63869 53.7125 4.64345ZM58.7177 5.32324C58.7174 5.32799 58.7177 5.33269 58.7186 5.33734C58.7196 5.342 58.7211 5.34644 58.7233 5.35067C58.7255 5.3549 58.7282 5.35876 58.7314 5.36224C58.7347 5.36572 58.7383 5.36869 58.7424 5.37117C58.7465 5.37365 58.7507 5.37553 58.7553 5.37681C58.7599 5.3781 58.7646 5.37874 58.7693 5.37874C58.774 5.37874 58.7787 5.3781 58.7833 5.37681C58.7879 5.37553 58.7922 5.37365 58.7962 5.37117C58.8003 5.36869 58.8039 5.36572 58.8072 5.36224C58.8104 5.35876 58.813 5.35491 58.8152 5.35068C58.8174 5.34645 58.819 5.34201 58.82 5.33735C58.8209 5.3327 58.8212 5.328 58.8209 5.32325C58.8207 5.32001 58.8201 5.31681 58.8193 5.31367C58.8185 5.31052 58.8174 5.30748 58.816 5.30454C58.8146 5.30161 58.8129 5.29883 58.811 5.29621C58.8091 5.29359 58.8069 5.29116 58.8045 5.28894C58.8022 5.28673 58.7996 5.28475 58.7969 5.28302C58.7942 5.28128 58.7913 5.27982 58.7883 5.27863C58.7852 5.27743 58.7821 5.27653 58.7789 5.27593C58.7758 5.27532 58.7725 5.27501 58.7693 5.27501C58.766 5.27501 58.7628 5.27532 58.7597 5.27593C58.7565 5.27653 58.7534 5.27743 58.7503 5.27863C58.7473 5.27982 58.7445 5.28128 58.7417 5.28302C58.739 5.28475 58.7364 5.28672 58.7341 5.28894C58.7317 5.29116 58.7295 5.29358 58.7276 5.2962C58.7257 5.29882 58.724 5.3016 58.7226 5.30454C58.7212 5.30748 58.7201 5.31051 58.7192 5.31366C58.7184 5.3168 58.7179 5.32 58.7177 5.32324ZM6.46288 7.07535C6.11984 7.56331 6.30169 8.82862 6.30674 9.45839L6.31645 92.9439L6.26145 120.733C6.25845 122.537 6.27656 124.343 6.23703 126.145C6.21258 127.26 6.03015 129.63 6.21405 130.596C6.21729 130.614 6.22231 130.63 6.22645 130.647C6.56957 130.868 7.3459 130.745 7.75943 130.74C17.4748 130.672 27.1902 130.676 36.9054 130.751L73.4277 130.745L90.5046 130.85C92.093 130.864 93.6814 130.871 95.2697 130.869C95.8373 130.869 96.5447 130.955 97.0914 130.844C97.1662 130.829 97.2275 130.798 97.2952 130.765L97.3699 130.671L97.3818 130.718C97.613 130.054 97.4691 124.877 97.4686 123.771L97.4669 107.923L97.3422 17.8933C97.3275 15.5841 97.2501 13.279 97.2169 10.9711C97.2042 10.0851 97.4056 8.08187 97.1375 7.34037C96.9198 7.11906 96.7048 7.13675 96.4089 7.13421L37.8678 7.13513L17.6295 7.10272C15.2217 7.07391 12.8138 7.06618 10.4058 7.07954C9.09899 7.07446 7.76676 7.0087 6.46288 7.07535ZM103.071 127.763C103.07 127.767 103.071 127.772 103.072 127.777C103.073 127.782 103.074 127.786 103.077 127.791C103.079 127.795 103.082 127.799 103.085 127.802C103.088 127.806 103.092 127.809 103.096 127.811C103.1 127.814 103.105 127.816 103.109 127.818C103.114 127.819 103.119 127.82 103.124 127.82C103.128 127.82 103.133 127.819 103.138 127.818C103.143 127.816 103.147 127.814 103.151 127.811C103.155 127.809 103.159 127.806 103.162 127.802C103.166 127.799 103.168 127.795 103.17 127.79C103.172 127.786 103.174 127.782 103.174 127.777C103.176 127.772 103.176 127.767 103.175 127.763C103.175 127.759 103.175 127.756 103.173 127.752C103.173 127.75 103.172 127.747 103.17 127.743C103.169 127.74 103.167 127.738 103.165 127.735C103.163 127.732 103.161 127.73 103.159 127.728C103.157 127.726 103.154 127.724 103.151 127.722C103.148 127.72 103.146 127.718 103.143 127.718C103.14 127.716 103.137 127.715 103.134 127.715C103.13 127.714 103.127 127.714 103.124 127.714C103.12 127.714 103.117 127.714 103.114 127.715C103.11 127.715 103.107 127.716 103.104 127.717C103.101 127.718 103.098 127.72 103.095 127.722C103.093 127.723 103.09 127.725 103.087 127.728C103.085 127.73 103.083 127.732 103.081 127.735C103.079 127.738 103.077 127.74 103.076 127.743C103.075 127.747 103.074 127.75 103.073 127.752C103.072 127.756 103.071 127.759 103.071 127.763ZM25.4124 136.507C25.4067 136.51 25.4012 136.514 25.3961 136.519C25.3909 136.524 25.386 136.529 25.3814 136.533C25.3769 136.539 25.3727 136.544 25.3689 136.55C25.3652 136.556 25.3618 136.562 25.3588 136.568C25.3558 136.574 25.3533 136.58 25.3512 136.586C25.3491 136.593 25.3474 136.6 25.3462 136.607C25.345 136.613 25.3442 136.62 25.344 136.627C25.3436 136.634 25.3438 136.641 25.3445 136.647C25.3451 136.654 25.3463 136.661 25.3478 136.668C25.3494 136.674 25.3514 136.681 25.3539 136.687C25.3564 136.694 25.3592 136.7 25.3626 136.705C25.3659 136.711 25.3696 136.717 25.3737 136.723C25.3778 136.729 25.3822 136.734 25.387 136.739C25.3919 136.744 25.397 136.748 25.4025 136.752C25.4079 136.756 25.4136 136.76 25.4195 136.763C25.4255 136.767 25.4316 136.77 25.438 136.773C25.4444 136.775 25.4509 136.777 25.4575 136.779C25.4641 136.781 25.4708 136.782 25.4776 136.783C25.4844 136.783 25.4912 136.784 25.498 136.784C25.5049 136.783 25.5117 136.782 25.5184 136.782C25.5252 136.78 25.5319 136.779 25.5384 136.777C25.5449 136.775 25.5513 136.772 25.5574 136.77C25.5637 136.767 25.5697 136.763 25.5754 136.759C25.5811 136.756 25.5866 136.752 25.5918 136.747C25.5953 136.744 25.5987 136.74 25.6019 136.737C25.6052 136.734 25.6083 136.73 25.6112 136.727C25.6141 136.723 25.6168 136.72 25.6194 136.716C25.622 136.711 25.6243 136.707 25.6265 136.703C25.6287 136.699 25.6306 136.695 25.6324 136.69C25.6342 136.686 25.6357 136.682 25.6371 136.677C25.6385 136.673 25.6396 136.668 25.6405 136.664C25.6415 136.659 25.6422 136.654 25.6428 136.649C25.6432 136.645 25.6435 136.64 25.6436 136.635C25.6436 136.631 25.6435 136.627 25.6432 136.622C25.6428 136.617 25.6422 136.612 25.6413 136.608C25.6405 136.603 25.6395 136.598 25.6383 136.593C25.637 136.589 25.6355 136.585 25.6339 136.58C25.6323 136.576 25.6304 136.572 25.6283 136.568C25.6263 136.563 25.6241 136.559 25.6216 136.555C25.6191 136.551 25.6165 136.548 25.6137 136.543C25.6109 136.539 25.608 136.536 25.6048 136.532C25.6017 136.529 25.5984 136.525 25.5949 136.522C25.5915 136.519 25.5879 136.517 25.5841 136.514C25.5803 136.511 25.5765 136.508 25.5725 136.506C25.5685 136.503 25.5644 136.501 25.5602 136.499C25.556 136.497 25.5517 136.495 25.5473 136.493C25.543 136.491 25.5385 136.49 25.534 136.488C25.5295 136.487 25.5249 136.486 25.5203 136.485C25.5157 136.485 25.511 136.484 25.5064 136.483C25.5017 136.483 25.497 136.483 25.4922 136.483C25.4876 136.483 25.4829 136.483 25.4782 136.483C25.4736 136.484 25.4689 136.485 25.4643 136.485C25.4597 136.487 25.4552 136.488 25.4507 136.489C25.4462 136.491 25.4417 136.492 25.4374 136.494C25.4331 136.496 25.4288 136.498 25.4246 136.5C25.4204 136.502 25.4163 136.504 25.4124 136.507ZM15.9434 136.728C15.942 136.734 15.9412 136.74 15.9409 136.746C15.9407 136.753 15.9411 136.759 15.942 136.765C15.943 136.772 15.9446 136.778 15.9468 136.784C15.949 136.79 15.9517 136.796 15.9549 136.801C15.9582 136.807 15.9619 136.812 15.9662 136.816C15.9705 136.82 15.9751 136.825 15.9802 136.829C15.9852 136.833 15.9906 136.836 15.9964 136.839C16.002 136.841 16.0079 136.844 16.014 136.845C16.0201 136.846 16.0263 136.847 16.0326 136.848C16.0388 136.849 16.0451 136.848 16.0513 136.847C16.0575 136.846 16.0636 136.845 16.0696 136.843C16.0756 136.841 16.0813 136.838 16.0867 136.836C16.0922 136.832 16.0974 136.829 16.1022 136.825C16.1069 136.82 16.1113 136.816 16.1152 136.811C16.1191 136.806 16.1225 136.8 16.1253 136.795C16.1283 136.79 16.1306 136.784 16.1323 136.778C16.1349 136.77 16.1362 136.761 16.1363 136.752C16.1365 136.743 16.1356 136.735 16.1335 136.726C16.1313 136.718 16.1281 136.709 16.1238 136.701C16.1195 136.694 16.1142 136.687 16.1081 136.681C16.1019 136.675 16.095 136.669 16.0875 136.665C16.0799 136.661 16.0718 136.658 16.0634 136.655C16.0549 136.653 16.0463 136.651 16.0376 136.651C16.0288 136.651 16.0202 136.653 16.0118 136.655C16.0034 136.658 15.9955 136.662 15.988 136.666C15.9805 136.67 15.9737 136.676 15.9677 136.682C15.9618 136.689 15.9567 136.696 15.9526 136.703C15.9485 136.711 15.9454 136.719 15.9434 136.728ZM16.8016 137.403C16.7946 137.411 16.7888 137.42 16.7842 137.43C16.7796 137.44 16.7765 137.45 16.7746 137.461C16.7727 137.472 16.7723 137.483 16.7734 137.494C16.7744 137.504 16.7769 137.515 16.7807 137.525C16.7846 137.535 16.7897 137.545 16.7961 137.554C16.8024 137.562 16.8098 137.57 16.8182 137.577C16.8266 137.584 16.8358 137.589 16.8457 137.593C16.8556 137.598 16.8659 137.601 16.8766 137.603C16.8873 137.604 16.898 137.604 16.9088 137.604C16.9196 137.602 16.93 137.599 16.9401 137.595C16.9502 137.591 16.9595 137.586 16.9682 137.579C16.9769 137.573 16.9845 137.566 16.9912 137.557C16.9936 137.553 16.9959 137.55 16.998 137.547C17.0001 137.544 17.002 137.54 17.0038 137.536C17.0055 137.533 17.0071 137.53 17.0085 137.526C17.0099 137.522 17.0112 137.518 17.0123 137.515C17.0134 137.511 17.0142 137.507 17.0149 137.503C17.0156 137.499 17.0161 137.496 17.0164 137.492C17.0167 137.487 17.0168 137.483 17.0168 137.479C17.0167 137.475 17.0164 137.471 17.0159 137.468C17.0155 137.464 17.0149 137.46 17.014 137.456C17.0132 137.452 17.0122 137.448 17.011 137.445C17.0098 137.441 17.0085 137.437 17.0069 137.433C17.0053 137.43 17.0036 137.426 17.0016 137.422C16.9997 137.419 16.9977 137.416 16.9954 137.413C16.9932 137.41 16.9908 137.406 16.9883 137.403C16.9858 137.4 16.9831 137.397 16.9803 137.395C16.9774 137.392 16.9745 137.389 16.9715 137.387C16.9684 137.384 16.9652 137.382 16.9619 137.38C16.9587 137.377 16.9553 137.375 16.9518 137.373C16.9483 137.371 16.9447 137.37 16.9411 137.368C16.9374 137.367 16.9337 137.366 16.9299 137.364C16.9262 137.364 16.9224 137.363 16.9184 137.362C16.9146 137.361 16.9107 137.36 16.9068 137.36C16.9029 137.359 16.899 137.359 16.895 137.359C16.8911 137.359 16.8871 137.359 16.8832 137.36C16.8793 137.36 16.8754 137.361 16.8715 137.362C16.8677 137.363 16.8638 137.364 16.86 137.364C16.8563 137.366 16.8526 137.367 16.849 137.368C16.8453 137.37 16.8417 137.371 16.8382 137.373C16.8348 137.375 16.8314 137.377 16.8281 137.38C16.8247 137.382 16.8215 137.384 16.8185 137.387C16.8155 137.389 16.8125 137.391 16.8097 137.394C16.8068 137.397 16.8041 137.4 16.8016 137.403ZM17.2119 137.386C17.2075 137.391 17.2038 137.396 17.201 137.402C17.1981 137.408 17.1961 137.414 17.195 137.421C17.1939 137.428 17.1937 137.435 17.1944 137.442C17.1951 137.448 17.1967 137.455 17.1992 137.461C17.2016 137.467 17.2048 137.473 17.2089 137.478C17.2129 137.484 17.2175 137.488 17.2228 137.493C17.2281 137.497 17.2338 137.5 17.24 137.502C17.2462 137.504 17.2526 137.506 17.2592 137.507C17.2658 137.507 17.2724 137.507 17.279 137.507C17.2856 137.505 17.292 137.503 17.2981 137.501C17.3041 137.498 17.3097 137.494 17.3148 137.489C17.3199 137.485 17.3244 137.481 17.3281 137.475C17.3308 137.471 17.333 137.467 17.3348 137.463C17.3367 137.459 17.3381 137.455 17.3391 137.45C17.3401 137.445 17.3407 137.441 17.3409 137.437C17.3411 137.432 17.3408 137.427 17.34 137.422C17.3393 137.418 17.3382 137.413 17.3366 137.409C17.335 137.404 17.3331 137.4 17.3308 137.396C17.3284 137.392 17.3257 137.388 17.3226 137.385C17.3195 137.381 17.3162 137.378 17.3125 137.375C17.3088 137.373 17.3049 137.37 17.3007 137.368C17.2966 137.366 17.2923 137.365 17.2877 137.363C17.2833 137.362 17.2787 137.361 17.2741 137.36C17.2694 137.36 17.2648 137.36 17.2602 137.36C17.2555 137.361 17.251 137.362 17.2465 137.363C17.242 137.365 17.2377 137.366 17.2336 137.368C17.2295 137.37 17.2256 137.373 17.2219 137.376C17.2183 137.379 17.2149 137.382 17.2119 137.386ZM25.7967 137.378L25.625 137.54L25.7955 137.515L25.9781 137.544C25.9152 137.466 25.8847 137.432 25.7967 137.378ZM16.2121 137.605C16.2119 137.611 16.2125 137.617 16.2139 137.623C16.2153 137.629 16.2175 137.635 16.2205 137.64C16.2235 137.646 16.2271 137.651 16.2315 137.655C16.2357 137.66 16.2405 137.663 16.2459 137.667C16.2512 137.67 16.2569 137.672 16.263 137.674C16.269 137.676 16.2752 137.677 16.2814 137.677C16.2877 137.677 16.2938 137.676 16.2999 137.674C16.306 137.672 16.3116 137.67 16.317 137.667C16.3223 137.663 16.3272 137.66 16.3315 137.655C16.3358 137.651 16.3394 137.646 16.3424 137.64C16.3454 137.635 16.3476 137.629 16.3491 137.623C16.3505 137.617 16.3511 137.611 16.3509 137.605C16.3508 137.6 16.3502 137.595 16.3492 137.591C16.3482 137.587 16.3467 137.583 16.3449 137.579C16.3432 137.575 16.341 137.571 16.3384 137.567C16.3358 137.563 16.333 137.56 16.3298 137.557C16.3266 137.554 16.3231 137.551 16.3193 137.549C16.3156 137.546 16.3117 137.544 16.3075 137.542C16.3034 137.541 16.2991 137.54 16.2947 137.538C16.2904 137.538 16.286 137.537 16.2815 137.537C16.2771 137.537 16.2726 137.538 16.2682 137.538C16.2639 137.539 16.2597 137.54 16.2555 137.542C16.2513 137.544 16.2474 137.546 16.2437 137.549C16.2399 137.551 16.2365 137.554 16.2333 137.557C16.23 137.56 16.2271 137.563 16.2246 137.567C16.222 137.571 16.2198 137.575 16.2181 137.579C16.2162 137.583 16.2148 137.587 16.2138 137.591C16.2128 137.595 16.2122 137.6 16.2121 137.605ZM25.3506 137.606C25.35 137.612 25.3504 137.619 25.3517 137.625C25.353 137.632 25.3551 137.638 25.3581 137.644C25.3611 137.65 25.3648 137.655 25.3693 137.661C25.3738 137.665 25.3789 137.669 25.3845 137.673C25.3901 137.676 25.3961 137.679 25.4026 137.681C25.4089 137.682 25.4154 137.683 25.4221 137.683C25.4287 137.683 25.4352 137.682 25.4416 137.681C25.448 137.679 25.454 137.676 25.4596 137.673C25.4653 137.669 25.4703 137.665 25.4749 137.661C25.4793 137.655 25.4831 137.65 25.486 137.644C25.4891 137.638 25.4912 137.632 25.4924 137.625C25.4937 137.619 25.4941 137.612 25.4936 137.606C25.4932 137.601 25.4924 137.596 25.4912 137.592C25.4901 137.588 25.4885 137.584 25.4866 137.58C25.4846 137.576 25.4823 137.572 25.4797 137.569C25.477 137.565 25.474 137.561 25.4707 137.559C25.4675 137.555 25.4639 137.553 25.4602 137.551C25.4564 137.548 25.4524 137.546 25.4482 137.544C25.444 137.542 25.4398 137.541 25.4354 137.54C25.431 137.54 25.4265 137.539 25.4221 137.539C25.4176 137.539 25.4132 137.54 25.4088 137.54C25.4044 137.541 25.4001 137.542 25.396 137.544C25.3918 137.546 25.3878 137.548 25.384 137.551C25.3802 137.553 25.3767 137.555 25.3734 137.559C25.3701 137.561 25.3671 137.565 25.3645 137.569C25.3618 137.572 25.3595 137.576 25.3576 137.58C25.3556 137.584 25.3541 137.588 25.3529 137.592C25.3517 137.596 25.3509 137.601 25.3506 137.606ZM88.2335 137.6C88.234 137.603 88.2347 137.606 88.2356 137.609C88.2366 137.611 88.2378 137.614 88.2392 137.616C88.2406 137.618 88.2422 137.621 88.244 137.623C88.2458 137.625 88.2477 137.627 88.2498 137.629C88.252 137.631 88.2543 137.633 88.2567 137.634C88.2591 137.635 88.2616 137.636 88.2642 137.637C88.2668 137.638 88.2695 137.639 88.2722 137.639C88.275 137.64 88.2777 137.64 88.2805 137.64C88.2833 137.64 88.286 137.64 88.2887 137.639C88.2915 137.639 88.2941 137.638 88.2968 137.637C88.2993 137.636 88.3018 137.635 88.3043 137.634C88.3067 137.633 88.3089 137.631 88.3111 137.629C88.3133 137.628 88.3152 137.626 88.317 137.624C88.3188 137.622 88.3204 137.619 88.3219 137.617C88.3233 137.615 88.3245 137.612 88.3255 137.61C88.3265 137.607 88.3273 137.604 88.3279 137.601C88.3289 137.597 88.3291 137.592 88.3287 137.587C88.3283 137.582 88.3271 137.578 88.3253 137.573C88.3235 137.569 88.3211 137.565 88.3181 137.561C88.3151 137.557 88.3116 137.554 88.3076 137.552C88.3037 137.549 88.2994 137.547 88.2948 137.545C88.2903 137.544 88.2857 137.543 88.2809 137.543C88.2762 137.543 88.2716 137.544 88.267 137.545C88.2624 137.547 88.2581 137.549 88.2542 137.552C88.2503 137.554 88.2468 137.557 88.2438 137.561C88.2408 137.565 88.2384 137.569 88.2365 137.573C88.2347 137.577 88.2335 137.581 88.233 137.586C88.2324 137.591 88.2326 137.596 88.2335 137.6Z" fill="#655A6F"/>
<path d="M16.908 120.724C16.876 120.708 16.828 120.68 16.764 120.64C16.708 120.592 16.648 120.54 16.584 120.484C16.528 120.42 16.488 120.364 16.464 120.316C16.44 120.276 16.44 120.204 16.464 120.1C16.496 119.996 16.528 119.944 16.56 119.944C16.584 119.96 16.624 119.932 16.68 119.86C16.736 119.788 16.792 119.712 16.848 119.632C16.904 119.544 16.932 119.492 16.932 119.476C16.94 119.444 16.96 119.42 16.992 119.404C17.032 119.38 17.068 119.356 17.1 119.332C17.14 119.268 17.192 119.204 17.256 119.14C17.328 119.068 17.384 119.008 17.424 118.96C17.488 118.88 17.604 118.76 17.772 118.6C17.94 118.44 18.104 118.276 18.264 118.108C18.432 117.924 18.58 117.764 18.708 117.628C18.836 117.484 18.904 117.384 18.912 117.328C18.912 117.328 18.924 117.316 18.948 117.292C18.98 117.26 19.016 117.232 19.056 117.208C19.096 117.184 19.148 117.144 19.212 117.088C19.284 117.032 19.344 116.98 19.392 116.932C19.408 116.868 19.452 116.78 19.524 116.668C19.604 116.548 19.684 116.448 19.764 116.368C19.828 116.272 19.888 116.168 19.944 116.056C20 115.936 20.036 115.848 20.052 115.792C20.076 115.704 20.076 115.652 20.052 115.636C20.028 115.612 19.928 115.572 19.752 115.516C19.56 115.452 19.348 115.428 19.116 115.444C18.892 115.452 18.64 115.556 18.36 115.756C18.248 115.78 18.144 115.812 18.048 115.852C17.96 115.892 17.884 115.908 17.82 115.9C17.788 115.884 17.752 115.848 17.712 115.792C17.672 115.736 17.628 115.684 17.58 115.636L17.46 115.384L17.832 115.18C18.16 114.972 18.456 114.828 18.72 114.748C18.992 114.668 19.24 114.664 19.464 114.736C19.552 114.736 19.632 114.748 19.704 114.772C19.776 114.788 19.812 114.796 19.812 114.796C19.876 114.788 19.956 114.824 20.052 114.904C20.148 114.976 20.24 115.068 20.328 115.18C20.424 115.292 20.496 115.404 20.544 115.516C20.672 115.708 20.712 115.912 20.664 116.128C20.624 116.336 20.504 116.588 20.304 116.884C20.264 116.932 20.176 117.032 20.04 117.184C19.904 117.336 19.748 117.508 19.572 117.7C19.404 117.884 19.248 118.048 19.104 118.192C18.968 118.336 18.88 118.428 18.84 118.468C18.784 118.492 18.688 118.576 18.552 118.72C18.424 118.856 18.284 119.008 18.132 119.176C17.988 119.336 17.864 119.48 17.76 119.608C17.664 119.728 17.624 119.788 17.64 119.788C17.632 119.82 17.644 119.836 17.676 119.836C17.708 119.828 17.76 119.812 17.832 119.788C17.952 119.748 18.108 119.708 18.3 119.668C18.5 119.628 18.704 119.596 18.912 119.572C19.12 119.54 19.3 119.52 19.452 119.512C19.612 119.504 19.704 119.512 19.728 119.536C19.744 119.576 19.756 119.592 19.764 119.584C19.78 119.568 19.788 119.56 19.788 119.56C19.804 119.504 19.904 119.488 20.088 119.512C20.28 119.536 20.452 119.572 20.604 119.62C20.692 119.644 20.76 119.664 20.808 119.68C20.864 119.696 20.892 119.72 20.892 119.752C20.892 119.752 20.9 119.772 20.916 119.812C20.94 119.844 20.976 119.888 21.024 119.944C21.152 120.048 21.168 120.116 21.072 120.148C20.976 120.18 20.768 120.168 20.448 120.112C20.24 120.112 20.068 120.124 19.932 120.148C19.9 120.164 19.832 120.172 19.728 120.172C19.624 120.172 19.524 120.176 19.428 120.184C19.284 120.168 19.14 120.176 18.996 120.208C18.852 120.232 18.68 120.276 18.48 120.34C18.408 120.364 18.296 120.4 18.144 120.448C17.992 120.496 17.828 120.544 17.652 120.592C17.476 120.64 17.316 120.676 17.172 120.7C17.036 120.724 16.948 120.732 16.908 120.724ZM23.7623 120.748C23.7063 120.748 23.6183 120.724 23.4983 120.676C23.3863 120.62 23.2663 120.556 23.1383 120.484C23.0103 120.404 22.9063 120.328 22.8263 120.256C22.6503 120.088 22.5023 119.884 22.3823 119.644C22.2623 119.404 22.1783 119.148 22.1303 118.876C22.0823 118.596 22.0783 118.328 22.1183 118.072C22.2063 117.56 22.3983 117.056 22.6943 116.56C22.9903 116.056 23.3303 115.64 23.7143 115.312C23.9223 115.128 24.1103 114.988 24.2783 114.892C24.4463 114.788 24.6503 114.708 24.8903 114.652C24.9783 114.628 25.0743 114.616 25.1783 114.616C25.2823 114.608 25.3623 114.604 25.4183 114.604C25.5783 114.604 25.7383 114.636 25.8983 114.7C26.0583 114.764 26.1943 114.844 26.3063 114.94C26.4183 115.028 26.4743 115.112 26.4743 115.192C26.4743 115.248 26.4703 115.292 26.4623 115.324C26.4543 115.348 26.4183 115.344 26.3543 115.312H26.2343L26.3543 115.66C26.3863 115.724 26.4143 115.812 26.4383 115.924C26.4623 116.028 26.4743 116.124 26.4743 116.212C26.4743 116.284 26.4623 116.4 26.4383 116.56C26.4143 116.712 26.3823 116.876 26.3423 117.052C26.3023 117.228 26.2623 117.392 26.2223 117.544C26.1823 117.696 26.1463 117.808 26.1143 117.88C26.0903 117.928 26.0743 117.976 26.0663 118.024C26.0663 118.064 26.0663 118.1 26.0663 118.132C26.0343 118.188 25.9823 118.296 25.9103 118.456C25.8463 118.616 25.7983 118.728 25.7663 118.792C25.7343 118.824 25.7063 118.852 25.6823 118.876C25.6663 118.9 25.6743 118.928 25.7063 118.96C25.7063 118.976 25.6863 119.028 25.6463 119.116C25.6063 119.196 25.5623 119.272 25.5143 119.344C25.4743 119.416 25.4423 119.452 25.4183 119.452C25.4183 119.452 25.4063 119.456 25.3823 119.464C25.3663 119.464 25.3583 119.476 25.3583 119.5C25.3583 119.532 25.3063 119.616 25.2023 119.752C25.0983 119.88 24.9743 120.016 24.8303 120.16C24.7503 120.24 24.6383 120.328 24.4943 120.424C24.3583 120.512 24.2223 120.588 24.0863 120.652C23.9503 120.716 23.8423 120.748 23.7623 120.748ZM23.7263 119.992C23.8143 119.992 23.8983 119.98 23.9783 119.956C24.0583 119.924 24.1263 119.88 24.1823 119.824C24.3263 119.728 24.4943 119.572 24.6863 119.356C24.8783 119.132 25.0183 118.916 25.1063 118.708C25.1943 118.588 25.2623 118.464 25.3103 118.336C25.3663 118.2 25.4503 117.972 25.5623 117.652C25.6263 117.564 25.6703 117.456 25.6943 117.328C25.7183 117.2 25.7303 117.092 25.7303 117.004C25.7303 116.916 25.7303 116.796 25.7303 116.644C25.7383 116.492 25.7583 116.364 25.7903 116.26C25.7903 116.052 25.7863 115.916 25.7783 115.852C25.7703 115.78 25.7383 115.712 25.6823 115.648C25.6503 115.624 25.6063 115.6 25.5503 115.576C25.5023 115.552 25.4503 115.54 25.3943 115.54C25.3383 115.54 25.2343 115.572 25.0823 115.636C24.9303 115.692 24.8223 115.74 24.7583 115.78C24.7023 115.812 24.6383 115.816 24.5663 115.792C24.5023 115.768 24.4703 115.736 24.4703 115.696C24.4703 115.584 24.3983 115.576 24.2543 115.672C24.1103 115.76 23.9503 115.912 23.7743 116.128C23.6303 116.272 23.5063 116.42 23.4023 116.572C23.3063 116.716 23.2583 116.804 23.2583 116.836C23.2583 116.868 23.2463 116.908 23.2223 116.956C23.1983 117.004 23.1743 117.06 23.1503 117.124C23.1103 117.18 23.0623 117.272 23.0063 117.4C22.9503 117.528 22.8943 117.656 22.8383 117.784C22.7903 117.904 22.7583 117.996 22.7423 118.06C22.7423 118.092 22.7423 118.18 22.7423 118.324C22.7423 118.46 22.7423 118.588 22.7423 118.708C22.7423 118.844 22.7463 118.96 22.7543 119.056C22.7703 119.152 22.7903 119.236 22.8143 119.308C22.8383 119.372 22.8703 119.444 22.9103 119.524C22.9423 119.58 22.9903 119.648 23.0543 119.728C23.1263 119.8 23.1743 119.852 23.1983 119.884C23.2863 119.964 23.3583 120.012 23.4143 120.028C23.4703 120.036 23.5743 120.024 23.7263 119.992ZM27.7127 120.724C27.6807 120.708 27.6327 120.68 27.5687 120.64C27.5127 120.592 27.4527 120.54 27.3887 120.484C27.3327 120.42 27.2927 120.364 27.2687 120.316C27.2447 120.276 27.2447 120.204 27.2687 120.1C27.3007 119.996 27.3327 119.944 27.3647 119.944C27.3887 119.96 27.4287 119.932 27.4847 119.86C27.5407 119.788 27.5967 119.712 27.6527 119.632C27.7087 119.544 27.7367 119.492 27.7367 119.476C27.7447 119.444 27.7647 119.42 27.7967 119.404C27.8367 119.38 27.8727 119.356 27.9047 119.332C27.9447 119.268 27.9967 119.204 28.0607 119.14C28.1327 119.068 28.1887 119.008 28.2287 118.96C28.2927 118.88 28.4087 118.76 28.5767 118.6C28.7447 118.44 28.9087 118.276 29.0687 118.108C29.2367 117.924 29.3847 117.764 29.5127 117.628C29.6407 117.484 29.7087 117.384 29.7167 117.328C29.7167 117.328 29.7287 117.316 29.7527 117.292C29.7847 117.26 29.8207 117.232 29.8607 117.208C29.9007 117.184 29.9527 117.144 30.0167 117.088C30.0887 117.032 30.1487 116.98 30.1967 116.932C30.2127 116.868 30.2567 116.78 30.3287 116.668C30.4087 116.548 30.4887 116.448 30.5687 116.368C30.6327 116.272 30.6927 116.168 30.7487 116.056C30.8047 115.936 30.8407 115.848 30.8567 115.792C30.8807 115.704 30.8807 115.652 30.8567 115.636C30.8327 115.612 30.7327 115.572 30.5567 115.516C30.3647 115.452 30.1527 115.428 29.9207 115.444C29.6967 115.452 29.4447 115.556 29.1647 115.756C29.0527 115.78 28.9487 115.812 28.8527 115.852C28.7647 115.892 28.6887 115.908 28.6247 115.9C28.5927 115.884 28.5567 115.848 28.5167 115.792C28.4767 115.736 28.4327 115.684 28.3847 115.636L28.2647 115.384L28.6367 115.18C28.9647 114.972 29.2607 114.828 29.5247 114.748C29.7967 114.668 30.0447 114.664 30.2687 114.736C30.3567 114.736 30.4367 114.748 30.5087 114.772C30.5807 114.788 30.6167 114.796 30.6167 114.796C30.6807 114.788 30.7607 114.824 30.8567 114.904C30.9527 114.976 31.0447 115.068 31.1327 115.18C31.2287 115.292 31.3007 115.404 31.3487 115.516C31.4767 115.708 31.5167 115.912 31.4687 116.128C31.4287 116.336 31.3087 116.588 31.1087 116.884C31.0687 116.932 30.9807 117.032 30.8447 117.184C30.7087 117.336 30.5527 117.508 30.3767 117.7C30.2087 117.884 30.0527 118.048 29.9087 118.192C29.7727 118.336 29.6847 118.428 29.6447 118.468C29.5887 118.492 29.4927 118.576 29.3567 118.72C29.2287 118.856 29.0887 119.008 28.9367 119.176C28.7927 119.336 28.6687 119.48 28.5647 119.608C28.4687 119.728 28.4287 119.788 28.4447 119.788C28.4367 119.82 28.4487 119.836 28.4807 119.836C28.5127 119.828 28.5647 119.812 28.6367 119.788C28.7567 119.748 28.9127 119.708 29.1047 119.668C29.3047 119.628 29.5087 119.596 29.7167 119.572C29.9247 119.54 30.1047 119.52 30.2567 119.512C30.4167 119.504 30.5087 119.512 30.5327 119.536C30.5487 119.576 30.5607 119.592 30.5687 119.584C30.5847 119.568 30.5927 119.56 30.5927 119.56C30.6087 119.504 30.7087 119.488 30.8927 119.512C31.0847 119.536 31.2567 119.572 31.4087 119.62C31.4967 119.644 31.5647 119.664 31.6127 119.68C31.6687 119.696 31.6967 119.72 31.6967 119.752C31.6967 119.752 31.7047 119.772 31.7207 119.812C31.7447 119.844 31.7807 119.888 31.8287 119.944C31.9567 120.048 31.9727 120.116 31.8767 120.148C31.7807 120.18 31.5727 120.168 31.2527 120.112C31.0447 120.112 30.8727 120.124 30.7367 120.148C30.7047 120.164 30.6367 120.172 30.5327 120.172C30.4287 120.172 30.3287 120.176 30.2327 120.184C30.0887 120.168 29.9447 120.176 29.8007 120.208C29.6567 120.232 29.4847 120.276 29.2847 120.34C29.2127 120.364 29.1007 120.4 28.9487 120.448C28.7967 120.496 28.6327 120.544 28.4567 120.592C28.2807 120.64 28.1207 120.676 27.9767 120.7C27.8407 120.724 27.7527 120.732 27.7127 120.724ZM33.211 120.712C33.067 120.608 32.995 120.52 32.995 120.448C32.963 120.4 32.927 120.376 32.887 120.376C32.863 120.384 32.839 120.36 32.815 120.304C32.799 120.248 32.783 120.184 32.767 120.112C32.759 120.032 32.759 119.976 32.767 119.944C32.799 119.88 32.847 119.844 32.911 119.836C32.975 119.82 33.035 119.828 33.091 119.86C33.155 119.884 33.191 119.928 33.199 119.992C33.215 120.056 33.275 120.108 33.379 120.148C33.491 120.188 33.635 120.204 33.811 120.196C34.035 120.188 34.267 120.132 34.507 120.028C34.755 119.924 34.983 119.792 35.191 119.632C35.407 119.472 35.579 119.308 35.707 119.14C35.763 119.028 35.815 118.88 35.863 118.696C35.911 118.512 35.943 118.348 35.959 118.204C35.975 118.06 35.963 117.988 35.923 117.988C35.923 117.988 35.915 117.96 35.899 117.904C35.891 117.848 35.875 117.788 35.851 117.724C35.811 117.604 35.719 117.484 35.575 117.364C35.431 117.236 35.291 117.144 35.155 117.088C35.099 117.072 34.995 117.06 34.843 117.052C34.699 117.036 34.567 117.036 34.447 117.052C34.319 117.06 34.203 117.06 34.099 117.052C34.003 117.044 33.955 117.04 33.955 117.04C33.915 117.032 33.855 117 33.775 116.944C33.703 116.888 33.635 116.828 33.571 116.764C33.507 116.7 33.475 116.648 33.475 116.608C33.491 116.552 33.531 116.464 33.595 116.344C33.659 116.216 33.735 116.076 33.823 115.924C33.919 115.764 34.019 115.616 34.123 115.48C34.227 115.336 34.327 115.216 34.423 115.12C34.663 114.856 34.935 114.66 35.239 114.532C35.551 114.396 35.871 114.336 36.199 114.352C36.431 114.36 36.595 114.38 36.691 114.412C36.795 114.436 36.895 114.512 36.991 114.64C37.055 114.752 37.083 114.852 37.075 114.94C37.067 115.028 37.035 115.088 36.979 115.12C36.923 115.152 36.847 115.144 36.751 115.096C36.639 115.024 36.483 114.996 36.283 115.012C36.091 115.028 35.887 115.068 35.671 115.132C35.503 115.196 35.323 115.3 35.131 115.444C34.947 115.58 34.835 115.692 34.795 115.78C34.763 115.804 34.739 115.828 34.723 115.852C34.715 115.876 34.695 115.884 34.663 115.876C34.663 115.876 34.651 115.892 34.627 115.924C34.603 115.948 34.591 115.976 34.591 116.008C34.551 116.056 34.523 116.092 34.507 116.116C34.499 116.132 34.479 116.124 34.447 116.092C34.447 116.092 34.447 116.104 34.447 116.128C34.447 116.152 34.443 116.18 34.435 116.212C34.427 116.268 34.431 116.316 34.447 116.356C34.471 116.388 34.559 116.412 34.711 116.428C34.911 116.46 35.063 116.492 35.167 116.524C35.271 116.548 35.423 116.62 35.623 116.74C35.847 116.868 36.027 117.04 36.163 117.256C36.299 117.464 36.391 117.7 36.439 117.964C36.495 118.228 36.503 118.496 36.463 118.768C36.439 118.944 36.415 119.08 36.391 119.176C36.367 119.272 36.299 119.404 36.187 119.572C36.003 119.828 35.779 120.056 35.515 120.256C35.251 120.448 34.975 120.6 34.687 120.712C34.399 120.816 34.123 120.872 33.859 120.88C33.603 120.888 33.387 120.832 33.211 120.712Z" fill="black"/>
<path d="M29.019 48.8961C28.8823 53.4087 28.614 57.7495 27.9965 62.2202C27.5397 65.5269 26.6759 68.8606 26.5879 72.2055C26.4709 76.6511 26.847 81.1515 26.3897 85.5817C26.3666 85.8049 25.989 86.9131 26.2436 87.1677C26.4181 87.3422 27.3187 87.2094 27.4748 87.2094C29.975 87.2094 32.4768 87.1831 34.9768 87.2199C37.431 87.256 39.8944 87.4983 42.3327 87.7729C45.2989 88.1068 48.3456 88.0039 51.3267 87.9607C54.113 87.9203 56.8289 87.2622 59.6217 87.2199C61.739 87.1878 63.8583 87.2094 65.9759 87.2094C67.2386 87.2094 68.5293 87.1891 69.753 86.8338C70.2049 86.7026 70.4098 86.484 70.9007 86.4582C71.6612 86.4182 72.3857 85.3075 72.6745 84.7575C74.6051 81.0801 73.9057 76.1153 73.9057 72.1429C73.9057 67.5146 74.4691 62.9524 74.4691 58.3284C74.4691 54.8469 74.4691 51.3655 74.4691 47.884C74.4691 46.7661 73.9298 46.5632 72.9249 46.4546C71.2495 46.2734 69.6102 45.7278 67.9271 45.5155C64.5193 45.0857 61.1198 45.1399 57.6914 45.1399C53.7755 45.1399 49.8587 45.1174 45.9428 45.1399C43.0254 45.1567 40.2124 45.8018 37.3661 46.3711C35.6076 46.7228 33.8556 47.1395 32.0657 47.2058C31.676 47.2202 30.5651 47.3499 30.3337 47.5814" stroke="#655A6F" stroke-linecap="round"/>
<path d="M33.7143 50.399C33.7143 53.4041 33.365 56.8792 34.1108 59.8625C34.2911 60.5837 37.9988 59.9773 38.5974 59.9773C44.2575 59.9773 49.8734 59.4139 55.5212 59.4139C57.3471 59.4139 59.173 59.4139 60.999 59.4139C61.4462 59.4139 62.8251 59.4484 62.1571 58.5896C61.5213 57.7721 62.1956 56.6668 62.251 55.6681C62.362 53.6703 61.8068 51.8773 61.698 49.919C61.6668 49.3564 56.412 49.4822 55.9385 49.4599C49.6323 49.1632 43.3677 48.8965 37.0531 48.8965C36.3885 48.8965 35.9978 49.5389 35.4046 49.8355" stroke="#655A6F" stroke-linecap="round"/>
<path d="M65.2665 51.1504C65.3537 52.5894 64.8214 55.6823 66.122 56.6386C66.5788 56.9745 66.7677 56.9725 67.3324 56.9725C68.7849 56.9725 69.2783 56.9376 69.8574 55.3657C70.1932 54.4542 70.0268 52.9276 69.7635 52.006C69.5774 51.3548 66.8948 51.1504 66.2055 51.1504" stroke="#655A6F" stroke-linecap="round"/>
<path d="M32.7753 66.7388C32.7753 69.0643 32.5875 71.3702 32.5875 73.6878C32.5875 75.3432 32.5173 77.0121 32.5979 78.6648C32.6122 78.9575 33.1062 79.125 33.3596 79.3221C36.1442 81.4879 39.9243 81.4787 43.2718 81.6176C45.6774 81.7174 48.2963 81.685 50.659 82.2227C52.56 82.6554 54.1229 83.0657 56.1056 83.0783C58.3104 83.0924 60.5157 83.0783 62.7207 83.0783C63.0239 83.0783 63.9441 83.2288 64.1397 82.9844C64.4092 82.6475 65.5922 82.7582 66.0073 82.494C67.4338 81.5863 67.5592 79.3832 67.7915 77.757C68.1271 75.4083 67.6583 73.0068 68.042 70.662C68.2719 69.2566 68.6899 68.0908 68.6471 66.6345C68.6278 65.977 67.9286 65.6727 67.395 65.6015C63.0697 65.0248 58.525 65.4241 54.1648 65.4241C52.3345 65.4241 50.5083 65.2363 48.6975 65.2363C46.4124 65.2363 44.2226 65.4999 41.9572 65.7998C38.3288 66.28 34.5656 66.551 30.8972 66.551" stroke="#655A6F" stroke-linecap="round"/>
<path d="M20.0042 21.8519C24.1046 20.72 28.166 19.4293 32.264 18.3043C32.6238 18.2056 33.8272 17.7347 34.1839 18.0122C35.0944 18.7204 34.8344 20.8852 35.1751 21.8936C36.1484 24.7746 37.7169 27.4241 38.6705 30.3138C39.1578 31.7906 39.3714 33.1846 39.3487 34.7273C39.3342 35.7138 38.5289 35.3443 37.721 35.4159C34.4059 35.71 31.1077 36.4655 27.8714 37.2106C25.4885 37.7591 23.1067 38.335 20.6928 38.7339C19.1445 38.9898 17.5833 38.9836 16.0393 39.2139C15.7573 39.2559 14.4996 39.8226 14.5681 39.1722C14.7066 37.8568 15.2441 36.6442 15.2985 35.3116C15.4747 30.9953 15.2974 26.6441 15.1316 22.3318C15.1236 22.125 14.9425 21.121 15.3089 21.1006C16.0279 21.0607 16.7593 21.1006 17.4792 21.1006C18.133 21.1006 18.7869 21.1006 19.4408 21.1006" stroke="#655A6F" stroke-linecap="round"/>
<path d="M70.9008 22.0395C73.9633 29.0719 79.4667 35.078 81.1678 42.6883C81.294 43.2529 81.9085 47.3586 82.5451 47.394C83.55 47.4498 84.7771 46.014 85.5709 45.495C87.0424 44.5328 88.6702 42.7063 90.4331 42.3231C90.6653 42.2726 91.11 42.0009 91.2782 41.8327C93.2051 39.9058 91.4491 37.1264 90.3183 35.2593C89.1821 33.3832 88.0627 31.2673 87.7098 29.072C87.4344 27.3582 87.276 25.7302 86.7812 24.0637C86.3983 22.7738 85.8034 21.6103 85.1327 20.5371C84.9101 20.1809 83.9122 20.3121 83.5571 20.2449C82.5325 20.0511 81.6299 19.9736 80.5835 19.9736C76.6717 19.9736 72.8779 20.5498 69.0227 21.1005" stroke="#655A6F" stroke-linecap="round"/>
<path d="M83.672 88.1484C79.6385 92.7011 74.6164 96.4522 69.9305 100.304C68.6477 101.358 67.3921 102.487 66.0178 103.424C64.953 104.15 63.8623 104.834 62.8355 105.615C62.4423 105.914 61.5925 106.366 61.5208 106.94C61.4087 107.837 61.8377 108.151 62.6372 108.432C64.6108 109.124 66.2545 110.157 67.9481 111.385C69.6971 112.653 71.3201 114.026 72.8416 115.548C73.2799 115.986 75.0098 118.165 75.6587 117.624C76.7795 116.69 77.651 115.463 78.7681 114.505C79.9154 113.52 81.0542 112.505 82.253 111.583C83.6702 110.493 85.0363 109.321 86.3013 108.056C86.7615 107.596 87.1687 107.297 87.7204 106.929C88.5233 106.394 89.2019 105.554 90.0158 105.093C91.0648 104.499 92.4991 102.202 92.4991 100.92C92.4991 100.091 92.1122 99.4993 91.6331 98.8328C90.5157 97.2781 89.5709 95.7664 88.3255 94.3044C87.4666 93.2961 86.3977 92.484 85.6336 91.4143C85.1521 90.7402 84.7476 89.742 84.0476 89.2753" stroke="#655A6F" stroke-linecap="round"/>
<path d="M11.5527 108.996C20.6705 108.872 29.9152 108.366 39.0357 108.808C39.4377 108.828 40.6022 108.782 40.8929 109.205C41.8414 110.584 41.6227 113.236 41.832 114.797C42.3134 118.39 42.6175 121.941 42.9066 125.555C42.9383 125.95 43.0245 126.275 42.5623 126.275C40.6418 126.275 38.8201 125.859 36.9071 125.753C31.6611 125.463 26.3411 125.106 21.0893 125.44C20.2272 125.495 11.4397 126.689 11.5632 125.701C11.674 124.814 12.0172 123.94 12.2205 123.071C12.7636 120.751 13.0062 118.177 13.0552 115.799C13.1024 113.513 13.0552 111.22 13.0552 108.933C13.0552 108.1 12.8239 106.431 13.5247 105.73C13.6192 105.636 13.1106 106.348 13.0761 106.461C12.9214 106.963 12.9339 107.361 12.6796 107.869" stroke="#655A6F" stroke-linecap="round"/>
</svg>
