<svg width="104" height="139" viewBox="0 0 104 139" fill="none" xmlns="http://www.w3.org/2000/svg">
<path d="M6 7V131H98V7H6Z" fill="white"/>
<path d="M8.59932 2.39328C9.30687 3.06223 11.4923 5.43429 12.298 5.51151C12.6902 5.5491 13.043 5.28953 13.3315 5.05384C15.311 3.43681 14.9056 0.54001 15.301 0.247637C15.5608 0.0555764 17.1151 0.0720283 17.4545 0.148394C17.5905 0.17898 17.6786 0.224672 17.7631 0.342449C17.9298 0.57502 17.9609 1.99065 18.0431 2.36613C18.0729 2.50199 18.1078 2.63647 18.1481 2.76957C18.1883 2.90267 18.2337 3.03398 18.2843 3.16351C18.3348 3.29303 18.3903 3.42037 18.4508 3.54552C18.5113 3.67067 18.5767 3.79324 18.6468 3.91324C19.0442 4.59518 19.5937 5.1566 20.3802 5.34704C21.0359 5.50578 21.779 5.37854 22.3521 5.02476C23.3152 4.4303 23.8419 3.13593 23.9713 2.05303C24.0406 1.47403 24.0274 0.880494 24.1652 0.312162C24.3015 0.155616 24.4123 0.14269 24.6058 0.0763816C25.209 0.0668543 25.9258 -0.00890842 26.515 0.0964179C26.7311 0.135071 26.8695 0.185731 26.9593 0.399812C27.0722 0.66897 27.0514 1.02334 27.0629 1.31326C27.1032 2.33862 27.276 3.31885 27.8657 4.18343C28.2719 4.779 28.8579 5.1948 29.5731 5.31883C29.6142 5.3263 29.6555 5.33275 29.6969 5.33818C29.7383 5.3436 29.7798 5.348 29.8214 5.35137C29.8631 5.35473 29.9048 5.35705 29.9465 5.35834C29.9882 5.35963 30.03 5.35989 30.0718 5.35911C30.1135 5.35832 30.1552 5.3565 30.1969 5.35365C30.2386 5.3508 30.2801 5.34691 30.3216 5.34199C30.3631 5.33707 30.4044 5.33112 30.4456 5.32415C30.4868 5.31717 30.5278 5.30918 30.5685 5.30018C30.6093 5.29117 30.6498 5.28115 30.6901 5.27012C30.7304 5.2591 30.7704 5.24708 30.8102 5.23408C30.8498 5.22106 30.8892 5.20707 30.9282 5.19211C30.9672 5.17714 31.0058 5.16122 31.0441 5.14433C31.0822 5.12745 31.12 5.10963 31.1573 5.09087C31.1947 5.07211 31.2315 5.05243 31.2679 5.03184C31.3043 5.01125 31.3401 4.98977 31.3754 4.9674C31.4107 4.94502 31.4454 4.92179 31.4796 4.8977C32.3517 4.27162 32.8593 3.10253 32.9932 2.06252C33.055 1.58275 33.0509 1.08637 33.1375 0.610977C33.1671 0.448291 33.2017 0.276221 33.355 0.190619C33.6477 0.0272917 35.179 0.058945 35.5032 0.196226C35.8362 0.337264 35.8209 1.96559 35.8793 2.33188C35.9094 2.5202 35.9501 2.70619 36.0013 2.88984C36.0526 3.0735 36.1142 3.25363 36.1861 3.43022C36.5044 4.20441 37.0323 4.96972 37.8307 5.29737C38.4125 5.53622 39.0781 5.50398 39.6522 5.25823C40.8382 4.75053 41.6157 3.25524 41.7699 2.02632C41.8402 1.46584 41.7801 0.774559 41.9864 0.251281C42.3874 0.0133327 43.8599 0.000249311 44.3063 0.14657C44.4896 0.206677 44.5876 0.328584 44.6379 0.511895C44.7171 0.800567 44.704 1.12753 44.7151 1.42507C44.7479 2.30483 44.823 3.14787 45.2231 3.94942C45.5816 4.6677 46.1588 5.23654 46.9281 5.49065C47.5383 5.69221 48.1683 5.66152 48.7434 5.36874C49.8724 4.79389 50.559 3.23101 50.6899 2.02864C50.7515 1.46262 50.6794 0.77962 50.8495 0.238815C50.92 0.195644 50.9811 0.160308 51.0609 0.13645C51.486 0.00940193 52.991 -0.0386462 53.3455 0.163488C53.6902 0.552597 53.5895 1.41362 53.6586 1.92241C53.797 2.94254 54.2438 4.18379 55.1009 4.81751C55.6489 5.22271 56.4113 5.34633 57.0748 5.23738C58.545 4.996 59.3958 3.40966 59.608 2.05409C59.6898 1.53223 59.5609 0.521416 59.8641 0.105727C60.3728 -0.0299967 61.2966 -0.0141986 61.8295 0.0379636C62.6866 0.121865 62.4222 1.87302 62.54 2.48211C62.6737 3.1735 63.0237 3.89078 63.4883 4.41901C63.9429 4.93588 64.5618 5.32527 65.263 5.35715C66.88 5.43069 67.9739 3.7767 68.2535 2.36348C68.3634 1.80791 68.2988 1.22554 68.4106 0.678491C68.4497 0.487363 68.5149 0.275871 68.67 0.145962C68.934 -0.0751457 70.1349 0.0107634 70.485 0.0605753C70.6219 0.0800363 70.7863 0.106169 70.8737 0.228497C71.1476 0.611557 70.8932 2.83074 72.1355 4.36682C72.5707 4.90495 73.157 5.29181 73.8572 5.35185C77.3405 5.6505 77.0496 0.385527 77.4011 0.160125C77.7493 -0.0631164 79.1404 -0.00160199 79.563 0.0642922C79.9368 0.539033 79.9125 1.4838 80.0315 2.07282C80.2566 3.18569 80.8287 4.51873 81.8145 5.16008C81.8502 5.18288 81.8865 5.20479 81.9233 5.2258C81.9601 5.24681 81.9974 5.2669 82.0351 5.28607C82.0729 5.30524 82.1111 5.32347 82.1498 5.34074C82.1885 5.35803 82.2276 5.37435 82.2671 5.3897C82.3066 5.40504 82.3464 5.41941 82.3865 5.43279C82.4268 5.44617 82.4673 5.45855 82.508 5.46994C82.5488 5.48132 82.5899 5.49168 82.6312 5.50104C82.6725 5.51039 82.714 5.51872 82.7557 5.52603C82.7974 5.53333 82.8393 5.5396 82.8813 5.54484C82.9233 5.55007 82.9654 5.55426 83.0077 5.55741C83.0499 5.56057 83.0921 5.56268 83.1344 5.56375C83.1768 5.56481 83.2192 5.56483 83.2615 5.5638C83.3038 5.56277 83.3461 5.5607 83.3884 5.55758C83.4305 5.55447 83.4727 5.55031 83.5147 5.54512C83.5567 5.53992 83.5986 5.53369 83.6403 5.52642C83.682 5.51915 83.7235 5.51086 83.7648 5.50155C85.3168 5.15532 86.0148 3.32586 86.2249 1.92314C86.2995 1.42523 86.2342 0.616771 86.5028 0.204183C87.0565 -0.0734971 88.0765 0.0351796 88.6848 0.104957C89.0597 0.378584 88.4709 2.49553 90.0279 4.64644C90.3399 5.07742 90.753 5.52317 91.3106 5.58891C92.5337 5.73307 94.3776 3.42581 95.3446 2.66337L103.634 11.0585C102.265 11.9861 99.2942 12.9064 98.6203 14.5056C98.453 14.9027 98.436 15.3092 98.6043 15.7088C99.1801 17.0749 102.148 18.4109 103.497 18.9392C103.493 19.4755 103.512 20.013 103.522 20.5493C102.549 20.9363 101.531 21.2695 100.604 21.7542C99.8468 22.1496 98.9982 22.6732 98.7384 23.5427C98.5796 24.0745 98.6261 24.6773 98.8925 25.1658C99.682 26.6134 102.006 27.2822 103.486 27.7362L103.508 29.7446C102.427 30.0047 101.308 30.2821 100.329 30.8262C99.6183 31.2214 98.888 31.8022 98.6618 32.6218C98.5105 33.1698 98.6049 33.7524 98.8904 34.2392C99.7767 35.7507 101.924 36.3711 103.523 36.7721C103.491 37.5146 103.482 38.2471 103.566 38.9865C102.511 39.1608 101.376 39.4352 100.42 39.9207C99.6849 40.2939 99.0047 40.8455 98.7439 41.6571C98.565 42.2139 98.5845 42.8053 98.8627 43.3259C99.6468 44.7932 102.018 45.281 103.507 45.7225C103.51 46.5044 103.526 47.281 103.572 48.0617C102.454 48.3329 101.333 48.583 100.309 49.1284C99.613 49.4989 98.9157 50.0225 98.6842 50.8143C98.5279 51.3488 98.5791 51.9469 98.848 52.4366C99.5859 53.7803 102.143 54.4107 103.514 54.8291C103.418 55.591 103.448 56.2715 103.549 57.027C102.356 57.3833 101.167 57.6161 100.065 58.2319C99.4231 58.5907 98.8123 59.0974 98.6144 59.8372C98.5975 59.9007 98.5837 59.9648 98.573 60.0296C98.5622 60.0944 98.5546 60.1596 98.5503 60.2251C98.5459 60.2907 98.5447 60.3563 98.5467 60.422C98.5487 60.4876 98.5539 60.553 98.5622 60.6182C98.5705 60.6834 98.582 60.748 98.5966 60.812C98.6113 60.876 98.629 60.9392 98.6497 61.0015C98.6705 61.0638 98.6943 61.1249 98.7209 61.1849C98.7477 61.2449 98.7772 61.3034 98.8096 61.3605C99.6456 62.8139 102.055 63.3111 103.56 63.7227C103.478 64.5036 103.482 65.2161 103.592 65.9931C102.356 66.2324 100.977 66.5788 99.9051 67.2556C99.2957 67.6405 98.7282 68.1868 98.579 68.9209C98.4672 69.4704 98.6042 70.0409 98.9118 70.504C99.857 71.9274 102.089 72.4858 103.662 72.8118C103.441 73.738 103.373 74.2379 103.716 75.161C102.459 75.4506 101.156 75.634 100.005 76.2526C99.3806 76.5883 98.8158 77.0644 98.6183 77.7723C98.4647 78.3228 98.5359 78.9353 98.8288 79.4271C99.6954 80.8819 102.083 81.4575 103.607 81.8459C103.428 82.7172 103.473 83.3577 103.593 84.2354C102.379 84.4346 101.162 84.7129 100.081 85.3249C99.4379 85.6886 98.7664 86.2189 98.5766 86.9709C98.4516 87.466 98.5702 87.9961 98.8237 88.4305C99.6958 89.9249 102.039 90.3768 103.585 90.7634C103.528 91.4928 103.458 92.18 103.602 92.9055C102.437 93.1712 101.271 93.4486 100.215 94.0275C99.4986 94.4197 98.7115 95.03 98.4893 95.859C98.3511 96.3743 98.4338 96.8971 98.696 97.3569C99.5795 98.9071 101.983 99.5495 103.602 99.9731C103.418 100.743 103.406 101.232 103.582 102.017C102.126 102.579 100.458 102.773 99.2713 103.894C98.8248 104.316 98.5171 104.846 98.5126 105.478C98.5085 106.081 98.7923 106.62 99.2103 107.038C99.9916 107.82 102.481 108.973 103.622 108.962C103.66 109.656 103.566 110.322 103.68 111.018C103.364 111.263 102.829 111.331 102.446 111.435C101.229 111.764 99.5885 112.337 98.8823 113.459C98.5895 113.924 98.5138 114.506 98.6422 115.038C99.0068 116.549 101.017 117.171 102.314 117.6C102.721 117.733 103.219 117.853 103.578 118.084C103.636 118.53 103.628 119.02 103.624 119.471C103.622 119.65 103.652 119.845 103.517 119.984C103.041 120.475 100.635 120.728 99.4277 121.941C98.9426 122.428 98.6473 123.074 98.6596 123.769C98.6895 125.454 100.663 126.415 102.01 126.945C102.441 127.115 103.179 127.292 103.506 127.628C103.611 127.736 103.606 127.771 103.608 127.912C103.179 128.613 102.313 129.212 101.727 129.798C100.89 130.637 95.9737 135.811 95.3931 135.987C94.5813 135.887 92.7384 133.241 91.9326 132.67C91.7001 132.505 91.4321 132.403 91.1459 132.468C90.7126 132.566 90.3649 132.96 90.0994 133.295C89.4696 134.089 88.9542 135.05 88.7956 136.062C88.7062 136.633 88.8432 137.398 88.5114 137.887C88.0714 138.213 86.9801 138.041 86.4338 138.041C86.1084 137.772 86.0894 136.143 85.9979 135.683C85.8988 135.184 85.744 134.688 85.5093 134.236C85.1243 133.495 84.5004 132.872 83.6885 132.627C83.0549 132.437 82.2197 132.439 81.6516 132.798C81.4168 132.947 81.2075 133.157 80.962 133.283C80.9394 133.295 80.9165 133.306 80.8938 133.317C80.7531 133.579 80.5613 133.812 80.4193 134.076C79.7933 135.238 79.7963 136.252 79.7124 137.526C79.7034 137.664 79.6579 137.774 79.5519 137.862C79.2604 138.108 77.8655 138.06 77.4758 137.982C77.3178 137.951 77.191 137.915 77.108 137.767C76.8008 137.222 77.1754 135.369 76.2228 133.905C75.7984 133.253 75.1492 132.782 74.3832 132.624C73.6973 132.482 72.9931 132.612 72.4147 133.011C70.8265 134.108 70.9915 136.126 70.6791 137.796C70.6514 137.814 70.6244 137.834 70.596 137.851C70.2715 138.051 68.891 138.031 68.5091 137.939C68.3482 137.9 68.2063 137.807 68.156 137.643C68.0743 137.375 68.0918 137.023 68.0788 136.742C68.03 135.691 67.8737 134.742 67.2796 133.847C66.8472 133.195 66.2851 132.72 65.5025 132.577C64.7973 132.449 64.0277 132.577 63.4399 133C62.5176 133.665 62.0667 134.945 61.9677 136.037C61.9274 136.483 61.9726 136.982 61.872 137.414C61.8296 137.596 61.7748 137.739 61.6081 137.84C61.3849 137.974 59.8169 137.967 59.5228 137.9C59.1521 137.579 59.2439 136.447 59.188 135.942C59.0682 134.858 58.6075 133.741 57.7322 133.054C57.1684 132.611 56.4759 132.447 55.7687 132.535C54.1521 132.737 53.3384 134.366 53.1343 135.831C53.0622 136.348 53.1816 137.519 52.8794 137.908C52.6125 137.973 50.7581 137.999 50.5262 137.865C50.1713 137.662 50.2128 135.714 50.0737 135.15C49.8623 134.293 49.386 133.386 48.6035 132.927C47.971 132.558 47.1221 132.464 46.4197 132.666C45.0895 133.047 44.3731 134.63 44.2527 135.908C44.198 136.487 44.3149 137.345 44.0338 137.856C43.5635 138.077 42.7419 137.976 42.2224 137.957C42.0353 137.951 41.7771 137.962 41.6431 137.811C41.4045 137.541 41.8809 135.035 40.3277 133.394C39.8515 132.891 39.2126 132.56 38.5128 132.551C36.8117 132.527 35.7548 134.022 35.4365 135.548C35.3105 136.151 35.4647 137.482 35.038 137.905C34.4847 137.981 33.7174 137.993 33.1698 137.891C33.0934 137.877 32.9563 137.846 32.898 137.789C32.7937 137.686 32.7807 137.112 32.7657 136.949C32.6601 135.798 32.4962 134.726 31.8324 133.746C31.4278 133.148 30.8751 132.695 30.154 132.565C29.5087 132.448 28.7407 132.577 28.2003 132.959C27.2319 133.644 26.6904 135.029 26.6445 136.185C26.6287 136.581 26.7225 137.051 26.6456 137.434C26.61 137.612 26.5132 137.763 26.3555 137.855C25.951 138.088 24.7105 138.137 24.2636 138.007C23.4622 137.775 23.6031 136.061 23.4668 135.372C23.439 135.237 23.4055 135.102 23.3661 134.969C23.3267 134.836 23.2817 134.705 23.2311 134.576C23.1805 134.447 23.1244 134.32 23.0629 134.196C23.0013 134.072 22.9346 133.951 22.8626 133.833C22.487 133.222 21.9412 132.802 21.238 132.649C20.5709 132.505 19.8956 132.593 19.3178 132.969C18.3646 133.587 17.8154 134.837 17.7002 135.937C17.6397 136.513 17.6806 137.101 17.5584 137.671C17.419 137.822 17.2861 137.865 17.0833 137.899C16.6179 137.976 15.4225 138.065 15.0357 137.793C14.9325 137.469 14.9224 137.093 14.881 136.755C14.7751 135.891 14.6415 135.028 14.3055 134.219C14.0088 133.503 13.5539 132.869 12.8127 132.579C12.5741 132.486 12.2363 132.387 11.9846 132.454C11.0747 132.698 9.09142 135.451 8.41717 135.716C8.39407 135.724 8.3704 135.732 8.34702 135.74C8.32569 135.736 8.30365 135.734 8.28304 135.727C7.81915 135.567 0.249006 128.142 0 127.601C0.272257 127.224 2.12177 126.492 2.67481 126.169C3.20184 125.861 3.70036 125.491 4.1155 125.041C4.53009 124.591 4.82092 124.041 4.77808 123.412C4.66137 121.7 2.5484 120.929 1.21068 120.426C0.919463 120.317 0.46871 120.211 0.243938 120.002C0.219108 119.979 0.195932 119.954 0.17193 119.93L0.164314 117.851C0.196455 117.854 0.250259 117.861 0.28539 117.859C0.513894 117.843 0.813514 117.704 1.03217 117.627C2.1874 117.222 3.59941 116.654 4.35359 115.647C4.68046 115.21 4.82957 114.722 4.74606 114.175C4.5 112.566 2.51668 111.905 1.20072 111.439C0.917411 111.339 0.48275 111.245 0.247231 111.061C0.22219 111.042 0.198161 111.02 0.173626 111C0.15453 110.298 0.129281 109.596 0.0978788 108.895C0.527739 108.962 1.41316 108.543 1.82489 108.365C2.83104 107.929 4.13734 107.225 4.55253 106.131C4.72975 105.665 4.69898 105.171 4.48999 104.722C3.77453 103.184 1.59218 102.53 0.118744 102.01C0.138208 101.302 0.152406 100.594 0.161339 99.8858C0.73208 99.6803 1.29661 99.4588 1.85494 99.2214C2.86909 98.7828 4.23571 98.103 4.64108 96.9951C4.78988 96.5884 4.76181 96.1551 4.57482 95.7659C3.86742 94.2935 1.57845 93.6365 0.153337 93.1312C0.148444 92.4348 0.147799 91.7385 0.151401 91.0423C0.725395 90.8429 1.30206 90.615 1.85233 90.3569C2.84848 89.8896 4.19928 89.0901 4.57224 87.973C4.73088 87.4977 4.6919 87.0249 4.47142 86.577C3.7475 85.1058 1.575 84.3926 0.117958 83.9163C0.160643 83.196 0.125318 82.4656 0.111812 81.7442C1.03439 81.5027 2.00966 81.157 2.84447 80.6966C3.57754 80.2923 4.42109 79.6681 4.64323 78.8108C4.76894 78.3257 4.65394 77.84 4.39449 77.4228C3.56559 76.09 1.62135 75.4715 0.168345 75.121C0.251908 74.3908 0.201293 73.6586 0.170362 72.9264C0.764188 72.7572 1.34551 72.5524 1.91434 72.3119C2.9011 71.8862 4.198 71.1424 4.59253 70.0679C4.75717 69.6196 4.73192 69.1514 4.53556 68.7195C3.80076 67.1031 1.68312 66.4649 0.148289 65.8929C0.232567 65.1924 0.204322 64.4897 0.176449 63.787C0.679373 63.6387 1.18369 63.4529 1.66778 63.2516C2.72997 62.8097 4.12923 62.1214 4.58174 60.9826C4.75538 60.5456 4.74417 60.0995 4.55411 59.6699C3.88334 58.1543 1.6319 57.4309 0.193036 56.9042C0.242744 56.1995 0.228593 55.4879 0.230356 54.7816C1.14616 54.4599 2.10087 54.1473 2.93361 53.6403C3.84887 53.0831 4.41353 52.4216 4.66583 51.374C4.60964 51.1327 4.54287 50.8805 4.43725 50.6557C3.70891 49.1057 1.71173 48.5503 0.221047 48.0304C0.288188 47.3057 0.263716 46.5501 0.285684 45.8207C0.871856 45.6677 1.46223 45.4575 2.01792 45.2157C2.96838 44.802 4.16671 44.1295 4.55274 43.0961C4.74663 42.577 4.70019 42.012 4.46086 41.5161C3.71349 39.9673 1.7226 39.3964 0.228761 38.8923C0.281257 38.1186 0.264044 37.3339 0.269843 36.5584C0.953405 36.3809 1.60873 36.1727 2.24894 35.8726C3.20209 35.4258 4.33709 34.7235 4.6989 33.6676C4.85481 33.2125 4.81935 32.753 4.60161 32.3253C3.81584 30.782 1.75129 30.2357 0.229813 29.7502C0.251122 29.0334 0.190113 28.3189 0.21847 27.6004C0.728957 27.4205 1.24414 27.2453 1.74742 27.046C2.78784 26.634 4.17016 26.0132 4.62804 24.9142C4.8283 24.4336 4.84575 23.872 4.63896 23.3904C4.00693 21.9187 1.59632 21.1892 0.212317 20.6316C0.314873 20.0844 0.291388 19.5514 0.274505 18.9986C0.735298 18.806 1.186 18.5685 1.61821 18.3181C2.68108 17.7021 4.17653 16.8707 4.50054 15.593C4.64383 15.028 4.54551 14.4351 4.25013 13.9356C3.47833 12.6306 1.56166 12.0182 0.179688 11.6578L0.167635 9.93624C0.700968 9.8284 1.13995 9.67097 1.58691 9.35696C2.36934 8.80723 3.02482 8.01227 3.68887 7.32796C4.69276 6.29757 5.70194 5.27243 6.71642 4.25253C7.33518 3.6267 7.93109 2.96636 8.59932 2.39328ZM35.2341 0.532098C35.2323 0.534752 35.2307 0.537549 35.2295 0.540489C35.2282 0.543428 35.2273 0.546463 35.2265 0.549593C35.2258 0.552722 35.2253 0.555889 35.2252 0.559093C35.225 0.562305 35.2252 0.565495 35.2257 0.568666C35.2262 0.571843 35.2269 0.574949 35.2279 0.577983C35.229 0.581025 35.2303 0.58394 35.2319 0.586731C35.2334 0.589521 35.2353 0.592145 35.2374 0.594602C35.2394 0.597053 35.2417 0.599293 35.2442 0.601323C35.2467 0.603353 35.2493 0.605135 35.2521 0.606669C35.2549 0.608203 35.2579 0.609466 35.2609 0.610457C35.264 0.611448 35.2671 0.612148 35.2703 0.612555C35.2734 0.612969 35.2766 0.613085 35.2798 0.612901C35.283 0.612718 35.2862 0.612239 35.2893 0.611465C35.2924 0.610692 35.2954 0.609639 35.2983 0.608309C35.3012 0.606978 35.304 0.605386 35.3065 0.603533C35.3092 0.601686 35.3116 0.599612 35.3138 0.597311C35.3172 0.593869 35.32 0.590037 35.3223 0.585814C35.3246 0.581592 35.3262 0.577138 35.3273 0.572454C35.3283 0.567769 35.3286 0.563034 35.3284 0.558248C35.3281 0.553455 35.3272 0.548792 35.3256 0.544257C35.3241 0.539722 35.3219 0.535486 35.3191 0.531548C35.3164 0.527611 35.3132 0.524125 35.3095 0.52109C35.3058 0.518055 35.3017 0.515588 35.2973 0.513687C35.2929 0.511779 35.2883 0.510513 35.2836 0.509888C35.2788 0.509264 35.2741 0.509298 35.2694 0.50999C35.2646 0.510683 35.2601 0.512007 35.2558 0.513962C35.2514 0.515924 35.2473 0.518446 35.2437 0.521528C35.24 0.52461 35.2368 0.528133 35.2341 0.532098ZM51.9242 0.483657L52.0145 0.562423C52.3622 0.574042 52.6909 0.564552 53.0367 0.526558C53.0345 0.528765 53.0326 0.531161 53.0309 0.533748C53.0292 0.536334 53.0277 0.539063 53.0265 0.541935C53.0254 0.544806 53.0245 0.547766 53.0239 0.550815C53.0233 0.553856 53.023 0.556928 53.0231 0.56003C53.0231 0.563133 53.0234 0.566205 53.024 0.569246C53.0246 0.572287 53.0255 0.575237 53.0268 0.578095C53.028 0.580953 53.0294 0.583669 53.0311 0.586242C53.0329 0.588815 53.0348 0.591194 53.037 0.59338C53.0392 0.595566 53.0416 0.597518 53.0442 0.599235C53.0468 0.600953 53.0495 0.602402 53.0523 0.603584C53.0552 0.604765 53.0581 0.605651 53.0612 0.606242C53.0642 0.606839 53.0673 0.607134 53.0704 0.607127C53.0735 0.607114 53.0766 0.606798 53.0797 0.60618C53.0826 0.605563 53.0856 0.604656 53.0885 0.603462C53.0913 0.60226 53.0941 0.60079 53.0966 0.599052C53.0992 0.597321 53.1016 0.595352 53.1037 0.593146C53.1059 0.59094 53.1079 0.588543 53.1096 0.585957C53.1113 0.583363 53.1127 0.580627 53.1139 0.577749C53.1151 0.574877 53.116 0.571917 53.1165 0.568869C53.1171 0.565814 53.1174 0.562736 53.1174 0.559633C53.1174 0.556524 53.1171 0.553449 53.1164 0.550407C53.1158 0.547359 53.1149 0.544403 53.1138 0.541538C53.1126 0.538673 53.1111 0.535954 53.1093 0.533381C53.1076 0.530808 53.1057 0.528429 53.1034 0.526243C53.1013 0.524057 53.0989 0.522108 53.0962 0.520397C53.0936 0.51868 53.0909 0.517234 53.0881 0.51606C53.0853 0.514885 53.0823 0.514003 53.0793 0.513412C53.0762 0.512821 53.0731 0.512533 53.07 0.512546C53.0669 0.51256 53.0638 0.512876 53.0608 0.513493C53.0577 0.514118 53.0548 0.515031 53.0519 0.516233C53.0491 0.517434 53.0464 0.518904 53.0438 0.520642C53.0412 0.52238 53.0389 0.524352 53.0367 0.526558C52.7328 0.397433 52.2497 0.455602 51.9242 0.483657ZM51.2267 0.596456C51.2239 0.594432 51.2211 0.592688 51.218 0.591221C51.215 0.589755 51.2118 0.588594 51.2085 0.587739C51.2052 0.586877 51.2019 0.586337 51.1985 0.58612C51.1951 0.585902 51.1918 0.586008 51.1885 0.586435C51.1851 0.586863 51.1818 0.587606 51.1786 0.588665C51.1754 0.589724 51.1723 0.591082 51.1693 0.592739C51.1664 0.594395 51.1636 0.596316 51.161 0.598502C51.1584 0.600688 51.156 0.603102 51.1539 0.605743C51.1518 0.608383 51.15 0.611204 51.1484 0.614205C51.1468 0.617205 51.1455 0.620328 51.1445 0.623573C51.1435 0.626825 51.1429 0.630138 51.1426 0.633512C51.1422 0.636886 51.1421 0.640263 51.1425 0.643644C51.1427 0.647025 51.1433 0.650348 51.1443 0.653613C51.1452 0.656879 51.1465 0.660022 51.1479 0.663043C51.1495 0.666071 51.1513 0.668926 51.1534 0.671607C51.1555 0.674282 51.1578 0.676736 51.1603 0.67897C51.1639 0.682113 51.1679 0.684723 51.1721 0.6868C51.1765 0.688878 51.181 0.690348 51.1856 0.69121C51.1903 0.692072 51.195 0.692296 51.1997 0.691882C51.2045 0.691468 51.2091 0.690432 51.2136 0.688776C51.218 0.687119 51.2222 0.684896 51.2261 0.682106C51.2299 0.679323 51.2334 0.676071 51.2364 0.67235C51.2394 0.66863 51.2418 0.664581 51.2437 0.660202C51.2456 0.655823 51.2469 0.651268 51.2476 0.646536C51.2483 0.641804 51.2483 0.637069 51.2477 0.632331C51.2471 0.627592 51.2459 0.623017 51.244 0.618604C51.2421 0.614198 51.2397 0.610114 51.2368 0.606353C51.2339 0.602599 51.2305 0.5993 51.2267 0.596456ZM25.8227 137.289C25.8189 137.292 25.8154 137.295 25.8124 137.298C25.8094 137.301 25.8069 137.305 25.8049 137.309C25.8029 137.314 25.8015 137.318 25.8007 137.322C25.7999 137.327 25.7997 137.332 25.8001 137.337C25.8006 137.341 25.8016 137.346 25.8033 137.35C25.8051 137.355 25.8074 137.359 25.8101 137.362C25.813 137.366 25.8163 137.37 25.82 137.372C25.8237 137.375 25.8277 137.377 25.8321 137.38C25.8364 137.382 25.8409 137.383 25.8456 137.383C25.8503 137.383 25.8549 137.383 25.8595 137.383C25.8641 137.382 25.8686 137.381 25.8729 137.378C25.8772 137.376 25.8811 137.374 25.8847 137.371C25.8873 137.369 25.8896 137.367 25.8917 137.364C25.8938 137.361 25.8956 137.359 25.8972 137.356C25.8988 137.353 25.9001 137.35 25.9011 137.347C25.9022 137.344 25.9028 137.341 25.9032 137.338C25.9036 137.334 25.9037 137.331 25.9035 137.328C25.9032 137.324 25.9027 137.321 25.9018 137.317C25.901 137.315 25.8998 137.312 25.8984 137.308C25.8969 137.305 25.8952 137.303 25.8932 137.3C25.8912 137.297 25.8889 137.295 25.8865 137.293C25.8841 137.291 25.8814 137.289 25.8786 137.287C25.8757 137.285 25.8728 137.284 25.8698 137.283C25.8666 137.281 25.8635 137.281 25.8602 137.281C25.857 137.28 25.8537 137.28 25.8504 137.28C25.8471 137.28 25.8439 137.28 25.8406 137.281C25.8374 137.281 25.8343 137.282 25.8314 137.284C25.8283 137.285 25.8254 137.287 25.8227 137.289ZM15.6183 0.509298L15.6362 0.635864C15.7745 0.639306 15.9032 0.632443 16.0409 0.618665C15.8727 0.500826 15.8503 0.46493 15.6357 0.503707C15.6297 0.504787 15.6241 0.507434 15.6183 0.509298ZM25.743 0.505632C25.7423 0.510642 25.7423 0.515652 25.743 0.520662C25.7437 0.525679 25.7451 0.530489 25.7472 0.535092C25.7493 0.539701 25.7519 0.543921 25.7552 0.547749C25.7585 0.551585 25.7623 0.554871 25.7666 0.557607C25.7708 0.560343 25.7754 0.562423 25.7802 0.563849C25.785 0.565275 25.79 0.565988 25.795 0.565988C25.8 0.565988 25.805 0.565275 25.8098 0.563849C25.8146 0.562423 25.8192 0.560343 25.8234 0.557607C25.8277 0.554871 25.8315 0.551585 25.8348 0.547749C25.8381 0.543921 25.8407 0.539701 25.8428 0.535092C25.8449 0.530489 25.8463 0.525679 25.847 0.520662C25.8477 0.515652 25.8477 0.510642 25.847 0.505632C25.8465 0.50253 25.8458 0.499495 25.8449 0.496528C25.8439 0.493555 25.8426 0.490693 25.8411 0.487944C25.8396 0.485201 25.8378 0.482611 25.8358 0.480174C25.8339 0.477737 25.8317 0.475493 25.8293 0.473443C25.827 0.471393 25.8244 0.46957 25.8217 0.467975C25.8191 0.466379 25.8163 0.465035 25.8133 0.463942C25.8104 0.462849 25.8074 0.462028 25.8043 0.461478C25.8012 0.460921 25.7981 0.460643 25.795 0.460643C25.7919 0.460643 25.7888 0.460921 25.7857 0.461478C25.7826 0.462028 25.7796 0.462849 25.7767 0.463942C25.7737 0.465035 25.7709 0.466379 25.7683 0.467975C25.7656 0.46957 25.763 0.471393 25.7607 0.473443C25.7583 0.475493 25.7561 0.477737 25.7542 0.480174C25.7522 0.482611 25.7505 0.485201 25.7489 0.487944C25.7474 0.490693 25.7462 0.493555 25.7451 0.496528C25.7442 0.499495 25.7435 0.50253 25.743 0.505632ZM33.837 0.503443C33.8727 0.504817 33.9377 0.514797 33.9706 0.503422L33.837 0.503443ZM43.9791 0.521996C44.0454 0.540275 44.1009 0.566772 44.1696 0.552922L44.0763 0.478239L43.9791 0.521996ZM51.4421 0.503728L51.5747 0.503534C51.5361 0.500551 51.476 0.48498 51.4421 0.503728ZM61.8491 0.501773C61.8503 0.506932 61.8523 0.511745 61.8552 0.516212C61.858 0.520686 61.8615 0.524559 61.8657 0.527831C61.8699 0.53111 61.8744 0.533609 61.8795 0.535326C61.8845 0.537037 61.8896 0.537875 61.8949 0.537841C61.9002 0.5378 61.9053 0.536887 61.9103 0.535102C61.9153 0.53331 61.9198 0.530747 61.9239 0.527414C61.9281 0.52408 61.9315 0.520157 61.9343 0.515642C61.9371 0.511134 61.939 0.50629 61.9402 0.501111C61.9412 0.496515 61.9415 0.491871 61.9411 0.48718C61.9408 0.482489 61.9397 0.477961 61.938 0.473596C61.9363 0.469224 61.9339 0.465205 61.9309 0.461539C61.928 0.457873 61.9245 0.454726 61.9207 0.452099C61.9168 0.449472 61.9126 0.447479 61.9081 0.446122C61.9036 0.444757 61.899 0.444092 61.8943 0.444126C61.8895 0.44416 61.8849 0.444889 61.8805 0.446315C61.876 0.447734 61.8718 0.449788 61.868 0.452476C61.8641 0.455157 61.8607 0.458348 61.8578 0.462048C61.8549 0.465755 61.8526 0.469808 61.8509 0.474207C61.8492 0.478599 61.8482 0.483148 61.848 0.487852C61.8476 0.49255 61.848 0.49719 61.8491 0.501773ZM42.2608 0.569297C42.2613 0.572203 42.262 0.575044 42.2631 0.57782C42.264 0.58059 42.2652 0.583258 42.2666 0.585824C42.2681 0.588384 42.2698 0.590797 42.2716 0.593064C42.2735 0.595339 42.2755 0.597426 42.2778 0.599327C42.28 0.601235 42.2824 0.602932 42.2849 0.604419C42.2875 0.605905 42.2901 0.607158 42.2929 0.608176C42.2956 0.609195 42.2984 0.609965 42.3013 0.610488C42.3043 0.611011 42.3072 0.611275 42.3101 0.611282C42.313 0.611289 42.3159 0.611038 42.3188 0.610529C42.3217 0.610019 42.3246 0.609259 42.3273 0.608248C42.3301 0.607243 42.3327 0.606001 42.3353 0.604521C42.3378 0.603047 42.3402 0.60136 42.3425 0.59946C42.3447 0.597559 42.3468 0.595478 42.3487 0.593217C42.3505 0.590957 42.3522 0.588547 42.3537 0.585987C42.3551 0.583428 42.3563 0.58076 42.3573 0.577983C42.3583 0.575213 42.3591 0.572376 42.3595 0.56947C42.3604 0.564664 42.3605 0.55984 42.3598 0.555C42.3592 0.550159 42.358 0.545502 42.3561 0.541029C42.3541 0.536562 42.3516 0.532465 42.3485 0.528738C42.3453 0.525017 42.3417 0.52182 42.3376 0.519145C42.3335 0.51647 42.3292 0.514434 42.3245 0.513035C42.3198 0.511643 42.3151 0.510941 42.3103 0.510927C42.3054 0.51092 42.3006 0.511606 42.296 0.512984C42.2913 0.514369 42.2869 0.516389 42.2829 0.519043C42.2788 0.521704 42.2752 0.524895 42.272 0.528615C42.2689 0.532329 42.2663 0.536419 42.2644 0.540886C42.2624 0.545346 42.2611 0.549993 42.2605 0.554827C42.2599 0.559667 42.26 0.564491 42.2608 0.569297ZM17.3557 0.717798C17.3525 0.72477 17.3503 0.732044 17.3492 0.73962C17.3481 0.747197 17.348 0.754783 17.349 0.76238C17.35 0.769976 17.352 0.777291 17.3551 0.784324C17.358 0.791358 17.362 0.797838 17.3668 0.803764C17.3717 0.809691 17.3773 0.814837 17.3835 0.819202C17.3898 0.82356 17.3966 0.826975 17.4038 0.829446C17.4111 0.83191 17.4185 0.833329 17.4261 0.833703C17.4337 0.834083 17.4413 0.833404 17.4487 0.831666C17.4561 0.829928 17.4632 0.827196 17.4699 0.823469C17.4766 0.819748 17.4826 0.815176 17.488 0.809752C17.4934 0.804334 17.498 0.798272 17.5017 0.791565C17.5054 0.784864 17.5081 0.77778 17.5098 0.770312C17.511 0.765404 17.5117 0.760431 17.5119 0.755394C17.5121 0.750357 17.5118 0.745343 17.5112 0.740354C17.5104 0.735364 17.5093 0.730479 17.5077 0.7257C17.5061 0.720921 17.504 0.716328 17.5016 0.711922C17.4992 0.707523 17.4963 0.703382 17.4931 0.699499C17.4899 0.695616 17.4864 0.692062 17.4825 0.688837C17.4787 0.685612 17.4745 0.682768 17.4701 0.680304C17.4657 0.677832 17.4612 0.675789 17.4564 0.674173C17.4517 0.672551 17.4468 0.67138 17.4418 0.67066C17.4369 0.66994 17.4319 0.669679 17.4269 0.669876C17.4218 0.67008 17.4168 0.670742 17.4119 0.671862C17.4071 0.672982 17.4023 0.67454 17.3976 0.676536C17.393 0.678532 17.3886 0.680935 17.3845 0.683745C17.3803 0.686556 17.3764 0.689726 17.3728 0.693256C17.3692 0.69678 17.366 0.700605 17.3631 0.704733C17.3602 0.708861 17.3578 0.713216 17.3557 0.717798ZM16.7657 0.840047C16.7662 0.845315 16.7671 0.850498 16.7684 0.855596C16.7699 0.860688 16.7717 0.86561 16.774 0.870362C16.7764 0.875107 16.7791 0.879598 16.7822 0.883834C16.7854 0.88807 16.7889 0.891977 16.7928 0.895555C16.7967 0.899133 16.8009 0.90232 16.8054 0.905117C16.8099 0.907914 16.8145 0.910273 16.8194 0.912194C16.8244 0.914115 16.8294 0.915568 16.8347 0.916553C16.8398 0.91753 16.845 0.918019 16.8503 0.918019C16.8556 0.918026 16.8608 0.917544 16.8659 0.916573C16.8711 0.915602 16.8762 0.91416 16.8811 0.912245C16.886 0.910338 16.8907 0.907989 16.8952 0.905198C16.8997 0.902408 16.9038 0.899231 16.9078 0.895667C16.9116 0.892096 16.9152 0.888196 16.9183 0.883967C16.9215 0.879744 16.9243 0.875263 16.9266 0.870525C16.9289 0.865786 16.9307 0.860871 16.9322 0.85578C16.9336 0.850688 16.9345 0.845512 16.935 0.84025C16.9357 0.832396 16.9353 0.824595 16.9338 0.816849C16.9323 0.809103 16.9298 0.801707 16.9263 0.79466C16.9227 0.78762 16.9183 0.781191 16.913 0.775373C16.9077 0.769562 16.9017 0.764586 16.895 0.760445C16.8883 0.756304 16.8811 0.753154 16.8736 0.750995C16.866 0.748843 16.8583 0.74776 16.8505 0.747747C16.8426 0.74774 16.8349 0.748806 16.8273 0.750944C16.8198 0.753082 16.8126 0.756216 16.8059 0.760343C16.7992 0.764464 16.7932 0.769426 16.7878 0.775231C16.7825 0.781028 16.7781 0.787447 16.7745 0.794487C16.771 0.80152 16.7685 0.808907 16.7669 0.816646C16.7654 0.824392 16.765 0.832192 16.7657 0.840047ZM16.9688 1.52243C16.9681 1.52849 16.9683 1.53451 16.9694 1.54052C16.9704 1.54652 16.9723 1.55227 16.9749 1.55774C16.9776 1.56323 16.9809 1.56824 16.985 1.57279C16.989 1.57732 16.9936 1.58121 16.9988 1.58445C17.0039 1.58768 17.0094 1.59013 17.0152 1.59182C17.0211 1.59349 17.0271 1.59433 17.0332 1.59433C17.0392 1.59433 17.0452 1.59349 17.0511 1.59181C17.0569 1.59012 17.0624 1.58766 17.0675 1.58442C17.0727 1.58119 17.0773 1.57731 17.0813 1.57278C17.0854 1.56824 17.0888 1.56323 17.0915 1.55774C17.0941 1.55226 17.096 1.54651 17.097 1.5405C17.0981 1.5345 17.0983 1.52846 17.0976 1.5224C17.0972 1.51846 17.0964 1.51458 17.0953 1.51078C17.0941 1.50698 17.0927 1.50331 17.0909 1.49977C17.0891 1.49624 17.0869 1.49291 17.0845 1.48976C17.0821 1.48662 17.0794 1.48372 17.0765 1.48108C17.0735 1.47842 17.0703 1.47606 17.067 1.47399C17.0636 1.47192 17.0601 1.47017 17.0564 1.46875C17.0526 1.46734 17.0488 1.46627 17.045 1.46555C17.0411 1.46482 17.0371 1.46446 17.0332 1.46446C17.0293 1.46446 17.0254 1.46482 17.0214 1.46555C17.0175 1.46627 17.0137 1.46734 17.01 1.46875C17.0063 1.47018 17.0028 1.47193 16.9994 1.474C16.996 1.47607 16.9929 1.47843 16.9899 1.48109C16.987 1.48373 16.9843 1.48663 16.9819 1.48978C16.9795 1.49293 16.9773 1.49627 16.9755 1.4998C16.9738 1.50333 16.9723 1.507 16.9712 1.5108C16.97 1.51461 16.9692 1.51849 16.9688 1.52243ZM25.5376 1.78647C25.5341 1.79203 25.5313 1.79796 25.5293 1.80426C25.5274 1.81056 25.5262 1.81701 25.526 1.82362C25.5257 1.83022 25.5263 1.83673 25.5278 1.84317C25.5293 1.8496 25.5316 1.85573 25.5347 1.86156C25.5378 1.86738 25.5416 1.8727 25.5462 1.8775C25.5507 1.8823 25.5558 1.88642 25.5614 1.88986C25.567 1.8933 25.573 1.89594 25.5793 1.89778C25.5856 1.89962 25.5921 1.9006 25.5987 1.90071C25.6053 1.90083 25.6118 1.90008 25.6182 1.89845C25.6245 1.89682 25.6306 1.89439 25.6364 1.89114C25.6421 1.88789 25.6473 1.88394 25.652 1.8793C25.6567 1.87465 25.6607 1.86947 25.664 1.86376C25.6664 1.8596 25.6684 1.85526 25.67 1.85071C25.6715 1.84617 25.6726 1.84153 25.6732 1.83677C25.6739 1.83201 25.6741 1.82724 25.6738 1.82245C25.6736 1.81765 25.6729 1.81293 25.6717 1.80827C25.6705 1.80361 25.6689 1.79912 25.6668 1.79478C25.6648 1.79044 25.6624 1.78634 25.6595 1.78248C25.6567 1.77861 25.6535 1.77506 25.65 1.77182C25.6464 1.76857 25.6426 1.7657 25.6385 1.7632C25.6344 1.7607 25.6301 1.75862 25.6256 1.75695C25.6211 1.75528 25.6165 1.75407 25.6118 1.7533C25.607 1.75253 25.6023 1.75222 25.5976 1.75238C25.5928 1.75254 25.588 1.75316 25.5833 1.75423C25.5787 1.75531 25.5741 1.75683 25.5697 1.75878C25.5654 1.76074 25.5613 1.76309 25.5573 1.76586C25.5534 1.76862 25.5498 1.77174 25.5465 1.77521C25.5432 1.77868 25.5402 1.78243 25.5376 1.78647ZM53.7125 4.64345C53.7126 4.64683 53.7131 4.65017 53.7139 4.65347C53.7147 4.65677 53.7158 4.65996 53.7172 4.66305C53.7186 4.66613 53.7203 4.66905 53.7221 4.67181C53.7241 4.67458 53.7263 4.67713 53.7288 4.67947C53.7312 4.68181 53.7338 4.68389 53.7367 4.68572C53.7395 4.68756 53.7425 4.6891 53.7457 4.69036C53.7488 4.69161 53.752 4.69256 53.7554 4.6932C53.7587 4.69383 53.762 4.69414 53.7654 4.69413C53.7688 4.69413 53.7722 4.6938 53.7755 4.69316C53.7788 4.69251 53.782 4.69155 53.7851 4.69029C53.7882 4.68902 53.7912 4.68746 53.7941 4.68562C53.7969 4.68378 53.7995 4.68169 53.802 4.67934C53.8044 4.677 53.8066 4.67444 53.8086 4.67167C53.8105 4.6689 53.8121 4.66597 53.8136 4.66288C53.8149 4.6598 53.816 4.65661 53.8168 4.65332C53.8176 4.65002 53.818 4.64668 53.8181 4.6433C53.8183 4.63853 53.8179 4.63383 53.8168 4.62918C53.8157 4.62453 53.814 4.62011 53.8117 4.61592C53.8095 4.61172 53.8067 4.60791 53.8034 4.60447C53.8001 4.60103 53.7964 4.59809 53.7923 4.59565C53.7882 4.59321 53.7839 4.59136 53.7793 4.59009C53.7747 4.58884 53.77 4.58821 53.7652 4.58822C53.7605 4.58823 53.7558 4.58887 53.7512 4.59014C53.7466 4.59142 53.7423 4.59328 53.7382 4.59574C53.7341 4.59818 53.7304 4.60113 53.7271 4.60457C53.7238 4.60802 53.721 4.61185 53.7188 4.61605C53.7166 4.62025 53.7149 4.62467 53.7138 4.62932C53.7127 4.63398 53.7123 4.63869 53.7125 4.64345ZM58.7177 5.32324C58.7174 5.32799 58.7177 5.33269 58.7186 5.33734C58.7196 5.342 58.7211 5.34644 58.7233 5.35067C58.7255 5.3549 58.7282 5.35876 58.7314 5.36224C58.7347 5.36572 58.7383 5.36869 58.7424 5.37117C58.7465 5.37365 58.7507 5.37553 58.7553 5.37681C58.7599 5.3781 58.7646 5.37874 58.7693 5.37874C58.774 5.37874 58.7787 5.3781 58.7833 5.37681C58.7879 5.37553 58.7922 5.37365 58.7962 5.37117C58.8003 5.36869 58.8039 5.36572 58.8072 5.36224C58.8104 5.35876 58.813 5.35491 58.8152 5.35068C58.8174 5.34645 58.819 5.34201 58.82 5.33735C58.8209 5.3327 58.8212 5.328 58.8209 5.32325C58.8207 5.32001 58.8201 5.31681 58.8193 5.31367C58.8185 5.31052 58.8174 5.30748 58.816 5.30454C58.8146 5.30161 58.8129 5.29883 58.811 5.29621C58.8091 5.29359 58.8069 5.29116 58.8045 5.28894C58.8022 5.28673 58.7996 5.28475 58.7969 5.28302C58.7942 5.28128 58.7913 5.27982 58.7883 5.27863C58.7852 5.27743 58.7821 5.27653 58.7789 5.27593C58.7758 5.27532 58.7725 5.27501 58.7693 5.27501C58.766 5.27501 58.7628 5.27532 58.7597 5.27593C58.7565 5.27653 58.7534 5.27743 58.7503 5.27863C58.7473 5.27982 58.7445 5.28128 58.7417 5.28302C58.739 5.28475 58.7364 5.28672 58.7341 5.28894C58.7317 5.29116 58.7295 5.29358 58.7276 5.2962C58.7257 5.29882 58.724 5.3016 58.7226 5.30454C58.7212 5.30748 58.7201 5.31051 58.7192 5.31366C58.7184 5.3168 58.7179 5.32 58.7177 5.32324ZM6.46288 7.07535C6.11984 7.56331 6.30169 8.82862 6.30674 9.45839L6.31645 92.9439L6.26145 120.733C6.25845 122.537 6.27656 124.343 6.23703 126.145C6.21258 127.26 6.03015 129.63 6.21405 130.596C6.21729 130.614 6.22231 130.63 6.22645 130.647C6.56957 130.868 7.3459 130.745 7.75943 130.74C17.4748 130.672 27.1902 130.676 36.9054 130.751L73.4277 130.745L90.5046 130.85C92.093 130.864 93.6814 130.871 95.2697 130.869C95.8373 130.869 96.5447 130.955 97.0914 130.844C97.1662 130.829 97.2275 130.798 97.2952 130.765L97.3699 130.671L97.3818 130.718C97.613 130.054 97.4691 124.877 97.4686 123.771L97.4669 107.923L97.3422 17.8933C97.3275 15.5841 97.2501 13.279 97.2169 10.9711C97.2042 10.0851 97.4056 8.08187 97.1375 7.34037C96.9198 7.11906 96.7048 7.13675 96.4089 7.13421L37.8678 7.13513L17.6295 7.10272C15.2217 7.07391 12.8138 7.06618 10.4058 7.07954C9.09899 7.07446 7.76676 7.0087 6.46288 7.07535ZM103.071 127.763C103.07 127.767 103.071 127.772 103.072 127.777C103.073 127.782 103.074 127.786 103.077 127.791C103.079 127.795 103.082 127.799 103.085 127.802C103.088 127.806 103.092 127.809 103.096 127.811C103.1 127.814 103.105 127.816 103.109 127.818C103.114 127.819 103.119 127.82 103.124 127.82C103.128 127.82 103.133 127.819 103.138 127.818C103.143 127.816 103.147 127.814 103.151 127.811C103.155 127.809 103.159 127.806 103.162 127.802C103.166 127.799 103.168 127.795 103.17 127.79C103.172 127.786 103.174 127.782 103.174 127.777C103.176 127.772 103.176 127.767 103.175 127.763C103.175 127.759 103.175 127.756 103.173 127.752C103.173 127.75 103.172 127.747 103.17 127.743C103.169 127.74 103.167 127.738 103.165 127.735C103.163 127.732 103.161 127.73 103.159 127.728C103.157 127.726 103.154 127.724 103.151 127.722C103.148 127.72 103.146 127.718 103.143 127.718C103.14 127.716 103.137 127.715 103.134 127.715C103.13 127.714 103.127 127.714 103.124 127.714C103.12 127.714 103.117 127.714 103.114 127.715C103.11 127.715 103.107 127.716 103.104 127.717C103.101 127.718 103.098 127.72 103.095 127.722C103.093 127.723 103.09 127.725 103.087 127.728C103.085 127.73 103.083 127.732 103.081 127.735C103.079 127.738 103.077 127.74 103.076 127.743C103.075 127.747 103.074 127.75 103.073 127.752C103.072 127.756 103.071 127.759 103.071 127.763ZM25.4124 136.507C25.4067 136.51 25.4012 136.514 25.3961 136.519C25.3909 136.524 25.386 136.529 25.3814 136.533C25.3769 136.539 25.3727 136.544 25.3689 136.55C25.3652 136.556 25.3618 136.562 25.3588 136.568C25.3558 136.574 25.3533 136.58 25.3512 136.586C25.3491 136.593 25.3474 136.6 25.3462 136.607C25.345 136.613 25.3442 136.62 25.344 136.627C25.3436 136.634 25.3438 136.641 25.3445 136.647C25.3451 136.654 25.3463 136.661 25.3478 136.668C25.3494 136.674 25.3514 136.681 25.3539 136.687C25.3564 136.694 25.3592 136.7 25.3626 136.705C25.3659 136.711 25.3696 136.717 25.3737 136.723C25.3778 136.729 25.3822 136.734 25.387 136.739C25.3919 136.744 25.397 136.748 25.4025 136.752C25.4079 136.756 25.4136 136.76 25.4195 136.763C25.4255 136.767 25.4316 136.77 25.438 136.773C25.4444 136.775 25.4509 136.777 25.4575 136.779C25.4641 136.781 25.4708 136.782 25.4776 136.783C25.4844 136.783 25.4912 136.784 25.498 136.784C25.5049 136.783 25.5117 136.782 25.5184 136.782C25.5252 136.78 25.5319 136.779 25.5384 136.777C25.5449 136.775 25.5513 136.772 25.5574 136.77C25.5637 136.767 25.5697 136.763 25.5754 136.759C25.5811 136.756 25.5866 136.752 25.5918 136.747C25.5953 136.744 25.5987 136.74 25.6019 136.737C25.6052 136.734 25.6083 136.73 25.6112 136.727C25.6141 136.723 25.6168 136.72 25.6194 136.716C25.622 136.711 25.6243 136.707 25.6265 136.703C25.6287 136.699 25.6306 136.695 25.6324 136.69C25.6342 136.686 25.6357 136.682 25.6371 136.677C25.6385 136.673 25.6396 136.668 25.6405 136.664C25.6415 136.659 25.6422 136.654 25.6428 136.649C25.6432 136.645 25.6435 136.64 25.6436 136.635C25.6436 136.631 25.6435 136.627 25.6432 136.622C25.6428 136.617 25.6422 136.612 25.6413 136.608C25.6405 136.603 25.6395 136.598 25.6383 136.593C25.637 136.589 25.6355 136.585 25.6339 136.58C25.6323 136.576 25.6304 136.572 25.6283 136.568C25.6263 136.563 25.6241 136.559 25.6216 136.555C25.6191 136.551 25.6165 136.548 25.6137 136.543C25.6109 136.539 25.608 136.536 25.6048 136.532C25.6017 136.529 25.5984 136.525 25.5949 136.522C25.5915 136.519 25.5879 136.517 25.5841 136.514C25.5803 136.511 25.5765 136.508 25.5725 136.506C25.5685 136.503 25.5644 136.501 25.5602 136.499C25.556 136.497 25.5517 136.495 25.5473 136.493C25.543 136.491 25.5385 136.49 25.534 136.488C25.5295 136.487 25.5249 136.486 25.5203 136.485C25.5157 136.485 25.511 136.484 25.5064 136.483C25.5017 136.483 25.497 136.483 25.4922 136.483C25.4876 136.483 25.4829 136.483 25.4782 136.483C25.4736 136.484 25.4689 136.485 25.4643 136.485C25.4597 136.487 25.4552 136.488 25.4507 136.489C25.4462 136.491 25.4417 136.492 25.4374 136.494C25.4331 136.496 25.4288 136.498 25.4246 136.5C25.4204 136.502 25.4163 136.504 25.4124 136.507ZM15.9434 136.728C15.942 136.734 15.9412 136.74 15.9409 136.746C15.9407 136.753 15.9411 136.759 15.942 136.765C15.943 136.772 15.9446 136.778 15.9468 136.784C15.949 136.79 15.9517 136.796 15.9549 136.801C15.9582 136.807 15.9619 136.812 15.9662 136.816C15.9705 136.82 15.9751 136.825 15.9802 136.829C15.9852 136.833 15.9906 136.836 15.9964 136.839C16.002 136.841 16.0079 136.844 16.014 136.845C16.0201 136.846 16.0263 136.847 16.0326 136.848C16.0388 136.849 16.0451 136.848 16.0513 136.847C16.0575 136.846 16.0636 136.845 16.0696 136.843C16.0756 136.841 16.0813 136.838 16.0867 136.836C16.0922 136.832 16.0974 136.829 16.1022 136.825C16.1069 136.82 16.1113 136.816 16.1152 136.811C16.1191 136.806 16.1225 136.8 16.1253 136.795C16.1283 136.79 16.1306 136.784 16.1323 136.778C16.1349 136.77 16.1362 136.761 16.1363 136.752C16.1365 136.743 16.1356 136.735 16.1335 136.726C16.1313 136.718 16.1281 136.709 16.1238 136.701C16.1195 136.694 16.1142 136.687 16.1081 136.681C16.1019 136.675 16.095 136.669 16.0875 136.665C16.0799 136.661 16.0718 136.658 16.0634 136.655C16.0549 136.653 16.0463 136.651 16.0376 136.651C16.0288 136.651 16.0202 136.653 16.0118 136.655C16.0034 136.658 15.9955 136.662 15.988 136.666C15.9805 136.67 15.9737 136.676 15.9677 136.682C15.9618 136.689 15.9567 136.696 15.9526 136.703C15.9485 136.711 15.9454 136.719 15.9434 136.728ZM16.8016 137.403C16.7946 137.411 16.7888 137.42 16.7842 137.43C16.7796 137.44 16.7765 137.45 16.7746 137.461C16.7727 137.472 16.7723 137.483 16.7734 137.494C16.7744 137.504 16.7769 137.515 16.7807 137.525C16.7846 137.535 16.7897 137.545 16.7961 137.554C16.8024 137.562 16.8098 137.57 16.8182 137.577C16.8266 137.584 16.8358 137.589 16.8457 137.593C16.8556 137.598 16.8659 137.601 16.8766 137.603C16.8873 137.604 16.898 137.604 16.9088 137.604C16.9196 137.602 16.93 137.599 16.9401 137.595C16.9502 137.591 16.9595 137.586 16.9682 137.579C16.9769 137.573 16.9845 137.566 16.9912 137.557C16.9936 137.553 16.9959 137.55 16.998 137.547C17.0001 137.544 17.002 137.54 17.0038 137.536C17.0055 137.533 17.0071 137.53 17.0085 137.526C17.0099 137.522 17.0112 137.518 17.0123 137.515C17.0134 137.511 17.0142 137.507 17.0149 137.503C17.0156 137.499 17.0161 137.496 17.0164 137.492C17.0167 137.487 17.0168 137.483 17.0168 137.479C17.0167 137.475 17.0164 137.471 17.0159 137.468C17.0155 137.464 17.0149 137.46 17.014 137.456C17.0132 137.452 17.0122 137.448 17.011 137.445C17.0098 137.441 17.0085 137.437 17.0069 137.433C17.0053 137.43 17.0036 137.426 17.0016 137.422C16.9997 137.419 16.9977 137.416 16.9954 137.413C16.9932 137.41 16.9908 137.406 16.9883 137.403C16.9858 137.4 16.9831 137.397 16.9803 137.395C16.9774 137.392 16.9745 137.389 16.9715 137.387C16.9684 137.384 16.9652 137.382 16.9619 137.38C16.9587 137.377 16.9553 137.375 16.9518 137.373C16.9483 137.371 16.9447 137.37 16.9411 137.368C16.9374 137.367 16.9337 137.366 16.9299 137.364C16.9262 137.364 16.9224 137.363 16.9184 137.362C16.9146 137.361 16.9107 137.36 16.9068 137.36C16.9029 137.359 16.899 137.359 16.895 137.359C16.8911 137.359 16.8871 137.359 16.8832 137.36C16.8793 137.36 16.8754 137.361 16.8715 137.362C16.8677 137.363 16.8638 137.364 16.86 137.364C16.8563 137.366 16.8526 137.367 16.849 137.368C16.8453 137.37 16.8417 137.371 16.8382 137.373C16.8348 137.375 16.8314 137.377 16.8281 137.38C16.8247 137.382 16.8215 137.384 16.8185 137.387C16.8155 137.389 16.8125 137.391 16.8097 137.394C16.8068 137.397 16.8041 137.4 16.8016 137.403ZM17.2119 137.386C17.2075 137.391 17.2038 137.396 17.201 137.402C17.1981 137.408 17.1961 137.414 17.195 137.421C17.1939 137.428 17.1937 137.435 17.1944 137.442C17.1951 137.448 17.1967 137.455 17.1992 137.461C17.2016 137.467 17.2048 137.473 17.2089 137.478C17.2129 137.484 17.2175 137.488 17.2228 137.493C17.2281 137.497 17.2338 137.5 17.24 137.502C17.2462 137.504 17.2526 137.506 17.2592 137.507C17.2658 137.507 17.2724 137.507 17.279 137.507C17.2856 137.505 17.292 137.503 17.2981 137.501C17.3041 137.498 17.3097 137.494 17.3148 137.489C17.3199 137.485 17.3244 137.481 17.3281 137.475C17.3308 137.471 17.333 137.467 17.3348 137.463C17.3367 137.459 17.3381 137.455 17.3391 137.45C17.3401 137.445 17.3407 137.441 17.3409 137.437C17.3411 137.432 17.3408 137.427 17.34 137.422C17.3393 137.418 17.3382 137.413 17.3366 137.409C17.335 137.404 17.3331 137.4 17.3308 137.396C17.3284 137.392 17.3257 137.388 17.3226 137.385C17.3195 137.381 17.3162 137.378 17.3125 137.375C17.3088 137.373 17.3049 137.37 17.3007 137.368C17.2966 137.366 17.2923 137.365 17.2877 137.363C17.2833 137.362 17.2787 137.361 17.2741 137.36C17.2694 137.36 17.2648 137.36 17.2602 137.36C17.2555 137.361 17.251 137.362 17.2465 137.363C17.242 137.365 17.2377 137.366 17.2336 137.368C17.2295 137.37 17.2256 137.373 17.2219 137.376C17.2183 137.379 17.2149 137.382 17.2119 137.386ZM25.7967 137.378L25.625 137.54L25.7955 137.515L25.9781 137.544C25.9152 137.466 25.8847 137.432 25.7967 137.378ZM16.2121 137.605C16.2119 137.611 16.2125 137.617 16.2139 137.623C16.2153 137.629 16.2175 137.635 16.2205 137.64C16.2235 137.646 16.2271 137.651 16.2315 137.655C16.2357 137.66 16.2405 137.663 16.2459 137.667C16.2512 137.67 16.2569 137.672 16.263 137.674C16.269 137.676 16.2752 137.677 16.2814 137.677C16.2877 137.677 16.2938 137.676 16.2999 137.674C16.306 137.672 16.3116 137.67 16.317 137.667C16.3223 137.663 16.3272 137.66 16.3315 137.655C16.3358 137.651 16.3394 137.646 16.3424 137.64C16.3454 137.635 16.3476 137.629 16.3491 137.623C16.3505 137.617 16.3511 137.611 16.3509 137.605C16.3508 137.6 16.3502 137.595 16.3492 137.591C16.3482 137.587 16.3467 137.583 16.3449 137.579C16.3432 137.575 16.341 137.571 16.3384 137.567C16.3358 137.563 16.333 137.56 16.3298 137.557C16.3266 137.554 16.3231 137.551 16.3193 137.549C16.3156 137.546 16.3117 137.544 16.3075 137.542C16.3034 137.541 16.2991 137.54 16.2947 137.538C16.2904 137.538 16.286 137.537 16.2815 137.537C16.2771 137.537 16.2726 137.538 16.2682 137.538C16.2639 137.539 16.2597 137.54 16.2555 137.542C16.2513 137.544 16.2474 137.546 16.2437 137.549C16.2399 137.551 16.2365 137.554 16.2333 137.557C16.23 137.56 16.2271 137.563 16.2246 137.567C16.222 137.571 16.2198 137.575 16.2181 137.579C16.2162 137.583 16.2148 137.587 16.2138 137.591C16.2128 137.595 16.2122 137.6 16.2121 137.605ZM25.3506 137.606C25.35 137.612 25.3504 137.619 25.3517 137.625C25.353 137.632 25.3551 137.638 25.3581 137.644C25.3611 137.65 25.3648 137.655 25.3693 137.661C25.3738 137.665 25.3789 137.669 25.3845 137.673C25.3901 137.676 25.3961 137.679 25.4026 137.681C25.4089 137.682 25.4154 137.683 25.4221 137.683C25.4287 137.683 25.4352 137.682 25.4416 137.681C25.448 137.679 25.454 137.676 25.4596 137.673C25.4653 137.669 25.4703 137.665 25.4749 137.661C25.4793 137.655 25.4831 137.65 25.486 137.644C25.4891 137.638 25.4912 137.632 25.4924 137.625C25.4937 137.619 25.4941 137.612 25.4936 137.606C25.4932 137.601 25.4924 137.596 25.4912 137.592C25.4901 137.588 25.4885 137.584 25.4866 137.58C25.4846 137.576 25.4823 137.572 25.4797 137.569C25.477 137.565 25.474 137.561 25.4707 137.559C25.4675 137.555 25.4639 137.553 25.4602 137.551C25.4564 137.548 25.4524 137.546 25.4482 137.544C25.444 137.542 25.4398 137.541 25.4354 137.54C25.431 137.54 25.4265 137.539 25.4221 137.539C25.4176 137.539 25.4132 137.54 25.4088 137.54C25.4044 137.541 25.4001 137.542 25.396 137.544C25.3918 137.546 25.3878 137.548 25.384 137.551C25.3802 137.553 25.3767 137.555 25.3734 137.559C25.3701 137.561 25.3671 137.565 25.3645 137.569C25.3618 137.572 25.3595 137.576 25.3576 137.58C25.3556 137.584 25.3541 137.588 25.3529 137.592C25.3517 137.596 25.3509 137.601 25.3506 137.606ZM88.2335 137.6C88.234 137.603 88.2347 137.606 88.2356 137.609C88.2366 137.611 88.2378 137.614 88.2392 137.616C88.2406 137.618 88.2422 137.621 88.244 137.623C88.2458 137.625 88.2477 137.627 88.2498 137.629C88.252 137.631 88.2543 137.633 88.2567 137.634C88.2591 137.635 88.2616 137.636 88.2642 137.637C88.2668 137.638 88.2695 137.639 88.2722 137.639C88.275 137.64 88.2777 137.64 88.2805 137.64C88.2833 137.64 88.286 137.64 88.2887 137.639C88.2915 137.639 88.2941 137.638 88.2968 137.637C88.2993 137.636 88.3018 137.635 88.3043 137.634C88.3067 137.633 88.3089 137.631 88.3111 137.629C88.3133 137.628 88.3152 137.626 88.317 137.624C88.3188 137.622 88.3204 137.619 88.3219 137.617C88.3233 137.615 88.3245 137.612 88.3255 137.61C88.3265 137.607 88.3273 137.604 88.3279 137.601C88.3289 137.597 88.3291 137.592 88.3287 137.587C88.3283 137.582 88.3271 137.578 88.3253 137.573C88.3235 137.569 88.3211 137.565 88.3181 137.561C88.3151 137.557 88.3116 137.554 88.3076 137.552C88.3037 137.549 88.2994 137.547 88.2948 137.545C88.2903 137.544 88.2857 137.543 88.2809 137.543C88.2762 137.543 88.2716 137.544 88.267 137.545C88.2624 137.547 88.2581 137.549 88.2542 137.552C88.2503 137.554 88.2468 137.557 88.2438 137.561C88.2408 137.565 88.2384 137.569 88.2365 137.573C88.2347 137.577 88.2335 137.581 88.233 137.586C88.2324 137.591 88.2326 137.596 88.2335 137.6Z" fill="#884B6B"/>
<path d="M42.908 71.724C42.876 71.708 42.828 71.68 42.764 71.64C42.708 71.592 42.648 71.54 42.584 71.484C42.528 71.42 42.488 71.364 42.464 71.316C42.44 71.276 42.44 71.204 42.464 71.1C42.496 70.996 42.528 70.944 42.56 70.944C42.584 70.96 42.624 70.932 42.68 70.86C42.736 70.788 42.792 70.712 42.848 70.632C42.904 70.544 42.932 70.492 42.932 70.476C42.94 70.444 42.96 70.42 42.992 70.404C43.032 70.38 43.068 70.356 43.1 70.332C43.14 70.268 43.192 70.204 43.256 70.14C43.328 70.068 43.384 70.008 43.424 69.96C43.488 69.88 43.604 69.76 43.772 69.6C43.94 69.44 44.104 69.276 44.264 69.108C44.432 68.924 44.58 68.764 44.708 68.628C44.836 68.484 44.904 68.384 44.912 68.328C44.912 68.328 44.924 68.316 44.948 68.292C44.98 68.26 45.016 68.232 45.056 68.208C45.096 68.184 45.148 68.144 45.212 68.088C45.284 68.032 45.344 67.98 45.392 67.932C45.408 67.868 45.452 67.78 45.524 67.668C45.604 67.548 45.684 67.448 45.764 67.368C45.828 67.272 45.888 67.168 45.944 67.056C46 66.936 46.036 66.848 46.052 66.792C46.076 66.704 46.076 66.652 46.052 66.636C46.028 66.612 45.928 66.572 45.752 66.516C45.56 66.452 45.348 66.428 45.116 66.444C44.892 66.452 44.64 66.556 44.36 66.756C44.248 66.78 44.144 66.812 44.048 66.852C43.96 66.892 43.884 66.908 43.82 66.9C43.788 66.884 43.752 66.848 43.712 66.792C43.672 66.736 43.628 66.684 43.58 66.636L43.46 66.384L43.832 66.18C44.16 65.972 44.456 65.828 44.72 65.748C44.992 65.668 45.24 65.664 45.464 65.736C45.552 65.736 45.632 65.748 45.704 65.772C45.776 65.788 45.812 65.796 45.812 65.796C45.876 65.788 45.956 65.824 46.052 65.904C46.148 65.976 46.24 66.068 46.328 66.18C46.424 66.292 46.496 66.404 46.544 66.516C46.672 66.708 46.712 66.912 46.664 67.128C46.624 67.336 46.504 67.588 46.304 67.884C46.264 67.932 46.176 68.032 46.04 68.184C45.904 68.336 45.748 68.508 45.572 68.7C45.404 68.884 45.248 69.048 45.104 69.192C44.968 69.336 44.88 69.428 44.84 69.468C44.784 69.492 44.688 69.576 44.552 69.72C44.424 69.856 44.284 70.008 44.132 70.176C43.988 70.336 43.864 70.48 43.76 70.608C43.664 70.728 43.624 70.788 43.64 70.788C43.632 70.82 43.644 70.836 43.676 70.836C43.708 70.828 43.76 70.812 43.832 70.788C43.952 70.748 44.108 70.708 44.3 70.668C44.5 70.628 44.704 70.596 44.912 70.572C45.12 70.54 45.3 70.52 45.452 70.512C45.612 70.504 45.704 70.512 45.728 70.536C45.744 70.576 45.756 70.592 45.764 70.584C45.78 70.568 45.788 70.56 45.788 70.56C45.804 70.504 45.904 70.488 46.088 70.512C46.28 70.536 46.452 70.572 46.604 70.62C46.692 70.644 46.76 70.664 46.808 70.68C46.864 70.696 46.892 70.72 46.892 70.752C46.892 70.752 46.9 70.772 46.916 70.812C46.94 70.844 46.976 70.888 47.024 70.944C47.152 71.048 47.168 71.116 47.072 71.148C46.976 71.18 46.768 71.168 46.448 71.112C46.24 71.112 46.068 71.124 45.932 71.148C45.9 71.164 45.832 71.172 45.728 71.172C45.624 71.172 45.524 71.176 45.428 71.184C45.284 71.168 45.14 71.176 44.996 71.208C44.852 71.232 44.68 71.276 44.48 71.34C44.408 71.364 44.296 71.4 44.144 71.448C43.992 71.496 43.828 71.544 43.652 71.592C43.476 71.64 43.316 71.676 43.172 71.7C43.036 71.724 42.948 71.732 42.908 71.724ZM49.7623 71.748C49.7063 71.748 49.6183 71.724 49.4983 71.676C49.3863 71.62 49.2663 71.556 49.1383 71.484C49.0103 71.404 48.9063 71.328 48.8263 71.256C48.6503 71.088 48.5023 70.884 48.3823 70.644C48.2623 70.404 48.1783 70.148 48.1303 69.876C48.0823 69.596 48.0783 69.328 48.1183 69.072C48.2063 68.56 48.3983 68.056 48.6943 67.56C48.9903 67.056 49.3303 66.64 49.7143 66.312C49.9223 66.128 50.1103 65.988 50.2783 65.892C50.4463 65.788 50.6503 65.708 50.8903 65.652C50.9783 65.628 51.0743 65.616 51.1783 65.616C51.2823 65.608 51.3623 65.604 51.4183 65.604C51.5783 65.604 51.7383 65.636 51.8983 65.7C52.0583 65.764 52.1943 65.844 52.3063 65.94C52.4183 66.028 52.4743 66.112 52.4743 66.192C52.4743 66.248 52.4703 66.292 52.4623 66.324C52.4543 66.348 52.4183 66.344 52.3543 66.312H52.2343L52.3543 66.66C52.3863 66.724 52.4143 66.812 52.4383 66.924C52.4623 67.028 52.4743 67.124 52.4743 67.212C52.4743 67.284 52.4623 67.4 52.4383 67.56C52.4143 67.712 52.3823 67.876 52.3423 68.052C52.3023 68.228 52.2623 68.392 52.2223 68.544C52.1823 68.696 52.1463 68.808 52.1143 68.88C52.0903 68.928 52.0743 68.976 52.0663 69.024C52.0663 69.064 52.0663 69.1 52.0663 69.132C52.0343 69.188 51.9823 69.296 51.9103 69.456C51.8463 69.616 51.7983 69.728 51.7663 69.792C51.7343 69.824 51.7063 69.852 51.6823 69.876C51.6663 69.9 51.6743 69.928 51.7063 69.96C51.7063 69.976 51.6863 70.028 51.6463 70.116C51.6063 70.196 51.5623 70.272 51.5143 70.344C51.4743 70.416 51.4423 70.452 51.4183 70.452C51.4183 70.452 51.4063 70.456 51.3823 70.464C51.3663 70.464 51.3583 70.476 51.3583 70.5C51.3583 70.532 51.3063 70.616 51.2023 70.752C51.0983 70.88 50.9743 71.016 50.8303 71.16C50.7503 71.24 50.6383 71.328 50.4943 71.424C50.3583 71.512 50.2223 71.588 50.0863 71.652C49.9503 71.716 49.8423 71.748 49.7623 71.748ZM49.7263 70.992C49.8143 70.992 49.8983 70.98 49.9783 70.956C50.0583 70.924 50.1263 70.88 50.1823 70.824C50.3263 70.728 50.4943 70.572 50.6863 70.356C50.8783 70.132 51.0183 69.916 51.1063 69.708C51.1943 69.588 51.2623 69.464 51.3103 69.336C51.3663 69.2 51.4503 68.972 51.5623 68.652C51.6263 68.564 51.6703 68.456 51.6943 68.328C51.7183 68.2 51.7303 68.092 51.7303 68.004C51.7303 67.916 51.7303 67.796 51.7303 67.644C51.7383 67.492 51.7583 67.364 51.7903 67.26C51.7903 67.052 51.7863 66.916 51.7783 66.852C51.7703 66.78 51.7383 66.712 51.6823 66.648C51.6503 66.624 51.6063 66.6 51.5503 66.576C51.5023 66.552 51.4503 66.54 51.3943 66.54C51.3383 66.54 51.2343 66.572 51.0823 66.636C50.9303 66.692 50.8223 66.74 50.7583 66.78C50.7023 66.812 50.6383 66.816 50.5663 66.792C50.5023 66.768 50.4703 66.736 50.4703 66.696C50.4703 66.584 50.3983 66.576 50.2543 66.672C50.1103 66.76 49.9503 66.912 49.7743 67.128C49.6303 67.272 49.5063 67.42 49.4023 67.572C49.3063 67.716 49.2583 67.804 49.2583 67.836C49.2583 67.868 49.2463 67.908 49.2223 67.956C49.1983 68.004 49.1743 68.06 49.1503 68.124C49.1103 68.18 49.0623 68.272 49.0063 68.4C48.9503 68.528 48.8943 68.656 48.8383 68.784C48.7903 68.904 48.7583 68.996 48.7423 69.06C48.7423 69.092 48.7423 69.18 48.7423 69.324C48.7423 69.46 48.7423 69.588 48.7423 69.708C48.7423 69.844 48.7463 69.96 48.7543 70.056C48.7703 70.152 48.7903 70.236 48.8143 70.308C48.8383 70.372 48.8703 70.444 48.9103 70.524C48.9423 70.58 48.9903 70.648 49.0543 70.728C49.1263 70.8 49.1743 70.852 49.1983 70.884C49.2863 70.964 49.3583 71.012 49.4143 71.028C49.4703 71.036 49.5743 71.024 49.7263 70.992ZM53.7127 71.724C53.6807 71.708 53.6327 71.68 53.5687 71.64C53.5127 71.592 53.4527 71.54 53.3887 71.484C53.3327 71.42 53.2927 71.364 53.2687 71.316C53.2447 71.276 53.2447 71.204 53.2687 71.1C53.3007 70.996 53.3327 70.944 53.3647 70.944C53.3887 70.96 53.4287 70.932 53.4847 70.86C53.5407 70.788 53.5967 70.712 53.6527 70.632C53.7087 70.544 53.7367 70.492 53.7367 70.476C53.7447 70.444 53.7647 70.42 53.7967 70.404C53.8367 70.38 53.8727 70.356 53.9047 70.332C53.9447 70.268 53.9967 70.204 54.0607 70.14C54.1327 70.068 54.1887 70.008 54.2287 69.96C54.2927 69.88 54.4087 69.76 54.5767 69.6C54.7447 69.44 54.9087 69.276 55.0687 69.108C55.2367 68.924 55.3847 68.764 55.5127 68.628C55.6407 68.484 55.7087 68.384 55.7167 68.328C55.7167 68.328 55.7287 68.316 55.7527 68.292C55.7847 68.26 55.8207 68.232 55.8607 68.208C55.9007 68.184 55.9527 68.144 56.0167 68.088C56.0887 68.032 56.1487 67.98 56.1967 67.932C56.2127 67.868 56.2567 67.78 56.3287 67.668C56.4087 67.548 56.4887 67.448 56.5687 67.368C56.6327 67.272 56.6927 67.168 56.7487 67.056C56.8047 66.936 56.8407 66.848 56.8567 66.792C56.8807 66.704 56.8807 66.652 56.8567 66.636C56.8327 66.612 56.7327 66.572 56.5567 66.516C56.3647 66.452 56.1527 66.428 55.9207 66.444C55.6967 66.452 55.4447 66.556 55.1647 66.756C55.0527 66.78 54.9487 66.812 54.8527 66.852C54.7647 66.892 54.6887 66.908 54.6247 66.9C54.5927 66.884 54.5567 66.848 54.5167 66.792C54.4767 66.736 54.4327 66.684 54.3847 66.636L54.2647 66.384L54.6367 66.18C54.9647 65.972 55.2607 65.828 55.5247 65.748C55.7967 65.668 56.0447 65.664 56.2687 65.736C56.3567 65.736 56.4367 65.748 56.5087 65.772C56.5807 65.788 56.6167 65.796 56.6167 65.796C56.6807 65.788 56.7607 65.824 56.8567 65.904C56.9527 65.976 57.0447 66.068 57.1327 66.18C57.2287 66.292 57.3007 66.404 57.3487 66.516C57.4767 66.708 57.5167 66.912 57.4687 67.128C57.4287 67.336 57.3087 67.588 57.1087 67.884C57.0687 67.932 56.9807 68.032 56.8447 68.184C56.7087 68.336 56.5527 68.508 56.3767 68.7C56.2087 68.884 56.0527 69.048 55.9087 69.192C55.7727 69.336 55.6847 69.428 55.6447 69.468C55.5887 69.492 55.4927 69.576 55.3567 69.72C55.2287 69.856 55.0887 70.008 54.9367 70.176C54.7927 70.336 54.6687 70.48 54.5647 70.608C54.4687 70.728 54.4287 70.788 54.4447 70.788C54.4367 70.82 54.4487 70.836 54.4807 70.836C54.5127 70.828 54.5647 70.812 54.6367 70.788C54.7567 70.748 54.9127 70.708 55.1047 70.668C55.3047 70.628 55.5087 70.596 55.7167 70.572C55.9247 70.54 56.1047 70.52 56.2567 70.512C56.4167 70.504 56.5087 70.512 56.5327 70.536C56.5487 70.576 56.5607 70.592 56.5687 70.584C56.5847 70.568 56.5927 70.56 56.5927 70.56C56.6087 70.504 56.7087 70.488 56.8927 70.512C57.0847 70.536 57.2567 70.572 57.4087 70.62C57.4967 70.644 57.5647 70.664 57.6127 70.68C57.6687 70.696 57.6967 70.72 57.6967 70.752C57.6967 70.752 57.7047 70.772 57.7207 70.812C57.7447 70.844 57.7807 70.888 57.8287 70.944C57.9567 71.048 57.9727 71.116 57.8767 71.148C57.7807 71.18 57.5727 71.168 57.2527 71.112C57.0447 71.112 56.8727 71.124 56.7367 71.148C56.7047 71.164 56.6367 71.172 56.5327 71.172C56.4287 71.172 56.3287 71.176 56.2327 71.184C56.0887 71.168 55.9447 71.176 55.8007 71.208C55.6567 71.232 55.4847 71.276 55.2847 71.34C55.2127 71.364 55.1007 71.4 54.9487 71.448C54.7967 71.496 54.6327 71.544 54.4567 71.592C54.2807 71.64 54.1207 71.676 53.9767 71.7C53.8407 71.724 53.7527 71.732 53.7127 71.724ZM59.211 71.712C59.067 71.608 58.995 71.52 58.995 71.448C58.963 71.4 58.927 71.376 58.887 71.376C58.863 71.384 58.839 71.36 58.815 71.304C58.799 71.248 58.783 71.184 58.767 71.112C58.759 71.032 58.759 70.976 58.767 70.944C58.799 70.88 58.847 70.844 58.911 70.836C58.975 70.82 59.035 70.828 59.091 70.86C59.155 70.884 59.191 70.928 59.199 70.992C59.215 71.056 59.275 71.108 59.379 71.148C59.491 71.188 59.635 71.204 59.811 71.196C60.035 71.188 60.267 71.132 60.507 71.028C60.755 70.924 60.983 70.792 61.191 70.632C61.407 70.472 61.579 70.308 61.707 70.14C61.763 70.028 61.815 69.88 61.863 69.696C61.911 69.512 61.943 69.348 61.959 69.204C61.975 69.06 61.963 68.988 61.923 68.988C61.923 68.988 61.915 68.96 61.899 68.904C61.891 68.848 61.875 68.788 61.851 68.724C61.811 68.604 61.719 68.484 61.575 68.364C61.431 68.236 61.291 68.144 61.155 68.088C61.099 68.072 60.995 68.06 60.843 68.052C60.699 68.036 60.567 68.036 60.447 68.052C60.319 68.06 60.203 68.06 60.099 68.052C60.003 68.044 59.955 68.04 59.955 68.04C59.915 68.032 59.855 68 59.775 67.944C59.703 67.888 59.635 67.828 59.571 67.764C59.507 67.7 59.475 67.648 59.475 67.608C59.491 67.552 59.531 67.464 59.595 67.344C59.659 67.216 59.735 67.076 59.823 66.924C59.919 66.764 60.019 66.616 60.123 66.48C60.227 66.336 60.327 66.216 60.423 66.12C60.663 65.856 60.935 65.66 61.239 65.532C61.551 65.396 61.871 65.336 62.199 65.352C62.431 65.36 62.595 65.38 62.691 65.412C62.795 65.436 62.895 65.512 62.991 65.64C63.055 65.752 63.083 65.852 63.075 65.94C63.067 66.028 63.035 66.088 62.979 66.12C62.923 66.152 62.847 66.144 62.751 66.096C62.639 66.024 62.483 65.996 62.283 66.012C62.091 66.028 61.887 66.068 61.671 66.132C61.503 66.196 61.323 66.3 61.131 66.444C60.947 66.58 60.835 66.692 60.795 66.78C60.763 66.804 60.739 66.828 60.723 66.852C60.715 66.876 60.695 66.884 60.663 66.876C60.663 66.876 60.651 66.892 60.627 66.924C60.603 66.948 60.591 66.976 60.591 67.008C60.551 67.056 60.523 67.092 60.507 67.116C60.499 67.132 60.479 67.124 60.447 67.092C60.447 67.092 60.447 67.104 60.447 67.128C60.447 67.152 60.443 67.18 60.435 67.212C60.427 67.268 60.431 67.316 60.447 67.356C60.471 67.388 60.559 67.412 60.711 67.428C60.911 67.46 61.063 67.492 61.167 67.524C61.271 67.548 61.423 67.62 61.623 67.74C61.847 67.868 62.027 68.04 62.163 68.256C62.299 68.464 62.391 68.7 62.439 68.964C62.495 69.228 62.503 69.496 62.463 69.768C62.439 69.944 62.415 70.08 62.391 70.176C62.367 70.272 62.299 70.404 62.187 70.572C62.003 70.828 61.779 71.056 61.515 71.256C61.251 71.448 60.975 71.6 60.687 71.712C60.399 71.816 60.123 71.872 59.859 71.88C59.603 71.888 59.387 71.832 59.211 71.712Z" fill="black"/>
<path d="M58.9752 59.6788C52.572 58.4276 46.4336 57.8473 40.7994 61.3272C37.4059 63.4232 34.5095 65.5154 34.5095 69.815C34.5095 71.627 34.3956 72.682 35.8109 73.9793C37.4561 75.4875 39.2157 76.9941 41.4212 77.4352C42.5521 77.6614 43.7069 78.1826 44.8048 78.5486C46.2295 79.0235 47.8752 79.1294 49.3595 79.3149C52.848 79.751 56.5013 79.7815 60.0163 79.7198C63.6754 79.6556 67.9191 78.7694 68.7354 74.6879C69.2122 72.3041 70.2115 70.1671 69.2704 67.7473C68.1346 64.8265 66.2115 63.4116 63.4577 62.0791C61.7082 61.2326 59.8489 58.6377 57.7895 58.6377C56.9701 58.6377 56.1507 58.6377 55.3314 58.6377" stroke="#884B6B" stroke-linecap="round"/>
<path d="M60.2766 59.1583C64.6896 54.0297 69.0255 48.8478 73.8108 44.0625" stroke="#884B6B" stroke-linecap="round"/>
<path d="M67.5642 65.4046C74.319 63.0239 81.2309 61.316 88.3861 60.7197" stroke="#884B6B" stroke-linecap="round"/>
<path d="M68.0847 74.5137C70.1743 75.6535 72.2164 76.739 74.2156 78.0274C75.4949 78.8518 76.9072 79.432 77.9751 80.5" stroke="#884B6B" stroke-linecap="round"/>
<path d="M58.7149 79.1992C57.8362 85.2203 56.6888 91.19 56.0833 97.2448C55.6923 101.155 55.3611 105.383 54.2903 109.131" stroke="#884B6B" stroke-linecap="round"/>
<path d="M48.0437 79.7197C41.7934 85.772 35.6152 91.9253 29.0582 97.6497C26.7434 99.6705 24.4838 101.87 22.0164 103.665" stroke="#884B6B" stroke-linecap="round"/>
<path d="M35.2905 76.0752C28.9468 76.9489 22.5697 77.9426 16.2905 79.1985" stroke="#884B6B" stroke-linecap="round"/>
<path d="M35.5507 65.9246C30.5942 58.8062 24.4454 52.6529 19.6885 45.4064C16.3995 40.3961 13.0525 35.0557 10.8247 29.4863" stroke="#884B6B" stroke-linecap="round"/>
<path d="M42.5781 59.9391C40.509 52.6253 39.9753 45.6218 39.9753 38.0762" stroke="#884B6B" stroke-linecap="round"/>
<path d="M50.9067 58.8973C52.6984 48.7743 54.1382 38.6192 55.5917 28.4453" stroke="#884B6B" stroke-linecap="round"/>
<path d="M64.7012 78.9385C68.2917 84.635 72.0268 90.3069 75.4302 96.1165C78.6365 101.59 81.5768 107.17 85.0025 112.514" stroke="#884B6B" stroke-linecap="round"/>
<path d="M50.9067 80.2402C50.9067 85.2915 50.9067 90.3427 50.9067 95.3939C50.9067 97.1407 50.9877 98.8498 50.6464 100.556C50.2759 102.409 50.0012 103.986 49.8511 105.863C49.7274 107.409 49.4225 108.967 49.0269 110.461C48.7938 111.342 48.9101 112.163 48.81 113.064C48.6962 114.089 48.304 114.851 48.304 115.898C48.304 116.592 48.304 117.286 48.304 117.98" stroke="#884B6B" stroke-linecap="round"/>
<path d="M21.8562 104.631C22.9428 106.43 24.1525 108.262 25.8916 109.512C27.5106 110.675 29.2493 111.508 30.9759 112.488C33.0484 113.663 35.0496 114.885 37.3661 115.517C38.3154 115.776 39.212 116.256 40.0956 116.683C41.3348 117.283 42.6681 117.627 43.9062 118.203C44.7604 118.601 45.7899 119.241 46.7534 119.274C47.3778 119.295 48.3296 119.504 48.6373 118.888" stroke="#884B6B" stroke-linecap="round"/>
<path d="M54.032 109.062C57.3193 111.572 59.9205 113.367 63.9652 113.954C66.9873 114.393 70.0093 114.91 73.0421 115.281C74.6641 115.48 76.3123 115.44 77.9445 115.421C78.7769 115.411 79.1565 114.988 79.8926 114.8C81.9511 114.273 84.8066 113.214 85.8225 111.182" stroke="#884B6B" stroke-linecap="round"/>
<path d="M78.6938 81.8957C81.9223 80.6075 85.861 79.7044 87.76 76.5223C89.3584 73.844 91.4787 70.9914 92.0844 67.8415C92.2928 66.7579 92.3438 65.4583 92.3734 64.3627C92.3987 63.4275 92.0426 62.1052 91.4101 61.4727" stroke="#884B6B" stroke-linecap="round"/>
<path d="M77.1525 44.903C75.343 41.5102 72.5238 39.0831 70.302 36.0402C68.7419 33.9035 67.0832 31.4515 65.025 29.7891C64.3417 29.2372 63.3098 27.9653 62.4132 27.766C61.282 27.5147 60.1723 27.0747 59.0415 26.792" stroke="#884B6B" stroke-linecap="round"/>
<path d="M40.7377 36.6188C36.4962 33.1094 31.745 28.6917 26.159 27.4135C23.3663 26.7745 20.4497 27.069 17.6173 26.6963C15.8246 26.4605 15.369 26.9086 13.9565 27.756" stroke="#884B6B" stroke-linecap="round"/>
<path d="M33.609 68.4088C30.8515 68.1091 28.8271 66.7505 26.3946 65.4974C25.2479 64.9067 23.9801 64.5417 22.7553 64.1487C21.1437 63.6316 19.183 63.521 17.6602 62.8214C15.8487 61.9891 14.0661 60.8614 12.2227 60.124" stroke="#884B6B" stroke-linecap="round"/>
<path d="M12.2226 60.124C11.3035 62.1919 10.4647 64.4174 9.73928 66.5678C8.86774 69.1513 9.02375 72.0349 9.28972 74.7241C9.39426 75.7812 10.0207 76.5259 10.1032 77.5714C10.1543 78.2178 10.7204 79.141 11.2592 79.4874C12.055 79.9989 12.9275 80.1288 13.7639 80.547" stroke="#884B6B" stroke-linecap="round"/>
<path d="M55.7661 32.3794C57.7833 31.707 59.7492 30.8135 61.7389 30.0674" stroke="#884B6B" stroke-linecap="round"/>
<path d="M57.1148 37.196C55.9186 38.0162 57.4119 37.6255 57.9283 37.3673C59.5501 36.5564 61.1602 35.7337 62.8521 35.0766C63.8256 34.6986 64.5457 34.1133 65.5923 34.1133" stroke="#884B6B" stroke-linecap="round"/>
<path d="M56.7295 42.3985C60.0643 41.2075 63.2828 39.6961 66.5664 38.3738C67.5272 37.9869 68.2478 37.7744 69.253 37.7744" stroke="#884B6B" stroke-linecap="round"/>
<path d="M49.9858 46.83C53.6781 46.049 57.2119 44.6032 60.861 43.6403C63.7609 42.875 66.7036 42.2351 69.6382 41.6279" stroke="#884B6B" stroke-linecap="round"/>
<path d="M51.72 51.069C59.4583 49.1203 67.3141 47.3989 74.8404 44.7109" stroke="#884B6B" stroke-linecap="round"/>
<path d="M52.4907 55.1148C56.3419 54.9584 60.1955 54.7295 64.0509 54.7295" stroke="#884B6B" stroke-linecap="round"/>
<path d="M74.6477 63.5918C72.8786 65.5476 70.5247 67.5607 69.0603 69.7572" stroke="#884B6B" stroke-linecap="round"/>
<path d="M82.5471 62.4365C78.8233 66.2888 74.4988 69.5215 70.7086 73.3117C69.5811 74.4392 68.4536 75.5666 67.3262 76.6941" stroke="#884B6B" stroke-linecap="round"/>
<path d="M91.0246 63.207C86.0542 67.2454 80.845 71.0101 75.7073 74.8315C74.3807 75.8182 72.9835 76.7602 71.7576 77.85" stroke="#884B6B" stroke-linecap="round"/>
<path d="M90.0613 71.4922L75.6111 79.3917" stroke="#884B6B" stroke-linecap="round"/>
<path d="M58.4634 80.9326C61.8635 82.6896 66.4389 84.1294 68.6749 87.4834" stroke="#884B6B" stroke-linecap="round"/>
<path d="M58.656 86.3271C65.4073 90.3284 71.9614 94.4492 78.3726 98.9577C79.0011 99.3998 80.3577 99.9894 80.6204 100.777" stroke="#884B6B" stroke-linecap="round"/>
<path d="M58.2708 96.9238C66.8642 102.143 75.528 107.262 84.0885 112.53" stroke="#884B6B" stroke-linecap="round"/>
<path d="M58.8489 103.668C60.3659 105.185 62.3025 106.398 64.0296 107.628C66.8423 109.632 69.6583 111.633 72.4963 113.601C73.1631 114.063 74.007 114.556 74.4551 115.228" stroke="#884B6B" stroke-linecap="round"/>
<path d="M47.0959 80.9326C48.387 83.4695 49.4889 86.1038 50.7567 88.6394" stroke="#884B6B" stroke-linecap="round"/>
<path d="M43.0498 84.0156C44.6588 88.6449 46.306 93.2342 47.3956 98.0163C47.6291 99.0411 47.5368 100.174 47.8666 101.163" stroke="#884B6B" stroke-linecap="round"/>
<path d="M40.9304 90.1807C42.3975 96.7064 44.1108 103.196 44.9765 109.833" stroke="#884B6B" stroke-linecap="round"/>
<path d="M36.499 96.3457C37.1064 103.999 38.4257 111.583 38.4257 119.273" stroke="#884B6B" stroke-linecap="round"/>
<path d="M29.3703 103.282C28.1538 108.47 27.1482 113.873 25.3242 118.888" stroke="#884B6B" stroke-linecap="round"/>
<path d="M9.71802 68.6016C12.4661 67.717 15.5026 67.0931 17.9386 65.4761C18.7211 64.9567 19.4999 64.4432 20.3149 63.9775" stroke="#884B6B" stroke-linecap="round"/>
<path d="M12.8005 73.8035C18.9134 72.3679 25.0146 70.8945 31.1042 69.3721" stroke="#884B6B" stroke-linecap="round"/>
<path d="M10.874 80.7399C18.492 78.7793 26.1174 76.8443 33.7161 74.81C34.3229 74.6476 34.9221 74.5046 35.5358 74.3818" stroke="#884B6B" stroke-linecap="round"/>
<path d="M21.6634 27.1777C19.0313 32.3609 16.4474 37.376 14.9199 42.9767" stroke="#884B6B" stroke-linecap="round"/>
<path d="M28.407 32.3799C26.6477 37.3727 24.1579 42.6843 23.2049 47.9433C23.1487 48.2536 23.2049 48.6299 23.2049 48.9495" stroke="#884B6B" stroke-linecap="round"/>
<path d="M36.8844 35.2695C35.1192 39.8839 33.1985 44.4525 31.4682 49.0775C31.1491 49.9307 31.0011 50.7513 30.9116 51.6465" stroke="#884B6B" stroke-linecap="round"/>
<path d="M44.7839 40.8574C41.3591 47.2348 37.5573 53.5475 34.5938 60.1672C34.3335 60.7488 34.0274 61.7925 33.8018 62.2438" stroke="#884B6B" stroke-linecap="round"/>
<path d="M38.233 56.4639C37.3668 59.1121 36.4715 61.7429 35.5356 64.3633" stroke="#884B6B" stroke-linecap="round"/>
<path d="M34.3796 27.7556C38.7086 23.4599 44.3937 21.0775 50.4676 20.5519C52.616 20.366 55.048 20.4491 56.922 21.6758C57.9744 22.3646 58.9814 23.4106 59.887 24.2769C60.5076 24.8705 60.9515 25.377 61.1608 26.2143" stroke="#884B6B" stroke-linecap="round"/>
<path d="M74.8403 38.7375C78.1551 38.6451 81.4779 38.5023 84.7949 38.5448C86.0457 38.5609 87.3688 38.6942 88.5092 39.2406C91.7486 40.7928 94.287 43.6016 95.0814 47.0437C95.408 48.459 95.8414 49.9686 95.8414 51.4323C95.8414 52.1595 96.1164 54.5916 95.456 54.9218" stroke="#884B6B" stroke-linecap="round"/>
<path d="M85.6299 80.1621C87.4775 83.0629 88.9433 85.157 88.9053 88.5326C88.8771 91.0463 87.5867 93.5067 85.7584 95.2118C84.6923 96.206 83.7416 97.326 82.59 98.1232C82.1018 98.4612 81.5072 98.4078 81.0059 98.6584" stroke="#884B6B" stroke-linecap="round"/>
<path d="M57.8854 117.154C55.5831 118.874 53.5116 120.342 50.8637 121.436C48.9532 122.225 46.4568 121.778 44.4628 121.778C43.1464 121.778 41.654 122.136 41.0375 120.697C40.5727 119.613 40.1913 118.556 39.5818 117.54" stroke="#884B6B" stroke-linecap="round"/>
<path d="M17.81 104.439C16.2666 102.609 14.1056 100.669 13.0146 98.4873C12.844 98.146 12.7274 97.7695 12.6507 97.3955C12.1547 94.9778 12.8005 92.1835 12.8005 89.7316C12.8005 88.134 12.8354 86.1492 13.3036 84.6365C13.8666 82.8176 15.1813 80.9449 16.2686 79.3916" stroke="#884B6B" stroke-linecap="round"/>
<path d="M12.2226 59.1604C10.9761 55.6701 10.6227 53.0482 11.5376 49.3342C11.8953 47.882 12.4008 45.7236 13.6676 44.7101C13.9909 44.4515 13.9068 44.0845 14.342 43.9395" stroke="#884B6B" stroke-linecap="round"/>
<path d="M21.8562 24.8652C19.6228 23.4086 17.0323 22.0451 15.0914 20.1769C14.844 19.9388 14.7125 19.5979 14.4384 19.3848C14.0823 19.1078 13.9282 19.3664 14.5241 19.2671C15.5347 19.0986 16.7483 18.4768 17.7674 18.1646C23.093 16.5325 28.5927 15.5449 33.8981 13.883C36.2674 13.1408 39.2228 11.5689 41.8511 11.7636C42.9214 11.8429 42.0866 17.7737 42.0866 18.6997" stroke="#884B6B" stroke-linecap="round"/>
<path d="M60.5829 22.1684C60.3887 19.1589 60.7406 16.4346 60.9789 13.4554C61.0414 12.6743 63.1875 13.8507 63.4943 13.9692C66.0472 14.9556 68.5508 15.96 71.1369 16.87C74.9819 18.2229 78.847 19.48 82.7185 20.7555C85.2305 21.5831 88.005 22.2052 90.2541 23.6562C90.6497 23.9115 90.7713 24.1414 91.0675 24.4376C91.3403 24.7104 91.9272 24.7347 92.2557 24.9621C93.051 25.5128 89.7265 27.2431 89.4406 27.4561C87.3483 29.015 85.7781 30.9563 83.9816 32.7867C82.8206 33.9695 80.7798 34.9847 80.2352 36.6187" stroke="#884B6B" stroke-linecap="round"/>
<path d="M88.7126 76.8867C90.2426 77.479 91.4061 79.2266 93.1012 79.3807C93.5728 79.4236 93.6687 79.5843 94.0217 79.8731C94.6023 80.3481 95.7179 80.3154 94.9851 80.9435C92.6156 82.9745 92.7154 86.2945 91.988 89.0677C91.4663 91.0568 90.8798 92.954 89.9543 94.805C89.5393 95.635 89.2462 96.4973 88.8089 97.3204C88.3351 98.2124 87.5303 99.2625 87.3746 100.275C87.0471 102.404 83.712 100.392 82.3545 100.392" stroke="#884B6B" stroke-linecap="round"/>
<path d="M74.8405 118.696C76.7682 121.454 78.4618 124.381 80.4493 127.088C80.6119 127.31 82.7028 129.615 81.5197 129.486C80.5006 129.374 79.481 129.129 78.4584 129.004C75.4631 128.64 72.4568 128.715 69.4457 128.715C67.1928 128.715 64.99 129.167 62.7451 129.293C60.4106 129.425 58.1572 129.948 55.8304 130.107C53.8219 130.244 51.8282 130.273 49.8148 130.256C47.979 130.241 45.8381 130.213 44.0561 129.721C42.5352 129.302 40.8729 129.524 39.3571 128.993C38.2781 128.616 37.0899 128.618 36.0175 128.223C35.6612 128.091 35.4002 127.818 35.0541 127.741C34.585 127.637 34.3173 127.194 33.759 127.174C32.5509 127.131 33.9449 126.282 34.3798 125.932C36.4426 124.27 40.3775 122.668 41.3159 119.852" stroke="#884B6B" stroke-linecap="round"/>
<path d="M23.3975 109.062C22.0775 111.14 20.6778 113.168 19.6297 115.399C19.302 116.096 18.8166 117.143 18.1098 117.529C17.6451 117.782 17.6174 118.697 17.6174 117.668C17.6174 114.33 16.6439 110.947 14.7166 108.184C13.2786 106.123 12.1392 103.854 10.5956 101.869C9.29195 100.193 7.57424 98.572 7.99458 96.2602C8.10443 95.656 8.83349 95.6799 9.22552 95.4895C10.0975 95.066 11.9771 94.6303 12.2226 93.6484" stroke="#884B6B" stroke-linecap="round"/>
<path d="M11.6446 79.1982C11.1216 79.7109 7.27078 82.4671 7.22393 82.0455C7.06113 80.5803 7.6935 79.4026 7.78053 78.0101C7.88975 76.2626 7.49863 74.3459 7.9839 72.6475" stroke="#884B6B" stroke-linecap="round"/>
<path d="M8.94727 66.8672L9.71795 62.2432" stroke="#884B6B" stroke-linecap="round"/>
<path d="M10.874 53.1877C10.4011 52.9128 5.31748 50.0679 7.44879 48.7563C8.58222 48.0588 9.79007 47.3325 10.8098 46.4657C11.3826 45.9788 12.4154 45.3718 12.4154 44.5176" stroke="#884B6B" stroke-linecap="round"/>
<path d="M11.2592 37.9673C11.414 37.5959 11.0311 37.2391 10.8311 36.9611C10.185 36.0631 9.59464 35.0942 9.26833 34.0282C8.83362 32.6082 8.93293 31.3655 9.61085 30.0678C10.158 29.0204 10.5307 29.4703 11.3877 29.7788C12.3895 30.1394 13.5025 30.1951 14.5346 30.4531" stroke="#884B6B" stroke-linecap="round"/>
<path d="M42.6646 16.9665C43.5878 15.2354 43.8269 13.8483 46.0042 14.0122C47.1256 14.0966 48.8618 15.028 49.515 15.8854C49.9408 16.4442 49.8273 18.1143 49.8897 18.7754C49.9535 19.4517 50.1787 20.1456 50.1787 20.8199" stroke="#884B6B" stroke-linecap="round"/>
<path d="M49.7932 18.6999C50.1534 16.2587 50.2534 15.123 52.619 14.504C53.8799 14.174 55.9771 13.4857 57.2645 13.7333C57.509 13.7803 57.8723 14.3875 58.078 14.5361C58.8444 15.0896 58.656 15.6005 58.656 16.5377C58.656 17.7722 58.656 19.0067 58.656 20.2413" stroke="#884B6B" stroke-linecap="round"/>
<path d="M81.9692 33.3432C84.1364 32.9425 86.4898 32.1967 88.6913 32.0052C89.3757 31.9457 90.3088 31.9182 90.9177 32.2835C91.6357 32.7143 91.4705 33.8576 91.5599 34.6063C91.8632 37.1462 89.7332 39.1233 87.1713 39.1233" stroke="#884B6B" stroke-linecap="round"/>
<path d="M89.8687 38.1602C91.214 38.1786 92.1821 38.2517 92.5232 39.7015C92.7586 40.7019 91.8027 40.7909 91.0247 41.0502" stroke="#884B6B" stroke-linecap="round"/>
<path d="M94.4928 57.8125C94.989 58.8359 95.78 59.9823 95.5418 61.1735C95.4601 61.5821 95.279 61.9742 95.2635 62.3938C95.2351 63.16 93.3881 63.1711 92.7588 63.3999" stroke="#884B6B" stroke-linecap="round"/>
<path d="M92.9513 64.5557C94.5568 65.8935 95.2358 67.4188 94.5783 69.4687C94.1961 70.6604 92.7665 73.0371 91.2173 72.2625" stroke="#884B6B" stroke-linecap="round"/>
<path d="M88.1345 101.741C89.4264 101.754 90.5311 101.485 91.1745 102.725C91.5124 103.377 91.7686 103.991 91.7953 104.738C91.8253 105.579 91.7882 105.851 90.9176 106.193C89.2731 106.841 87.5688 107.288 85.8225 107.521" stroke="#884B6B" stroke-linecap="round"/>
<path d="M86.5932 107.906C89.0407 109.695 94.8387 113.48 89.5689 115.592C87.7612 116.316 85.8019 116.976 83.8744 117.304C83.4799 117.371 83.3864 117.306 83.1466 117.026C82.6005 116.389 82.0288 115.759 81.3911 115.228" stroke="#884B6B" stroke-linecap="round"/>
<path d="M39.389 121.779C36.1323 123.033 32.9546 124.235 29.4558 123.32C29.0968 123.226 28.1068 123.051 28.0322 122.528C27.7414 120.493 28.0691 118.331 29.3701 116.77" stroke="#884B6B" stroke-linecap="round"/>
<path d="M28.7923 117.926C27.5103 119.441 25.1871 121.824 22.8196 121.394C21.525 121.158 20.4735 119.245 19.6619 118.343C19.3954 118.047 19.5877 117.646 19.7368 117.348" stroke="#884B6B" stroke-linecap="round"/>
<path d="M12.2227 94.6118C10.2134 94.3001 9.38999 93.1021 8.71187 91.208C8.4374 90.4414 7.99931 89.6436 8.19808 88.8103C8.48761 87.5965 9.32094 86.6737 10.1034 85.749" stroke="#884B6B" stroke-linecap="round"/>
<path d="M11.6446 83.8223C10.9587 83.6963 10.3532 83.7561 10.2852 83.0088C10.2275 82.3731 9.88955 81.7141 9.91061 81.0821C9.95006 79.8986 11.3602 80.0516 11.6446 79.1982" stroke="#884B6B" stroke-linecap="round"/>
<path d="M8.94733 64.7481C8.31883 63.2323 7.96283 61.8587 8.45495 60.2418C8.85761 58.9188 9.64308 58.968 10.874 58.968" stroke="#884B6B" stroke-linecap="round"/>
<path d="M9.71781 59.354C8.77712 58.3965 7.90766 57.4018 8.21926 55.9287C8.47578 54.7161 9.26491 53.5159 9.73922 52.375C9.90671 51.9722 9.88545 51.8398 10.2958 51.8398" stroke="#884B6B" stroke-linecap="round"/>
</svg>
