<svg width="151" height="109" viewBox="0 0 151 109" fill="none" xmlns="http://www.w3.org/2000/svg">
<g clip-path="url(#clip0_93_5904)">
<rect width="145" height="103" transform="translate(3 3)" fill="#FBFFFF"/>
<g clip-path="url(#clip1_93_5904)">
<path d="M64.3897 62.1387C64.3897 62.1387 62.168 62.1387 62.168 59.9684C62.168 57.7981 64.3897 51.2871 75.4983 51.2871C86.6069 51.2871 88.8286 57.7981 88.8286 59.9684C88.8286 62.1387 86.6069 62.1387 86.6069 62.1387H64.3897ZM82.1635 42.6057C82.1635 44.3325 81.4612 45.9887 80.2113 47.2097C78.9613 48.4308 77.266 49.1167 75.4983 49.1167C73.7306 49.1167 72.0353 48.4308 70.7853 47.2097C69.5354 45.9887 68.8331 44.3325 68.8331 42.6057C68.8331 40.8789 69.5354 39.2228 70.7853 38.0018C72.0353 36.7807 73.7306 36.0947 75.4983 36.0947C77.266 36.0947 78.9613 36.7807 80.2113 38.0018C81.4612 39.2228 82.1635 40.8789 82.1635 42.6057Z" fill="#01CDBB"/>
<path d="M78.958 25.8411C79.264 25.8411 79.5575 25.9621 79.7738 26.1777C79.9901 26.3932 80.1117 26.6855 80.1117 26.9903C80.1117 27.2951 80.2333 27.5874 80.4496 27.803C80.666 28.0185 80.9595 28.1396 81.2655 28.1396C81.5714 28.1396 81.8649 28.2606 82.0813 28.4762C82.2977 28.6917 82.4192 28.984 82.4192 29.2888V30.4381C82.4192 30.7429 82.2977 31.0352 82.0813 31.2507C81.8649 31.4662 81.5714 31.5873 81.2655 31.5873H69.7279C69.422 31.5873 69.1285 31.4662 68.9122 31.2507C68.6958 31.0352 68.5742 30.7429 68.5742 30.4381V29.2888C68.5742 28.984 68.6958 28.6917 68.9122 28.4762C69.1285 28.2606 69.422 28.1396 69.7279 28.1396C70.034 28.1396 70.3274 28.0185 70.5438 27.803C70.7602 27.5874 70.8818 27.2951 70.8818 26.9903C70.8818 26.6855 71.0033 26.3932 71.2197 26.1777C71.436 25.9621 71.7294 25.8411 72.0355 25.8411H78.958Z" fill="#334241"/>
<path d="M64.0556 31.5876C64.0556 31.2829 64.1772 30.9905 64.3935 30.775C64.6098 30.5595 64.9033 30.4384 65.2093 30.4384H66.363C66.669 30.4384 66.9625 30.3173 67.1789 30.1018C67.3953 29.8863 67.5168 29.5939 67.5168 29.2892C67.5168 28.9843 67.3953 28.692 67.1789 28.4765C66.9625 28.261 66.669 28.1399 66.363 28.1399H65.2093C64.2913 28.1399 63.4109 28.5031 62.7619 29.1497C62.1127 29.7963 61.748 30.6732 61.748 31.5876V59.1697C61.748 60.0841 62.1127 60.961 62.7619 61.6076C63.4109 62.2542 64.2913 62.6175 65.2093 62.6175H85.9768C86.8948 62.6175 87.7752 62.2542 88.4243 61.6076C89.0734 60.961 89.4381 60.0841 89.4381 59.1697V31.5876C89.4381 30.6732 89.0734 29.7963 88.4243 29.1497C87.7752 28.5031 86.8948 28.1399 85.9768 28.1399H84.8231C84.5171 28.1399 84.2236 28.261 84.0072 28.4765C83.7909 28.692 83.6693 28.9843 83.6693 29.2892C83.6693 29.5939 83.7909 29.8863 84.0072 30.1018C84.2236 30.3173 84.5171 30.4384 84.8231 30.4384H85.9768C86.2829 30.4384 86.5763 30.5595 86.7926 30.775C87.009 30.9905 87.1305 31.2829 87.1305 31.5876V59.1697C87.1305 59.4744 87.009 59.7668 86.7926 59.9823C86.5763 60.1978 86.2829 60.3189 85.9768 60.3189H65.2093C64.9033 60.3189 64.6098 60.1978 64.3935 59.9823C64.1772 59.7668 64.0556 59.4744 64.0556 59.1697V31.5876Z" fill="#334241"/>
<path d="M67.0451 65.8987V80.2536H62.1865V74.9628H57.6985V80.2536H52.8398V65.8987H57.6985V70.9844H62.1865V65.8987H67.0451ZM76.8388 80.5817C75.3154 80.5817 73.9428 80.2673 72.7213 79.6384C71.4998 78.9958 70.5391 78.1072 69.8391 76.9725C69.1528 75.8241 68.8097 74.5253 68.8097 73.0761C68.8097 71.6269 69.1528 70.335 69.8391 69.2003C70.5391 68.0519 71.4998 67.1632 72.7213 66.5344C73.9428 65.8918 75.3154 65.5706 76.8388 65.5706C78.2388 65.5706 79.4877 65.8166 80.5857 66.3088C81.6837 66.801 82.5895 67.5119 83.3033 68.4415L80.2357 71.169C79.3436 70.0479 78.2936 69.4874 77.0859 69.4874C76.0702 69.4874 75.2536 69.8155 74.636 70.4717C74.0184 71.1142 73.7095 71.9824 73.7095 73.0761C73.7095 74.1698 74.0184 75.0448 74.636 75.7011C75.2536 76.3435 76.0702 76.6649 77.0859 76.6649C78.2936 76.6649 79.3436 76.1043 80.2357 74.9833L83.3033 77.7108C82.5895 78.6403 81.6837 79.3513 80.5857 79.8435C79.4877 80.3357 78.2388 80.5817 76.8388 80.5817ZM91.644 65.8987C92.9753 65.8987 94.1351 66.1174 95.1233 66.5549C96.1115 66.9923 96.8732 67.6213 97.4085 68.4415C97.9438 69.2618 98.2114 70.2188 98.2114 71.3125C98.2114 72.4062 97.9438 73.3633 97.4085 74.1835C96.8732 75.0038 96.1115 75.6327 95.1233 76.0702C94.1351 76.5076 92.9753 76.7264 91.644 76.7264H89.5647V80.2536H84.7061V65.8987H91.644ZM91.3352 72.9941C91.994 72.9941 92.4881 72.8506 92.8175 72.5635C93.1469 72.2626 93.3116 71.8457 93.3116 71.3125C93.3116 70.7794 93.1469 70.3692 92.8175 70.0821C92.4881 69.7813 91.994 69.631 91.3352 69.631H89.5647V72.9941H91.3352Z" fill="#7DB9FF"/>
</g>
</g>
<path d="M11 1.5C5.75329 1.5 1.5 5.7533 1.5 11V98C1.5 103.247 5.7533 107.5 11 107.5H140C145.247 107.5 149.5 103.247 149.5 98V11C149.5 5.75329 145.247 1.5 140 1.5H11Z" stroke="#7B757F" stroke-width="3" stroke-linecap="round"/>
<defs>
<clipPath id="clip0_93_5904">
<path d="M3 11C3 6.58172 6.58172 3 11 3H140C144.418 3 148 6.58172 148 11V98C148 102.418 144.418 106 140 106H11C6.58173 106 3 102.418 3 98V11Z" fill="white"/>
</clipPath>
<clipPath id="clip1_93_5904">
<rect width="47.248" height="57.3173" fill="white" transform="translate(51.875 25.8413)"/>
</clipPath>
</defs>
</svg>
