<svg width="160" height="119" viewBox="0 0 160 119" fill="none" xmlns="http://www.w3.org/2000/svg">
<g filter="url(#filter0_di_165_9668)">
<g clip-path="url(#clip0_165_9668)">
<path d="M6 10.9429C6 9.31756 7.31756 8 8.94286 8H147.901C149.526 8 150.844 9.31756 150.844 10.9429V108.057C150.844 109.682 149.526 111 147.901 111H8.94285C7.31756 111 6 109.682 6 108.057V10.9429Z" fill="white"/>
<g clip-path="url(#clip1_165_9668)">
<rect width="144.844" height="103" transform="translate(6 8)" fill="#00575F"/>
<g clip-path="url(#clip2_165_9668)">
<rect width="145.146" height="103" transform="translate(5.90039 8)" fill="#00575F"/>
<path d="M66.4531 56.2812H76.7129C76.5323 55.2638 76.2565 55.0888 75.5413 55.2641C75.1508 54.373 74.7693 54.2002 73.8313 54.4059C73.1859 53.169 72.6557 53.1075 71.488 53.8337C70.3058 53.2621 69.8115 53.3764 69.2714 54.4059C68.2964 54.3019 68.0154 54.5302 67.8148 55.2641C66.7547 55.1984 66.4818 55.4425 66.4531 56.2812Z" fill="#196366" stroke="#196366" stroke-width="0.100586"/>
<path d="M90.293 44.2109H100.452C100.273 43.1935 100 43.0185 99.292 43.1938C98.9054 42.3027 98.5276 42.1299 97.5988 42.3355C96.9597 41.0987 96.4347 41.0372 95.2785 41.7634C94.1079 41.1918 93.6184 41.3061 93.0836 42.3355C92.1181 42.2316 91.84 42.4599 91.6413 43.1938C90.5916 43.1281 90.3214 43.3722 90.293 44.2109Z" fill="#196366" stroke="#196366" stroke-width="0.100586"/>
<path d="M110.309 53.3643H120.568C120.388 52.3468 120.112 52.1718 119.397 52.3471C119.006 51.456 118.625 51.2832 117.687 51.4889C117.041 50.252 116.511 50.1905 115.343 50.9167C114.161 50.3451 113.667 50.4594 113.127 51.4889C112.152 51.3849 111.871 51.6132 111.67 52.3471C110.61 52.2814 110.337 52.5255 110.309 53.3643Z" fill="#196366" stroke="#196366" stroke-width="0.100586"/>
<path d="M36.9824 44.2109H47.2422C47.0616 43.1935 46.7858 43.0185 46.0705 43.1938C45.6801 42.3027 45.2986 42.1299 44.3606 42.3355C43.7152 41.0987 43.185 41.0372 42.0173 41.7634C40.8351 41.1918 40.3408 41.3061 39.8007 42.3355C38.8257 42.2316 38.5447 42.4599 38.3441 43.1938C37.284 43.1281 37.0111 43.3722 36.9824 44.2109Z" fill="#196366" stroke="#196366" stroke-width="0.100586"/>
<path d="M8.21484 53.3643H18.4746C18.2941 52.3468 18.0182 52.1718 17.303 52.3471C16.9125 51.456 16.531 51.2832 15.593 51.4889C14.9476 50.252 14.4174 50.1905 13.2497 50.9167C12.0675 50.3451 11.5732 50.4594 11.0331 51.4889C10.0581 51.3849 9.77716 51.6132 9.57648 52.3471C8.51645 52.2814 8.24351 52.5255 8.21484 53.3643Z" fill="#196366" stroke="#196366" stroke-width="0.100586"/>
<path d="M150.644 98.4268V72.375C144.953 72.4401 140.752 74.0129 133.196 76.9112C118.03 77.9929 113.391 79.3608 109.828 81.9515C85.2962 76.2206 72.522 76.1527 52.29 80.1244C31.3367 84.537 21.4757 88.8298 5.90039 98.4268H150.644Z" fill="#005051"/>
<path d="M6.00195 73.4814V129.105H150.745V98.4268C145.219 96.172 141.384 96.0851 134.617 95.8158C124.771 92.2395 120.571 91.3984 115.591 92.1039C98.6512 85.1701 88.3405 84.4765 69.3487 85.6238C46.8554 77.7395 32.9432 75.1033 6.00195 73.4814Z" fill="#004A49"/>
</g>
<path d="M24.0393 51.6465H24.2324V50.9585H24.9687V51.6465H25.1618V50.1256H24.9687V50.7895H24.2324V50.1256H24.0393V51.6465ZM26.3689 51.6465H26.5016V50.9223C26.5016 50.7195 26.3327 50.5481 26.0913 50.5481C25.8498 50.5481 25.7074 50.6929 25.6809 50.874H25.874C25.9005 50.7774 25.9561 50.7171 26.0913 50.7171C26.2264 50.7171 26.3206 50.8136 26.3206 50.9223V50.9826C25.7774 50.9826 25.6326 51.1275 25.6326 51.3327C25.6326 51.5137 25.7774 51.6586 25.9947 51.6586C26.1033 51.6586 26.183 51.6296 26.2385 51.5934C26.2699 51.5741 26.2964 51.5523 26.3206 51.5258L26.3689 51.6465ZM26.3206 51.2361C26.3206 51.3568 26.1878 51.4896 25.9947 51.4896C25.8861 51.4896 25.8136 51.4196 25.8136 51.3447C25.8136 51.224 25.8861 51.1516 26.3206 51.1516V51.2361ZM27.2502 51.6465H27.4192L27.8537 50.5602H27.6606L27.3347 51.393L27.0088 50.5602H26.8157L27.2502 51.6465ZM28.9164 51.3568C28.8802 51.4075 28.7933 51.4896 28.6508 51.4896C28.4794 51.4896 28.337 51.3447 28.3249 51.1878H29.1216L29.1264 51.1613C29.1288 51.1444 29.1336 51.1226 29.1336 51.0912C29.1336 50.7629 28.9043 50.5481 28.6388 50.5481C28.3756 50.5481 28.1318 50.7774 28.1318 51.1033C28.1318 51.4292 28.3611 51.6586 28.6508 51.6586C28.8922 51.6586 29.0371 51.5137 29.1095 51.3568H28.9164ZM28.3249 51.0309C28.3515 50.8498 28.4818 50.7171 28.6388 50.7171C28.7957 50.7171 28.926 50.8498 28.9526 51.0309H28.3249ZM30.7274 51.4896C30.5463 51.4896 30.3894 51.3351 30.3894 51.1033C30.3894 50.8716 30.5463 50.7171 30.7274 50.7171C30.9084 50.7171 31.0654 50.8716 31.0654 51.1033C31.0654 51.3351 30.9084 51.4896 30.7274 51.4896ZM30.2325 52.0327H30.4136V51.5137C30.4353 51.5403 30.4643 51.5644 30.4956 51.5861C30.5512 51.6223 30.6308 51.6586 30.7395 51.6586C31.0195 51.6586 31.2464 51.4292 31.2464 51.1033C31.2464 50.7774 31.0195 50.5481 30.7395 50.5481C30.6308 50.5481 30.5512 50.5795 30.4956 50.6157C30.4643 50.635 30.4353 50.6567 30.4136 50.6809L30.3653 50.5602H30.2325V52.0327ZM32.3678 51.3568C32.3316 51.4075 32.2447 51.4896 32.1023 51.4896C31.9309 51.4896 31.7884 51.3447 31.7764 51.1878H32.573L32.5778 51.1613C32.5803 51.1444 32.5851 51.1226 32.5851 51.0912C32.5851 50.7629 32.3557 50.5481 32.0902 50.5481C31.8271 50.5481 31.5832 50.7774 31.5832 51.1033C31.5832 51.4292 31.8126 51.6586 32.1023 51.6586C32.3437 51.6586 32.4885 51.5137 32.5609 51.3568H32.3678ZM31.7764 51.0309C31.8029 50.8498 31.9333 50.7171 32.0902 50.7171C32.2471 50.7171 32.3775 50.8498 32.404 51.0309H31.7764ZM33.6843 51.6465H33.8171V50.9223C33.8171 50.7195 33.6481 50.5481 33.4067 50.5481C33.1653 50.5481 33.0229 50.6929 32.9963 50.874H33.1894C33.216 50.7774 33.2715 50.7171 33.4067 50.7171C33.5419 50.7171 33.636 50.8136 33.636 50.9223V50.9826C33.0929 50.9826 32.948 51.1275 32.948 51.3327C32.948 51.5137 33.0929 51.6586 33.3102 51.6586C33.4188 51.6586 33.4984 51.6296 33.554 51.5934C33.5854 51.5741 33.6119 51.5523 33.636 51.5258L33.6843 51.6465ZM33.636 51.2361C33.636 51.3568 33.5033 51.4896 33.3102 51.4896C33.2015 51.4896 33.1291 51.4196 33.1291 51.3447C33.1291 51.224 33.2015 51.1516 33.636 51.1516V51.2361ZM35.0117 51.2602C34.9731 51.3809 34.8644 51.4896 34.722 51.4896C34.553 51.4896 34.3961 51.3351 34.3961 51.1033C34.3961 50.8716 34.553 50.7171 34.722 50.7171C34.8644 50.7171 34.9731 50.8257 35.0117 50.9464H35.1927C35.142 50.7267 34.9634 50.5481 34.722 50.5481C34.442 50.5481 34.215 50.7774 34.215 51.1033C34.215 51.4292 34.442 51.6586 34.722 51.6586C34.9634 51.6586 35.142 51.4799 35.1927 51.2602H35.0117ZM36.3025 51.3568C36.2663 51.4075 36.1794 51.4896 36.037 51.4896C35.8656 51.4896 35.7232 51.3447 35.7111 51.1878H36.5077L36.5126 51.1613C36.515 51.1444 36.5198 51.1226 36.5198 51.0912C36.5198 50.7629 36.2905 50.5481 36.0249 50.5481C35.7618 50.5481 35.518 50.7774 35.518 51.1033C35.518 51.4292 35.7473 51.6586 36.037 51.6586C36.2784 51.6586 36.4233 51.5137 36.4957 51.3568H36.3025ZM35.7111 51.0309C35.7377 50.8498 35.868 50.7171 36.0249 50.7171C36.1818 50.7171 36.3122 50.8498 36.3388 51.0309H35.7111ZM38.0532 51.4896C37.8842 51.4896 37.7273 51.3351 37.7273 51.1033C37.7273 50.8716 37.8842 50.7171 38.0532 50.7171C38.2198 50.7171 38.3791 50.8716 38.3791 51.1033C38.3791 51.3351 38.2198 51.4896 38.0532 51.4896ZM38.0532 51.6586C38.3332 51.6586 38.5602 51.4292 38.5602 51.1033C38.5602 50.7774 38.3332 50.5481 38.0532 50.5481C37.7732 50.5481 37.5463 50.7774 37.5463 51.1033C37.5463 51.4292 37.7732 51.6586 38.0532 51.6586ZM39.0073 51.6465H39.1884V50.7291H39.4298V50.5602H39.1884V50.4757C39.1884 50.3525 39.2608 50.2825 39.3694 50.2825C39.3863 50.2825 39.4032 50.2874 39.4129 50.2898L39.4298 50.2946V50.1377L39.4032 50.1256C39.3839 50.1184 39.3574 50.1136 39.3212 50.1136C39.1546 50.1136 39.0073 50.2584 39.0073 50.4757V50.5602H38.8746V50.7291H39.0073V51.6465ZM40.4926 51.6465H40.6736V50.9947C40.6736 50.8329 40.7847 50.7171 40.9029 50.7171C41.0261 50.7171 41.1202 50.8112 41.1202 50.9947V51.6465H41.3013V50.9947C41.3013 50.8233 41.4075 50.7171 41.5306 50.7171C41.6537 50.7171 41.7479 50.8112 41.7479 50.9947V51.6465H41.9289V50.9947C41.9289 50.7147 41.7599 50.5481 41.5668 50.5481C41.4509 50.5481 41.3737 50.5964 41.3182 50.6446C41.2868 50.6736 41.2626 50.705 41.2409 50.7412C41.224 50.705 41.1999 50.6736 41.1709 50.6446C41.1226 50.5964 41.0478 50.5481 40.9392 50.5481C40.845 50.5481 40.7847 50.5795 40.7388 50.6157C40.7122 50.635 40.6905 50.6567 40.6736 50.6809L40.6253 50.5602H40.4926V51.6465ZM42.399 51.6465H42.5801V50.5602H42.399V51.6465ZM42.3749 50.2536C42.3749 50.3187 42.4231 50.367 42.4883 50.367C42.5559 50.367 42.6042 50.3187 42.6042 50.2536C42.6042 50.186 42.5559 50.1377 42.4883 50.1377C42.4231 50.1377 42.3749 50.186 42.3749 50.2536ZM43.0631 51.6465H43.2441V51.0188C43.2441 50.8354 43.3624 50.7171 43.5338 50.7171C43.6762 50.7171 43.7993 50.8378 43.7993 51.0188V51.6465H43.9804V51.0188C43.9804 50.7412 43.7873 50.5481 43.5579 50.5481C43.4541 50.5481 43.3793 50.5795 43.3238 50.6157C43.2924 50.635 43.2658 50.6567 43.2441 50.6809L43.1958 50.5602H43.0631V51.6465ZM44.8975 51.4896C44.7164 51.4896 44.5595 51.3351 44.5595 51.1033C44.5595 50.8716 44.7164 50.7171 44.8975 50.7171C45.0785 50.7171 45.2354 50.8716 45.2354 51.1033C45.2354 51.3351 45.0785 51.4896 44.8975 51.4896ZM45.2596 51.6465H45.3923V50.1256H45.2113V50.6929C45.1871 50.6664 45.1606 50.6422 45.1292 50.6205C45.0737 50.5843 44.994 50.5481 44.8854 50.5481C44.6054 50.5481 44.3784 50.7774 44.3784 51.1033C44.3784 51.4292 44.6054 51.6586 44.8854 51.6586C44.994 51.6586 45.0737 51.6296 45.1292 51.5934C45.1606 51.5741 45.1871 51.5523 45.2113 51.5258L45.2596 51.6465ZM45.864 51.8758C45.9002 51.8541 45.9316 51.8251 45.9606 51.7937C46.0089 51.7382 46.0572 51.6537 46.0572 51.5379C46.0572 51.463 46.0113 51.4171 45.9364 51.4171C45.8616 51.4171 45.8157 51.463 45.8157 51.5379C45.8157 51.6127 45.8616 51.6586 45.9364 51.6586C45.9292 51.7141 45.9051 51.7575 45.8833 51.7889C45.8713 51.8058 45.8568 51.8227 45.8399 51.8396L45.864 51.8758ZM47.843 51.6465H47.9758V50.9223C47.9758 50.7195 47.8068 50.5481 47.5654 50.5481C47.324 50.5481 47.1815 50.6929 47.155 50.874H47.3481C47.3747 50.7774 47.4302 50.7171 47.5654 50.7171C47.7006 50.7171 47.7947 50.8136 47.7947 50.9223V50.9826C47.2516 50.9826 47.1067 51.1275 47.1067 51.3327C47.1067 51.5137 47.2516 51.6586 47.4688 51.6586C47.5774 51.6586 47.6571 51.6296 47.7126 51.5934C47.744 51.5741 47.7706 51.5523 47.7947 51.5258L47.843 51.6465ZM47.7947 51.2361C47.7947 51.3568 47.6619 51.4896 47.4688 51.4896C47.3602 51.4896 47.2878 51.4196 47.2878 51.3447C47.2878 51.224 47.3602 51.1516 47.7947 51.1516V51.2361ZM48.5071 51.2964C48.5071 51.5137 48.6543 51.6586 48.8209 51.6586C48.8547 51.6586 48.8812 51.6537 48.903 51.6465C48.9126 51.6441 48.9223 51.6392 48.9295 51.6344V51.4775L48.9126 51.4847C48.9005 51.4872 48.8861 51.4896 48.8692 51.4896C48.7605 51.4896 48.6881 51.4196 48.6881 51.2964V50.7291H48.9295V50.5602H48.6881V50.2705H48.5312V50.4274C48.5312 50.5167 48.4877 50.5602 48.3984 50.5602H48.3139V50.7291H48.5071V51.2964ZM50.7404 51.6465H50.8732V50.9223C50.8732 50.7195 50.7042 50.5481 50.4628 50.5481C50.2214 50.5481 50.079 50.6929 50.0524 50.874H50.2456C50.2721 50.7774 50.3276 50.7171 50.4628 50.7171C50.598 50.7171 50.6922 50.8136 50.6922 50.9223V50.9826C50.149 50.9826 50.0041 51.1275 50.0041 51.3327C50.0041 51.5137 50.149 51.6586 50.3663 51.6586C50.4749 51.6586 50.5546 51.6296 50.6101 51.5934C50.6415 51.5741 50.668 51.5523 50.6922 51.5258L50.7404 51.6465ZM50.6922 51.2361C50.6922 51.3568 50.5594 51.4896 50.3663 51.4896C50.2576 51.4896 50.1852 51.4196 50.1852 51.3447C50.1852 51.224 50.2576 51.1516 50.6922 51.1516V51.2361ZM51.3556 51.6465H51.5367V50.1256H51.3556V51.6465ZM52.0433 51.6465H52.2243V50.1256H52.0433V51.6465ZM53.491 51.2964C53.491 51.5137 53.6382 51.6586 53.8048 51.6586C53.8386 51.6586 53.8651 51.6537 53.8869 51.6465C53.8965 51.6441 53.9062 51.6392 53.9134 51.6344V51.4775L53.8965 51.4847C53.8844 51.4872 53.87 51.4896 53.8531 51.4896C53.7444 51.4896 53.672 51.4196 53.672 51.2964V50.7291H53.9134V50.5602H53.672V50.2705H53.5151V50.4274C53.5151 50.5167 53.4716 50.5602 53.3823 50.5602H53.2978V50.7291H53.491V51.2964ZM54.3487 51.6465H54.5298V50.5602H54.3487V51.6465ZM54.3246 50.2536C54.3246 50.3187 54.3728 50.367 54.438 50.367C54.5056 50.367 54.5539 50.3187 54.5539 50.2536C54.5539 50.186 54.5056 50.1377 54.438 50.1377C54.3728 50.1377 54.3246 50.186 54.3246 50.2536ZM55.0128 51.6465H55.1938V50.9947C55.1938 50.8329 55.3049 50.7171 55.4232 50.7171C55.5463 50.7171 55.6404 50.8112 55.6404 50.9947V51.6465H55.8215V50.9947C55.8215 50.8233 55.9277 50.7171 56.0508 50.7171C56.1739 50.7171 56.2681 50.8112 56.2681 50.9947V51.6465H56.4491V50.9947C56.4491 50.7147 56.2801 50.5481 56.087 50.5481C55.9711 50.5481 55.8939 50.5964 55.8384 50.6446C55.807 50.6736 55.7828 50.705 55.7611 50.7412C55.7442 50.705 55.7201 50.6736 55.6911 50.6446C55.6428 50.5964 55.568 50.5481 55.4594 50.5481C55.3652 50.5481 55.3049 50.5795 55.259 50.6157C55.2324 50.635 55.2107 50.6567 55.1938 50.6809L55.1455 50.5602H55.0128V51.6465ZM57.6314 51.3568C57.5951 51.4075 57.5082 51.4896 57.3658 51.4896C57.1944 51.4896 57.052 51.3447 57.0399 51.1878H57.8366L57.8414 51.1613C57.8438 51.1444 57.8486 51.1226 57.8486 51.0912C57.8486 50.7629 57.6193 50.5481 57.3537 50.5481C57.0906 50.5481 56.8468 50.7774 56.8468 51.1033C56.8468 51.4292 57.0761 51.6586 57.3658 51.6586C57.6072 51.6586 57.7521 51.5137 57.8245 51.3568H57.6314ZM57.0399 51.0309C57.0665 50.8498 57.1968 50.7171 57.3537 50.7171C57.5107 50.7171 57.641 50.8498 57.6676 51.0309H57.0399ZM58.1874 51.3206C58.1995 51.5137 58.3444 51.6586 58.5858 51.6586C58.8151 51.6586 58.9599 51.5137 58.9599 51.3327C58.9599 50.9223 58.3926 51.1057 58.3926 50.8619C58.3926 50.7871 58.4651 50.7171 58.5737 50.7171C58.6968 50.7171 58.7547 50.7774 58.7668 50.874H58.9479C58.9358 50.6809 58.8054 50.5481 58.5737 50.5481C58.3564 50.5481 58.2116 50.6953 58.2116 50.8619C58.2116 51.2747 58.7789 51.0888 58.7789 51.3327C58.7789 51.4171 58.7089 51.4896 58.5858 51.4896C58.4506 51.4896 58.3806 51.4171 58.3685 51.3206H58.1874ZM60.7569 51.6465H60.8897V50.9223C60.8897 50.7195 60.7207 50.5481 60.4793 50.5481C60.2379 50.5481 60.0955 50.6929 60.0689 50.874H60.262C60.2886 50.7774 60.3441 50.7171 60.4793 50.7171C60.6145 50.7171 60.7086 50.8136 60.7086 50.9223V50.9826C60.1655 50.9826 60.0206 51.1275 60.0206 51.3327C60.0206 51.5137 60.1655 51.6586 60.3827 51.6586C60.4914 51.6586 60.571 51.6296 60.6265 51.5934C60.6579 51.5741 60.6845 51.5523 60.7086 51.5258L60.7569 51.6465ZM60.7086 51.2361C60.7086 51.3568 60.5759 51.4896 60.3827 51.4896C60.2741 51.4896 60.2017 51.4196 60.2017 51.3447C60.2017 51.224 60.2741 51.1516 60.7086 51.1516V51.2361ZM61.36 51.6465H61.5411V51.0188C61.5411 50.8354 61.6594 50.7171 61.8308 50.7171C61.9732 50.7171 62.0963 50.8378 62.0963 51.0188V51.6465H62.2774V51.0188C62.2774 50.7412 62.0843 50.5481 61.8549 50.5481C61.7511 50.5481 61.6763 50.5795 61.6208 50.6157C61.5894 50.635 61.5628 50.6567 61.5411 50.6809L61.4928 50.5602H61.36V51.6465ZM63.1945 51.4896C63.0134 51.4896 62.8565 51.3351 62.8565 51.1033C62.8565 50.8716 63.0134 50.7171 63.1945 50.7171C63.3755 50.7171 63.5324 50.8716 63.5324 51.1033C63.5324 51.3351 63.3755 51.4896 63.1945 51.4896ZM63.5566 51.6465H63.6893V50.1256H63.5083V50.6929C63.4841 50.6664 63.4576 50.6422 63.4262 50.6205C63.3707 50.5843 63.291 50.5481 63.1824 50.5481C62.9023 50.5481 62.6754 50.7774 62.6754 51.1033C62.6754 51.4292 62.9023 51.6586 63.1824 51.6586C63.291 51.6586 63.3707 51.6296 63.4262 51.5934C63.4576 51.5741 63.4841 51.5523 63.5083 51.5258L63.5566 51.6465ZM64.909 51.6465H65.0901V50.7291H65.3315V50.5602H65.0901V50.4757C65.0901 50.3525 65.1625 50.2825 65.2711 50.2825C65.288 50.2825 65.3049 50.2874 65.3146 50.2898L65.3315 50.2946V50.1377L65.3049 50.1256C65.2856 50.1184 65.259 50.1136 65.2228 50.1136C65.0563 50.1136 64.909 50.2584 64.909 50.4757V50.5602H64.7762V50.7291H64.909V51.6465ZM66.1411 51.4896C65.9721 51.4896 65.8152 51.3351 65.8152 51.1033C65.8152 50.8716 65.9721 50.7171 66.1411 50.7171C66.3077 50.7171 66.467 50.8716 66.467 51.1033C66.467 51.3351 66.3077 51.4896 66.1411 51.4896ZM66.1411 51.6586C66.4212 51.6586 66.6481 51.4292 66.6481 51.1033C66.6481 50.7774 66.4212 50.5481 66.1411 50.5481C65.8611 50.5481 65.6342 50.7774 65.6342 51.1033C65.6342 51.4292 65.8611 51.6586 66.1411 51.6586ZM67.059 51.6465H67.2401V51.0309C67.2401 50.8474 67.3584 50.7291 67.5298 50.7291H67.578V50.5481H67.5539C67.4501 50.5481 67.3753 50.5795 67.3197 50.6157C67.2884 50.635 67.2618 50.6567 67.2401 50.6809L67.1918 50.5602H67.059V51.6465ZM69.3515 51.3568C69.3153 51.4075 69.2284 51.4896 69.086 51.4896C68.9146 51.4896 68.7722 51.3447 68.7601 51.1878H69.5567L69.5616 51.1613C69.564 51.1444 69.5688 51.1226 69.5688 51.0912C69.5688 50.7629 69.3395 50.5481 69.0739 50.5481C68.8108 50.5481 68.567 50.7774 68.567 51.1033C68.567 51.4292 68.7963 51.6586 69.086 51.6586C69.3274 51.6586 69.4722 51.5137 69.5447 51.3568H69.3515ZM68.7601 51.0309C68.7866 50.8498 68.917 50.7171 69.0739 50.7171C69.2308 50.7171 69.3612 50.8498 69.3877 51.0309H68.7601ZM70.2818 51.6465H70.4508L70.8853 50.5602H70.6922L70.3663 51.393L70.0404 50.5602H69.8473L70.2818 51.6465ZM71.948 51.3568C71.9118 51.4075 71.8249 51.4896 71.6824 51.4896C71.511 51.4896 71.3686 51.3447 71.3565 51.1878H72.1532L72.158 51.1613C72.1604 51.1444 72.1652 51.1226 72.1652 51.0912C72.1652 50.7629 71.9359 50.5481 71.6704 50.5481C71.4072 50.5481 71.1634 50.7774 71.1634 51.1033C71.1634 51.4292 71.3927 51.6586 71.6824 51.6586C71.9238 51.6586 72.0687 51.5137 72.1411 51.3568H71.948ZM71.3565 51.0309C71.3831 50.8498 71.5134 50.7171 71.6704 50.7171C71.8273 50.7171 71.9576 50.8498 71.9842 51.0309H71.3565ZM72.5765 51.6465H72.7575V51.0309C72.7575 50.8474 72.8758 50.7291 73.0472 50.7291H73.0955V50.5481H73.0714C72.9676 50.5481 72.8927 50.5795 72.8372 50.6157C72.8058 50.635 72.7793 50.6567 72.7575 50.6809L72.7093 50.5602H72.5765V51.6465ZM73.5175 52.0327L73.5392 52.04C73.5561 52.0424 73.5706 52.0448 73.5899 52.0448C73.7323 52.0448 73.8168 51.9627 73.9037 51.743L74.3745 50.5602H74.1814L73.8555 51.393L73.5296 50.5602H73.3364L73.7589 51.6223L73.7106 51.743C73.672 51.8396 73.6261 51.8879 73.5175 51.8879V52.0327ZM75.1595 51.4896C74.9905 51.4896 74.8336 51.3351 74.8336 51.1033C74.8336 50.8716 74.9905 50.7171 75.1595 50.7171C75.3261 50.7171 75.4854 50.8716 75.4854 51.1033C75.4854 51.3351 75.3261 51.4896 75.1595 51.4896ZM75.1595 51.6586C75.4396 51.6586 75.6665 51.4292 75.6665 51.1033C75.6665 50.7774 75.4396 50.5481 75.1595 50.5481C74.8795 50.5481 74.6526 50.7774 74.6526 51.1033C74.6526 51.4292 74.8795 51.6586 75.1595 51.6586ZM76.0774 51.6465H76.2585V51.0188C76.2585 50.8354 76.3768 50.7171 76.5482 50.7171C76.6906 50.7171 76.8137 50.8378 76.8137 51.0188V51.6465H76.9948V51.0188C76.9948 50.7412 76.8017 50.5481 76.5723 50.5481C76.4685 50.5481 76.3937 50.5795 76.3382 50.6157C76.3068 50.635 76.2802 50.6567 76.2585 50.6809L76.2102 50.5602H76.0774V51.6465ZM78.1774 51.3568C78.1412 51.4075 78.0543 51.4896 77.9118 51.4896C77.7404 51.4896 77.598 51.3447 77.5859 51.1878H78.3826L78.3874 51.1613C78.3898 51.1444 78.3947 51.1226 78.3947 51.0912C78.3947 50.7629 78.1653 50.5481 77.8998 50.5481C77.6366 50.5481 77.3928 50.7774 77.3928 51.1033C77.3928 51.4292 77.6222 51.6586 77.9118 51.6586C78.1532 51.6586 78.2981 51.5137 78.3705 51.3568H78.1774ZM77.5859 51.0309C77.6125 50.8498 77.7429 50.7171 77.8998 50.7171C78.0567 50.7171 78.187 50.8498 78.2136 51.0309H77.5859Z" fill="#DED4C4"/>
<path d="M18.8954 49.832H19.0724V48.8916L19.504 49.832H19.6146L20.0461 48.8916V49.832H20.2231V48.4379H20.0793L19.5593 49.5554L19.0392 48.4379H18.8954V49.832ZM21.1299 48.5817C21.3733 48.5817 21.6057 48.8141 21.6057 49.135C21.6057 49.4558 21.3733 49.6882 21.1299 49.6882C20.8865 49.6882 20.6541 49.4558 20.6541 49.135C20.6541 48.8141 20.8865 48.5817 21.1299 48.5817ZM21.1299 48.4268C20.7869 48.4268 20.4771 48.7367 20.4771 49.135C20.4771 49.5333 20.7869 49.8431 21.1299 49.8431C21.4729 49.8431 21.7827 49.5333 21.7827 49.135C21.7827 48.7367 21.4729 48.4268 21.1299 48.4268ZM22.0375 49.832H22.2146V49.2567H22.4801L22.8121 49.832H23.0112L22.6704 49.2456C22.7258 49.2279 22.7766 49.2014 22.8231 49.166C22.9006 49.1062 22.978 49.0088 22.978 48.8473C22.978 48.626 22.7899 48.4379 22.5576 48.4379H22.0375V49.832ZM22.2146 49.1018V48.5928H22.5576C22.6881 48.5928 22.801 48.7057 22.801 48.8473C22.801 48.9889 22.6881 49.1018 22.5576 49.1018H22.2146ZM23.265 49.832H24.1723V49.6771H23.442V49.1903H24.0948V49.0354H23.442V48.5928H24.1502V48.4379H23.265V49.832ZM25.2121 49.832H25.3891V48.5928H25.8096V48.4379H24.7916V48.5928H25.2121V49.832ZM26.0203 49.832H26.1973V49.2014H26.8723V49.832H27.0493V48.4379H26.8723V49.0465H26.1973V48.4379H26.0203V49.832ZM27.2263 49.832H27.4144L27.5472 49.489H28.1226L28.2553 49.832H28.4434L27.9123 48.4379H27.7574L27.2263 49.832ZM27.6025 49.3341L27.8349 48.7256L28.0672 49.3341H27.6025ZM28.62 49.832H28.7971V48.7809L29.4941 49.832H29.649V48.4379H29.472V49.489L28.7749 48.4379H28.62V49.832Z" fill="#DCD3C2"/>
<path d="M21.9564 78.4473L23.26 75.8682H21.9403V75.1883H24.3463L22.7329 78.4473H21.9564ZM25.5408 78.4955C24.8488 78.4955 24.3901 77.9685 24.3901 76.7977C24.3901 75.6711 24.8367 75.148 25.5408 75.148C26.2449 75.148 26.6915 75.6711 26.6915 76.7977C26.6915 77.9685 26.2329 78.4955 25.5408 78.4955ZM25.5408 77.8156C25.8345 77.8156 26.0075 77.6023 26.0075 76.7977C26.0075 76.0573 25.8386 75.828 25.5408 75.828C25.2431 75.828 25.0741 76.0573 25.0741 76.7977C25.0741 77.6023 25.2471 77.8156 25.5408 77.8156Z" fill="#EFCA71"/>
<path d="M14.2333 84.0625H14.4104V83.5203L14.864 82.6684H14.6759L14.3218 83.3322L13.9678 82.6684H13.7797L14.2333 83.5203V84.0625ZM15.0626 84.0625H15.9699V83.9076H15.2397V83.4208H15.8925V83.2659H15.2397V82.8233H15.9478V82.6684H15.0626V84.0625ZM16.0807 84.0625H16.2688L16.4015 83.7195H16.9769L17.1097 84.0625H17.2978L16.7667 82.6684H16.6118L16.0807 84.0625ZM16.4569 83.5646L16.6892 82.9561L16.9216 83.5646H16.4569ZM17.4744 84.0625H17.6514V83.4871H17.9169L18.2489 84.0625H18.448L18.1072 83.4761C18.1626 83.4584 18.2135 83.4318 18.2599 83.3964C18.3374 83.3367 18.4148 83.2393 18.4148 83.0778C18.4148 82.8565 18.2267 82.6684 17.9944 82.6684H17.4744V84.0625ZM17.6514 83.3322V82.8233H17.9944C18.1249 82.8233 18.2378 82.9361 18.2378 83.0778C18.2378 83.2194 18.1249 83.3322 17.9944 83.3322H17.6514ZM18.6133 83.6531C18.6133 83.8965 18.7881 84.0736 19.078 84.0736C19.3679 84.0736 19.5427 83.8965 19.5427 83.6974C19.5427 83.1995 18.8014 83.3765 18.8014 83.0335C18.8014 82.9206 18.912 82.8122 19.078 82.8122C19.2218 82.8122 19.3325 82.9206 19.3325 83.0778H19.5095C19.5095 82.8454 19.3192 82.6573 19.078 82.6573C18.8125 82.6573 18.6244 82.8454 18.6244 83.0335C18.6244 83.5314 19.3657 83.3544 19.3657 83.6974C19.3657 83.8213 19.2661 83.9187 19.078 83.9187C18.8899 83.9187 18.7903 83.8213 18.7903 83.6531H18.6133ZM20.8261 82.8122C21.0695 82.8122 21.3019 83.0446 21.3019 83.3654C21.3019 83.6863 21.0695 83.9187 20.8261 83.9187C20.5827 83.9187 20.3503 83.6863 20.3503 83.3654C20.3503 83.0446 20.5827 82.8122 20.8261 82.8122ZM20.8261 82.6573C20.4831 82.6573 20.1733 82.9671 20.1733 83.3654C20.1733 83.7638 20.4831 84.0736 20.8261 84.0736C21.1691 84.0736 21.4789 83.7638 21.4789 83.3654C21.4789 82.9671 21.1691 82.6573 20.8261 82.6573ZM21.7337 84.0625H21.9108V83.4429H22.464V83.288H21.9108V82.8233H22.5857V82.6684H21.7337V84.0625ZM23.3156 84.0625H24.2229V83.9076H23.4926V83.4208H24.1454V83.2659H23.4926V82.8233H24.2008V82.6684H23.3156V84.0625ZM24.3557 84.0625H24.566L24.909 83.5093L25.252 84.0625H25.4622L25.0086 83.3544L25.4401 82.6684H25.2409L24.909 83.1995L24.577 82.6684H24.3779L24.8094 83.3544L24.3557 84.0625ZM25.6603 84.0625H25.8373V83.5314H26.1361C26.3773 83.5314 26.5787 83.3322 26.5787 83.0999C26.5787 82.8675 26.3773 82.6684 26.1361 82.6684H25.6603V84.0625ZM25.8373 83.3765V82.8233H26.1361C26.2799 82.8233 26.4016 82.945 26.4016 83.0999C26.4016 83.2548 26.2799 83.3765 26.1361 83.3765H25.8373ZM26.8446 84.0625H27.7518V83.9076H27.0216V83.4208H27.6744V83.2659H27.0216V82.8233H27.7297V82.6684H26.8446V84.0625ZM28.0396 84.0625H28.2166V83.4871H28.4822L28.8141 84.0625H29.0133L28.6725 83.4761C28.7278 83.4584 28.7787 83.4318 28.8252 83.3964C28.9026 83.3367 28.9801 83.2393 28.9801 83.0778C28.9801 82.8565 28.792 82.6684 28.5596 82.6684H28.0396V84.0625ZM28.2166 83.3322V82.8233H28.5596C28.6902 82.8233 28.8031 82.9361 28.8031 83.0778C28.8031 83.2194 28.6902 83.3322 28.5596 83.3322H28.2166ZM29.2671 84.0625H29.4441V82.6684H29.2671V84.0625ZM29.7987 84.0625H30.706V83.9076H29.9757V83.4208H30.6285V83.2659H29.9757V82.8233H30.6838V82.6684H29.7987V84.0625ZM30.9937 84.0625H31.1708V83.0114L31.8678 84.0625H32.0227V82.6684H31.8457V83.7195L31.1486 82.6684H30.9937V84.0625ZM33.3394 83.5978C33.2929 83.7748 33.1535 83.9187 32.93 83.9187C32.6866 83.9187 32.4542 83.6863 32.4542 83.3654C32.4542 83.0446 32.6866 82.8122 32.93 82.8122C33.1424 82.8122 33.2819 82.9561 33.3283 83.1331H33.5164C33.439 82.8675 33.2287 82.6573 32.93 82.6573C32.587 82.6573 32.2772 82.9671 32.2772 83.3654C32.2772 83.7638 32.587 84.0736 32.93 84.0736C33.2398 84.0736 33.45 83.8633 33.5275 83.5978H33.3394ZM33.7706 84.0625H34.6779V83.9076H33.9477V83.4208H34.6005V83.2659H33.9477V82.8233H34.6558V82.6684H33.7706V84.0625Z" fill="#DCD3C2"/>
<path d="M45.786 49.832H45.9631V48.8916L46.3946 49.832H46.5052L46.9367 48.8916V49.832H47.1138V48.4379H46.9699L46.4499 49.5554L45.9299 48.4379H45.786V49.832ZM48.0205 48.5817C48.264 48.5817 48.4963 48.8141 48.4963 49.135C48.4963 49.4558 48.264 49.6882 48.0205 49.6882C47.7771 49.6882 47.5448 49.4558 47.5448 49.135C47.5448 48.8141 47.7771 48.5817 48.0205 48.5817ZM48.0205 48.4268C47.6775 48.4268 47.3677 48.7367 47.3677 49.135C47.3677 49.5333 47.6775 49.8431 48.0205 49.8431C48.3635 49.8431 48.6733 49.5333 48.6733 49.135C48.6733 48.7367 48.3635 48.4268 48.0205 48.4268ZM48.9282 49.832H49.1052V49.2567H49.3707L49.7027 49.832H49.9018L49.5611 49.2456C49.6164 49.2279 49.6673 49.2014 49.7137 49.166C49.7912 49.1062 49.8686 49.0088 49.8686 48.8473C49.8686 48.626 49.6806 48.4379 49.4482 48.4379H48.9282V49.832ZM49.1052 49.1018V48.5928H49.4482C49.5788 48.5928 49.6916 48.7057 49.6916 48.8473C49.6916 48.9889 49.5788 49.1018 49.4482 49.1018H49.1052ZM50.1556 49.832H51.0629V49.6771H50.3327V49.1903H50.9855V49.0354H50.3327V48.5928H51.0408V48.4379H50.1556V49.832ZM52.1027 49.832H52.2797V48.5928H52.7002V48.4379H51.6823V48.5928H52.1027V49.832ZM52.9109 49.832H53.088V49.2014H53.7629V49.832H53.9399V48.4379H53.7629V49.0465H53.088V48.4379H52.9109V49.832ZM54.117 49.832H54.3051L54.4378 49.489H55.0132L55.146 49.832H55.3341L54.803 48.4379H54.6481L54.117 49.832ZM54.4932 49.3341L54.7255 48.7256L54.9579 49.3341H54.4932ZM55.5107 49.832H55.6877V48.7809L56.3847 49.832H56.5396V48.4379H56.3626V49.489L55.6656 48.4379H55.5107V49.832Z" fill="#DCD3C2"/>
<path d="M40.4916 78.4473L42.0044 76.4396C42.0527 76.3752 42.0768 76.2987 42.0768 76.2143C42.0768 76.0091 41.9159 75.8481 41.7067 75.8481C41.4974 75.8481 41.3365 76.005 41.3365 76.2143H40.6525C40.6525 75.6349 41.1313 75.1601 41.7067 75.1601C42.282 75.1601 42.7608 75.6389 42.7608 76.2143C42.7608 76.4436 42.6884 76.6689 42.5476 76.854L41.8595 77.7633H42.7809V78.4473H40.4916ZM44.6642 78.4473V75.1078L46.2172 77.0471L47.7703 75.1078V78.4473H47.0903V77.027L46.2172 78.1495L45.3482 77.027V78.4473H44.6642ZM48.3497 78.4473V75.1883H49.0337V78.4473H48.3497ZM49.6149 78.4473V75.1883H50.2989V77.7633H51.4657V78.4473H49.6149ZM51.7995 78.4473V75.1883H52.4835V77.7633H53.6503V78.4473H51.7995ZM53.9841 78.4473V75.1883H54.6681V78.4473H53.9841ZM56.8144 78.4875C55.889 78.4875 55.1447 77.7391 55.1447 76.8178C55.1447 75.8924 55.893 75.148 56.8144 75.148C57.7398 75.148 58.4841 75.8964 58.4841 76.8178C58.4841 77.7432 57.7358 78.4875 56.8144 78.4875ZM56.8144 77.8035C57.3616 77.8035 57.8002 77.365 57.8002 76.8178C57.8002 76.2706 57.3616 75.832 56.8144 75.832C56.2672 75.832 55.8287 76.2706 55.8287 76.8178C55.8287 77.365 56.2672 77.8035 56.8144 77.8035ZM61.5052 78.5277L59.6424 76.7091V78.4473H58.9584V75.1078L60.8213 76.9345V75.1883H61.5052V78.5277Z" fill="#EFCA71"/>
<path d="M38.8706 84.0625H39.0476V83.5314H39.3463C39.5875 83.5314 39.7889 83.3322 39.7889 83.0999C39.7889 82.8675 39.5875 82.6684 39.3463 82.6684H38.8706V84.0625ZM39.0476 83.3765V82.8233H39.3463C39.4902 82.8233 39.6119 82.945 39.6119 83.0999C39.6119 83.2548 39.4902 83.3765 39.3463 83.3765H39.0476ZM40.0548 84.0625H40.2318V83.4871H40.4974L40.8293 84.0625H41.0285L40.6877 83.4761C40.743 83.4584 40.7939 83.4318 40.8404 83.3964C40.9178 83.3367 40.9953 83.2393 40.9953 83.0778C40.9953 82.8565 40.8072 82.6684 40.5748 82.6684H40.0548V84.0625ZM40.2318 83.3322V82.8233H40.5748C40.7054 82.8233 40.8183 82.9361 40.8183 83.0778C40.8183 83.2194 40.7054 83.3322 40.5748 83.3322H40.2318ZM41.8355 82.8122C42.0789 82.8122 42.3113 83.0446 42.3113 83.3654C42.3113 83.6863 42.0789 83.9187 41.8355 83.9187C41.5921 83.9187 41.3597 83.6863 41.3597 83.3654C41.3597 83.0446 41.5921 82.8122 41.8355 82.8122ZM41.8355 82.6573C41.4925 82.6573 41.1827 82.9671 41.1827 83.3654C41.1827 83.7638 41.4925 84.0736 41.8355 84.0736C42.1785 84.0736 42.4883 83.7638 42.4883 83.3654C42.4883 82.9671 42.1785 82.6573 41.8355 82.6573ZM42.9765 84.0625H43.1535V82.8233H43.574V82.6684H42.5561V82.8233H42.9765V84.0625ZM43.7847 84.0625H44.692V83.9076H43.9618V83.4208H44.6146V83.2659H43.9618V82.8233H44.6699V82.6684H43.7847V84.0625ZM45.9424 83.5978C45.8959 83.7748 45.7565 83.9187 45.533 83.9187C45.2896 83.9187 45.0572 83.6863 45.0572 83.3654C45.0572 83.0446 45.2896 82.8122 45.533 82.8122C45.7454 82.8122 45.8849 82.9561 45.9313 83.1331H46.1194C46.042 82.8675 45.8318 82.6573 45.533 82.6573C45.19 82.6573 44.8802 82.9671 44.8802 83.3654C44.8802 83.7638 45.19 84.0736 45.533 84.0736C45.8428 84.0736 46.053 83.8633 46.1305 83.5978H45.9424ZM46.6503 84.0625H46.8273V82.8233H47.2477V82.6684H46.2298V82.8233H46.6503V84.0625ZM47.4585 84.0625H48.3658V83.9076H47.6355V83.4208H48.2883V83.2659H47.6355V82.8233H48.3436V82.6684H47.4585V84.0625ZM48.8306 83.9076V82.8233H49.0408C49.2975 82.8233 49.5276 83.0556 49.5276 83.3654C49.5276 83.6752 49.2975 83.9076 49.0408 83.9076H48.8306ZM48.6535 84.0625H49.0408C49.4059 84.0625 49.7047 83.7638 49.7047 83.3654C49.7047 82.9671 49.4059 82.6684 49.0408 82.6684H48.6535V84.0625ZM50.445 84.0625H50.6221V82.6684H50.445V84.0625ZM50.9766 84.0625H51.1537V83.0114L51.8507 84.0625H52.0056V82.6684H51.8286V83.7195L51.1315 82.6684H50.9766V84.0625ZM53.1117 84.0625H53.2888V82.8233H53.7092V82.6684H52.6913V82.8233H53.1117V84.0625ZM53.92 84.0625H54.097V83.4318H54.7719V84.0625H54.9489V82.6684H54.7719V83.2769H54.097V82.6684H53.92V84.0625ZM55.303 84.0625H56.2103V83.9076H55.48V83.4208H56.1328V83.2659H55.48V82.8233H56.1882V82.6684H55.303V84.0625ZM56.9514 83.5757C56.9514 83.8633 57.1616 84.0736 57.4603 84.0736C57.7591 84.0736 57.9693 83.8633 57.9693 83.5757V82.6684H57.7923V83.5757C57.7923 83.7881 57.6617 83.9187 57.4603 83.9187C57.2589 83.9187 57.1284 83.7881 57.1284 83.5757V82.6684H56.9514V83.5757ZM58.3004 84.0625H58.4774V83.0114L59.1744 84.0625H59.3293V82.6684H59.1523V83.7195L58.4553 82.6684H58.3004V84.0625ZM59.6834 84.0625H59.8604V82.6684H59.6834V84.0625ZM60.4916 84.0625H60.6687V82.8233H61.0891V82.6684H60.0712V82.8233H60.4916V84.0625ZM61.2999 84.0625H62.2071V83.9076H61.4769V83.4208H62.1297V83.2659H61.4769V82.8233H62.185V82.6684H61.2999V84.0625ZM62.6719 83.9076V82.8233H62.8822C63.1389 82.8233 63.369 83.0556 63.369 83.3654C63.369 83.6752 63.1389 83.9076 62.8822 83.9076H62.6719ZM62.4949 84.0625H62.8822C63.2473 84.0625 63.546 83.7638 63.546 83.3654C63.546 82.9671 63.2473 82.6684 62.8822 82.6684H62.4949V84.0625ZM40.3099 86.6531C40.3099 86.8965 40.4847 87.0736 40.7746 87.0736C41.0645 87.0736 41.2393 86.8965 41.2393 86.6974C41.2393 86.1995 40.498 86.3765 40.498 86.0335C40.498 85.9206 40.6086 85.8122 40.7746 85.8122C40.9184 85.8122 41.0291 85.9206 41.0291 86.0778H41.2061C41.2061 85.8454 41.0158 85.6573 40.7746 85.6573C40.5091 85.6573 40.321 85.8454 40.321 86.0335C40.321 86.5314 41.0623 86.3544 41.0623 86.6974C41.0623 86.8213 40.9627 86.9187 40.7746 86.9187C40.5865 86.9187 40.4869 86.8213 40.4869 86.6531H40.3099ZM41.7491 87.0625H41.9261V85.8233H42.3465V85.6684H41.3286V85.8233H41.7491V87.0625ZM42.2916 87.0625H42.4797L42.6125 86.7195H43.1879L43.3206 87.0625H43.5087L42.9776 85.6684H42.8227L42.2916 87.0625ZM42.6678 86.5646L42.9002 85.9561L43.1325 86.5646H42.6678ZM43.8733 87.0625H44.0504V85.8233H44.4708V85.6684H43.4529V85.8233H43.8733V87.0625ZM44.6816 87.0625H45.5889V86.9076H44.8586V86.4208H45.5114V86.2659H44.8586V85.8233H45.5667V85.6684H44.6816V87.0625ZM45.7881 86.6531C45.7881 86.8965 45.9629 87.0736 46.2528 87.0736C46.5427 87.0736 46.7175 86.8965 46.7175 86.6974C46.7175 86.1995 45.9762 86.3765 45.9762 86.0335C45.9762 85.9206 46.0868 85.8122 46.2528 85.8122C46.3966 85.8122 46.5073 85.9206 46.5073 86.0778H46.6843C46.6843 85.8454 46.494 85.6573 46.2528 85.6573C45.9873 85.6573 45.7992 85.8454 45.7992 86.0335C45.7992 86.5314 46.5405 86.3544 46.5405 86.6974C46.5405 86.8213 46.4409 86.9187 46.2528 86.9187C46.0647 86.9187 45.9651 86.8213 45.9651 86.6531H45.7881ZM46.9169 87.2727C46.9501 87.2528 46.9789 87.2263 47.0054 87.1975C47.0497 87.1466 47.094 87.0691 47.094 86.9629C47.094 86.8943 47.0519 86.8523 46.9833 86.8523C46.9147 86.8523 46.8727 86.8943 46.8727 86.9629C46.8727 87.0315 46.9147 87.0736 46.9833 87.0736C46.9767 87.1245 46.9546 87.1643 46.9346 87.1931C46.9236 87.2086 46.9103 87.224 46.8948 87.2395L46.9169 87.2727ZM47.8237 87.0625H48.6646V86.9076H48.0007V85.6684H47.8237V87.0625ZM48.6861 87.0625H48.8742L49.007 86.7195H49.5823L49.7151 87.0625H49.9032L49.3721 85.6684H49.2172L48.6861 87.0625ZM49.0623 86.5646L49.2947 85.9561L49.527 86.5646H49.0623ZM50.2678 87.0625H50.4448V85.8233H50.8653V85.6684H49.8474V85.8233H50.2678V87.0625ZM51.076 87.0625H51.2531V85.6684H51.076V87.0625ZM51.6077 87.0625H51.7847V86.0114L52.4817 87.0625H52.6366V85.6684H52.4596V86.7195L51.7626 85.6684H51.6077V87.0625ZM53.2891 87.0625H53.4772L53.61 86.7195H54.1853L54.3181 87.0625H54.5062L53.9751 85.6684H53.8202L53.2891 87.0625ZM53.6653 86.5646L53.8977 85.9561L54.13 86.5646H53.6653ZM54.6828 87.0625H54.8598V86.122L55.2913 87.0625H55.402L55.8335 86.122V87.0625H56.0105V85.6684H55.8667L55.3467 86.7859L54.8266 85.6684H54.6828V87.0625ZM56.3641 87.0625H57.2714V86.9076H56.5411V86.4208H57.1939V86.2659H56.5411V85.8233H57.2492V85.6684H56.3641V87.0625ZM57.5591 87.0625H57.7362V86.4871H58.0017L58.3336 87.0625H58.5328L58.192 86.4761C58.2473 86.4584 58.2982 86.4318 58.3447 86.3964C58.4221 86.3367 58.4996 86.2393 58.4996 86.0778C58.4996 85.8565 58.3115 85.6684 58.0791 85.6684H57.5591V87.0625ZM57.7362 86.3322V85.8233H58.0791C58.2097 85.8233 58.3226 85.9361 58.3226 86.0778C58.3226 86.2194 58.2097 86.3322 58.0791 86.3322H57.7362ZM58.7866 87.0625H58.9636V85.6684H58.7866V87.0625ZM60.2808 86.5978C60.2343 86.7748 60.0949 86.9187 59.8714 86.9187C59.628 86.9187 59.3956 86.6863 59.3956 86.3654C59.3956 86.0446 59.628 85.8122 59.8714 85.8122C60.0839 85.8122 60.2233 85.9561 60.2697 86.1331H60.4578C60.3804 85.8675 60.1702 85.6573 59.8714 85.6573C59.5284 85.6573 59.2186 85.9671 59.2186 86.3654C59.2186 86.7638 59.5284 87.0736 59.8714 87.0736C60.1812 87.0736 60.3914 86.8633 60.4689 86.5978H60.2808ZM60.5134 87.0625H60.7015L60.8343 86.7195H61.4096L61.5424 87.0625H61.7305L61.1994 85.6684H61.0445L60.5134 87.0625ZM60.8896 86.5646L61.122 85.9561L61.3543 86.5646H60.8896ZM61.8518 87.2727C61.885 87.2528 61.9137 87.2263 61.9403 87.1975C61.9846 87.1466 62.0288 87.0691 62.0288 86.9629C62.0288 86.8943 61.9868 86.8523 61.9182 86.8523C61.8496 86.8523 61.8075 86.8943 61.8075 86.9629C61.8075 87.0315 61.8496 87.0736 61.9182 87.0736C61.9115 87.1245 61.8894 87.1643 61.8695 87.1931C61.8584 87.2086 61.8451 87.224 61.8297 87.2395L61.8518 87.2727ZM41.4013 89.0625H41.5894L41.7222 88.7195H42.2975L42.4303 89.0625H42.6184L42.0873 87.6684H41.9324L41.4013 89.0625ZM41.7775 88.5646L42.0098 87.9561L42.2422 88.5646H41.7775ZM42.795 89.0625H42.972V88.0114L43.6691 89.0625H43.824V87.6684H43.647V88.7195L42.9499 87.6684H42.795V89.0625ZM44.3551 88.9076V87.8233H44.5653C44.822 87.8233 45.0521 88.0556 45.0521 88.3654C45.0521 88.6752 44.822 88.9076 44.5653 88.9076H44.3551ZM44.178 89.0625H44.5653C44.9304 89.0625 45.2292 88.7638 45.2292 88.3654C45.2292 87.9671 44.9304 87.6684 44.5653 87.6684H44.178V89.0625ZM46.2461 89.0625H46.4232V87.8233H46.8436V87.6684H45.8257V87.8233H46.2461V89.0625ZM47.0544 89.0625H47.2314V88.4318H47.9063V89.0625H48.0834V87.6684H47.9063V88.2769H47.2314V87.6684H47.0544V89.0625ZM48.4374 89.0625H49.3447V88.9076H48.6145V88.4208H49.2673V88.2659H48.6145V87.8233H49.3226V87.6684H48.4374V89.0625ZM51.0705 88.5978C51.024 88.7748 50.8846 88.9187 50.6611 88.9187C50.4177 88.9187 50.1854 88.6863 50.1854 88.3654C50.1854 88.0446 50.4177 87.8122 50.6611 87.8122C50.8736 87.8122 51.013 87.9561 51.0594 88.1331H51.2475C51.1701 87.8675 50.9599 87.6573 50.6611 87.6573C50.3181 87.6573 50.0083 87.9671 50.0083 88.3654C50.0083 88.7638 50.3181 89.0736 50.6611 89.0736C50.9709 89.0736 51.1812 88.8633 51.2586 88.5978H51.0705ZM51.3031 89.0625H51.4912L51.624 88.7195H52.1993L52.3321 89.0625H52.5202L51.9891 87.6684H51.8342L51.3031 89.0625ZM51.6793 88.5646L51.9117 87.9561L52.144 88.5646H51.6793ZM52.6968 89.0625H52.8738V88.4871H53.1394L53.4713 89.0625H53.6705L53.3297 88.4761C53.385 88.4584 53.4359 88.4318 53.4824 88.3964C53.5598 88.3367 53.6373 88.2393 53.6373 88.0778C53.6373 87.8565 53.4492 87.6684 53.2168 87.6684H52.6968V89.0625ZM52.8738 88.3322V87.8233H53.2168C53.3474 87.8233 53.4603 87.9361 53.4603 88.0778C53.4603 88.2194 53.3474 88.3322 53.2168 88.3322H52.8738ZM53.9243 89.0625H54.1013V87.6684H53.9243V89.0625ZM54.4559 89.0625H54.987C55.2415 89.0625 55.4296 88.87 55.4296 88.6642C55.4296 88.538 55.3764 88.4495 55.3233 88.3964C55.2924 88.3654 55.257 88.3411 55.2193 88.3212C55.2481 88.3057 55.2724 88.2836 55.2968 88.257C55.3344 88.2127 55.3742 88.1442 55.3742 88.0446C55.3742 87.8321 55.2061 87.6684 54.9759 87.6684H54.4559V89.0625ZM54.6329 88.2548V87.8233H54.9759C55.1087 87.8233 55.2083 87.9229 55.2083 88.0446C55.2083 88.1552 55.1087 88.2548 54.9759 88.2548H54.6329ZM54.6329 88.9076V88.4097H54.987C55.1397 88.4097 55.2525 88.5226 55.2525 88.6531C55.2525 88.797 55.1441 88.9076 54.987 88.9076H54.6329ZM55.6942 89.0625H56.2252C56.4797 89.0625 56.6678 88.87 56.6678 88.6642C56.6678 88.538 56.6147 88.4495 56.5616 88.3964C56.5306 88.3654 56.4952 88.3411 56.4576 88.3212C56.4864 88.3057 56.5107 88.2836 56.5351 88.257C56.5727 88.2127 56.6125 88.1442 56.6125 88.0446C56.6125 87.8321 56.4443 87.6684 56.2142 87.6684H55.6942V89.0625ZM55.8712 88.2548V87.8233H56.2142C56.347 87.8233 56.4465 87.9229 56.4465 88.0446C56.4465 88.1552 56.347 88.2548 56.2142 88.2548H55.8712ZM55.8712 88.9076V88.4097H56.2252C56.3779 88.4097 56.4908 88.5226 56.4908 88.6531C56.4908 88.797 56.3824 88.9076 56.2252 88.9076H55.8712ZM56.9324 89.0625H57.8397V88.9076H57.1095V88.4208H57.7623V88.2659H57.1095V87.8233H57.8176V87.6684H56.9324V89.0625ZM57.9504 89.0625H58.1385L58.2713 88.7195H58.8467L58.9794 89.0625H59.1675L58.6364 87.6684H58.4815L57.9504 89.0625ZM58.3266 88.5646L58.559 87.9561L58.7913 88.5646H58.3266ZM59.3441 89.0625H59.5212V88.0114L60.2182 89.0625H60.3731V87.6684H60.1961V88.7195L59.499 87.6684H59.3441V89.0625ZM60.6276 88.9629C60.6276 89.0315 60.6696 89.0736 60.7382 89.0736C60.8068 89.0736 60.8489 89.0315 60.8489 88.9629C60.8489 88.8943 60.8068 88.8523 60.7382 88.8523C60.6696 88.8523 60.6276 88.8943 60.6276 88.9629Z" fill="#DCD3C2"/>
<path d="M72.6747 49.832H72.8517V48.8916L73.2833 49.832H73.3939L73.8254 48.8916V49.832H74.0024V48.4379H73.8586L73.3386 49.5554L72.8185 48.4379H72.6747V49.832ZM74.9092 48.5817C75.1526 48.5817 75.385 48.8141 75.385 49.135C75.385 49.4558 75.1526 49.6882 74.9092 49.6882C74.6658 49.6882 74.4334 49.4558 74.4334 49.135C74.4334 48.8141 74.6658 48.5817 74.9092 48.5817ZM74.9092 48.4268C74.5662 48.4268 74.2564 48.7367 74.2564 49.135C74.2564 49.5333 74.5662 49.8431 74.9092 49.8431C75.2522 49.8431 75.562 49.5333 75.562 49.135C75.562 48.7367 75.2522 48.4268 74.9092 48.4268ZM75.8168 49.832H75.9939V49.2567H76.2594L76.5914 49.832H76.7905L76.4497 49.2456C76.505 49.2279 76.5559 49.2014 76.6024 49.166C76.6799 49.1062 76.7573 49.0088 76.7573 48.8473C76.7573 48.626 76.5692 48.4379 76.3369 48.4379H75.8168V49.832ZM75.9939 49.1018V48.5928H76.3369C76.4674 48.5928 76.5803 48.7057 76.5803 48.8473C76.5803 48.9889 76.4674 49.1018 76.3369 49.1018H75.9939ZM77.0443 49.832H77.9516V49.6771H77.2213V49.1903H77.8741V49.0354H77.2213V48.5928H77.9295V48.4379H77.0443V49.832ZM78.9914 49.832H79.1684V48.5928H79.5889V48.4379H78.5709V48.5928H78.9914V49.832ZM79.7996 49.832H79.9766V49.2014H80.6516V49.832H80.8286V48.4379H80.6516V49.0465H79.9766V48.4379H79.7996V49.832ZM81.0056 49.832H81.1937L81.3265 49.489H81.9019L82.0346 49.832H82.2227L81.6916 48.4379H81.5367L81.0056 49.832ZM81.3818 49.3341L81.6142 48.7256L81.8465 49.3341H81.3818ZM82.3993 49.832H82.5764V48.7809L83.2734 49.832H83.4283V48.4379H83.2513V49.489L82.5542 48.4379H82.3993V49.832Z" fill="#DCD3C2"/>
<path d="M72.2463 78.4473V75.8682H71.7112V75.1883H72.9343V78.4473H72.2463ZM75.0904 78.4955C74.3984 78.4955 73.9397 77.9685 73.9397 76.7977C73.9397 75.6711 74.3863 75.148 75.0904 75.148C75.7945 75.148 76.2411 75.6711 76.2411 76.7977C76.2411 77.9685 75.7824 78.4955 75.0904 78.4955ZM75.0904 77.8156C75.3841 77.8156 75.5571 77.6023 75.5571 76.7977C75.5571 76.0573 75.3881 75.828 75.0904 75.828C74.7927 75.828 74.6237 76.0573 74.6237 76.7977C74.6237 77.6023 74.7967 77.8156 75.0904 77.8156ZM76.7624 78.4875C76.5009 78.4875 76.2957 78.2823 76.2957 78.0208C76.2957 77.7633 76.5049 77.55 76.7624 77.55C77.0239 77.55 77.2332 77.7633 77.2332 78.0208C77.2332 78.2863 77.032 78.4875 76.7624 78.4875ZM78.4812 78.4955C77.7892 78.4955 77.3305 77.9685 77.3305 76.7977C77.3305 75.6711 77.7771 75.148 78.4812 75.148C79.1853 75.148 79.6319 75.6711 79.6319 76.7977C79.6319 77.9685 79.1733 78.4955 78.4812 78.4955ZM78.4812 77.8156C78.775 77.8156 78.948 77.6023 78.948 76.7977C78.948 76.0573 78.779 75.828 78.4812 75.828C78.1835 75.828 78.0145 76.0573 78.0145 76.7977C78.0145 77.6023 78.1875 77.8156 78.4812 77.8156ZM81.0155 78.4955C80.3235 78.4955 79.8648 77.9685 79.8648 76.7977C79.8648 75.6711 80.3114 75.148 81.0155 75.148C81.7196 75.148 82.1662 75.6711 82.1662 76.7977C82.1662 77.9685 81.7076 78.4955 81.0155 78.4955ZM81.0155 77.8156C81.3093 77.8156 81.4823 77.6023 81.4823 76.7977C81.4823 76.0573 81.3133 75.828 81.0155 75.828C80.7178 75.828 80.5488 76.0573 80.5488 76.7977C80.5488 77.6023 80.7218 77.8156 81.0155 77.8156ZM83.5498 78.4955C82.8578 78.4955 82.3991 77.9685 82.3991 76.7977C82.3991 75.6711 82.8457 75.148 83.5498 75.148C84.2539 75.148 84.7005 75.6711 84.7005 76.7977C84.7005 77.9685 84.2419 78.4955 83.5498 78.4955ZM83.5498 77.8156C83.8435 77.8156 84.0166 77.6023 84.0166 76.7977C84.0166 76.0573 83.8476 75.828 83.5498 75.828C83.2521 75.828 83.0831 76.0573 83.0831 76.7977C83.0831 77.6023 83.2561 77.8156 83.5498 77.8156Z" fill="#EFCA71"/>
<path d="M73.6645 83.6531C73.6645 83.8965 73.8394 84.0736 74.1293 84.0736C74.4191 84.0736 74.594 83.8965 74.594 83.6974C74.594 83.1995 73.8526 83.3765 73.8526 83.0335C73.8526 82.9206 73.9633 82.8122 74.1293 82.8122C74.2731 82.8122 74.3837 82.9206 74.3837 83.0778H74.5608C74.5608 82.8454 74.3705 82.6573 74.1293 82.6573C73.8637 82.6573 73.6756 82.8454 73.6756 83.0335C73.6756 83.5314 74.4169 83.3544 74.4169 83.6974C74.4169 83.8213 74.3173 83.9187 74.1293 83.9187C73.9412 83.9187 73.8416 83.8213 73.8416 83.6531H73.6645ZM74.8487 84.0625H75.756V83.9076H75.0257V83.4208H75.6785V83.2659H75.0257V82.8233H75.7339V82.6684H74.8487V84.0625ZM76.0437 84.0625H76.2208V83.4871H76.4863L76.8183 84.0625H77.0174L76.6766 83.4761C76.732 83.4584 76.7829 83.4318 76.8293 83.3964C76.9068 83.3367 76.9842 83.2393 76.9842 83.0778C76.9842 82.8565 76.7961 82.6684 76.5638 82.6684H76.0437V84.0625ZM76.2208 83.3322V82.8233H76.5638C76.6943 82.8233 76.8072 82.9361 76.8072 83.0778C76.8072 83.2194 76.6943 83.3322 76.5638 83.3322H76.2208ZM77.6037 84.0625H77.7807L78.2897 82.6684H78.1016L77.6922 83.808L77.2828 82.6684H77.0947L77.6037 84.0625ZM78.4879 84.0625H78.6649V82.6684H78.4879V84.0625ZM79.9821 83.5978C79.9356 83.7748 79.7962 83.9187 79.5727 83.9187C79.3293 83.9187 79.0969 83.6863 79.0969 83.3654C79.0969 83.0446 79.3293 82.8122 79.5727 82.8122C79.7851 82.8122 79.9246 82.9561 79.971 83.1331H80.1591C80.0817 82.8675 79.8714 82.6573 79.5727 82.6573C79.2297 82.6573 78.9199 82.9671 78.9199 83.3654C78.9199 83.7638 79.2297 84.0736 79.5727 84.0736C79.8825 84.0736 80.0927 83.8633 80.1702 83.5978H79.9821ZM80.4133 84.0625H81.3206V83.9076H80.5904V83.4208H81.2432V83.2659H80.5904V82.8233H81.2985V82.6684H80.4133V84.0625ZM81.5199 83.6531C81.5199 83.8965 81.6947 84.0736 81.9846 84.0736C82.2745 84.0736 82.4493 83.8965 82.4493 83.6974C82.4493 83.1995 81.708 83.3765 81.708 83.0335C81.708 82.9206 81.8186 82.8122 81.9846 82.8122C82.1284 82.8122 82.2391 82.9206 82.2391 83.0778H82.4161C82.4161 82.8454 82.2258 82.6573 81.9846 82.6573C81.719 82.6573 81.5309 82.8454 81.5309 83.0335C81.5309 83.5314 82.2723 83.3544 82.2723 83.6974C82.2723 83.8213 82.1727 83.9187 81.9846 83.9187C81.7965 83.9187 81.6969 83.8213 81.6969 83.6531H81.5199Z" fill="#DCD3C2"/>
<rect x="39.5459" y="82.0312" width="23.2354" height="6.83984" rx="0.704102" stroke="#DED4C4" stroke-width="0.201172"/>
<path d="M42.8089 86.54H43.002V85.5261H42.1491V85.7514H42.7445C42.7445 86.0411 42.4548 86.3308 42.133 86.3308C41.7789 86.3308 41.4409 85.9929 41.4409 85.5261C41.4409 85.0594 41.7789 84.7214 42.133 84.7214C42.4548 84.7214 42.6319 84.8985 42.7123 85.156H42.9859C42.8572 84.7697 42.5836 84.4961 42.133 84.4961C41.6341 84.4961 41.1834 84.9468 41.1834 85.5261C41.1834 86.1055 41.6341 86.5561 42.133 86.5561C42.3261 86.5561 42.4774 86.4918 42.5836 86.4274C42.6448 86.3888 42.6963 86.3469 42.7445 86.2986L42.8089 86.54ZM43.7095 86.54H45.0292V86.3147H43.967V85.6066H44.9166V85.3813H43.967V84.7375H44.997V84.5122H43.7095V86.54ZM46.0754 86.54H46.3329V84.7375H46.9445V84.5122H45.4639V84.7375H46.0754V86.54ZM48.2644 85.9446C48.2644 86.2986 48.5187 86.5561 48.9404 86.5561C49.362 86.5561 49.6163 86.2986 49.6163 86.0089C49.6163 85.2847 48.538 85.5422 48.538 85.0433C48.538 84.8792 48.699 84.7214 48.9404 84.7214C49.1496 84.7214 49.3105 84.8792 49.3105 85.1077H49.568C49.568 84.7697 49.2912 84.4961 48.9404 84.4961C48.5541 84.4961 48.2805 84.7697 48.2805 85.0433C48.2805 85.7675 49.3588 85.51 49.3588 86.0089C49.3588 86.1892 49.214 86.3308 48.9404 86.3308C48.6668 86.3308 48.5219 86.1892 48.5219 85.9446H48.2644ZM50.5831 86.54H50.8406V84.7375H51.4521V84.5122H49.9715V84.7375H50.5831V86.54ZM51.5976 86.54H51.8712L52.0643 86.0411H52.9012L53.0943 86.54H53.3679L52.5954 84.5122H52.3701L51.5976 86.54ZM52.1448 85.8158L52.4828 84.9307L52.8207 85.8158H52.1448ZM53.8501 86.54H54.1076V85.7032H54.4938L54.9767 86.54H55.2663L54.7707 85.6871C54.8511 85.6613 54.9252 85.6227 54.9928 85.5712C55.1054 85.4843 55.2181 85.3427 55.2181 85.1077C55.2181 84.7858 54.9445 84.5122 54.6065 84.5122H53.8501V86.54ZM54.1076 85.4779V84.7375H54.6065C54.7964 84.7375 54.9606 84.9017 54.9606 85.1077C54.9606 85.3137 54.7964 85.4779 54.6065 85.4779H54.1076ZM56.2317 86.54H56.4892V84.7375H57.1008V84.5122H55.6202V84.7375H56.2317V86.54ZM57.6326 86.54H58.9523V86.3147H57.8901V85.6066H58.8397V85.3813H57.8901V84.7375H58.9201V84.5122H57.6326V86.54ZM59.8537 86.3147V84.7375H60.1595C60.5329 84.7375 60.8676 85.0755 60.8676 85.5261C60.8676 85.9768 60.5329 86.3147 60.1595 86.3147H59.8537ZM59.5962 86.54H60.1595C60.6906 86.54 61.1251 86.1055 61.1251 85.5261C61.1251 84.9468 60.6906 84.5122 60.1595 84.5122H59.5962V86.54Z" fill="#E4CDB4"/>
<g clip-path="url(#clip3_165_9668)">
<rect x="92.6055" y="32.3418" width="53.9141" height="53.9141" rx="26.957" fill="#D3C6AF"/>
<path d="M101.909 54.4922C102.013 54.5654 102.139 54.6023 102.266 54.5972C102.357 54.5949 102.446 54.6198 102.522 54.6687C102.598 54.7175 102.658 54.7881 102.693 54.8713C102.76 55.0162 102.724 55.4069 102.995 55.5623C103.266 55.7177 103.471 55.8185 103.476 55.9992C103.481 56.1798 103.332 56.5442 103.648 56.8393C103.964 57.1344 104.093 56.8992 104.093 56.8992C104.093 56.8992 104.106 57.2268 103.778 57.587C103.578 57.8107 103.969 58.2087 103.969 58.2087C104.019 58.2809 104.043 58.3675 104.038 58.455C104.034 58.5424 104 58.6257 103.942 58.6918C103.732 58.925 103.425 59.2001 103.522 59.532C103.553 59.6192 103.561 59.7126 103.548 59.804C103.534 59.8955 103.499 59.9823 103.444 60.057C103.411 60.1039 103.368 60.1434 103.318 60.1734C103.269 60.2033 103.214 60.2231 103.157 60.2314C102.97 60.2534 102.842 60.5359 102.849 60.6178C102.856 60.6997 102.849 60.9917 102.703 61.1177C102.643 61.1628 102.573 61.1946 102.5 61.211C102.426 61.2275 102.35 61.2283 102.277 61.2133C102.215 61.2024 102.152 61.2085 102.093 61.2309C102.035 61.2533 101.983 61.2911 101.945 61.3403C101.872 61.4601 101.759 61.8297 101.498 61.9064C101.413 61.9253 101.324 61.9257 101.239 61.9076C101.153 61.8895 101.072 61.8533 101.002 61.8014C101.002 61.8014 100.704 61.6449 100.56 62.0272C100.415 62.4094 100.104 62.2792 100.104 62.2792L99.9147 62.1742C99.9147 62.1742 99.1271 58.8378 99.8507 56.4634C100.155 55.4751 101.24 55.0834 101.909 54.4922Z" fill="#483723"/>
<path d="M94.0679 55.8226C94.0939 55.7657 94.1039 55.7029 94.0971 55.6408C94.0903 55.5787 94.0667 55.5196 94.0291 55.4697C93.9765 55.393 94.0984 55.1473 94.1436 54.9572C94.1887 54.7671 94.2212 54.7199 94.2979 54.6894C94.3746 54.659 94.5951 54.5036 94.53 54.3271C94.5048 54.2599 94.425 54.1444 94.3872 54.0394C94.2822 53.7243 94.5101 53.3904 94.8304 53.3106L94.8661 53.3022C95.2042 53.2402 95.3187 53.1562 95.4321 52.8663C95.4651 52.7848 95.5243 52.7165 95.6003 52.6722C95.6763 52.6279 95.765 52.6101 95.8522 52.6216C95.8522 52.6216 96.392 52.8149 96.5149 52.5408C96.6377 52.2667 96.7627 52.2257 96.7627 52.2257C96.7627 52.2257 96.8981 52.1092 97.3035 52.2562C97.7089 52.4032 97.9641 52.105 98.1279 52.0273C98.2917 51.9495 98.4734 52.0861 98.7349 52.2562C98.9964 52.4263 99.3293 52.2163 99.4878 52.21C99.5783 52.2029 99.6687 52.2235 99.7472 52.2691C99.8256 52.3147 99.8883 52.3831 99.9268 52.4652C99.9694 52.539 100.031 52.6004 100.104 52.6432C100.178 52.6859 100.262 52.7086 100.347 52.7088C100.347 52.7088 100.838 52.5901 100.949 52.9493C101.068 53.341 101.444 53.1866 101.618 53.2559C101.87 53.361 101.946 53.7359 102.007 53.8629C102.041 53.915 102.088 53.9572 102.143 53.9849C102.199 54.0126 102.26 54.0249 102.322 54.0205C102.398 54.0116 102.475 54.0192 102.547 54.0425C102.619 54.0659 102.686 54.1046 102.742 54.1559C102.878 54.2956 102.855 54.5876 102.839 54.6684C102.823 54.7493 102.924 55.0423 103.108 55.0822C103.164 55.0962 103.217 55.1212 103.263 55.1558C103.31 55.1905 103.349 55.234 103.379 55.2838C103.427 55.364 103.454 55.4546 103.458 55.5478C103.463 55.641 103.445 55.7339 103.405 55.8184C103.275 56.1334 103.467 56.2993 103.65 56.5535C103.7 56.625 103.726 56.7113 103.722 56.7989C103.719 56.8866 103.686 56.9705 103.63 57.0376C103.63 57.0376 103.288 57.443 103.453 57.694C103.618 57.945 103.581 58.071 103.581 58.071C103.581 58.071 103.608 58.2474 103.266 58.5089C102.925 58.7704 103.037 59.1474 103.015 59.327C102.993 59.5066 102.779 59.5864 102.49 59.7155C102.202 59.8447 102.203 60.2406 102.123 60.374C102.043 60.5074 101.893 60.584 101.671 60.6061C101.535 60.6309 101.395 60.6266 101.261 60.5935C99.5603 58.8765 97.6039 59.7239 97.69 58.2432C95.4699 60.9904 95.3901 58.0573 95.3901 58.0573L94.8787 57.7696C94.8787 57.7696 94.2402 57.5249 94.2822 57.2056C94.3567 56.6406 94.048 56.8108 93.9524 56.46C93.9055 56.2406 93.9471 56.0116 94.0679 55.8226V55.8226Z" fill="#483723"/>
<path d="M101.556 60.9695C101.392 61.4934 101.096 61.966 100.695 62.341C100.695 62.341 99.242 62.0365 99.9887 61.2908L100.736 60.541L101.556 60.9695Z" fill="#483723"/>
<path d="M96.3727 65.0726C96.609 64.9498 97.0774 64.3049 96.9976 63.6255L98.1244 64.3984L99.5348 64.6263L102.045 66.4473L97.3799 66.4263L96.671 66.3622L96.3077 65.8571L96.2793 65.437L96.3727 65.0726Z" fill="#DAA684"/>
<path d="M100.727 62.6445C100.798 63.1378 100.943 63.6175 101.157 64.0675C101.362 64.5071 101.633 64.9129 101.96 65.271C102.005 65.3134 102.034 65.369 102.044 65.4296C102.048 65.4816 102.038 65.5335 102.016 65.5808C101.829 66.0691 101.342 66.3915 100.836 66.526C100.571 66.6086 100.286 66.6016 100.026 66.506C99.8627 66.4302 99.7191 66.3181 99.6058 66.1784C99.2421 65.7342 99.0446 65.1772 99.0471 64.6031C99.0408 64.1599 99.1521 63.6874 99.4672 63.3818" fill="#DAA684"/>
<path d="M100.966 63.6104C100.698 62.8715 100.669 62.067 100.883 61.3106C100.999 61.3207 101.114 61.2985 101.217 61.2465C101.389 61.1614 101.478 61.0449 101.621 60.9178C101.962 60.6304 102.212 60.2492 102.339 59.8214C102.42 59.5064 102.314 59.247 102.165 58.9582L100.963 56.2278L99.6548 55.7132L98.3168 55.8896L94.8681 55.6187V57.6014C94.6629 58.6629 94.649 59.7526 94.8271 60.8191C94.8654 61.0503 94.9252 61.2774 95.0056 61.4975C95.3291 62.3376 96.0495 63.0129 96.9485 63.0948L97.0818 64.4411L98.09 65.3096C98.09 65.3096 100.88 64.376 100.981 64.1922C101.014 64.1384 101.035 64.0784 101.042 64.0159C101.05 63.9535 101.045 63.8901 101.026 63.8299C101.014 63.8005 100.966 63.6104 100.966 63.6104Z" fill="#DAA684"/>
<path d="M105.302 79.2436C101.168 79.0976 96.0535 79.5797 91.919 79.4347C90.0349 78.8046 88.5363 69.2082 91.626 67.4628C92.2445 66.922 94.3249 66.0734 94.976 65.8445C95.4801 65.667 95.9915 65.4381 96.3738 65.0747C96.3811 65.0947 96.441 65.2427 96.441 65.2438C96.692 65.8634 97.4145 66.0776 98.0824 66.1763C98.8392 66.2866 99.6103 66.247 100.352 66.0598C100.664 65.9821 100.969 65.8767 101.263 65.7447C101.355 65.7027 101.86 65.4423 101.959 65.2721L101.953 65.2648C102.124 65.46 102.316 65.6361 102.525 65.7899C103.082 66.2485 103.677 66.6608 104.301 67.0228C104.932 67.3935 105.643 67.634 106.246 68.0404C106.896 68.4856 107.409 69.1041 107.725 69.8257C107.886 70.1859 108.008 78.0044 107.886 78.394C107.58 79.3612 106.09 79.2993 105.302 79.2436Z" fill="#B3956B"/>
<path d="M96.812 57.567C96.8036 57.5745 96.7965 57.5834 96.791 57.5932C96.7761 57.6248 96.7717 57.6603 96.7785 57.6945C96.7853 57.7287 96.8029 57.7598 96.8288 57.7833C96.8934 57.8352 96.9728 57.8653 97.0556 57.8694C97.2037 57.8883 97.3528 57.8894 97.5009 57.903C97.9535 57.9461 98.3841 58.113 98.8084 58.2737C98.8406 58.2908 98.8783 58.2946 98.9134 58.2842C98.9326 58.2728 98.9471 58.2549 98.9542 58.2337C98.9614 58.2125 98.9607 58.1894 98.9522 58.1687C98.9344 58.1267 98.9053 58.0904 98.8682 58.0637C98.603 57.8528 98.2958 57.7009 97.9671 57.6184C97.6378 57.5296 97.2964 57.4941 96.9558 57.5134C96.9028 57.5125 96.8514 57.5316 96.812 57.567Z" fill="#D3CAB6"/>
<path d="M94.9602 57.4869C94.956 57.5052 94.956 57.5243 94.9602 57.5426C94.9638 57.568 94.9734 57.5922 94.9882 57.6132C95.003 57.6342 95.0225 57.6514 95.0453 57.6633C95.1046 57.6856 95.1682 57.6938 95.2312 57.6875C95.3961 57.6875 95.562 57.6875 95.7268 57.6875C95.7961 57.6875 95.9011 57.6875 95.898 57.5825C95.8924 57.5443 95.8753 57.5087 95.8491 57.4804C95.8228 57.4521 95.7886 57.4324 95.751 57.4239C95.6656 57.3984 95.5774 57.3833 95.4884 57.3787C95.3959 57.37 95.303 57.3675 95.2102 57.3714C95.1209 57.3787 94.9886 57.3871 94.9602 57.4869Z" fill="#D3CAB6"/>
<path d="M95.2544 61.8493C95.3163 61.4166 95.5116 61.2801 95.8414 61.3074C96.1449 61.3336 95.979 61.1635 96.2772 61.0102C96.5271 60.8821 96.4221 60.5901 96.2226 60.5229C96.1176 60.4851 96.2678 60.1291 95.8855 60.064C95.4518 59.9894 95.5054 59.7563 95.4865 59.7416C95.1619 59.479 95.8634 59.4412 95.8792 59.4339C96.0252 59.4139 96.0745 59.6807 96.1827 59.6975C96.3061 59.7187 96.4248 59.7613 96.5334 59.8235C96.7771 59.9726 96.6385 60.3213 96.9094 60.3171C97.3998 60.3108 97.2864 60.6153 97.3694 60.7056C97.864 61.2381 97.8346 60.5334 98.2683 60.63C98.3707 60.649 98.4762 60.6427 98.5756 60.6116C98.675 60.5805 98.7653 60.5255 98.8386 60.4515C98.8954 60.3511 98.9183 60.2351 98.9037 60.1207C98.8607 59.8056 99.1872 59.7552 99.266 59.7342C99.3448 59.7132 99.5611 59.6366 99.5979 59.4465C99.6236 59.2911 99.6236 59.1325 99.5979 58.9771C99.5874 58.8846 99.7081 58.6011 99.7953 58.4919C99.8352 58.4425 99.8677 58.4856 99.935 58.4226C100.12 58.7376 100.281 58.2325 100.489 58.4562C100.469 58.7534 100.346 59.5179 100.364 59.7164C100.378 59.8739 100.339 59.9884 100.168 60.1249C100.086 60.19 100.063 60.274 100.053 60.4893C100.053 60.4893 100.21 61.0648 99.8426 61.1478C99.4435 61.2391 99.5905 61.7233 99.5086 61.8902C99.3899 62.1339 99.1169 62.1003 98.9835 62.1486C98.9192 62.1818 98.8632 62.2289 98.8194 62.2865C98.7756 62.3441 98.7452 62.4107 98.7304 62.4815C98.73 62.556 98.714 62.6297 98.6834 62.6977C98.6529 62.7657 98.6084 62.8265 98.5529 62.8763C98.4038 63.0003 98.0667 62.9257 97.9869 62.9047C97.9071 62.8837 97.6004 62.764 97.4807 63.0601C97.4363 63.1663 97.359 63.2554 97.2602 63.3143C97.16 63.3423 97.0546 63.3454 96.9529 63.3233C96.8513 63.3011 96.7567 63.2544 96.6773 63.1872C96.3476 62.8879 95.9107 63.5957 95.7196 62.8942C95.6713 62.7167 95.4738 62.7367 95.3814 62.7251C95.2418 62.7083 95.0968 62.6716 95.0433 62.5445C94.8763 62.1307 95.246 61.9028 95.2544 61.8493Z" fill="#483723"/>
<path d="M98.4793 55.2451C98.4793 55.2451 98.1885 55.7702 98.9624 56.1462C99.0431 56.1564 99.1166 56.1975 99.1676 56.2607C99.2187 56.3239 99.2434 56.4044 99.2365 56.4854C99.2229 56.7857 99.184 57.2426 99.602 57.3339C99.7196 57.378 99.8236 57.649 99.7196 57.8905C99.6041 58.1583 99.5978 58.4513 99.937 58.6256C100.276 58.7999 100.307 58.6487 100.307 58.6487L101.794 57.9262C101.794 57.9262 100.914 53.4189 98.4793 55.2451Z" fill="#483723"/>
<path d="M94.5236 55.9707C94.5236 55.9707 94.8975 56.438 95.5402 55.8657C95.5803 55.7944 95.6465 55.7415 95.7249 55.7182C95.8033 55.6949 95.8877 55.7029 95.9603 55.7407C96.2333 55.8657 96.6408 56.0747 96.8834 55.7229C96.9684 55.6304 97.2572 55.6357 97.4431 55.8279C97.6478 56.0379 97.9157 56.1524 98.2013 55.9024C98.487 55.6525 98.9165 55.9928 98.9165 55.9928L98.2548 53.9187C98.2548 53.9187 93.9366 53.7454 94.5236 55.9707Z" fill="#483723"/>
<path d="M101.94 61.3483C101.548 61.4113 101.357 61.2433 101.613 60.8358C101.846 60.4683 102.041 59.7279 101.63 59.0841C101.315 58.5927 100.315 58.5591 100.239 59.3708C100.192 59.8707 100.426 59.834 100.134 59.6859C99.1064 59.1734 102.65 55.8339 103.6 57.4438C104.518 59.0075 102.343 61.2843 101.94 61.3483Z" fill="#483723"/>
<path d="M94.3359 59.7168C94.3359 59.6696 94.3359 59.3902 94.756 59.4827C95.1761 59.5751 95.4092 59.5299 95.5027 59.4827C95.5961 59.4354 95.8293 59.343 95.969 59.4827C96.1087 59.6223 96.5287 60.1359 96.2483 60.1359C95.9679 60.1359 95.5489 59.8093 95.2696 59.9027C94.9902 59.9962 94.4756 60.1359 94.4294 60.0897C94.3832 60.0435 94.3359 59.7168 94.3359 59.7168Z" fill="#483723"/>
<path d="M94.7202 59.6976C94.6761 59.6976 94.4241 59.4645 94.1395 59.6871C94.0534 59.7543 94.0544 59.8751 94.0702 59.9854C94.0817 60.0589 94.1374 60.207 94.0103 60.2815C93.5094 60.5756 94.1469 60.7656 93.9841 61.0817C93.9489 61.1571 93.9326 61.2399 93.9366 61.323C93.9406 61.4061 93.9648 61.4869 94.0072 61.5585C94.0733 61.6228 94.1584 61.664 94.2498 61.6761C94.5039 61.7077 94.4755 61.9691 94.4755 62.0353C94.4755 62.1015 94.4882 62.3766 94.6152 62.4659C94.6652 62.4982 94.7214 62.5198 94.7801 62.5292C94.8389 62.5386 94.899 62.5356 94.9565 62.5205C95.029 62.5047 95.1666 62.7043 95.2716 62.6465C95.4134 62.5614 96.8132 61.4913 96.8132 61.4913L96.7198 60.6974L96.4394 60.1376L96.1128 59.811L95.553 59.6714L95.133 59.7648L94.7202 59.6976Z" fill="#483723"/>
<path d="M94.9362 60.8372C95.0811 61.4337 95.6419 62.049 96.7267 61.273C96.7599 61.2524 96.7861 61.2222 96.8017 61.1864C96.8173 61.1506 96.8216 61.1109 96.8141 61.0726C96.8065 61.0343 96.7875 60.9992 96.7596 60.9719C96.7316 60.9447 96.6959 60.9266 96.6574 60.9201C96.1553 60.8503 95.6602 60.7368 95.1777 60.5809C95.0202 60.5232 94.8932 60.6744 94.9362 60.8372Z" fill="#DAA684"/>
<path d="M105.476 68.9414L121.825 69.2301C121.825 69.2301 120.915 95.6563 123.763 102.394C126.611 109.133 100.512 97.3392 100.512 97.3392C100.512 97.3392 102.489 85.5665 105.844 78.9518C108.606 73.5142 105.476 68.9414 105.476 68.9414Z" fill="#80B7B4"/>
<path d="M113.373 59.5957C113.373 59.5957 113.555 59.8714 114.082 58.8323C114.609 57.7931 114.239 57.1636 113.477 57.1988C112.715 57.2339 112.376 57.533 112.376 57.533C112.376 57.533 108.886 55.6836 110.295 52.8185C110.924 52.3861 111.645 52.107 112.402 52.0036C113.158 51.9002 113.928 51.9752 114.65 52.2228C117.268 53.1098 118.642 56.0386 117.718 58.7646C116.795 61.4906 113.925 62.9798 111.306 62.0928C111.295 62.0928 112.032 61.5725 112.347 61.2292C112.776 60.7442 113.122 60.1924 113.373 59.5957V59.5957Z" fill="#302920"/>
<path d="M109.564 61.9691C109.564 61.9691 110.029 62.2292 110.962 61.96C111.395 61.8469 111.818 61.7012 112.229 61.5243C113.049 61.1342 113.16 59.5332 113.16 59.5332C113.16 59.5332 113.903 59.7933 114.331 58.983C114.873 57.9517 114.548 56.8163 113.822 56.5809C112.814 56.2532 112.377 57.5329 112.377 57.5329C112.377 57.5329 108.888 55.6835 110.297 52.8184L110.203 52.8834C109.876 53.1331 108.816 54.0253 108.494 55.0618C108.242 55.8708 108.364 56.4508 108.292 56.9776C108.292 56.9776 107.715 61.3748 109.564 61.9691Z" fill="#D9A784"/>
<path d="M110.766 60.4943L111.268 64.4207L116.34 64.2633L114.047 57.7202L110.766 60.4943Z" fill="#D9A784"/>
<path d="M112.529 63.9956L108.739 64.984C108.739 64.984 104.394 65.6174 102.887 69.709C100.156 77.1014 99.1959 80.1239 99.1959 80.1239L100.513 95.5693L112.529 63.9956Z" fill="#80B7B4"/>
<path d="M116.121 63.7485L121.208 65.6838C121.208 65.6838 124.118 66.7242 124.778 70.7638C125.437 74.8033 125.341 79.6882 125.341 79.6882L122.896 84.3429L119.532 71.9447L108.658 71.6156L111.953 63.7888L116.121 63.7485Z" fill="#80B7B4"/>
<path d="M110.182 53.0381C110.182 53.0381 108.815 55.6744 112.375 57.5329L110.314 52.8066C110.147 52.9107 110.338 52.8899 110.182 53.0381Z" fill="#302920"/>
<path d="M111.021 52.4087C109.522 53.1136 108.03 54.2464 107.795 56.6368L109.186 56.6498C109.186 56.6498 108.976 53.8991 111.021 52.4087Z" fill="#302920"/>
<path d="M109.138 62.4233C109.138 62.4233 105.248 64.8176 105.514 69.3917C105.619 71.0753 105.263 72.7557 104.484 74.2519L110.494 74.0867L111.158 63.5977L110.948 61.9629L109.138 62.4233Z" fill="#302920"/>
<path d="M111.161 63.5973C111.161 63.5973 112.913 63.8158 116.016 63.1851C116.138 63.437 116.32 63.6558 116.544 63.823C116.769 63.9903 117.031 64.1011 117.307 64.1462C118.268 64.31 110.804 71.6972 110.804 71.6972L111.161 63.5973Z" fill="#80B7B4"/>
<path d="M110.758 59.588C110.25 59.588 109.839 59.1763 109.839 58.6685C109.839 58.1607 110.25 57.749 110.758 57.749C111.266 57.749 111.678 58.1607 111.678 58.6685C111.678 59.1763 111.266 59.588 110.758 59.588Z" fill="#EE837F"/>
<path d="M129.799 59.8184C129.626 60.3744 129.311 60.876 128.886 61.2739C128.886 61.2739 127.341 60.9515 128.135 60.1544L128.928 59.3584L129.799 59.8184Z" fill="#483723"/>
<path d="M124.292 64.1767C124.543 64.0465 125.041 63.3607 124.956 62.6382L126.153 63.4594L127.652 63.702L130.317 65.6364L125.361 65.6144L124.609 65.5461L124.224 65.0095L124.193 64.5589L124.292 64.1767Z" fill="#D9A582"/>
<path d="M128.919 61.5962C128.994 62.1204 129.148 62.6303 129.376 63.1084C129.594 63.5759 129.882 64.0072 130.23 64.3875C130.277 64.4326 130.308 64.4915 130.318 64.5556C130.322 64.6104 130.312 64.6653 130.289 64.7152C130.089 65.234 129.573 65.5774 129.034 65.715C128.753 65.8012 128.451 65.7938 128.175 65.694C128.001 65.6127 127.849 65.4935 127.727 65.3453C127.34 64.8714 127.131 64.277 127.135 63.665C127.128 63.1935 127.24 62.6915 127.584 62.367" fill="#D9A582"/>
<path d="M129.174 62.6236C128.889 61.8386 128.859 60.9841 129.087 60.1809C129.209 60.1913 129.331 60.1677 129.441 60.1126C129.622 60.0212 129.718 59.9026 129.869 59.7629C130.232 59.4578 130.498 59.0528 130.633 58.5983C130.719 58.2643 130.606 57.9892 130.447 57.6825L129.171 54.7851L127.78 54.239L126.36 54.4259L122.697 54.1382V56.2448C122.479 57.3722 122.464 58.5295 122.653 59.6621C122.694 59.908 122.757 60.1495 122.843 60.3835C123.187 61.2783 123.952 61.9935 124.907 62.0806L125.048 63.5099L126.118 64.433C126.118 64.433 129.083 63.4416 129.19 63.2453C129.225 63.1883 129.247 63.1245 129.255 63.0583C129.264 62.992 129.258 62.9247 129.238 62.8609C129.224 62.8252 129.174 62.6236 129.174 62.6236Z" fill="#D9A582"/>
<path d="M133.778 91.1808C129.386 91.0264 123.954 91.5379 119.562 91.3835C117.56 90.7114 115.969 68.5673 119.247 66.7085C119.904 66.1351 122.113 65.2383 122.805 64.9904C123.341 64.8014 123.885 64.5588 124.29 64.1724L124.361 64.3519C124.628 65.0114 125.395 65.2383 126.105 65.3423C126.91 65.4604 127.731 65.4186 128.52 65.2194C128.852 65.1356 129.176 65.0224 129.488 64.8812C129.586 64.8361 130.118 64.5599 130.223 64.3792V64.3719C130.405 64.5792 130.608 64.7665 130.829 64.9306C131.423 65.4174 132.055 65.8553 132.72 66.2401C133.389 66.634 134.145 66.8892 134.786 67.3208C135.477 67.786 136.105 68.4203 136.362 69.2111C136.58 69.8989 136.662 89.8524 136.532 90.2672C136.198 91.3079 134.613 91.2417 133.778 91.1808Z" fill="#DCD3C2"/>
<path d="M126.788 57.5808C126.43 57.6606 126.142 57.984 126.036 58.3274C125.993 58.4653 125.985 58.6115 126.011 58.7533C126.037 58.8952 126.098 59.0286 126.187 59.1421C126.276 59.2556 126.391 59.3459 126.523 59.4052C126.654 59.4645 126.798 59.4911 126.942 59.4826C127.582 59.4627 128.072 58.799 127.873 58.1815C127.797 57.9658 127.645 57.7856 127.445 57.6749C127.245 57.5642 127.011 57.5307 126.788 57.5808V57.5808Z" fill="#B88354"/>
<path d="M130.545 57.8862C130.5 57.8085 130.436 57.7435 130.359 57.6976C130.282 57.6516 130.194 57.6262 130.105 57.6236C130.001 57.6192 129.897 57.6377 129.801 57.6778C129.705 57.718 129.619 57.7787 129.549 57.8557C129.424 57.9953 129.318 58.1507 129.234 58.3178C129.166 58.4386 129.053 58.5688 128.897 58.5278C128.761 58.489 128.704 58.3335 128.669 58.197C128.508 57.5669 128.444 56.9368 128.362 56.2941C128.308 55.874 128.134 55.2985 127.652 55.1998C127.518 55.1777 127.38 55.1874 127.249 55.2282C126.745 55.3647 126.284 55.7386 125.764 55.6808C125.373 55.6367 125.056 55.3573 124.751 55.1106C124.445 54.8638 124.078 54.6327 123.688 54.6842C122.874 54.7892 122.688 56.2595 122.688 56.2595C122.475 56.2014 122.279 56.0924 122.117 55.9419C121.955 55.7913 121.832 55.6037 121.759 55.3951C121.602 54.9825 121.557 54.5359 121.629 54.1003C121.698 53.7353 121.842 53.3886 122.051 53.0815C122.261 52.7744 122.531 52.5135 122.845 52.315C123.066 52.1655 123.317 52.0645 123.58 52.0189C123.823 51.9914 124.069 52.0045 124.308 52.0577C124.622 52.1177 124.93 52.2056 125.229 52.3203C125.479 52.4169 125.73 52.5303 125.997 52.5366C126.185 52.5254 126.371 52.4947 126.553 52.4452C127.287 52.3104 128.044 52.4316 128.699 52.7886C129.062 52.9912 129.398 53.2382 129.699 53.5238C129.999 53.7776 130.246 54.0876 130.426 54.4363C130.689 54.9249 130.854 55.4599 130.913 56.0116C130.933 56.221 130.939 56.4315 130.932 56.6417C130.927 56.8545 130.897 57.066 130.843 57.2718C130.813 57.3804 130.774 57.4859 130.724 57.5869C130.687 57.6604 130.642 57.7297 130.599 57.7969L130.545 57.8862Z" fill="#483723"/>
<path d="M124.76 56.2029C124.751 56.2115 124.744 56.2214 124.738 56.2323C124.722 56.2657 124.717 56.3034 124.724 56.3397C124.731 56.3761 124.75 56.4091 124.778 56.4339C124.846 56.4884 124.93 56.5199 125.018 56.5242C125.176 56.5452 125.333 56.5463 125.492 56.561C125.973 56.6072 126.429 56.7815 126.88 56.9537C126.914 56.9719 126.954 56.976 126.991 56.9653C127.012 56.9532 127.027 56.9342 127.034 56.9118C127.041 56.8894 127.04 56.8652 127.031 56.8435C127.012 56.8011 126.981 56.7649 126.943 56.7384C126.661 56.5145 126.335 56.3534 125.985 56.2659C125.635 56.1738 125.272 56.1384 124.911 56.1608C124.857 56.156 124.803 56.171 124.76 56.2029V56.2029Z" fill="#D2C9B4"/>
<path d="M122.792 56.1227C122.788 56.1421 122.788 56.1622 122.792 56.1815C122.796 56.2087 122.807 56.2346 122.822 56.2571C122.838 56.2795 122.859 56.2979 122.884 56.3107C122.946 56.3338 123.014 56.3424 123.08 56.3359C123.255 56.3359 123.431 56.3359 123.605 56.3359C123.678 56.3359 123.79 56.3359 123.787 56.2235C123.781 56.183 123.763 56.1452 123.735 56.1152C123.707 56.0852 123.67 56.0644 123.63 56.0555C123.539 56.0287 123.446 56.0129 123.351 56.0082C123.253 55.9986 123.154 55.9958 123.056 55.9998C122.963 56.003 122.823 56.0177 122.792 56.1227Z" fill="#D2C9B4"/>
<path d="M133.181 54.9969C133.188 54.9969 132.467 53.6312 133.572 52.9811C133.783 52.8571 135.545 52.3551 137.123 52.0622C140.516 51.6476 142.007 53.5715 142.608 54.9337C142.721 55.1638 142.811 55.4047 142.875 55.6527C142.968 55.949 143.025 56.1891 143.067 56.3269C143.319 57.1401 144.997 57.3216 145.498 58.1141C145.833 58.6436 145.928 59.1283 145.842 59.9668C145.756 60.8053 145.878 61.0419 147.435 61.7207C148.993 62.3995 149.209 63.6641 149.234 63.9489C149.34 64.5232 149.627 65.4214 148.739 66.114C148.732 66.1179 148.726 66.1239 148.723 66.1313L148.222 66.1795L141.053 67.2052C141.053 67.2052 140.105 66.9617 140.223 65.8682C140.447 63.8008 138.736 64.3751 137.763 62.6522C136.79 60.9293 138.797 59.3408 136.992 57.974C134.972 56.4303 133.181 54.9969 133.181 54.9969Z" fill="#9F3216"/>
<path d="M134.894 64.9918C135.152 64.8459 135.652 64.1051 135.536 63.3481L136.826 64.1682L138.413 64.3681L141.289 66.3058L136.071 66.4666L135.276 66.4229L134.85 65.8716L134.801 65.3984L134.894 64.9918Z" fill="#DBA785"/>
<path d="M139.671 62.1045C139.769 62.6538 139.95 63.1851 140.207 63.6803C140.454 64.164 140.773 64.6072 141.153 64.9943C141.204 65.0403 141.239 65.1015 141.252 65.1689C141.258 65.2264 141.249 65.2845 141.227 65.3378C141.036 65.8914 140.506 66.2727 139.943 66.437C139.65 66.5387 139.332 66.5419 139.038 66.4462C138.853 66.369 138.687 66.2513 138.554 66.1016C138.128 65.6191 137.884 65.0026 137.865 64.3592C137.84 63.863 137.941 63.3254 138.289 62.9809" fill="#DBA785"/>
<path d="M139.975 63.1761C139.645 62.3601 139.581 61.4611 139.792 60.6067C139.921 60.614 140.049 60.5846 140.162 60.5217C140.326 60.416 140.473 60.2863 140.599 60.1369C140.97 59.8023 141.235 59.3662 141.36 58.8827C141.438 58.5278 140.881 58.6162 140.702 58.2992L139.679 54.9224L138.195 54.3975L136.702 54.6478L133.256 54.448L132.912 56.6981C132.724 57.8935 132.751 59.113 132.992 60.2989C133.046 60.5562 133.122 60.808 133.222 61.0512C133.618 61.9804 134.45 62.7052 135.458 62.7615L135.66 64.2615L136.822 65.193C136.822 65.193 139.906 64.0444 140.011 63.8296C140.046 63.7683 140.067 63.7003 140.073 63.6303C140.079 63.5602 140.071 63.4896 140.048 63.423C140.034 63.3874 139.975 63.1761 139.975 63.1761Z" fill="#DBA785"/>
<path d="M145.149 86.1926C140.519 86.1926 134.788 86.088 130.158 86.088C130.158 84.8545 129.895 76.3457 129.759 71.3448C129.727 70.1856 130.05 69.0443 130.687 68.0752C131.324 67.106 132.243 66.3558 133.32 65.9258L133.367 65.9063C133.924 65.688 134.487 65.4124 134.9 64.9874L134.982 65.1735C135.287 65.8569 136.103 66.0682 136.854 66.1521C137.705 66.2459 138.566 66.1714 139.388 65.9327C139.735 65.8318 140.072 65.7003 140.395 65.5399C140.496 65.4905 141.051 65.1792 141.154 64.9851L141.149 64.9771C141.156 64.9851 141.854 65.4514 142.878 66.0739C144.18 66.8653 145.225 68.0163 145.887 69.388C146.549 70.7598 146.8 72.2938 146.61 73.8051C145.99 78.7049 145.174 85.3116 145.149 86.1926Z" fill="#E06F57"/>
<path d="M136.836 58.0763C136.461 58.1728 136.169 58.5243 136.071 58.8895C136.031 59.0365 136.027 59.1911 136.06 59.3399C136.092 59.4887 136.161 59.6273 136.259 59.7439C136.357 59.8605 136.482 59.9515 136.623 60.0091C136.764 60.0668 136.917 60.0893 137.069 60.0748C137.741 60.03 138.232 59.3133 138 58.6713C137.913 58.4465 137.746 58.2618 137.531 58.1521C137.317 58.0424 137.069 58.0154 136.836 58.0763Z" fill="#DA8E64"/>
<path d="M141.367 58.8908C141.283 59.372 140.944 59.8177 140.604 60.145C140.45 60.2932 140.354 60.4264 140.165 60.5286C140.055 60.5891 139.93 60.6185 139.805 60.6136L139.488 60.2197C139.488 60.2197 139.579 59.4294 139.638 58.8793C139.694 58.8611 139.744 58.8312 139.787 58.7915C139.83 58.7519 139.864 58.7034 139.886 58.6496C139.967 58.4703 140.072 58.3027 140.197 58.1511C140.268 58.0676 140.356 58.0005 140.455 57.9547C140.554 57.9088 140.662 57.8853 140.772 57.8857C141.219 57.9156 141.413 58.3716 141.382 58.769C141.379 58.8081 141.374 58.8494 141.367 58.8908Z" fill="#DBA785"/>
<path d="M142.541 58.246C142.41 58.1805 142.28 58.6354 141.241 58.0507C140.201 57.4661 140.006 58.7652 139.096 57.921C138.187 57.0767 138.637 55.7765 137.081 55.4515C135.524 55.1264 134.872 55.386 133.767 54.9312C132.662 54.4764 133.572 53.438 133.572 53.438L137.212 53.3726L140.006 54.4775L140.85 55.3217C140.85 55.3217 141.175 55.517 141.761 56.4921L142.346 57.4673L142.541 58.246Z" fill="#9F3216"/>
</g>
</g>
<rect width="144.747" height="8.04688" transform="translate(6.10156 8)" fill="#00575F" fill-opacity="0.5"/>
<path d="M16.0836 12.5263H15.2823L15.1261 12.9103H14.7227L15.6826 10.7432L16.6425 12.9103H16.239L16.0836 12.5263ZM15.9461 12.1912L15.6826 11.5493L15.419 12.1912H15.9461Z" fill="#DED4C4"/>
<path d="M17.5898 12.4523L17.9136 12.3067C17.96 12.4792 18.0975 12.5841 18.265 12.5841C18.4513 12.5841 18.575 12.4547 18.575 12.2847C18.575 11.8625 17.7029 11.9724 17.7029 11.3297C17.7029 10.9815 17.9608 10.77 18.2789 10.77C18.553 10.77 18.7727 10.9295 18.8524 11.1654L18.531 11.3134C18.5009 11.1816 18.4131 11.1052 18.287 11.1052C18.1495 11.1052 18.0568 11.1955 18.0568 11.3191C18.0568 11.695 18.9321 11.6047 18.9321 12.2904C18.9321 12.6801 18.6466 12.938 18.2764 12.938C17.947 12.938 17.6753 12.7346 17.5898 12.4523Z" fill="#DED4C4"/>
<path d="M20.0723 12.4523L20.396 12.3067C20.4424 12.4792 20.5799 12.5841 20.7475 12.5841C20.9337 12.5841 21.0574 12.4547 21.0574 12.2847C21.0574 11.8625 20.1853 11.9724 20.1853 11.3297C20.1853 10.9815 20.4432 10.77 20.7613 10.77C21.0354 10.77 21.2551 10.9295 21.3348 11.1654L21.0135 11.3134C20.9834 11.1816 20.8955 11.1052 20.7694 11.1052C20.6319 11.1052 20.5392 11.1955 20.5392 11.3191C20.5392 11.695 21.4145 11.6047 21.4145 12.2904C21.4145 12.6801 21.129 12.938 20.7588 12.938C20.4294 12.938 20.1577 12.7346 20.0723 12.4523Z" fill="#DED4C4"/>
<path d="M23.0181 10.7979V12.1808C23.0181 12.4061 23.1938 12.581 23.4183 12.581C23.6437 12.581 23.8186 12.4053 23.8186 12.1808V10.7979H24.1749V12.1808C24.1749 12.6005 23.8373 12.9381 23.4175 12.9381C22.9978 12.9381 22.6602 12.6005 22.6602 12.1808V10.7979H23.0181Z" fill="#DED4C4"/>
<path d="M26.6407 12.9105L26.2071 12.1287H25.8915V12.9105H25.5352V10.7979H26.3226C26.6879 10.7979 26.9864 11.0671 26.9864 11.4617C26.9864 11.7635 26.8164 11.9912 26.5723 12.0848L27.0523 12.9105H26.6407ZM25.8915 11.7716H26.295C26.4926 11.7716 26.6293 11.6618 26.6293 11.4617C26.6293 11.264 26.4918 11.1542 26.295 11.1542H25.8915V11.7716Z" fill="#DED4C4"/>
<path d="M28.2891 10.7979H29.6061V11.1542H28.6462V11.6756H29.4971V12.0319H28.6462V12.5534H29.6061V12.9097H28.2891V10.7979Z" fill="#DED4C4"/>
<path d="M21.6131 13.9235H21.4707V13.8316H21.6131V13.7095C21.6131 13.5468 21.7147 13.4443 21.8473 13.4443C21.8718 13.4443 21.8921 13.4484 21.9067 13.4549L21.9295 13.4655V13.5468L21.9132 13.5428C21.9027 13.5411 21.8864 13.5363 21.8685 13.5363C21.7766 13.5363 21.7058 13.5875 21.7058 13.7095V13.8316H21.9303V13.9235H21.7058V14.7288H21.6139V13.9235H21.6131Z" fill="#DED4C4"/>
<path d="M22.9591 13.8218C23.1934 13.8218 23.3773 14.0154 23.3773 14.2806C23.3773 14.5458 23.1934 14.7394 22.9591 14.7394C22.7249 14.7394 22.541 14.5458 22.541 14.2806C22.541 14.0154 22.7249 13.8218 22.9591 13.8218ZM22.9591 13.9129C22.7859 13.9129 22.6329 14.0674 22.6329 14.2798C22.6329 14.4921 22.7859 14.6467 22.9591 14.6467C23.1324 14.6467 23.2854 14.4921 23.2854 14.2798C23.2854 14.0674 23.1324 13.9129 22.9591 13.9129Z" fill="#DED4C4"/>
<path d="M24.0801 13.8314H24.1411L24.172 13.964H24.1826C24.1988 13.9371 24.2216 13.9152 24.2477 13.8924C24.2948 13.8574 24.364 13.8208 24.4681 13.8208H24.5088V13.9127H24.4575C24.2843 13.9127 24.172 14.0225 24.172 14.208V14.7278H24.0801V13.8314V13.8314Z" fill="#DED4C4"/>
<path d="M26.0801 13.4443H26.172V14.7288H26.0801V13.4443Z" fill="#DED4C4"/>
<path d="M26.9876 13.4751C27.0283 13.4751 27.0592 13.506 27.0592 13.5467C27.0592 13.5874 27.0283 13.6183 26.9876 13.6183C26.9469 13.6183 26.916 13.5874 26.916 13.5467C26.916 13.506 26.9469 13.4751 26.9876 13.4751ZM26.9372 13.8314H27.0291V14.7287H26.9372V13.8314Z" fill="#DED4C4"/>
<path d="M27.8533 13.9235H27.7109V13.8316H27.8533V13.7095C27.8533 13.5468 27.955 13.4443 28.0876 13.4443C28.112 13.4443 28.1323 13.4484 28.147 13.4549L28.1697 13.4655V13.5468L28.1535 13.5428C28.1429 13.5411 28.1266 13.5363 28.1087 13.5363C28.0168 13.5363 27.946 13.5875 27.946 13.7095V13.8316H28.1706V13.9235H27.946V14.7288H27.8541V13.9235H27.8533Z" fill="#DED4C4"/>
<path d="M29.576 14.5041C29.5272 14.618 29.4028 14.7384 29.2091 14.7384C28.9643 14.7384 28.7812 14.5448 28.7812 14.2796C28.7812 14.0144 28.9651 13.8208 29.1994 13.8208C29.4215 13.8208 29.6069 14.0046 29.6069 14.2487C29.6069 14.2715 29.6029 14.2853 29.6004 14.2999L29.5964 14.3203H28.8724C28.8951 14.5163 29.0229 14.6465 29.2091 14.6465C29.3434 14.6465 29.419 14.5651 29.4638 14.5041H29.576V14.5041ZM29.515 14.2292C29.4922 14.0437 29.3621 13.9135 29.1994 13.9135C29.0367 13.9135 28.9057 14.0437 28.8732 14.2292H29.515Z" fill="#DED4C4"/>
<path d="M9.42643 10.5384L8.83177 10.5352L7.76285 11.4284L7.63676 11.7619C7.20561 11.5602 6.90625 11.1152 6.90625 10.597C6.90625 9.88438 7.47081 9.30762 8.16634 9.30762C8.84479 9.30762 9.39714 9.85265 9.42643 10.5384Z" fill="#EB6E54"/>
<path d="M9.67603 10.1045C8.18898 10.1045 6.97852 11.3385 6.97852 12.8581C6.97852 12.8947 6.97852 12.9338 6.98096 12.9704C7.13796 12.968 7.2974 12.9655 7.45684 12.9623C7.4544 12.9281 7.4544 12.8915 7.4544 12.8573C7.4544 11.6021 8.45011 10.5804 9.67685 10.5804C10.9036 10.5804 11.8993 11.6029 11.8993 12.8573C11.8993 12.8809 11.8993 12.9069 11.8968 12.9305C12.0538 12.9305 12.2133 12.933 12.3727 12.933C12.3752 12.9094 12.3752 12.8834 12.3752 12.8573C12.3744 11.3385 11.1639 10.1045 9.67603 10.1045Z" fill="#DED4C4"/>
<path d="M129.093 12.0679H129.729V11.923H129.246V11.054H129.093V12.0679ZM129.746 12.0679H129.907L129.995 11.8345H130.398L130.486 12.0679H130.647L130.261 11.054H130.132L129.746 12.0679ZM130.052 11.6897L130.197 11.2873L130.341 11.6897H130.052ZM130.767 12.0679H130.92V11.3437L131.411 12.0679H131.54V11.054H131.387V11.7782L130.896 11.054H130.767V12.0679ZM132.529 12.0679H132.642V11.5448H132.191V11.6897H132.497C132.471 11.8249 132.359 11.9391 132.199 11.9391C132.032 11.9391 131.869 11.7798 131.869 11.5609C131.869 11.342 132.032 11.1827 132.199 11.1827C132.347 11.1827 132.438 11.2793 132.473 11.3839H132.634C132.587 11.2085 132.425 11.0459 132.199 11.0459C131.942 11.0459 131.717 11.2712 131.717 11.5609C131.717 11.8506 131.942 12.0759 132.199 12.0759C132.291 12.0759 132.363 12.0502 132.413 12.0244C132.442 12.0099 132.468 11.9922 132.489 11.9713L132.529 12.0679ZM132.843 11.6977C132.843 11.9166 133.002 12.0759 133.221 12.0759C133.44 12.0759 133.599 11.9166 133.599 11.6977V11.054H133.446V11.6977C133.446 11.8426 133.35 11.9391 133.221 11.9391C133.092 11.9391 132.996 11.8426 132.996 11.6977V11.054H132.843V11.6977ZM133.672 12.0679H133.833L133.921 11.8345H134.324L134.412 12.0679H134.573L134.187 11.054H134.058L133.672 12.0679ZM133.978 11.6897L134.123 11.2873L134.267 11.6897H133.978ZM135.41 12.0679H135.523V11.5448H135.072V11.6897H135.378C135.352 11.8249 135.239 11.9391 135.08 11.9391C134.913 11.9391 134.75 11.7798 134.75 11.5609C134.75 11.342 134.913 11.1827 135.08 11.1827C135.228 11.1827 135.318 11.2793 135.354 11.3839H135.515C135.468 11.2085 135.305 11.0459 135.08 11.0459C134.823 11.0459 134.597 11.2712 134.597 11.5609C134.597 11.8506 134.823 12.0759 135.08 12.0759C135.172 12.0759 135.244 12.0502 135.294 12.0244C135.323 12.0099 135.349 11.9922 135.37 11.9713L135.41 12.0679ZM135.74 12.0679H136.424V11.923H135.893V11.6172H136.368V11.4724H135.893V11.1988H136.408V11.054H135.74V12.0679Z" fill="#DED4C4"/>
<path d="M142.773 12.0679H143.409V11.923H142.926V11.054H142.773V12.0679ZM143.933 11.9391C143.766 11.9391 143.603 11.7798 143.603 11.5609C143.603 11.342 143.766 11.1827 143.933 11.1827C144.101 11.1827 144.263 11.342 144.263 11.5609C144.263 11.7798 144.101 11.9391 143.933 11.9391ZM143.45 11.5609C143.45 11.8506 143.676 12.0759 143.933 12.0759C144.191 12.0759 144.416 11.8506 144.416 11.5609C144.416 11.2712 144.191 11.0459 143.933 11.0459C143.676 11.0459 143.45 11.2712 143.45 11.5609ZM145.341 12.0679H145.454V11.5448H145.003V11.6897H145.309C145.283 11.8249 145.171 11.9391 145.011 11.9391C144.844 11.9391 144.682 11.7798 144.682 11.5609C144.682 11.342 144.844 11.1827 145.011 11.1827C145.16 11.1827 145.25 11.2793 145.285 11.3839H145.446C145.399 11.2085 145.237 11.0459 145.011 11.0459C144.754 11.0459 144.529 11.2712 144.529 11.5609C144.529 11.8506 144.754 12.0759 145.011 12.0759C145.103 12.0759 145.176 12.0502 145.226 12.0244C145.254 12.0099 145.28 11.9922 145.301 11.9713L145.341 12.0679ZM145.671 12.0679H145.824V11.054H145.671V12.0679ZM146.066 12.0679H146.219V11.3437L146.709 12.0679H146.838V11.054H146.685V11.7782L146.194 11.054H146.066V12.0679Z" fill="#DED4C4"/>
</g>
<path d="M8.94286 7.26429C6.91124 7.26429 5.26429 8.91124 5.26429 10.9429V108.057C5.26429 110.089 6.91123 111.736 8.94285 111.736H147.901C149.933 111.736 151.579 110.089 151.579 108.057V10.9429C151.579 8.91124 149.933 7.26429 147.901 7.26429H8.94286Z" stroke="url(#paint0_radial_165_9668)" stroke-width="1.47143"/>
<path d="M8.94286 7.26429C6.91124 7.26429 5.26429 8.91124 5.26429 10.9429V108.057C5.26429 110.089 6.91123 111.736 8.94285 111.736H147.901C149.933 111.736 151.579 110.089 151.579 108.057V10.9429C151.579 8.91124 149.933 7.26429 147.901 7.26429H8.94286Z" stroke="url(#paint1_radial_165_9668)" stroke-width="1.47143" style="mix-blend-mode:color-burn"/>
</g>
<defs>
<filter id="filter0_di_165_9668" x="0.318099" y="0.913878" width="159.015" height="117.172" filterUnits="userSpaceOnUse" color-interpolation-filters="sRGB">
<feFlood flood-opacity="0" result="BackgroundImageFix"/>
<feColorMatrix in="SourceAlpha" type="matrix" values="0 0 0 0 0 0 0 0 0 0 0 0 0 0 0 0 0 0 127 0" result="hardAlpha"/>
<feOffset dx="1.40373"/>
<feGaussianBlur stdDeviation="2.80747"/>
<feComposite in2="hardAlpha" operator="out"/>
<feColorMatrix type="matrix" values="0 0 0 0 0 0 0 0 0 0 0 0 0 0 0 0 0 0 0.25 0"/>
<feBlend mode="normal" in2="BackgroundImageFix" result="effect1_dropShadow_165_9668"/>
<feBlend mode="normal" in="SourceGraphic" in2="effect1_dropShadow_165_9668" result="shape"/>
<feColorMatrix in="SourceAlpha" type="matrix" values="0 0 0 0 0 0 0 0 0 0 0 0 0 0 0 0 0 0 127 0" result="hardAlpha"/>
<feOffset dy="1.47143"/>
<feGaussianBlur stdDeviation="0.735714"/>
<feComposite in2="hardAlpha" operator="arithmetic" k2="-1" k3="1"/>
<feColorMatrix type="matrix" values="0 0 0 0 0 0 0 0 0 0 0 0 0 0 0 0 0 0 0.25 0"/>
<feBlend mode="normal" in2="shape" result="effect2_innerShadow_165_9668"/>
</filter>
<radialGradient id="paint0_radial_165_9668" cx="0" cy="0" r="1" gradientUnits="userSpaceOnUse" gradientTransform="translate(32.5576 5.42185) rotate(77.8732) scale(163.115 392.862)">
<stop stop-color="#7A7580"/>
<stop offset="1" stop-color="#19181A"/>
</radialGradient>
<radialGradient id="paint1_radial_165_9668" cx="0" cy="0" r="1" gradientUnits="userSpaceOnUse" gradientTransform="translate(48.3729 -16.8348) rotate(80.9117) scale(120.149 194.943)">
<stop stop-color="#AB63F8" stop-opacity="0.5"/>
<stop offset="1" stop-color="white" stop-opacity="0.2"/>
</radialGradient>
<clipPath id="clip0_165_9668">
<path d="M6 10.9429C6 9.31756 7.31756 8 8.94286 8H147.901C149.526 8 150.844 9.31756 150.844 10.9429V108.057C150.844 109.682 149.526 111 147.901 111H8.94285C7.31756 111 6 109.682 6 108.057V10.9429Z" fill="white"/>
</clipPath>
<clipPath id="clip1_165_9668">
<rect width="144.844" height="103" fill="white" transform="translate(6 8)"/>
</clipPath>
<clipPath id="clip2_165_9668">
<rect width="145.146" height="103" fill="white" transform="translate(5.90039 8)"/>
</clipPath>
<clipPath id="clip3_165_9668">
<rect x="92.6055" y="32.3418" width="53.9141" height="53.9141" rx="26.957" fill="white"/>
</clipPath>
</defs>
</svg>
