<svg width="74" height="109" viewBox="0 0 74 109" fill="none" xmlns="http://www.w3.org/2000/svg">
<g clip-path="url(#clip0_93_6534)">
<g clip-path="url(#clip1_93_6534)">
<rect width="68" height="104" transform="translate(3 3)" fill="#00575F"/>
<path d="M65.8059 97.2916C68.2363 94.8612 68.2363 90.9206 65.8059 88.4901C63.3754 86.0596 59.4348 86.0596 57.0043 88.4901C54.5738 90.9206 54.5738 94.8612 57.0043 97.2916C59.4348 99.7221 63.3754 99.7221 65.8059 97.2916Z" fill="#FBC274"/>
<path d="M-14.4191 98.5028C-6.76315 99.8234 1.05949 98.1167 8.7184 96.8138C16.9405 95.4148 25.4496 94.6873 33.2219 98.182C36.7727 99.7777 40.2565 100.736 44.1969 100.321C49.9403 99.7152 55.5319 98.4189 61.1856 97.3435C64.2699 96.7569 67.3808 95.9203 70.5558 96.105C72.6143 96.2243 74.6274 96.7485 76.6849 96.8763C82.2942 97.2223 88.0396 94.623 93.4073 96.2001L95.4924 100.32L95.1373 113.16L-16.2773 110.405L-14.4191 98.5028Z" fill="#CB9266"/>
<path d="M66.8194 109.035C66.8549 106.778 66.8857 104.49 66.321 102.302C66.1093 101.525 65.8517 100.761 65.5496 100.014C65.2859 99.3401 65.0054 98.665 64.5912 98.0712C64.3013 97.657 63.8235 96.9539 63.0408 96.4162C61.4868 96.0749 61.3868 95.3091 59.9225 94.8267L54.6255 96.937C54.3581 97.1382 54.1201 97.3758 53.9186 97.643C53.3164 98.3686 52.6721 99.0661 52.1719 99.8665C51.6969 100.622 51.2625 101.402 50.8703 102.204C49.9259 104.146 49.2593 106.24 49.0938 108.4L66.8194 109.035Z" fill="#EF7F83"/>
<path d="M53.8866 93.8269C52.9637 94.9667 50.3662 95.0761 49.3105 94.4347C48.7495 94.0915 48.296 93.5819 47.7163 93.2677C46.2763 92.486 44.4296 93.0807 42.9064 92.4767C41.8283 92.0503 41.0466 91.0564 40.653 89.9661C40.2593 88.8759 40.2116 87.6921 40.2593 86.5345C40.2902 85.7809 40.3603 85.0188 40.2228 84.2773C40.0081 83.2062 39.4129 82.2489 38.5472 81.5825C38.061 81.202 37.4972 80.9055 37.1213 80.4006C36.9092 80.1054 36.7734 79.7624 36.7259 79.402C36.6784 79.0417 36.7208 78.6752 36.8492 78.3351C37.1765 77.5001 37.9432 77.084 38.7894 76.9475C40.0792 76.7428 41.3995 77.0082 42.5099 77.6955C43.2729 78.1733 43.9022 78.8316 44.567 79.4403C45.7901 80.5624 47.5985 81.6386 49.1553 80.438C49.7696 79.9649 50.3073 79.3234 51.0974 79.1505C51.5023 79.0626 51.9202 79.014 52.3008 78.8494C52.8291 78.6213 53.2442 78.1837 53.7669 77.9434C54.7338 77.4992 55.8147 77.805 56.7591 78.1575C57.741 78.5127 58.6623 79.0174 59.4903 79.6535C60.5934 80.5186 61.4235 81.6835 61.8812 83.0085C62.4028 84.5429 62.4121 86.2053 61.9074 87.7454C61.5138 88.9481 60.7989 90.0202 59.84 90.846C59.6596 91.0003 59.3154 91.3294 59.0471 91.2462C59.0143 91.2359 58.9891 91.2303 58.976 91.1938L53.8866 93.8269Z" fill="#2F1E13"/>
<path d="M59.686 94.245C59.0376 93.3015 58.7014 92.1785 58.7247 91.034C58.7232 91.0234 58.7178 91.0136 58.7097 91.0066C58.7015 90.9995 58.6911 90.9956 58.6803 90.9956C58.6695 90.9956 58.6591 90.9995 58.6509 91.0066C58.6428 91.0136 58.6375 91.0234 58.6359 91.034C58.6124 92.1943 58.9528 93.3328 59.6093 94.2898C59.641 94.3366 59.7177 94.2898 59.686 94.245Z" fill="#E1CDB8"/>
<path d="M60.8043 97.2372C58.6761 92.3572 58.6948 86.4356 58.6948 86.4356C58.2834 85.638 57.8692 84.8358 57.3269 84.1205C56.6022 83.1667 55.6644 82.3897 54.6517 81.7492C53.9635 81.3135 53.2192 80.931 52.4123 80.8141C51.9233 80.744 51.3679 80.7431 50.9097 80.9497C50.4871 81.1367 50.1673 81.5042 49.9185 81.8848C49.5699 82.4222 49.3273 83.0215 49.2042 83.6501C49.0798 84.2841 49.1789 84.9751 48.9236 85.5801C48.6936 86.1252 48.1709 86.415 47.7446 86.7863C47.6034 86.9088 47.4556 87.0425 47.407 87.2229C47.3471 87.4445 47.4584 87.6839 47.6277 87.8401C47.9325 88.1206 48.2953 88.0373 48.3056 88.6414C48.3318 90.1692 48.5178 91.885 50.0223 92.4068C50.127 92.4432 50.2336 92.476 50.3412 92.5059C51.0144 92.6929 52.5282 92.7275 53.1304 93.1193C54.1749 93.7991 54.5937 97.1792 54.6386 98.5173L55.1145 99.6599L60.8043 97.2372Z" fill="#F5A984"/>
<path d="M48.1045 88.6628L49.3949 88.4609L49.6586 85.6324L48.4309 85.3687L47.2499 86.9068L47.2031 88.3365L48.1045 88.6628Z" fill="#2F1E13"/>
<path d="M49.911 81.884C49.911 81.884 48.1653 84.0767 48.3158 89.0736L49.35 89.399L51.308 86.7257L51.4323 83.0435L49.911 81.884Z" fill="#F5A984"/>
<path d="M60.5198 89.2256C60.5693 89.2593 61.294 85.0721 61.294 85.0721L58.8133 81.1917L56.1148 79.6957L53.1171 79.3955L50.9851 80.0117L50.4746 80.6971C50.967 80.6363 51.4667 80.7037 51.9254 80.8927C52.3841 81.0818 52.7862 81.3861 53.0927 81.7761C53.4667 82.2549 53.6781 82.814 53.9212 83.361C54.0163 83.6072 54.1558 83.8337 54.3326 84.0296C54.5191 84.1991 54.7324 84.3366 54.9638 84.4363C55.2331 84.5635 55.4705 84.6822 55.6482 84.9319C55.867 85.2386 55.8979 85.593 55.8969 85.9604C55.8969 86.1979 55.8483 86.6318 56.0839 86.7842C56.1126 86.8021 56.1443 86.8145 56.1775 86.8207C56.6384 86.9086 56.7684 86.4111 57.1246 85.9258C57.2392 85.7898 57.3773 85.6755 57.5323 85.5883C57.9484 85.319 58.2018 85.5294 58.6076 85.8146C58.7016 85.8776 58.7844 85.956 58.8526 86.0465C58.9251 86.1549 58.9773 86.2756 59.0069 86.4027C59.0929 86.7253 59.0387 86.988 58.9891 87.3181C58.9349 87.6716 58.7806 87.8951 58.6011 88.1896C58.4134 88.5246 58.274 88.8844 58.1868 89.2583C58.0707 89.6415 58.0291 90.0433 58.0643 90.4421C58.0798 90.6616 58.1595 90.8716 58.2934 91.0461C58.7049 91.5286 59.4417 91.307 59.7633 90.8797C59.9962 90.5692 60.0887 90.1316 60.2561 89.7847C60.272 89.7408 60.531 89.2331 60.5198 89.2256Z" fill="#2F1E13"/>
<path d="M59.0782 87.032C58.9426 87.8034 58.4012 88.5187 57.8561 89.0423C57.6083 89.2798 57.454 89.494 57.152 89.6576C56.9752 89.7545 56.7756 89.802 56.5742 89.7951L56.0664 89.162C56.0664 89.162 56.2123 87.896 56.3077 87.0114C56.4891 86.9759 56.6209 86.8011 56.705 86.6374C56.8518 86.3569 56.9856 86.0764 57.2034 85.8389C57.44 85.5808 57.7766 85.391 58.1263 85.4134C58.8426 85.4611 59.1548 86.1933 59.1034 86.83C59.0978 86.9002 59.0894 86.9665 59.0782 87.032Z" fill="#F5A984"/>
<path d="M51.9119 86.5111C51.391 86.6261 50.9768 87.0965 50.8188 87.5948C50.5457 88.4794 51.2265 89.306 52.1363 89.2779C53.0657 89.2489 53.7782 88.2849 53.4902 87.3873C53.2742 86.7168 52.5533 86.3699 51.9119 86.5111Z" fill="#EF7F83"/>
<path d="M59.1222 91.2781C59.1222 91.2781 59.5617 93.8962 61.313 95.3371L60.6585 96.9126L57.5495 97.6981L56.8828 95.8878L57.1568 94.4189L59.1222 91.2781Z" fill="#F5A984"/>
<path d="M60.451 94.4077C59.6674 95.8505 58.4247 97.0651 57.1362 98.0815C56.7041 98.4097 56.2145 98.6546 55.6925 98.8033C55.474 98.8747 55.2391 98.8787 55.0184 98.8146C54.9091 98.7805 54.8121 98.7153 54.7394 98.6269C54.6667 98.5385 54.6213 98.4309 54.6088 98.3171L53.541 99.7271L53.9422 102.122L64.2117 99.6028C64.2117 99.6028 63.7591 96.8911 63.0532 96.4236C61.1597 95.1735 60.451 94.4077 60.451 94.4077Z" fill="#EF7F83"/>
<rect x="10" y="31" width="54" height="48" rx="1.60938" fill="white"/>
<path d="M16.1035 38.7786H17.7336C18.4895 38.7786 19.1088 39.2573 19.108 40.0945C19.1072 40.9318 18.4943 41.4398 17.7336 41.4627L16.8419 41.496C16.8419 42.1345 16.8419 42.4534 16.8419 43.092L16.1043 43.1371C16.1043 41.3931 16.1043 40.5234 16.1035 38.7786ZM17.7336 40.7434C18.0854 40.7339 18.3688 40.506 18.3688 40.1104C18.3688 39.7147 18.0854 39.4979 17.7336 39.5011L16.8419 39.5098V40.7703L17.7336 40.7434Z" fill="#CA9166"/>
<path d="M21.1819 38.7786H21.9203C21.9203 40.1238 21.9203 40.798 21.9203 42.144C22.5793 42.1195 22.9088 42.1076 23.5671 42.0863V42.7581C22.6143 42.7961 22.1379 42.8167 21.1851 42.861C21.1795 41.2277 21.1819 40.4127 21.1819 38.7786Z" fill="#CA9166"/>
<path d="M25.641 38.7786H28.3668C28.3668 39.0366 28.3668 39.1663 28.3668 39.4243L26.3818 39.4338C26.3818 39.8168 26.3818 40.0083 26.3818 40.3913C27.0861 40.3818 27.4386 40.3778 28.1429 40.3699V41.0164C27.4386 41.0267 27.0869 41.033 26.3826 41.0457C26.3826 41.4287 26.3826 41.6202 26.3826 42.0032C27.1766 41.9826 27.5736 41.9731 28.3676 41.9557V42.6014C27.2766 42.6291 26.7312 42.6449 25.641 42.6805C25.6371 41.1201 25.641 40.3406 25.641 38.7786Z" fill="#CA9166"/>
<path d="M41.0162 38.7786H41.7546C41.7546 40.2773 41.7546 41.0259 41.7546 42.5247L41.0162 42.5152C41.0162 41.0204 41.017 40.2742 41.0162 38.7786Z" fill="#CA9166"/>
<path d="M44.9925 39.4212H43.8674V38.7826H46.8489C46.8489 39.0429 46.8489 39.1735 46.8489 39.4338L45.7301 39.4283C45.7301 40.7007 45.7301 41.3353 45.7301 42.6078L44.991 42.5896C44.9941 41.3195 44.9933 40.6873 44.9925 39.4212Z" fill="#CA9166"/>
<path d="M49.6668 38.7786C49.6668 39.8136 49.6668 40.3304 49.6668 41.3638C49.6668 41.7848 50.0305 42.1243 50.4965 42.1401C50.9626 42.1559 51.3255 41.8346 51.3247 41.4073C51.3247 40.3565 51.3247 39.831 51.3247 38.7786H52.0631C52.0631 39.839 52.0631 40.3683 52.0631 41.4287C52.0631 42.2327 51.3668 42.8475 50.4973 42.8119C49.6279 42.7763 48.9284 42.1258 48.9276 41.3464C48.9276 40.3177 48.9276 39.8065 48.9276 38.7786H49.6668Z" fill="#CA9166"/>
<path d="M54.4379 38.7786H55.7083C55.9955 38.7783 56.28 38.8344 56.5454 38.9438C56.8109 39.0533 57.052 39.2138 57.2552 39.4162C57.4583 39.6186 57.6194 39.859 57.7291 40.1235C57.8389 40.3881 57.8952 40.6716 57.8949 40.9579C57.8985 41.2388 57.8435 41.5175 57.7334 41.7762C57.6233 42.0349 57.4606 42.268 57.2554 42.4607C57.0502 42.6535 56.8071 42.8016 56.5415 42.8959C56.2759 42.9901 55.9934 43.0283 55.7122 43.0082C55.2033 42.9805 54.9492 42.9662 54.4418 42.9401C54.4386 41.276 54.4386 40.4451 54.4379 38.7786ZM55.7083 42.2952C55.8948 42.3087 56.082 42.2834 56.2582 42.221C56.4344 42.1585 56.5957 42.0603 56.7318 41.9325C56.8679 41.8047 56.9758 41.6501 57.0488 41.4785C57.1218 41.3069 57.1582 41.1221 57.1557 40.9357C57.1549 40.5532 57.002 40.1867 56.7306 39.9163C56.4592 39.6459 56.0912 39.4938 55.7075 39.4932L55.1731 39.4884C55.1731 40.6018 55.1731 41.1573 55.1731 42.2707L55.7083 42.2952Z" fill="#CA9166"/>
<path d="M59.4146 38.379V37.6344H59.7458C59.7972 37.6322 59.8484 37.6392 59.8974 37.6549C59.9312 37.6686 59.9592 37.6935 59.9768 37.7254C59.9974 37.7592 60.0082 37.7981 60.0078 37.8377C60.0085 37.8623 60.0043 37.8868 59.9955 37.9098C59.9866 37.9327 59.9732 37.9537 59.9561 37.9715C59.9126 38.0117 59.8566 38.036 59.7973 38.0403C59.8189 38.0497 59.839 38.0622 59.8569 38.0775C59.8875 38.107 59.9141 38.1402 59.9363 38.1764L60.0657 38.379H59.9419L59.8426 38.2207C59.814 38.1764 59.7902 38.1424 59.7711 38.1186C59.7574 38.0993 59.7405 38.0825 59.7211 38.0688C59.7074 38.0594 59.692 38.0527 59.6758 38.049C59.6576 38.0473 59.6393 38.0473 59.6211 38.049H59.5123V38.3798L59.4146 38.379ZM59.5139 37.9628H59.7259C59.7619 37.9643 59.7979 37.9598 59.8323 37.9493C59.8561 37.941 59.8764 37.9251 59.8902 37.9042C59.903 37.8843 59.9099 37.8613 59.9101 37.8377C59.9106 37.8212 59.9074 37.8049 59.9006 37.7898C59.8939 37.7747 59.8838 37.7614 59.8712 37.7507C59.836 37.7253 59.793 37.7132 59.7497 37.7167H59.5115L59.5139 37.9628Z" fill="#CA9166"/>
<path d="M59.7148 38.8206C59.5531 38.8207 59.395 38.7731 59.2605 38.6837C59.1261 38.5942 59.0212 38.4671 58.9593 38.3183C58.8974 38.1694 58.8811 38.0057 58.9126 37.8476C58.9441 37.6896 59.0219 37.5444 59.1362 37.4305C59.2506 37.3166 59.3962 37.239 59.5548 37.2076C59.7134 37.1762 59.8777 37.1924 60.027 37.2542C60.1763 37.3159 60.3039 37.4204 60.3936 37.5544C60.4833 37.6884 60.5312 37.846 60.531 38.0071C60.5308 38.2228 60.4448 38.4296 60.2917 38.5821C60.1387 38.7346 59.9312 38.8203 59.7148 38.8206ZM59.7148 37.2775C59.57 37.2775 59.4285 37.3203 59.3081 37.4005C59.1877 37.4806 59.0939 37.5946 59.0385 37.7279C58.9831 37.8612 58.9685 38.0079 58.9968 38.1494C59.025 38.2909 59.0947 38.4209 59.1971 38.523C59.2995 38.625 59.4299 38.6945 59.5719 38.7227C59.7139 38.7508 59.8611 38.7364 59.9949 38.6811C60.1287 38.6259 60.243 38.5324 60.3234 38.4124C60.4039 38.2924 60.4468 38.1514 60.4468 38.0071C60.4468 37.8136 60.3697 37.628 60.2324 37.4912C60.0951 37.3544 59.9089 37.2775 59.7148 37.2775Z" fill="#CA9166"/>
<path d="M34.3631 38.7842L33.4325 38.7786L31.7604 40.1721L31.5619 40.692C31.2177 40.5282 30.9274 40.27 30.7252 39.9476C30.523 39.6253 30.4171 39.2521 30.4201 38.872C30.4201 37.7642 31.303 36.8621 32.3916 36.8621C32.9058 36.8663 33.3983 37.0689 33.7659 37.4273C34.1334 37.7856 34.3475 38.2719 34.3631 38.7842Z" fill="#DF6F57"/>
<path d="M34.7569 38.1084C32.4297 38.1084 30.536 40.0328 30.536 42.4012C30.536 42.4582 30.5361 42.5199 30.54 42.5769L31.284 42.5642C31.284 42.5112 31.284 42.4543 31.284 42.4012C31.284 40.4443 32.8426 38.8506 34.7609 38.8506C36.6792 38.8506 38.2386 40.4443 38.2386 42.4012C38.2393 42.4393 38.2379 42.4773 38.2346 42.5152C38.48 42.5152 38.7293 42.5199 38.9786 42.5199C38.9806 42.4804 38.9806 42.4408 38.9786 42.4012C38.9786 40.0328 37.0849 38.1084 34.7569 38.1084Z" fill="#CA9166"/>
<path d="M29.3107 49.9043V48.9186H29.4586V49.9043H29.3107ZM29.6555 49.9043V49.2002H29.7823L29.7964 49.2706H29.8034C29.8194 49.2546 29.8367 49.2406 29.8555 49.2284C29.9006 49.2002 29.9513 49.1861 30.0076 49.1861C30.093 49.1861 30.1611 49.2129 30.2118 49.2664C30.2634 49.319 30.2892 49.3908 30.2892 49.4818V49.9043H30.1484V49.4818C30.1484 49.4358 30.132 49.3964 30.0991 49.3635C30.0672 49.3297 30.0273 49.3129 29.9794 49.3129C29.9278 49.3129 29.8841 49.3297 29.8485 49.3635C29.8137 49.3964 29.7964 49.4358 29.7964 49.4818V49.9043H29.6555ZM30.6261 49.6776C30.6636 49.7161 30.711 49.7353 30.7683 49.7353C30.8256 49.7353 30.8725 49.7161 30.9091 49.6776C30.9467 49.6381 30.9654 49.587 30.9654 49.5241C30.9654 49.4612 30.9467 49.4105 30.9091 49.372C30.8725 49.3326 30.8256 49.3129 30.7683 49.3129C30.711 49.3129 30.6636 49.3326 30.6261 49.372C30.5895 49.4105 30.5711 49.4612 30.5711 49.5241C30.5711 49.587 30.5895 49.6381 30.6261 49.6776ZM30.4514 49.9465H30.5923C30.596 49.9813 30.6139 50.0109 30.6458 50.0353C30.6786 50.0606 30.7218 50.0733 30.7753 50.0733C30.8317 50.0733 30.8772 50.0559 30.9119 50.0212C30.9476 49.9874 30.9654 49.9437 30.9654 49.8902V49.7776H30.9584C30.9424 49.7935 30.9284 49.8062 30.9162 49.8156C30.904 49.825 30.8819 49.8353 30.85 49.8466C30.8181 49.8569 30.7814 49.8621 30.7401 49.8621C30.6509 49.8621 30.5768 49.8311 30.5176 49.7691C30.4594 49.7062 30.4303 49.6245 30.4303 49.5241C30.4303 49.4236 30.4594 49.3424 30.5176 49.2805C30.5768 49.2176 30.6509 49.1861 30.7401 49.1861C30.834 49.1861 30.9068 49.2166 30.9584 49.2776H30.9654L30.9795 49.2002H31.1063V49.8902C31.1063 49.9841 31.0772 50.0592 31.019 50.1155C30.9607 50.1719 30.8795 50.2 30.7753 50.2C30.7209 50.2 30.6721 50.1916 30.6289 50.1747C30.5857 50.1578 30.5519 50.1357 30.5275 50.1085C30.504 50.0822 30.4857 50.055 30.4726 50.0268C30.4604 49.9996 30.4533 49.9728 30.4514 49.9465ZM31.2893 49.9043V49.2002H31.409L31.4231 49.2636H31.4301C31.431 49.2626 31.4338 49.2593 31.4385 49.2537C31.4442 49.2481 31.4475 49.2443 31.4484 49.2424C31.4503 49.2406 31.454 49.2373 31.4597 49.2326C31.4653 49.227 31.47 49.2232 31.4737 49.2213C31.4775 49.2194 31.4827 49.2171 31.4892 49.2143C31.4958 49.2105 31.5024 49.2082 31.509 49.2072C31.5165 49.2054 31.5249 49.204 31.5343 49.203C31.5437 49.2011 31.5535 49.2002 31.5639 49.2002H31.6906V49.3269H31.578C31.4794 49.3269 31.4301 49.3758 31.4301 49.4734V49.9043H31.2893ZM31.8748 49.4959H32.2903C32.2827 49.4387 32.2607 49.3926 32.2241 49.3579C32.1875 49.3232 32.1415 49.3058 32.0861 49.3058C32.0279 49.3058 31.9809 49.3232 31.9452 49.3579C31.9096 49.3917 31.8861 49.4377 31.8748 49.4959ZM32.255 49.7001H32.4029C32.3823 49.7564 32.3447 49.8071 32.2903 49.8522C32.2367 49.8963 32.1687 49.9184 32.0861 49.9184C31.9837 49.9184 31.8992 49.8846 31.8326 49.817C31.7669 49.7494 31.734 49.6611 31.734 49.5522C31.734 49.4433 31.7669 49.3551 31.8326 49.2875C31.8992 49.2199 31.9837 49.1861 32.0861 49.1861C32.1818 49.1861 32.2621 49.219 32.3269 49.2847C32.3916 49.3504 32.424 49.4325 32.424 49.5311C32.424 49.5396 32.4226 49.5565 32.4198 49.5818L32.417 49.6015H31.8748C31.8823 49.6616 31.9053 49.7095 31.9438 49.7452C31.9823 49.7808 32.0297 49.7987 32.0861 49.7987C32.1255 49.7987 32.1602 49.7893 32.1903 49.7705C32.2213 49.7508 32.2428 49.7273 32.255 49.7001ZM32.523 49.6931H32.6639C32.6639 49.7184 32.6779 49.7424 32.7061 49.7649C32.7343 49.7874 32.7742 49.7987 32.8258 49.7987C32.8746 49.7987 32.9112 49.7898 32.9357 49.7719C32.961 49.7531 32.9737 49.7316 32.9737 49.7071C32.9737 49.6818 32.9657 49.6621 32.9497 49.648C32.9338 49.633 32.9065 49.6222 32.8681 49.6156L32.7413 49.5945C32.6052 49.572 32.5371 49.5039 32.5371 49.3903C32.5371 49.3312 32.5611 49.2823 32.6089 49.2438C32.6578 49.2054 32.7277 49.1861 32.8188 49.1861C32.8666 49.1861 32.9098 49.1936 32.9483 49.2086C32.9878 49.2237 33.0183 49.2429 33.0399 49.2664C33.0624 49.2899 33.0793 49.3138 33.0906 49.3382C33.1018 49.3617 33.1075 49.3837 33.1075 49.4044H32.9666C32.9666 49.38 32.954 49.3574 32.9286 49.3368C32.9033 49.3161 32.8666 49.3058 32.8188 49.3058C32.7718 49.3058 32.7366 49.3143 32.7132 49.3312C32.6897 49.3471 32.6779 49.3668 32.6779 49.3903C32.6779 49.4325 32.7132 49.4607 32.7836 49.4748L32.9103 49.4959C33.0464 49.5184 33.1145 49.5889 33.1145 49.7071C33.1145 49.7672 33.0896 49.8175 33.0399 49.8578C32.991 49.8982 32.9197 49.9184 32.8258 49.9184C32.7732 49.9184 32.7258 49.9104 32.6836 49.8944C32.6423 49.8785 32.6104 49.8583 32.5878 49.8339C32.5662 49.8095 32.5498 49.7855 32.5385 49.7621C32.5282 49.7377 32.523 49.7147 32.523 49.6931ZM33.7135 49.9043L33.6994 49.8268H33.6924C33.6783 49.8447 33.6614 49.8602 33.6417 49.8733C33.5966 49.9034 33.5431 49.9184 33.4811 49.9184C33.4041 49.9184 33.3426 49.8982 33.2966 49.8578C33.2506 49.8175 33.2276 49.7649 33.2276 49.7001C33.2276 49.6278 33.2516 49.571 33.2995 49.5297C33.3483 49.4884 33.4206 49.4678 33.5163 49.4678H33.6924V49.4537C33.6924 49.4077 33.6792 49.3715 33.6529 49.3452C33.6266 49.319 33.5905 49.3058 33.5445 49.3058C33.4994 49.3058 33.4647 49.3161 33.4403 49.3368C33.4159 49.3565 33.4013 49.379 33.3966 49.4044H33.2558C33.2596 49.3424 33.2873 49.2908 33.3389 49.2495C33.3905 49.2072 33.4591 49.1861 33.5445 49.1861C33.6356 49.1861 33.7064 49.2101 33.7571 49.2579C33.8078 49.3058 33.8332 49.3711 33.8332 49.4537V49.9043H33.7135ZM33.6924 49.6086V49.5804H33.5234C33.4717 49.5804 33.4328 49.5907 33.4065 49.6114C33.3811 49.632 33.3685 49.6593 33.3685 49.6931C33.3685 49.7259 33.3793 49.7517 33.4009 49.7705C33.4224 49.7893 33.4539 49.7987 33.4952 49.7987C33.559 49.7987 33.6079 49.7823 33.6417 49.7494C33.6755 49.7156 33.6924 49.6687 33.6924 49.6086ZM34.3972 49.7564V49.334H34.2845V49.2002H34.3972V49.003H34.538V49.2002H34.6999V49.334H34.538V49.7353C34.538 49.7635 34.5521 49.7776 34.5802 49.7776H34.6999V49.9043H34.5521C34.5023 49.9043 34.4638 49.8912 34.4366 49.8649C34.4103 49.8386 34.3972 49.8024 34.3972 49.7564ZM34.8277 49.6227V49.2002H34.9685V49.6227C34.9685 49.6687 34.9844 49.7086 35.0164 49.7424C35.0492 49.7752 35.0896 49.7916 35.1375 49.7916C35.1891 49.7916 35.2323 49.7752 35.267 49.7424C35.3027 49.7086 35.3205 49.6687 35.3205 49.6227V49.2002H35.4614V49.9043H35.3346L35.3205 49.8339H35.3135C35.2975 49.8498 35.2802 49.8639 35.2614 49.8761C35.2163 49.9043 35.1656 49.9184 35.1093 49.9184C35.0239 49.9184 34.9553 49.8921 34.9037 49.8395C34.853 49.786 34.8277 49.7137 34.8277 49.6227ZM35.5952 49.6931H35.7361C35.7361 49.7184 35.7501 49.7424 35.7783 49.7649C35.8065 49.7874 35.8464 49.7987 35.898 49.7987C35.9468 49.7987 35.9834 49.7898 36.0078 49.7719C36.0332 49.7531 36.0459 49.7316 36.0459 49.7071C36.0459 49.6818 36.0379 49.6621 36.0219 49.648C36.006 49.633 35.9787 49.6222 35.9402 49.6156L35.8135 49.5945C35.6774 49.572 35.6093 49.5039 35.6093 49.3903C35.6093 49.3312 35.6333 49.2823 35.6811 49.2438C35.73 49.2054 35.7999 49.1861 35.891 49.1861C35.9388 49.1861 35.982 49.1936 36.0205 49.2086C36.0599 49.2237 36.0905 49.2429 36.1121 49.2664C36.1346 49.2899 36.1515 49.3138 36.1627 49.3382C36.174 49.3617 36.1796 49.3837 36.1796 49.4044H36.0388C36.0388 49.38 36.0262 49.3574 36.0008 49.3368C35.9755 49.3161 35.9388 49.3058 35.891 49.3058C35.844 49.3058 35.8088 49.3143 35.7853 49.3312C35.7619 49.3471 35.7501 49.3668 35.7501 49.3903C35.7501 49.4325 35.7853 49.4607 35.8558 49.4748L35.9825 49.4959C36.1186 49.5184 36.1867 49.5889 36.1867 49.7071C36.1867 49.7672 36.1618 49.8175 36.1121 49.8578C36.0632 49.8982 35.9919 49.9184 35.898 49.9184C35.8454 49.9184 35.798 49.9104 35.7558 49.8944C35.7145 49.8785 35.6825 49.8583 35.66 49.8339C35.6384 49.8095 35.622 49.7855 35.6107 49.7621C35.6004 49.7377 35.5952 49.7147 35.5952 49.6931ZM37.1593 49.6579H37.3002C37.2936 49.687 37.2828 49.7156 37.2678 49.7438C37.2537 49.7719 37.234 49.7996 37.2086 49.8268C37.1842 49.8541 37.1518 49.8761 37.1115 49.893C37.0711 49.9099 37.026 49.9184 36.9763 49.9184C36.8739 49.9184 36.7894 49.8846 36.7228 49.817C36.6571 49.7494 36.6242 49.6611 36.6242 49.5522C36.6242 49.4433 36.6571 49.3551 36.7228 49.2875C36.7894 49.2199 36.8739 49.1861 36.9763 49.1861C37.0701 49.1861 37.1438 49.2129 37.1974 49.2664C37.2509 49.319 37.2851 49.3767 37.3002 49.4396H37.1593C37.1293 49.3551 37.0683 49.3129 36.9763 49.3129C36.9152 49.3129 36.8646 49.3349 36.8242 49.379C36.7848 49.4222 36.765 49.48 36.765 49.5522C36.765 49.6245 36.7848 49.6827 36.8242 49.7269C36.8646 49.77 36.9152 49.7916 36.9763 49.7916C37.027 49.7916 37.0678 49.778 37.0988 49.7508C37.1298 49.7236 37.1499 49.6926 37.1593 49.6579ZM37.4405 49.9043V49.2002H37.5602L37.5743 49.2636H37.5814C37.5823 49.2626 37.5851 49.2593 37.5898 49.2537C37.5954 49.2481 37.5987 49.2443 37.5997 49.2424C37.6015 49.2406 37.6053 49.2373 37.6109 49.2326C37.6166 49.227 37.6213 49.2232 37.625 49.2213C37.6288 49.2194 37.6339 49.2171 37.6405 49.2143C37.6471 49.2105 37.6536 49.2082 37.6602 49.2072C37.6677 49.2054 37.6762 49.204 37.6856 49.203C37.695 49.2011 37.7048 49.2002 37.7151 49.2002H37.8419V49.3269H37.7292C37.6306 49.3269 37.5814 49.3758 37.5814 49.4734V49.9043H37.4405ZM38.0261 49.4959H38.4415C38.434 49.4387 38.4119 49.3926 38.3753 49.3579C38.3387 49.3232 38.2927 49.3058 38.2373 49.3058C38.1791 49.3058 38.1322 49.3232 38.0965 49.3579C38.0608 49.3917 38.0374 49.4377 38.0261 49.4959ZM38.4063 49.7001H38.5542C38.5335 49.7564 38.496 49.8071 38.4415 49.8522C38.388 49.8963 38.3199 49.9184 38.2373 49.9184C38.135 49.9184 38.0505 49.8846 37.9838 49.817C37.9181 49.7494 37.8853 49.6611 37.8853 49.5522C37.8853 49.4433 37.9181 49.3551 37.9838 49.2875C38.0505 49.2199 38.135 49.1861 38.2373 49.1861C38.3331 49.1861 38.4134 49.219 38.4781 49.2847C38.5429 49.3504 38.5753 49.4325 38.5753 49.5311C38.5753 49.5396 38.5739 49.5565 38.5711 49.5818L38.5683 49.6015H38.0261C38.0336 49.6616 38.0566 49.7095 38.0951 49.7452C38.1336 49.7808 38.181 49.7987 38.2373 49.7987C38.2768 49.7987 38.3115 49.7893 38.3415 49.7705C38.3725 49.7508 38.3941 49.7273 38.4063 49.7001ZM39.2517 49.9043L39.2376 49.8198H39.2305C39.1808 49.8855 39.108 49.9184 39.0123 49.9184C38.9184 49.9184 38.8409 49.8851 38.7799 49.8184C38.7189 49.7517 38.6884 49.663 38.6884 49.5522C38.6884 49.4415 38.7189 49.3528 38.7799 49.2861C38.8409 49.2194 38.9184 49.1861 39.0123 49.1861C39.0536 49.1861 39.0911 49.1936 39.1249 49.2086C39.1597 49.2227 39.1822 49.2349 39.1925 49.2453C39.2029 49.2546 39.2155 49.2678 39.2305 49.2847H39.2376V48.9186H39.3784V49.9043H39.2517ZM38.8869 49.7255C38.9264 49.7696 38.9752 49.7916 39.0334 49.7916C39.0916 49.7916 39.14 49.7696 39.1784 49.7255C39.2179 49.6813 39.2376 49.6236 39.2376 49.5522C39.2376 49.4809 39.2179 49.4232 39.1784 49.379C39.14 49.3349 39.0916 49.3129 39.0334 49.3129C38.9752 49.3129 38.9264 49.3349 38.8869 49.379C38.8485 49.4232 38.8292 49.4809 38.8292 49.5522C38.8292 49.6236 38.8485 49.6813 38.8869 49.7255ZM39.6736 49.4959H40.089C40.0815 49.4387 40.0594 49.3926 40.0228 49.3579C39.9862 49.3232 39.9402 49.3058 39.8848 49.3058C39.8266 49.3058 39.7797 49.3232 39.744 49.3579C39.7083 49.3917 39.6848 49.4377 39.6736 49.4959ZM40.0538 49.7001H40.2017C40.181 49.7564 40.1435 49.8071 40.089 49.8522C40.0355 49.8963 39.9674 49.9184 39.8848 49.9184C39.7825 49.9184 39.698 49.8846 39.6313 49.817C39.5656 49.7494 39.5328 49.6611 39.5328 49.5522C39.5328 49.4433 39.5656 49.3551 39.6313 49.2875C39.698 49.2199 39.7825 49.1861 39.8848 49.1861C39.9806 49.1861 40.0608 49.219 40.1256 49.2847C40.1904 49.3504 40.2228 49.4325 40.2228 49.5311C40.2228 49.5396 40.2214 49.5565 40.2186 49.5818L40.2157 49.6015H39.6736C39.6811 49.6616 39.7041 49.7095 39.7426 49.7452C39.7811 49.7808 39.8285 49.7987 39.8848 49.7987C39.9242 49.7987 39.959 49.7893 39.989 49.7705C40.02 49.7508 40.0416 49.7273 40.0538 49.7001ZM40.3711 49.9043V49.2002H40.4978L40.5119 49.2706H40.5189C40.5349 49.2546 40.5523 49.2406 40.571 49.2284C40.6161 49.2002 40.6668 49.1861 40.7231 49.1861C40.8086 49.1861 40.8766 49.2129 40.9273 49.2664C40.979 49.319 41.0048 49.3908 41.0048 49.4818V49.9043H40.864V49.4818C40.864 49.4358 40.8475 49.3964 40.8147 49.3635C40.7827 49.3297 40.7428 49.3129 40.695 49.3129C40.6433 49.3129 40.5997 49.3297 40.564 49.3635C40.5293 49.3964 40.5119 49.4358 40.5119 49.4818V49.9043H40.3711ZM41.681 49.6579H41.8218C41.8152 49.687 41.8044 49.7156 41.7894 49.7438C41.7753 49.7719 41.7556 49.7996 41.7303 49.8268C41.7059 49.8541 41.6735 49.8761 41.6331 49.893C41.5927 49.9099 41.5477 49.9184 41.4979 49.9184C41.3956 49.9184 41.3111 49.8846 41.2444 49.817C41.1787 49.7494 41.1459 49.6611 41.1459 49.5522C41.1459 49.4433 41.1787 49.3551 41.2444 49.2875C41.3111 49.2199 41.3956 49.1861 41.4979 49.1861C41.5918 49.1861 41.6655 49.2129 41.719 49.2664C41.7725 49.319 41.8068 49.3767 41.8218 49.4396H41.681C41.6509 49.3551 41.5899 49.3129 41.4979 49.3129C41.4369 49.3129 41.3862 49.3349 41.3458 49.379C41.3064 49.4222 41.2867 49.48 41.2867 49.5522C41.2867 49.6245 41.3064 49.6827 41.3458 49.7269C41.3862 49.77 41.4369 49.7916 41.4979 49.7916C41.5486 49.7916 41.5895 49.778 41.6204 49.7508C41.6514 49.7236 41.6716 49.6926 41.681 49.6579ZM41.9622 49.9043V49.2002H42.103V49.9043H41.9622ZM41.9551 49.0664V48.9186H42.11V49.0664H41.9551ZM42.7444 49.9043L42.7303 49.8268H42.7233C42.7092 49.8447 42.6923 49.8602 42.6726 49.8733C42.6275 49.9034 42.574 49.9184 42.512 49.9184C42.4351 49.9184 42.3736 49.8982 42.3276 49.8578C42.2816 49.8175 42.2586 49.7649 42.2586 49.7001C42.2586 49.6278 42.2825 49.571 42.3304 49.5297C42.3792 49.4884 42.4515 49.4678 42.5473 49.4678H42.7233V49.4537C42.7233 49.4077 42.7101 49.3715 42.6838 49.3452C42.6576 49.319 42.6214 49.3058 42.5754 49.3058C42.5304 49.3058 42.4956 49.3161 42.4712 49.3368C42.4468 49.3565 42.4322 49.379 42.4276 49.4044H42.2867C42.2905 49.3424 42.3182 49.2908 42.3698 49.2495C42.4215 49.2072 42.49 49.1861 42.5754 49.1861C42.6665 49.1861 42.7374 49.2101 42.7881 49.2579C42.8388 49.3058 42.8641 49.3711 42.8641 49.4537V49.9043H42.7444ZM42.7233 49.6086V49.5804H42.5543C42.5027 49.5804 42.4637 49.5907 42.4374 49.6114C42.4121 49.632 42.3994 49.6593 42.3994 49.6931C42.3994 49.7259 42.4102 49.7517 42.4318 49.7705C42.4534 49.7893 42.4848 49.7987 42.5261 49.7987C42.59 49.7987 42.6388 49.7823 42.6726 49.7494C42.7064 49.7156 42.7233 49.6687 42.7233 49.6086ZM43.0474 49.9043V48.9186H43.1882V49.9043H43.0474ZM43.4843 49.4959H43.8997C43.8922 49.4387 43.8701 49.3926 43.8335 49.3579C43.7969 49.3232 43.7509 49.3058 43.6955 49.3058C43.6373 49.3058 43.5903 49.3232 43.5547 49.3579C43.519 49.3917 43.4955 49.4377 43.4843 49.4959ZM43.8645 49.7001H44.0123C43.9917 49.7564 43.9541 49.8071 43.8997 49.8522C43.8462 49.8963 43.7781 49.9184 43.6955 49.9184C43.5932 49.9184 43.5087 49.8846 43.442 49.817C43.3763 49.7494 43.3434 49.6611 43.3434 49.5522C43.3434 49.4433 43.3763 49.3551 43.442 49.2875C43.5087 49.2199 43.5932 49.1861 43.6955 49.1861C43.7912 49.1861 43.8715 49.219 43.9363 49.2847C44.0011 49.3504 44.0335 49.4325 44.0335 49.5311C44.0335 49.5396 44.032 49.5565 44.0292 49.5818L44.0264 49.6015H43.4843C43.4918 49.6616 43.5148 49.7095 43.5533 49.7452C43.5918 49.7808 43.6392 49.7987 43.6955 49.7987C43.7349 49.7987 43.7697 49.7893 43.7997 49.7705C43.8307 49.7508 43.8523 49.7273 43.8645 49.7001ZM44.1325 49.6931H44.2733C44.2733 49.7184 44.2874 49.7424 44.3155 49.7649C44.3437 49.7874 44.3836 49.7987 44.4352 49.7987C44.4841 49.7987 44.5207 49.7898 44.5451 49.7719C44.5704 49.7531 44.5831 49.7316 44.5831 49.7071C44.5831 49.6818 44.5751 49.6621 44.5592 49.648C44.5432 49.633 44.516 49.6222 44.4775 49.6156L44.3507 49.5945C44.2146 49.572 44.1466 49.5039 44.1466 49.3903C44.1466 49.3312 44.1705 49.2823 44.2184 49.2438C44.2672 49.2054 44.3371 49.1861 44.4282 49.1861C44.4761 49.1861 44.5193 49.1936 44.5577 49.2086C44.5972 49.2237 44.6277 49.2429 44.6493 49.2664C44.6718 49.2899 44.6887 49.3138 44.7 49.3382C44.7112 49.3617 44.7169 49.3837 44.7169 49.4044H44.5761C44.5761 49.38 44.5634 49.3574 44.538 49.3368C44.5127 49.3161 44.4761 49.3058 44.4282 49.3058C44.3813 49.3058 44.346 49.3143 44.3226 49.3312C44.2991 49.3471 44.2874 49.3668 44.2874 49.3903C44.2874 49.4325 44.3226 49.4607 44.393 49.4748L44.5197 49.4959C44.6559 49.5184 44.7239 49.5889 44.7239 49.7071C44.7239 49.7672 44.699 49.8175 44.6493 49.8578C44.6005 49.8982 44.5291 49.9184 44.4352 49.9184C44.3827 49.9184 44.3353 49.9104 44.293 49.8944C44.2517 49.8785 44.2198 49.8583 44.1972 49.8339C44.1757 49.8095 44.1592 49.7855 44.148 49.7621C44.1376 49.7377 44.1325 49.7147 44.1325 49.6931Z" fill="#00565D"/>
<rect x="16.1284" y="54.1851" width="41.7432" height="5.23047" rx="0.754395" stroke="#80B7B4" stroke-width="0.100586"/>
<path d="M17.1745 56.04V55.1951H17.3616L17.7056 55.8529H17.7297V55.1951H17.8565V56.04H17.6694L17.3254 55.3822H17.3013V56.04H17.1745ZM18.0253 55.7986V55.4365H18.146V55.7986C18.146 55.8381 18.1597 55.8723 18.187 55.9012C18.2152 55.9294 18.2498 55.9435 18.2908 55.9435C18.3351 55.9435 18.3721 55.9294 18.4019 55.9012C18.4325 55.8723 18.4477 55.8381 18.4477 55.7986V55.4365H18.5684V56.04H18.4598L18.4477 55.9797H18.4417C18.428 55.9934 18.4131 56.0054 18.397 56.0159C18.3584 56.04 18.315 56.0521 18.2667 56.0521C18.1935 56.0521 18.1347 56.0296 18.0905 55.9845C18.047 55.9386 18.0253 55.8767 18.0253 55.7986ZM18.2425 55.34L18.3632 55.1649H18.496L18.3512 55.34H18.2425ZM18.7255 56.04V55.4365H18.8341L18.8462 55.4969H18.8522C18.8635 55.484 18.8775 55.4719 18.8944 55.4607C18.9315 55.4365 18.9697 55.4245 19.0091 55.4245C19.059 55.4245 19.1012 55.4385 19.1358 55.4667C19.1511 55.4812 19.1632 55.4953 19.1721 55.5089H19.1781C19.1886 55.4953 19.2042 55.4812 19.2252 55.4667C19.2702 55.4385 19.3209 55.4245 19.3772 55.4245C19.44 55.4245 19.4919 55.4466 19.533 55.4908C19.574 55.5343 19.5945 55.5902 19.5945 55.6586V56.04H19.4738V55.6598C19.4738 55.6212 19.4625 55.5906 19.44 55.5681C19.4183 55.5448 19.3893 55.5331 19.3531 55.5331C19.3161 55.5331 19.2847 55.5452 19.259 55.5693C19.2332 55.5934 19.2203 55.6236 19.2203 55.6598V56.04H19.0996V55.6598C19.0996 55.6212 19.0884 55.5906 19.0658 55.5681C19.0441 55.5448 19.0151 55.5331 18.9789 55.5331C18.9419 55.5331 18.9105 55.5452 18.8848 55.5693C18.859 55.5934 18.8462 55.6236 18.8462 55.6598V56.04H18.7255ZM19.8356 55.69H20.1917C20.1852 55.6409 20.1663 55.6015 20.1349 55.5717C20.1036 55.5419 20.0641 55.5271 20.0166 55.5271C19.9668 55.5271 19.9265 55.5419 19.8959 55.5717C19.8654 55.6007 19.8452 55.6401 19.8356 55.69ZM20.1615 55.865H20.2882C20.2705 55.9133 20.2383 55.9568 20.1917 55.9954C20.1458 56.0332 20.0875 56.0521 20.0166 56.0521C19.9289 56.0521 19.8565 56.0231 19.7994 55.9652C19.7431 55.9073 19.7149 55.8316 19.7149 55.7383C19.7149 55.6449 19.7431 55.5693 19.7994 55.5114C19.8565 55.4534 19.9289 55.4245 20.0166 55.4245C20.0987 55.4245 20.1675 55.4526 20.223 55.5089C20.2786 55.5653 20.3063 55.6357 20.3063 55.7202C20.3063 55.7274 20.3051 55.7419 20.3027 55.7636L20.3003 55.7805H19.8356C19.842 55.832 19.8617 55.8731 19.8947 55.9036C19.9277 55.9342 19.9684 55.9495 20.0166 55.9495C20.0504 55.9495 20.0802 55.9415 20.106 55.9254C20.1325 55.9085 20.151 55.8884 20.1615 55.865ZM20.4334 56.04V55.4365H20.536L20.5481 55.4908H20.5542C20.555 55.49 20.5574 55.4872 20.5614 55.4824C20.5662 55.4776 20.569 55.4743 20.5698 55.4727C20.5715 55.4711 20.5747 55.4683 20.5795 55.4643C20.5843 55.4595 20.5884 55.4562 20.5916 55.4546C20.5948 55.453 20.5992 55.451 20.6048 55.4486C20.6105 55.4454 20.6161 55.4434 20.6217 55.4426C20.6282 55.4409 20.6354 55.4397 20.6435 55.4389C20.6515 55.4373 20.66 55.4365 20.6688 55.4365H20.7775V55.5452H20.6809C20.5964 55.5452 20.5542 55.587 20.5542 55.6707V56.04H20.4334ZM20.9861 55.888C21.0207 55.925 21.0641 55.9435 21.1164 55.9435C21.1687 55.9435 21.2118 55.925 21.2456 55.888C21.2802 55.8501 21.2975 55.8002 21.2975 55.7383C21.2975 55.6763 21.2802 55.6268 21.2456 55.5898C21.2118 55.552 21.1687 55.5331 21.1164 55.5331C21.0641 55.5331 21.0207 55.552 20.9861 55.5898C20.9523 55.6268 20.9354 55.6763 20.9354 55.7383C20.9354 55.8002 20.9523 55.8501 20.9861 55.888ZM21.3325 55.9652C21.2761 56.0231 21.2041 56.0521 21.1164 56.0521C21.0287 56.0521 20.9563 56.0231 20.8991 55.9652C20.8428 55.9073 20.8147 55.8316 20.8147 55.7383C20.8147 55.6449 20.8428 55.5693 20.8991 55.5114C20.9563 55.4534 21.0287 55.4245 21.1164 55.4245C21.2041 55.4245 21.2761 55.4534 21.3325 55.5114C21.3896 55.5693 21.4182 55.6449 21.4182 55.7383C21.4182 55.8316 21.3896 55.9073 21.3325 55.9652ZM22.2817 56.04L22.2696 55.9676H22.2636C22.221 56.0239 22.1586 56.0521 22.0765 56.0521C21.9961 56.0521 21.9297 56.0235 21.8774 55.9664C21.8251 55.9093 21.7989 55.8332 21.7989 55.7383C21.7989 55.6433 21.8251 55.5673 21.8774 55.5102C21.9297 55.453 21.9961 55.4245 22.0765 55.4245C22.1119 55.4245 22.1441 55.4309 22.1731 55.4438C22.2029 55.4558 22.2222 55.4663 22.231 55.4751C22.2399 55.4832 22.2507 55.4945 22.2636 55.5089H22.2696V55.1951H22.3903V56.04H22.2817ZM21.9691 55.8867C22.0029 55.9246 22.0447 55.9435 22.0946 55.9435C22.1445 55.9435 22.186 55.9246 22.2189 55.8867C22.2527 55.8489 22.2696 55.7994 22.2696 55.7383C22.2696 55.6771 22.2527 55.6276 22.2189 55.5898C22.186 55.552 22.1445 55.5331 22.0946 55.5331C22.0447 55.5331 22.0029 55.552 21.9691 55.5898C21.9361 55.6276 21.9196 55.6771 21.9196 55.7383C21.9196 55.7994 21.9361 55.8489 21.9691 55.8867ZM22.6434 55.69H22.9994C22.993 55.6409 22.9741 55.6015 22.9427 55.5717C22.9113 55.5419 22.8719 55.5271 22.8244 55.5271C22.7745 55.5271 22.7343 55.5419 22.7037 55.5717C22.6731 55.6007 22.653 55.6401 22.6434 55.69ZM22.9693 55.865H23.096C23.0783 55.9133 23.0461 55.9568 22.9994 55.9954C22.9536 56.0332 22.8952 56.0521 22.8244 56.0521C22.7367 56.0521 22.6643 56.0231 22.6071 55.9652C22.5508 55.9073 22.5227 55.8316 22.5227 55.7383C22.5227 55.6449 22.5508 55.5693 22.6071 55.5114C22.6643 55.4534 22.7367 55.4245 22.8244 55.4245C22.9065 55.4245 22.9753 55.4526 23.0308 55.5089C23.0863 55.5653 23.1141 55.6357 23.1141 55.7202C23.1141 55.7274 23.1129 55.7419 23.1105 55.7636L23.1081 55.7805H22.6434C22.6498 55.832 22.6695 55.8731 22.7025 55.9036C22.7355 55.9342 22.7761 55.9495 22.8244 55.9495C22.8582 55.9495 22.888 55.9415 22.9137 55.9254C22.9403 55.9085 22.9588 55.8884 22.9693 55.865ZM23.9538 55.8288H24.0745C24.0689 55.8538 24.0596 55.8783 24.0467 55.9024C24.0347 55.9266 24.0178 55.9503 23.996 55.9737C23.9751 55.997 23.9473 56.0159 23.9127 56.0304C23.8781 56.0449 23.8395 56.0521 23.7969 56.0521C23.7092 56.0521 23.6367 56.0231 23.5796 55.9652C23.5233 55.9073 23.4951 55.8316 23.4951 55.7383C23.4951 55.6449 23.5233 55.5693 23.5796 55.5114C23.6367 55.4534 23.7092 55.4245 23.7969 55.4245C23.8773 55.4245 23.9405 55.4474 23.9864 55.4933C24.0322 55.5383 24.0616 55.5878 24.0745 55.6417H23.9538C23.928 55.5693 23.8757 55.5331 23.7969 55.5331C23.7446 55.5331 23.7011 55.552 23.6665 55.5898C23.6327 55.6268 23.6158 55.6763 23.6158 55.7383C23.6158 55.8002 23.6327 55.8501 23.6665 55.888C23.7011 55.925 23.7446 55.9435 23.7969 55.9435C23.8403 55.9435 23.8753 55.9318 23.9019 55.9085C23.9284 55.8851 23.9457 55.8586 23.9538 55.8288ZM24.336 55.888C24.3706 55.925 24.4141 55.9435 24.4664 55.9435C24.5187 55.9435 24.5618 55.925 24.5955 55.888C24.6301 55.8501 24.6474 55.8002 24.6474 55.7383C24.6474 55.6763 24.6301 55.6268 24.5955 55.5898C24.5618 55.552 24.5187 55.5331 24.4664 55.5331C24.4141 55.5331 24.3706 55.552 24.336 55.5898C24.3022 55.6268 24.2853 55.6763 24.2853 55.7383C24.2853 55.8002 24.3022 55.8501 24.336 55.888ZM24.6825 55.9652C24.6261 56.0231 24.5541 56.0521 24.4664 56.0521C24.3787 56.0521 24.3063 56.0231 24.2491 55.9652C24.1928 55.9073 24.1646 55.8316 24.1646 55.7383C24.1646 55.6449 24.1928 55.5693 24.2491 55.5114C24.3063 55.4534 24.3787 55.4245 24.4664 55.4245C24.5541 55.4245 24.6261 55.4534 24.6825 55.5114C24.7396 55.5693 24.7682 55.6449 24.7682 55.7383C24.7682 55.8316 24.7396 55.9073 24.6825 55.9652ZM24.895 56.04V55.4365H25.0036L25.0157 55.4969H25.0217C25.0354 55.4832 25.0503 55.4711 25.0664 55.4607C25.105 55.4365 25.1485 55.4245 25.1967 55.4245C25.27 55.4245 25.3283 55.4474 25.3718 55.4933C25.416 55.5383 25.4381 55.5999 25.4381 55.6779V56.04H25.3174V55.6779C25.3174 55.6385 25.3034 55.6047 25.2752 55.5765C25.2478 55.5476 25.2136 55.5331 25.1726 55.5331C25.1283 55.5331 25.0909 55.5476 25.0603 55.5765C25.0306 55.6047 25.0157 55.6385 25.0157 55.6779V56.04H24.895ZM25.614 55.9133V55.5512H25.5174V55.4365H25.614V55.2675H25.7347V55.4365H25.8735V55.5512H25.7347V55.8952C25.7347 55.9193 25.7467 55.9314 25.7709 55.9314H25.8735V56.04H25.7467C25.7041 56.04 25.6711 56.0288 25.6478 56.0062C25.6252 55.9837 25.614 55.9527 25.614 55.9133ZM26.0065 56.04V55.4365H26.1091L26.1212 55.4908H26.1272C26.128 55.49 26.1305 55.4872 26.1345 55.4824C26.1393 55.4776 26.1421 55.4743 26.1429 55.4727C26.1445 55.4711 26.1478 55.4683 26.1526 55.4643C26.1574 55.4595 26.1614 55.4562 26.1647 55.4546C26.1679 55.453 26.1723 55.451 26.1779 55.4486C26.1836 55.4454 26.1892 55.4434 26.1948 55.4426C26.2013 55.4409 26.2085 55.4397 26.2166 55.4389C26.2246 55.4373 26.2331 55.4365 26.2419 55.4365H26.3505V55.5452H26.254C26.1695 55.5452 26.1272 55.587 26.1272 55.6707V56.04H26.0065ZM26.8102 56.04L26.7981 55.9737H26.7921C26.78 55.9889 26.7655 56.0022 26.7486 56.0135C26.71 56.0392 26.6642 56.0521 26.611 56.0521C26.5451 56.0521 26.4924 56.0348 26.4529 56.0002C26.4135 55.9656 26.3938 55.9205 26.3938 55.865C26.3938 55.8031 26.4143 55.7544 26.4553 55.719C26.4972 55.6836 26.5591 55.6659 26.6412 55.6659H26.7921V55.6538C26.7921 55.6144 26.7808 55.5834 26.7583 55.5608C26.7358 55.5383 26.7048 55.5271 26.6654 55.5271C26.6267 55.5271 26.597 55.5359 26.576 55.5536C26.5551 55.5705 26.5426 55.5898 26.5386 55.6115H26.4179C26.4211 55.5584 26.4449 55.5142 26.4891 55.4788C26.5334 55.4426 26.5921 55.4245 26.6654 55.4245C26.7434 55.4245 26.8042 55.445 26.8476 55.486C26.8911 55.5271 26.9128 55.583 26.9128 55.6538V56.04H26.8102ZM26.7921 55.7866V55.7624H26.6473C26.603 55.7624 26.5696 55.7713 26.5471 55.789C26.5253 55.8067 26.5145 55.83 26.5145 55.859C26.5145 55.8871 26.5237 55.9093 26.5422 55.9254C26.5608 55.9415 26.5877 55.9495 26.6231 55.9495C26.6778 55.9495 26.7197 55.9354 26.7486 55.9073C26.7776 55.8783 26.7921 55.8381 26.7921 55.7866ZM27.0886 55.9133V55.5512H26.992V55.4365H27.0886V55.2675H27.2093V55.4365H27.3481V55.5512H27.2093V55.8952C27.2093 55.9193 27.2213 55.9314 27.2455 55.9314H27.3481V56.04H27.2213C27.1787 56.04 27.1457 56.0288 27.1224 56.0062C27.0998 55.9837 27.0886 55.9527 27.0886 55.9133ZM27.5988 55.888C27.6334 55.925 27.6768 55.9435 27.7292 55.9435C27.7815 55.9435 27.8245 55.925 27.8583 55.888C27.8929 55.8501 27.9102 55.8002 27.9102 55.7383C27.9102 55.6763 27.8929 55.6268 27.8583 55.5898C27.8245 55.552 27.7815 55.5331 27.7292 55.5331C27.6768 55.5331 27.6334 55.552 27.5988 55.5898C27.565 55.6268 27.5481 55.6763 27.5481 55.7383C27.5481 55.8002 27.565 55.8501 27.5988 55.888ZM27.9452 55.9652C27.8889 56.0231 27.8169 56.0521 27.7292 56.0521C27.6414 56.0521 27.569 56.0231 27.5119 55.9652C27.4556 55.9073 27.4274 55.8316 27.4274 55.7383C27.4274 55.6449 27.4556 55.5693 27.5119 55.5114C27.569 55.4534 27.6414 55.4245 27.7292 55.4245C27.8169 55.4245 27.8889 55.4534 27.9452 55.5114C28.0023 55.5693 28.0309 55.6449 28.0309 55.7383C28.0309 55.8316 28.0023 55.9073 27.9452 55.9652Z" fill="#00565D"/>
<rect x="16.1284" y="61.1255" width="41.7432" height="5.23047" rx="0.754395" stroke="#80B7B4" stroke-width="0.100586"/>
<path d="M17.7901 62.6908H17.9229C17.9148 62.7262 17.9011 62.7608 17.8818 62.7946C17.8633 62.8284 17.8388 62.8606 17.8082 62.8911C17.7776 62.9217 17.7394 62.9463 17.6935 62.9648C17.6477 62.9833 17.5974 62.9925 17.5427 62.9925C17.4292 62.9925 17.3334 62.9519 17.2554 62.8706C17.1773 62.7894 17.1383 62.6851 17.1383 62.558C17.1383 62.4309 17.1773 62.3267 17.2554 62.2454C17.3334 62.1641 17.4292 62.1235 17.5427 62.1235C17.6424 62.1235 17.7257 62.1524 17.7925 62.2104C17.8601 62.2675 17.9036 62.3371 17.9229 62.4192H17.7901C17.7692 62.3629 17.7366 62.3198 17.6923 62.29C17.6481 62.2595 17.5982 62.2442 17.5427 62.2442C17.4622 62.2442 17.3958 62.2727 17.3435 62.3299C17.2912 62.387 17.265 62.4631 17.265 62.558C17.265 62.653 17.2912 62.729 17.3435 62.7861C17.3958 62.8433 17.4622 62.8718 17.5427 62.8718C17.607 62.8718 17.6601 62.8545 17.702 62.8199C17.7446 62.7845 17.774 62.7415 17.7901 62.6908ZM18.1854 62.8284C18.22 62.8654 18.2634 62.8839 18.3157 62.8839C18.368 62.8839 18.4111 62.8654 18.4449 62.8284C18.4795 62.7906 18.4968 62.7407 18.4968 62.6787C18.4968 62.6167 18.4795 62.5673 18.4449 62.5302C18.4111 62.4924 18.368 62.4735 18.3157 62.4735C18.2634 62.4735 18.22 62.4924 18.1854 62.5302C18.1516 62.5673 18.1347 62.6167 18.1347 62.6787C18.1347 62.7407 18.1516 62.7906 18.1854 62.8284ZM18.5318 62.9056C18.4755 62.9636 18.4034 62.9925 18.3157 62.9925C18.228 62.9925 18.1556 62.9636 18.0985 62.9056C18.0421 62.8477 18.014 62.7721 18.014 62.6787C18.014 62.5854 18.0421 62.5097 18.0985 62.4518C18.1556 62.3939 18.228 62.3649 18.3157 62.3649C18.4034 62.3649 18.4755 62.3939 18.5318 62.4518C18.5889 62.5097 18.6175 62.5854 18.6175 62.6787C18.6175 62.7721 18.5889 62.8477 18.5318 62.9056ZM18.7443 62.9805V62.377H18.8529L18.865 62.4373H18.8711C18.8847 62.4236 18.8996 62.4116 18.9157 62.4011C18.9543 62.377 18.9978 62.3649 19.0461 62.3649C19.1193 62.3649 19.1776 62.3878 19.2211 62.4337C19.2653 62.4787 19.2875 62.5403 19.2875 62.6184V62.9805H19.1668V62.6184C19.1668 62.5789 19.1527 62.5451 19.1245 62.517C19.0972 62.488 19.063 62.4735 19.0219 62.4735C18.9777 62.4735 18.9403 62.488 18.9097 62.517C18.8799 62.5451 18.865 62.5789 18.865 62.6184V62.9805H18.7443ZM19.4633 62.8537V62.4916H19.3667V62.377H19.4633V62.208H19.584V62.377H19.7228V62.4916H19.584V62.8356C19.584 62.8598 19.5961 62.8718 19.6202 62.8718H19.7228V62.9805H19.5961C19.5534 62.9805 19.5204 62.9692 19.4971 62.9467C19.4746 62.9241 19.4633 62.8932 19.4633 62.8537ZM19.8559 62.9805V62.377H19.9585L19.9705 62.4313H19.9766C19.9774 62.4305 19.9798 62.4276 19.9838 62.4228C19.9886 62.418 19.9915 62.4148 19.9923 62.4132C19.9939 62.4116 19.9971 62.4087 20.0019 62.4047C20.0067 62.3999 20.0108 62.3967 20.014 62.3951C20.0172 62.3934 20.0216 62.3914 20.0273 62.389C20.0329 62.3858 20.0385 62.3838 20.0442 62.383C20.0506 62.3814 20.0578 62.3802 20.0659 62.3794C20.0739 62.3778 20.0824 62.377 20.0912 62.377H20.1999V62.4856H20.1033C20.0188 62.4856 19.9766 62.5274 19.9766 62.6111V62.9805H19.8559ZM20.6595 62.9805L20.6475 62.9141H20.6414C20.6294 62.9294 20.6149 62.9426 20.598 62.9539C20.5593 62.9797 20.5135 62.9925 20.4604 62.9925C20.3944 62.9925 20.3417 62.9752 20.3023 62.9406C20.2628 62.906 20.2431 62.861 20.2431 62.8054C20.2431 62.7435 20.2636 62.6948 20.3047 62.6594C20.3465 62.624 20.4085 62.6063 20.4905 62.6063H20.6414V62.5942C20.6414 62.5548 20.6302 62.5238 20.6076 62.5013C20.5851 62.4787 20.5541 62.4675 20.5147 62.4675C20.4761 62.4675 20.4463 62.4763 20.4254 62.494C20.4044 62.5109 20.392 62.5302 20.3879 62.552H20.2672C20.2705 62.4989 20.2942 62.4546 20.3385 62.4192C20.3827 62.383 20.4415 62.3649 20.5147 62.3649C20.5927 62.3649 20.6535 62.3854 20.6969 62.4264C20.7404 62.4675 20.7621 62.5234 20.7621 62.5942V62.9805H20.6595ZM20.6414 62.727V62.7029H20.4966C20.4523 62.7029 20.4189 62.7117 20.3964 62.7294C20.3747 62.7471 20.3638 62.7704 20.3638 62.7994C20.3638 62.8276 20.3731 62.8497 20.3916 62.8658C20.4101 62.8819 20.437 62.8899 20.4724 62.8899C20.5272 62.8899 20.569 62.8759 20.598 62.8477C20.6269 62.8187 20.6414 62.7785 20.6414 62.727ZM20.871 62.7994H20.9917C20.9917 62.8211 21.0037 62.8417 21.0279 62.861C21.052 62.8803 21.0862 62.8899 21.1305 62.8899C21.1723 62.8899 21.2037 62.8823 21.2246 62.867C21.2463 62.8509 21.2572 62.8324 21.2572 62.8115C21.2572 62.7898 21.2504 62.7729 21.2367 62.7608C21.223 62.7479 21.1997 62.7387 21.1667 62.733L21.058 62.7149C20.9414 62.6956 20.883 62.6373 20.883 62.5399C20.883 62.4892 20.9035 62.4474 20.9446 62.4144C20.9864 62.3814 21.0464 62.3649 21.1244 62.3649C21.1655 62.3649 21.2025 62.3713 21.2355 62.3842C21.2693 62.3971 21.2954 62.4136 21.3139 62.4337C21.3332 62.4538 21.3477 62.4743 21.3574 62.4952C21.367 62.5154 21.3719 62.5343 21.3719 62.552H21.2512C21.2512 62.5311 21.2403 62.5117 21.2186 62.494C21.1968 62.4763 21.1655 62.4675 21.1244 62.4675C21.0842 62.4675 21.054 62.4747 21.0339 62.4892C21.0138 62.5029 21.0037 62.5198 21.0037 62.5399C21.0037 62.5761 21.0339 62.6003 21.0943 62.6123L21.2029 62.6304C21.3196 62.6497 21.3779 62.7101 21.3779 62.8115C21.3779 62.863 21.3566 62.906 21.3139 62.9406C21.2721 62.9752 21.2109 62.9925 21.1305 62.9925C21.0854 62.9925 21.0448 62.9857 21.0086 62.972C20.9731 62.9583 20.9458 62.941 20.9265 62.9201C20.908 62.8992 20.8939 62.8787 20.8842 62.8586C20.8754 62.8376 20.871 62.8179 20.871 62.7994ZM21.5896 62.6304H21.9456C21.9392 62.5813 21.9203 62.5419 21.8889 62.5121C21.8575 62.4824 21.8181 62.4675 21.7706 62.4675C21.7207 62.4675 21.6805 62.4824 21.6499 62.5121C21.6193 62.5411 21.5992 62.5805 21.5896 62.6304ZM21.9155 62.8054H22.0422C22.0245 62.8537 21.9923 62.8972 21.9456 62.9358C21.8998 62.9736 21.8414 62.9925 21.7706 62.9925C21.6829 62.9925 21.6105 62.9636 21.5533 62.9056C21.497 62.8477 21.4689 62.7721 21.4689 62.6787C21.4689 62.5854 21.497 62.5097 21.5533 62.4518C21.6105 62.3939 21.6829 62.3649 21.7706 62.3649C21.8527 62.3649 21.9215 62.393 21.977 62.4494C22.0325 62.5057 22.0603 62.5761 22.0603 62.6606C22.0603 62.6678 22.0591 62.6823 22.0567 62.7041L22.0543 62.721H21.5896C21.596 62.7725 21.6157 62.8135 21.6487 62.8441C21.6817 62.8747 21.7223 62.8899 21.7706 62.8899C21.8044 62.8899 21.8342 62.8819 21.8599 62.8658C21.8865 62.8489 21.905 62.8288 21.9155 62.8054ZM22.1874 62.9805V62.377H22.296L22.3081 62.4373H22.3142C22.3278 62.4236 22.3427 62.4116 22.3588 62.4011C22.3974 62.377 22.4409 62.3649 22.4892 62.3649C22.5624 62.3649 22.6207 62.3878 22.6642 62.4337C22.7085 62.4787 22.7306 62.5403 22.7306 62.6184V62.9805H22.6099V62.6184C22.6099 62.5789 22.5958 62.5451 22.5676 62.517C22.5403 62.488 22.5061 62.4735 22.465 62.4735C22.4208 62.4735 22.3834 62.488 22.3528 62.517C22.323 62.5451 22.3081 62.5789 22.3081 62.6184V62.9805H22.1874ZM22.3685 62.2623H22.2779C22.2779 62.218 22.2896 62.1838 22.3129 62.1597C22.3363 62.1355 22.3669 62.1235 22.4047 62.1235C22.4264 62.1235 22.4505 62.1327 22.4771 62.1512C22.5045 62.1689 22.5246 62.1778 22.5375 62.1778C22.5656 62.1778 22.5797 62.1597 22.5797 62.1235H22.6702C22.6702 62.1677 22.6586 62.2019 22.6352 62.2261C22.6119 62.2502 22.5813 62.2623 22.5435 62.2623C22.5218 62.2623 22.4972 62.2534 22.4699 62.2357C22.4433 62.2172 22.4236 62.208 22.4107 62.208C22.3826 62.208 22.3685 62.2261 22.3685 62.2623ZM23.274 62.9805L23.2619 62.9141H23.2559C23.2438 62.9294 23.2293 62.9426 23.2124 62.9539C23.1738 62.9797 23.1279 62.9925 23.0748 62.9925C23.0088 62.9925 22.9561 62.9752 22.9167 62.9406C22.8773 62.906 22.8576 62.861 22.8576 62.8054C22.8576 62.7435 22.8781 62.6948 22.9191 62.6594C22.961 62.624 23.0229 62.6063 23.105 62.6063H23.2559V62.5942C23.2559 62.5548 23.2446 62.5238 23.2221 62.5013C23.1995 62.4787 23.1686 62.4675 23.1291 62.4675C23.0905 62.4675 23.0607 62.4763 23.0398 62.494C23.0189 62.5109 23.0064 62.5302 23.0024 62.552H22.8817C22.8849 62.4989 22.9087 62.4546 22.9529 62.4192C22.9972 62.383 23.0559 62.3649 23.1291 62.3649C23.2072 62.3649 23.2679 62.3854 23.3114 62.4264C23.3549 62.4675 23.3766 62.5234 23.3766 62.5942V62.9805H23.274ZM23.2559 62.727V62.7029H23.111C23.0668 62.7029 23.0334 62.7117 23.0108 62.7294C22.9891 62.7471 22.9783 62.7704 22.9783 62.7994C22.9783 62.8276 22.9875 62.8497 23.006 62.8658C23.0245 62.8819 23.0515 62.8899 23.0869 62.8899C23.1416 62.8899 23.1835 62.8759 23.2124 62.8477C23.2414 62.8187 23.2559 62.7785 23.2559 62.727Z" fill="#00565D"/>
<rect x="16.1284" y="70.0776" width="41.7432" height="3.52051" rx="0.653809" fill="#00565D"/>
<rect x="16.1284" y="70.0776" width="41.7432" height="3.52051" rx="0.653809" stroke="#80B7B4" stroke-width="0.100586"/>
<path d="M34.4904 72.0332V71.0475H34.6382V72.0332H34.4904ZM34.8352 72.0332V71.3291H34.962L34.976 71.3995H34.9831C34.999 71.3836 35.0164 71.3695 35.0352 71.3573C35.0803 71.3291 35.1309 71.315 35.1873 71.315C35.2727 71.315 35.3408 71.3418 35.3915 71.3953C35.4431 71.4479 35.4689 71.5197 35.4689 71.6107V72.0332H35.3281V71.6107C35.3281 71.5647 35.3117 71.5253 35.2788 71.4925C35.2469 71.4587 35.207 71.4418 35.1591 71.4418C35.1075 71.4418 35.0638 71.4587 35.0281 71.4925C34.9934 71.5253 34.976 71.5647 34.976 71.6107V72.0332H34.8352ZM35.8058 71.8065C35.8433 71.845 35.8907 71.8642 35.948 71.8642C36.0052 71.8642 36.0522 71.845 36.0888 71.8065C36.1264 71.7671 36.1451 71.7159 36.1451 71.653C36.1451 71.5901 36.1264 71.5394 36.0888 71.5009C36.0522 71.4615 36.0052 71.4418 35.948 71.4418C35.8907 71.4418 35.8433 71.4615 35.8058 71.5009C35.7691 71.5394 35.7508 71.5901 35.7508 71.653C35.7508 71.7159 35.7691 71.7671 35.8058 71.8065ZM35.6311 72.0754H35.772C35.7757 72.1102 35.7935 72.1398 35.8255 72.1642C35.8583 72.1895 35.9015 72.2022 35.955 72.2022C36.0114 72.2022 36.0569 72.1848 36.0916 72.1501C36.1273 72.1163 36.1451 72.0726 36.1451 72.0191V71.9065H36.1381C36.1221 71.9224 36.108 71.9351 36.0958 71.9445C36.0836 71.9539 36.0616 71.9642 36.0297 71.9755C35.9977 71.9858 35.9611 71.991 35.9198 71.991C35.8306 71.991 35.7565 71.96 35.6973 71.898C35.6391 71.8351 35.61 71.7534 35.61 71.653C35.61 71.5525 35.6391 71.4713 35.6973 71.4094C35.7565 71.3465 35.8306 71.315 35.9198 71.315C36.0137 71.315 36.0865 71.3455 36.1381 71.4066H36.1451L36.1592 71.3291H36.2859V72.0191C36.2859 72.113 36.2568 72.1881 36.1986 72.2444C36.1404 72.3008 36.0592 72.3289 35.955 72.3289C35.9006 72.3289 35.8518 72.3205 35.8086 72.3036C35.7654 72.2867 35.7316 72.2646 35.7072 72.2374C35.6837 72.2111 35.6654 72.1839 35.6523 72.1557C35.6401 72.1285 35.633 72.1017 35.6311 72.0754ZM36.469 72.0332V71.3291H36.5887L36.6027 71.3925H36.6098C36.6107 71.3915 36.6135 71.3882 36.6182 71.3826C36.6239 71.377 36.6271 71.3732 36.6281 71.3713C36.63 71.3695 36.6337 71.3662 36.6394 71.3615C36.645 71.3559 36.6497 71.3521 36.6534 71.3502C36.6572 71.3483 36.6624 71.346 36.6689 71.3432C36.6755 71.3394 36.6821 71.3371 36.6886 71.3361C36.6962 71.3343 36.7046 71.3329 36.714 71.3319C36.7234 71.33 36.7332 71.3291 36.7436 71.3291H36.8703V71.4558H36.7576C36.6591 71.4558 36.6098 71.5047 36.6098 71.6023V72.0332H36.469ZM37.0545 71.6248H37.4699C37.4624 71.5676 37.4404 71.5216 37.4038 71.4868C37.3671 71.4521 37.3211 71.4347 37.2658 71.4347C37.2075 71.4347 37.1606 71.4521 37.1249 71.4868C37.0893 71.5206 37.0658 71.5666 37.0545 71.6248ZM37.4347 71.829H37.5826C37.5619 71.8853 37.5244 71.936 37.4699 71.9811C37.4164 72.0252 37.3484 72.0473 37.2658 72.0473C37.1634 72.0473 37.0789 72.0135 37.0123 71.9459C36.9466 71.8783 36.9137 71.7901 36.9137 71.6812C36.9137 71.5723 36.9466 71.484 37.0123 71.4164C37.0789 71.3488 37.1634 71.315 37.2658 71.315C37.3615 71.315 37.4418 71.3479 37.5066 71.4136C37.5713 71.4793 37.6037 71.5615 37.6037 71.66C37.6037 71.6685 37.6023 71.6854 37.5995 71.7107L37.5967 71.7304H37.0545C37.062 71.7905 37.085 71.8384 37.1235 71.8741C37.162 71.9098 37.2094 71.9276 37.2658 71.9276C37.3052 71.9276 37.3399 71.9182 37.37 71.8994C37.4009 71.8797 37.4225 71.8562 37.4347 71.829ZM37.7027 71.822H37.8436C37.8436 71.8473 37.8576 71.8713 37.8858 71.8938C37.914 71.9163 37.9539 71.9276 38.0055 71.9276C38.0543 71.9276 38.0909 71.9187 38.1153 71.9008C38.1407 71.8821 38.1534 71.8605 38.1534 71.8361C38.1534 71.8107 38.1454 71.791 38.1294 71.7769C38.1135 71.7619 38.0862 71.7511 38.0477 71.7445L37.921 71.7234C37.7849 71.7009 37.7168 71.6328 37.7168 71.5192C37.7168 71.4601 37.7408 71.4112 37.7886 71.3728C37.8375 71.3343 37.9074 71.315 37.9985 71.315C38.0463 71.315 38.0895 71.3225 38.128 71.3376C38.1674 71.3526 38.198 71.3718 38.2195 71.3953C38.2421 71.4188 38.259 71.4427 38.2702 71.4671C38.2815 71.4906 38.2871 71.5126 38.2871 71.5333H38.1463C38.1463 71.5089 38.1336 71.4864 38.1083 71.4657C38.0829 71.445 38.0463 71.4347 37.9985 71.4347C37.9515 71.4347 37.9163 71.4432 37.8928 71.4601C37.8694 71.476 37.8576 71.4957 37.8576 71.5192C37.8576 71.5615 37.8928 71.5896 37.9633 71.6037L38.09 71.6248C38.2261 71.6474 38.2942 71.7178 38.2942 71.8361C38.2942 71.8961 38.2693 71.9464 38.2195 71.9867C38.1707 72.0271 38.0994 72.0473 38.0055 72.0473C37.9529 72.0473 37.9055 72.0393 37.8633 72.0233C37.822 72.0074 37.79 71.9872 37.7675 71.9628C37.7459 71.9384 37.7295 71.9144 37.7182 71.891C37.7079 71.8666 37.7027 71.8436 37.7027 71.822ZM38.8932 72.0332L38.8791 71.9558H38.872C38.858 71.9736 38.8411 71.9891 38.8213 72.0022C38.7763 72.0323 38.7228 72.0473 38.6608 72.0473C38.5838 72.0473 38.5223 72.0271 38.4763 71.9867C38.4303 71.9464 38.4073 71.8938 38.4073 71.829C38.4073 71.7567 38.4313 71.6999 38.4791 71.6586C38.528 71.6173 38.6003 71.5967 38.696 71.5967H38.872V71.5826C38.872 71.5366 38.8589 71.5004 38.8326 71.4741C38.8063 71.4479 38.7702 71.4347 38.7242 71.4347C38.6791 71.4347 38.6444 71.445 38.62 71.4657C38.5956 71.4854 38.581 71.5079 38.5763 71.5333H38.4355C38.4393 71.4713 38.4669 71.4197 38.5186 71.3784C38.5702 71.3361 38.6387 71.315 38.7242 71.315C38.8152 71.315 38.8861 71.339 38.9368 71.3868C38.9875 71.4347 39.0129 71.5 39.0129 71.5826V72.0332H38.8932ZM38.872 71.7375V71.7093H38.7031C38.6514 71.7093 38.6125 71.7196 38.5862 71.7403C38.5608 71.761 38.5482 71.7882 38.5482 71.822C38.5482 71.8548 38.5589 71.8806 38.5805 71.8994C38.6021 71.9182 38.6336 71.9276 38.6749 71.9276C38.7387 71.9276 38.7875 71.9112 38.8213 71.8783C38.8551 71.8445 38.872 71.7976 38.872 71.7375ZM39.1891 72.0332V71.3291H39.3088L39.3229 71.3925H39.3299C39.3309 71.3915 39.3337 71.3882 39.3384 71.3826C39.344 71.377 39.3473 71.3732 39.3482 71.3713C39.3501 71.3695 39.3539 71.3662 39.3595 71.3615C39.3651 71.3559 39.3698 71.3521 39.3736 71.3502C39.3773 71.3483 39.3825 71.346 39.3891 71.3432C39.3956 71.3394 39.4022 71.3371 39.4088 71.3361C39.4163 71.3343 39.4247 71.3329 39.4341 71.3319C39.4435 71.33 39.4534 71.3291 39.4637 71.3291H39.5904V71.4558H39.4778C39.3792 71.4558 39.3299 71.5047 39.3299 71.6023V72.0332H39.1891Z" fill="#EAE6DF"/>
</g>
</g>
<path d="M11 1.5C5.75329 1.5 1.5 5.7533 1.5 11V98C1.5 103.247 5.7533 107.5 11 107.5H62.64C67.8867 107.5 72.14 103.247 72.14 98V11C72.14 5.75329 67.8867 1.5 62.64 1.5H11Z" stroke="#7B757F" stroke-width="3" stroke-linecap="round"/>
<defs>
<clipPath id="clip0_93_6534">
<path d="M3 11C3 6.58172 6.58172 3 11 3H62.64C67.0583 3 70.64 6.58172 70.64 11V98C70.64 102.418 67.0583 106 62.64 106H11C6.58173 106 3 102.418 3 98V11Z" fill="white"/>
</clipPath>
<clipPath id="clip1_93_6534">
<rect width="68" height="104" fill="white" transform="translate(3 3)"/>
</clipPath>
</defs>
</svg>
