<svg width="64" height="109" viewBox="0 0 64 109" fill="none" xmlns="http://www.w3.org/2000/svg">
<g clip-path="url(#clip0_96_9172)">
<g clip-path="url(#clip1_96_9172)">
<g clip-path="url(#clip2_96_9172)">
<rect width="58" height="103" transform="translate(3 3)" fill="#111928"/>
<rect width="47.5728" height="7.19691" transform="translate(2.24609 3.11475)" fill="#111928"/>
<path d="M32.9447 50.6055C33.3162 50.2526 33.7388 50.0762 34.2124 50.0762H36.9915C37.0101 50.0762 37.024 50.0831 37.0333 50.0971C37.0472 50.1064 37.0542 50.1203 37.0542 50.1389V56.9856C37.0542 56.9995 37.0472 57.0135 37.0333 57.0274C37.024 57.0367 37.0101 57.0413 36.9915 57.0413H35.7169C35.7029 57.0413 35.689 57.0367 35.6751 57.0274C35.6658 57.0135 35.6612 56.9995 35.6612 56.9856V51.2742H34.498C34.3401 51.2742 34.2008 51.3322 34.0801 51.4483L28.4662 57.0274C28.4522 57.0367 28.4383 57.0413 28.4244 57.0413H26.6483C26.6204 57.0413 26.6018 57.0297 26.5925 57.0065C26.5832 56.9833 26.5879 56.9624 26.6065 56.9438L32.9447 50.6055Z" fill="white"/>
<path d="M23.4536 59.3072C23.5518 59.214 23.6635 59.1674 23.7886 59.1674H24.5229C24.5279 59.1674 24.5315 59.1692 24.534 59.1729C24.5377 59.1753 24.5395 59.179 24.5395 59.1839V60.9931C24.5395 60.9968 24.5377 61.0005 24.534 61.0041C24.5315 61.0066 24.5279 61.0078 24.5229 61.0078H24.1861C24.1825 61.0078 24.1788 61.0066 24.1751 61.0041C24.1726 61.0005 24.1714 60.9968 24.1714 60.9931V59.4839H23.8641C23.8224 59.4839 23.7855 59.4993 23.7536 59.5299L22.2702 61.0041C22.2666 61.0066 22.2629 61.0078 22.2592 61.0078H21.7899C21.7825 61.0078 21.7776 61.0047 21.7752 60.9986C21.7727 60.9925 21.7739 60.987 21.7788 60.982L23.4536 59.3072ZM25.0916 59.1821C25.0916 59.1784 25.0929 59.1753 25.0953 59.1729C25.099 59.1692 25.1027 59.1674 25.1064 59.1674H27.1953C27.3401 59.1674 27.4634 59.2189 27.5652 59.322C27.6683 59.4238 27.7198 59.5471 27.7198 59.6919V59.8759C27.7198 60.0219 27.6683 60.1465 27.5652 60.2495C27.4634 60.3514 27.3401 60.4023 27.1953 60.4023H25.4597V60.9912C25.4597 60.9962 25.4579 61.0005 25.4542 61.0041C25.4518 61.0066 25.4481 61.0078 25.4432 61.0078H25.1064C25.1027 61.0078 25.099 61.0066 25.0953 61.0041C25.0929 61.0005 25.0916 60.9962 25.0916 60.9912V59.1821ZM27.1953 60.0876C27.2382 60.0876 27.275 60.0723 27.3057 60.0416C27.3364 60.0097 27.3517 59.9723 27.3517 59.9293V59.6404C27.3517 59.5962 27.3364 59.5588 27.3057 59.5281C27.275 59.4974 27.2382 59.4821 27.1953 59.4821H25.4597V60.0876H27.1953ZM30.3756 59.1674C30.5216 59.1674 30.6455 59.2189 30.7473 59.322C30.8504 59.4238 30.9019 59.5477 30.9019 59.6937V60.4814C30.9019 60.6275 30.8504 60.752 30.7473 60.8551C30.6455 60.9569 30.5216 61.0078 30.3756 61.0078H28.7983C28.6535 61.0078 28.5296 60.9569 28.4265 60.8551C28.3235 60.752 28.2719 60.6275 28.2719 60.4814V59.6937C28.2719 59.5477 28.3235 59.4238 28.4265 59.322C28.5296 59.2189 28.6535 59.1674 28.7983 59.1674H30.3756ZM30.5338 59.6404C30.5338 59.5974 30.5185 59.5606 30.4878 59.5299C30.4572 59.498 30.4197 59.4821 30.3756 59.4821H28.7983C28.7554 59.4821 28.7179 59.498 28.686 59.5299C28.6554 59.5606 28.64 59.5974 28.64 59.6404V60.5348C28.64 60.5778 28.6554 60.6152 28.686 60.6471C28.7179 60.6778 28.7554 60.6931 28.7983 60.6931H30.3756C30.4197 60.6931 30.4572 60.6778 30.4878 60.6471C30.5185 60.6152 30.5338 60.5778 30.5338 60.5348V59.6404ZM34.0841 60.7078V60.9931C34.0841 60.9968 34.0822 61.0005 34.0785 61.0041C34.0761 61.0066 34.073 61.0078 34.0693 61.0078H31.9823C31.8363 61.0078 31.7117 60.9569 31.6087 60.8551C31.5068 60.752 31.4559 60.6275 31.4559 60.4814V59.1839C31.4559 59.179 31.4571 59.1753 31.4596 59.1729C31.4633 59.1692 31.4669 59.1674 31.4706 59.1674H31.8074C31.8123 59.1674 31.816 59.1692 31.8185 59.1729C31.8221 59.1753 31.824 59.179 31.824 59.1839V60.5348C31.824 60.5778 31.8393 60.6152 31.87 60.6471C31.9007 60.6778 31.9381 60.6931 31.9823 60.6931H34.0693C34.073 60.6931 34.0761 60.6949 34.0785 60.6986C34.0822 60.7011 34.0841 60.7041 34.0841 60.7078ZM37.2662 59.1839V60.4833C37.2662 60.6281 37.2146 60.752 37.1116 60.8551C37.0097 60.9569 36.8858 61.0078 36.7398 61.0078H35.1626C35.0178 61.0078 34.8938 60.9569 34.7908 60.8551C34.6877 60.752 34.6362 60.6281 34.6362 60.4833V59.1839C34.6362 59.179 34.6374 59.1753 34.6399 59.1729C34.6435 59.1692 34.6478 59.1674 34.6527 59.1674H34.9896C34.9932 59.1674 34.9963 59.1692 34.9988 59.1729C35.0024 59.1753 35.0043 59.179 35.0043 59.1839V60.5348C35.0043 60.579 35.0196 60.6164 35.0503 60.6471C35.0822 60.6778 35.1196 60.6931 35.1626 60.6931H36.7398C36.784 60.6931 36.8214 60.6778 36.8521 60.6471C36.8828 60.6164 36.8981 60.579 36.8981 60.5348V59.1839C36.8981 59.179 36.8993 59.1753 36.9018 59.1729C36.9055 59.1692 36.9097 59.1674 36.9147 59.1674H37.2496C37.2545 59.1674 37.2582 59.1692 37.2607 59.1729C37.2643 59.1753 37.2662 59.179 37.2662 59.1839ZM38.1882 59.6404V59.771C38.1882 59.8152 38.2036 59.8526 38.2343 59.8833C38.2649 59.914 38.3017 59.9293 38.3447 59.9293H39.9238C40.0686 59.9293 40.1919 59.9808 40.2937 60.0839C40.3968 60.1857 40.4483 60.3097 40.4483 60.4557V60.4814C40.4483 60.6262 40.3968 60.7502 40.2937 60.8532C40.1919 60.9563 40.0686 61.0078 39.9238 61.0078H37.9398C37.9361 61.0078 37.9324 61.0066 37.9287 61.0041C37.9263 61.0005 37.9251 60.9962 37.9251 60.9912V60.7078C37.9251 60.7029 37.9263 60.6992 37.9287 60.6968C37.9324 60.6931 37.9361 60.6913 37.9398 60.6913H39.9238C39.9667 60.6913 40.0035 60.6759 40.0342 60.6452C40.0649 60.6146 40.0802 60.5778 40.0802 60.5348V60.4023C40.0802 60.3594 40.0649 60.3226 40.0342 60.2919C40.0035 60.26 39.9667 60.244 39.9238 60.244H38.3447C38.1999 60.244 38.076 60.1931 37.9729 60.0913C37.8711 59.9882 37.8202 59.8643 37.8202 59.7195V59.6919C37.8202 59.5471 37.8711 59.4238 37.9729 59.322C38.076 59.2189 38.1999 59.1674 38.3447 59.1674H40.3287C40.3324 59.1674 40.3354 59.1692 40.3379 59.1729C40.3416 59.1753 40.3434 59.1784 40.3434 59.1821V59.4674C40.3434 59.471 40.3416 59.4747 40.3379 59.4784C40.3354 59.4809 40.3324 59.4821 40.3287 59.4821H38.3447C38.3017 59.4821 38.2649 59.4974 38.2343 59.5281C38.2036 59.5588 38.1882 59.5962 38.1882 59.6404Z" fill="white"/>
</g>
</g>
</g>
<rect x="1.5" y="1.5" width="61" height="106" rx="5.5" stroke="#7B757F" stroke-width="3" stroke-linecap="round"/>
<defs>
<clipPath id="clip0_96_9172">
<rect x="3" y="3" width="58" height="103" rx="4" fill="white"/>
</clipPath>
<clipPath id="clip1_96_9172">
<rect width="58" height="103" fill="white" transform="translate(3 3)"/>
</clipPath>
<clipPath id="clip2_96_9172">
<rect width="58" height="103" fill="white" transform="translate(3 3)"/>
</clipPath>
</defs>
</svg>
