<svg width="64" height="109" viewBox="0 0 64 109" fill="none" xmlns="http://www.w3.org/2000/svg">
<g clip-path="url(#clip0_95_4630)">
<rect width="58" height="105" transform="translate(3 3)" fill="#FBFFFF"/>
<g clip-path="url(#clip1_95_4630)">
<path d="M25.5343 60.9352C25.5343 60.9352 24.2461 60.9352 24.2461 59.6768C24.2461 58.4184 25.5343 54.6432 31.9754 54.6432C38.4165 54.6432 39.7046 58.4184 39.7046 59.6768C39.7046 60.9352 38.4165 60.9352 38.4165 60.9352H25.5343ZM35.84 49.6095C35.84 50.6107 35.4328 51.571 34.7081 52.279C33.9833 52.987 33.0003 53.3847 31.9754 53.3847C30.9504 53.3847 29.9674 52.987 29.2427 52.279C28.5179 51.571 28.1107 50.6107 28.1107 49.6095C28.1107 48.6082 28.5179 47.648 29.2427 46.94C29.9674 46.232 30.9504 45.8342 31.9754 45.8342C33.0003 45.8342 33.9833 46.232 34.7081 46.94C35.4328 47.648 35.84 48.6082 35.84 49.6095Z" fill="#01CDBB"/>
<path d="M33.9798 39.8887C34.1572 39.8887 34.3274 39.9589 34.4528 40.0838C34.5782 40.2088 34.6487 40.3783 34.6487 40.555C34.6487 40.7318 34.7192 40.9013 34.8447 41.0262C34.9701 41.1512 35.1403 41.2214 35.3177 41.2214C35.4951 41.2214 35.6653 41.2916 35.7907 41.4166C35.9162 41.5415 35.9867 41.711 35.9867 41.8878V42.5541C35.9867 42.7309 35.9162 42.9004 35.7907 43.0253C35.6653 43.1503 35.4951 43.2205 35.3177 43.2205H28.6279C28.4506 43.2205 28.2804 43.1503 28.1549 43.0253C28.0295 42.9004 27.959 42.7309 27.959 42.5541V41.8878C27.959 41.711 28.0295 41.5415 28.1549 41.4166C28.2804 41.2916 28.4506 41.2214 28.6279 41.2214C28.8054 41.2214 28.9755 41.1512 29.101 41.0262C29.2265 40.9013 29.297 40.7318 29.297 40.555C29.297 40.3783 29.3674 40.2088 29.4929 40.0838C29.6183 39.9589 29.7885 39.8887 29.9659 39.8887H33.9798Z" fill="#334241"/>
<path d="M25.3438 43.2205C25.3438 43.0438 25.4143 42.8743 25.5398 42.7493C25.6652 42.6244 25.8353 42.5542 26.0128 42.5542H26.6817C26.8592 42.5542 27.0293 42.484 27.1548 42.359C27.2803 42.234 27.3508 42.0645 27.3508 41.8878C27.3508 41.7111 27.2803 41.5416 27.1548 41.4166C27.0293 41.2916 26.8592 41.2214 26.6817 41.2214H26.0128C25.4805 41.2214 24.97 41.4321 24.5937 41.807C24.2173 42.1819 24.0059 42.6903 24.0059 43.2205V59.2133C24.0059 59.7435 24.2173 60.252 24.5937 60.6269C24.97 61.0018 25.4805 61.2124 26.0128 61.2124H38.0543C38.5866 61.2124 39.0971 61.0018 39.4734 60.6269C39.8498 60.252 40.0613 59.7435 40.0613 59.2133V43.2205C40.0613 42.6903 39.8498 42.1819 39.4734 41.807C39.0971 41.4321 38.5866 41.2214 38.0543 41.2214H37.3854C37.2079 41.2214 37.0378 41.2916 36.9123 41.4166C36.7869 41.5416 36.7164 41.7111 36.7164 41.8878C36.7164 42.0645 36.7869 42.234 36.9123 42.359C37.0378 42.484 37.2079 42.5542 37.3854 42.5542H38.0543C38.2318 42.5542 38.4019 42.6244 38.5273 42.7493C38.6528 42.8743 38.7233 43.0438 38.7233 43.2205V59.2133C38.7233 59.39 38.6528 59.5595 38.5273 59.6845C38.4019 59.8095 38.2318 59.8797 38.0543 59.8797H26.0128C25.8353 59.8797 25.6652 59.8095 25.5398 59.6845C25.4143 59.5595 25.3438 59.39 25.3438 59.2133V43.2205Z" fill="#334241"/>
<path d="M27.0745 63.1151V71.4384H24.2573V68.3707H21.655V71.4384H18.8379V63.1151H21.655V66.0639H24.2573V63.1151H27.0745ZM32.7531 71.6287C31.8698 71.6287 31.0739 71.4463 30.3657 71.0817C29.6574 70.7091 29.1004 70.1939 28.6945 69.5359C28.2966 68.8701 28.0977 68.117 28.0977 67.2767C28.0977 66.4364 28.2966 65.6873 28.6945 65.0294C29.1004 64.3636 29.6574 63.8483 30.3657 63.4837C31.0739 63.1111 31.8698 62.9248 32.7531 62.9248C33.5648 62.9248 34.289 63.0675 34.9257 63.3529C35.5623 63.6382 36.0875 64.0504 36.5014 64.5895L34.7227 66.1709C34.2055 65.5209 33.5967 65.1959 32.8964 65.1959C32.3075 65.1959 31.834 65.3861 31.4759 65.7666C31.1177 66.1392 30.9387 66.6426 30.9387 67.2767C30.9387 67.9109 31.1177 68.4182 31.4759 68.7987C31.834 69.1713 32.3075 69.3576 32.8964 69.3576C33.5967 69.3576 34.2055 69.0326 34.7227 68.3826L36.5014 69.964C36.0875 70.503 35.5623 70.9152 34.9257 71.2006C34.289 71.486 33.5648 71.6287 32.7531 71.6287ZM41.3376 63.1151C42.1095 63.1151 42.782 63.2419 43.3549 63.4955C43.9279 63.7492 44.3696 64.1139 44.68 64.5895C44.9903 65.0651 45.1455 65.62 45.1455 66.2542C45.1455 66.8883 44.9903 67.4432 44.68 67.9188C44.3696 68.3945 43.9279 68.7591 43.3549 69.0128C42.782 69.2664 42.1095 69.3933 41.3376 69.3933H40.1319V71.4384H37.3148V63.1151H41.3376ZM41.1585 67.2292C41.5405 67.2292 41.827 67.1459 42.018 66.9795C42.209 66.805 42.3045 66.5633 42.3045 66.2542C42.3045 65.945 42.209 65.7072 42.018 65.5407C41.827 65.3663 41.5405 65.2791 41.1585 65.2791H40.1319V67.2292H41.1585Z" fill="#7DB9FF"/>
</g>
</g>
<rect x="1.5" y="1.5" width="61" height="106" rx="5.5" stroke="#7B757F" stroke-width="3" stroke-linecap="round"/>
<defs>
<clipPath id="clip0_95_4630">
<rect x="3" y="3" width="58" height="103" rx="4" fill="white"/>
</clipPath>
<clipPath id="clip1_95_4630">
<rect width="27.3957" height="33.2341" fill="white" transform="translate(18.2773 39.8887)"/>
</clipPath>
</defs>
</svg>
