<svg width="64" height="109" viewBox="0 0 64 109" fill="none" xmlns="http://www.w3.org/2000/svg">
<g clip-path="url(#clip0_96_14533)">
<g clip-path="url(#clip1_96_14533)">
<rect width="58" height="103" transform="translate(3 3)" fill="white"/>
<g clip-path="url(#clip2_96_14533)">
<path d="M18.6219 50.2616C18.3563 50.2616 18.1469 50.0849 17.9937 49.7315L14.2092 40.336C14.1326 40.1486 14.1122 39.9827 14.1479 39.8381C14.1837 39.6882 14.3011 39.5651 14.5003 39.4687C14.9191 39.2492 15.2153 39.3617 15.389 39.806L18.9667 48.6876H18.5223L22.008 39.806C22.1766 39.367 22.4728 39.2546 22.8967 39.4687C23.0755 39.5651 23.1853 39.6882 23.2261 39.8381C23.2721 39.9827 23.2593 40.1486 23.1878 40.336L19.3727 49.7315C19.2144 50.0849 18.9845 50.2616 18.6832 50.2616H18.6219ZM36.503 50.2616C36.2885 50.2616 36.1277 50.2053 36.0204 50.0929C35.9131 49.9805 35.8595 49.8118 35.8595 49.587V40.7375H32.8871C32.6726 40.7375 32.5117 40.6813 32.4044 40.5689C32.2972 40.4564 32.2435 40.2878 32.2435 40.063C32.2435 39.8381 32.2972 39.6695 32.4044 39.5571C32.5117 39.4446 32.6726 39.3884 32.8871 39.3884H40.119C40.3336 39.3884 40.4944 39.4446 40.6017 39.5571C40.7089 39.6695 40.7625 39.8381 40.7625 40.063C40.7625 40.2878 40.7089 40.4564 40.6017 40.5689C40.4944 40.6813 40.3336 40.7375 40.119 40.7375H37.1466V49.587C37.1466 49.8012 37.0904 49.9671 36.978 50.0849C36.8707 50.2027 36.7124 50.2616 36.503 50.2616Z" fill="#1E4665"/>
<path d="M28.2294 39.1914C25.3147 39.1914 22.9492 41.671 22.9492 44.7262C22.9492 47.7815 25.3147 50.2611 28.2294 50.2611C31.1441 50.2611 33.5096 47.7815 33.5096 44.7262C33.5096 41.671 31.1441 39.1914 28.2294 39.1914ZM28.2294 49.1541C25.8956 49.1541 24.0053 47.1726 24.0053 44.7262C24.0053 42.2798 25.8956 40.2984 28.2294 40.2984C30.5633 40.2984 32.4536 42.2798 32.4536 44.7262C32.4536 47.1726 30.5633 49.1541 28.2294 49.1541Z" fill="#1E4665"/>
<path d="M44.7586 39.1914C41.8439 39.1914 39.4785 41.671 39.4785 44.7262C39.4785 47.7815 41.8439 50.2611 44.7586 50.2611C47.6733 50.2611 50.0389 47.7815 50.0389 44.7262C50.0389 41.671 47.6733 39.1914 44.7586 39.1914ZM44.7586 49.1541C42.4248 49.1541 40.5344 47.1726 40.5344 44.7262C40.5344 42.2798 42.4248 40.2984 44.7586 40.2984C47.0927 40.2984 48.9828 42.2798 48.9828 44.7262C48.9828 47.1726 47.0927 49.1541 44.7586 49.1541Z" fill="#73ACDF"/>
<path d="M44.7553 47.4938C46.2135 47.4938 47.3955 46.2548 47.3955 44.7264C47.3955 43.198 46.2135 41.959 44.7553 41.959C43.2973 41.959 42.1152 43.198 42.1152 44.7264C42.1152 46.2548 43.2973 47.4938 44.7553 47.4938Z" fill="#73ACDF"/>
</g>
<rect x="13.0137" y="58.5483" width="38.0391" height="5.14042" rx="2.57021" fill="#73ACDF"/>
<path d="M28.6528 60.1568V61.6187H28.4008V60.1568H28.6528ZM29.1819 60.7643V61.6187H28.9399V60.5323H29.1678L29.1819 60.7643ZM29.1387 61.0353L29.0604 61.0343C29.0611 60.9574 29.0718 60.8867 29.0925 60.8225C29.1139 60.7582 29.1434 60.703 29.1809 60.6568C29.219 60.6106 29.2645 60.5752 29.3174 60.5504C29.3703 60.525 29.4292 60.5123 29.4941 60.5123C29.5463 60.5123 29.5935 60.5196 29.6357 60.5343C29.6785 60.5484 29.715 60.5715 29.7451 60.6036C29.7759 60.6357 29.7993 60.6776 29.8154 60.7291C29.8315 60.78 29.8395 60.8426 29.8395 60.9169V61.6187H29.5965V60.9159C29.5965 60.8637 29.5888 60.8225 29.5734 60.7924C29.5587 60.7616 29.537 60.7398 29.5082 60.7271C29.4801 60.7137 29.4449 60.707 29.4028 60.707C29.3613 60.707 29.3241 60.7157 29.2913 60.7331C29.2585 60.7505 29.2307 60.7743 29.208 60.8044C29.1859 60.8345 29.1688 60.8693 29.1568 60.9088C29.1447 60.9483 29.1387 60.9905 29.1387 61.0353ZM30.7822 60.5323H31.0021V61.5885C31.0021 61.6863 30.9814 61.7693 30.9399 61.8375C30.8984 61.9058 30.8405 61.9577 30.7662 61.9931C30.6919 62.0293 30.6059 62.0474 30.5081 62.0474C30.4666 62.0474 30.4205 62.0413 30.3696 62.0293C30.3194 62.0172 30.2705 61.9978 30.223 61.9711C30.1762 61.9449 30.137 61.9105 30.1055 61.8676L30.219 61.7251C30.2578 61.7713 30.3007 61.8051 30.3475 61.8265C30.3944 61.8479 30.4436 61.8586 30.4951 61.8586C30.5506 61.8586 30.5978 61.8482 30.6367 61.8275C30.6761 61.8074 30.7066 61.7776 30.728 61.7381C30.7494 61.6986 30.7601 61.6504 30.7601 61.5936V60.7783L30.7822 60.5323ZM30.0443 61.0875V61.0665C30.0443 60.9841 30.0543 60.9092 30.0744 60.8416C30.0945 60.7733 30.1233 60.7147 30.1608 60.6659C30.1982 60.6163 30.2438 60.5785 30.2973 60.5524C30.3509 60.5256 30.4114 60.5123 30.479 60.5123C30.5493 60.5123 30.6092 60.525 30.6587 60.5504C30.7089 60.5758 30.7508 60.6123 30.7842 60.6598C30.8177 60.7067 30.8438 60.7629 30.8626 60.8285C30.882 60.8934 30.8964 60.9657 30.9057 61.0454V61.1126C30.897 61.1903 30.8823 61.2612 30.8615 61.3255C30.8408 61.3897 30.8134 61.4453 30.7792 61.4921C30.7451 61.539 30.7029 61.5751 30.6527 61.6006C30.6032 61.626 30.5446 61.6387 30.477 61.6387C30.4108 61.6387 30.3509 61.625 30.2973 61.5976C30.2444 61.5701 30.1989 61.5316 30.1608 61.4821C30.1233 61.4326 30.0945 61.3743 30.0744 61.3074C30.0543 61.2398 30.0443 61.1665 30.0443 61.0875ZM30.2863 61.0665V61.0875C30.2863 61.1371 30.291 61.1833 30.3003 61.2261C30.3104 61.2689 30.3254 61.3067 30.3455 61.3395C30.3662 61.3717 30.3924 61.3971 30.4238 61.4158C30.4559 61.4339 30.4938 61.443 30.5373 61.443C30.5942 61.443 30.6407 61.4309 30.6768 61.4068C30.7136 61.3827 30.7417 61.3503 30.7612 61.3094C30.7812 61.2679 30.7953 61.2217 30.8033 61.1709V60.9892C30.7993 60.9497 30.7909 60.9128 30.7782 60.8787C30.7662 60.8446 30.7498 60.8148 30.729 60.7894C30.7083 60.7633 30.6822 60.7432 30.6507 60.7291C30.6193 60.7144 30.5821 60.707 30.5393 60.707C30.4958 60.707 30.4579 60.7164 30.4258 60.7351C30.3937 60.7539 30.3673 60.7797 30.3465 60.8125C30.3264 60.8452 30.3114 60.8834 30.3013 60.9269C30.2913 60.9704 30.2863 61.0169 30.2863 61.0665ZM31.4961 60.7392V61.6187H31.2541V60.5323H31.485L31.4961 60.7392ZM31.8284 60.5253L31.8264 60.7502C31.8117 60.7475 31.7956 60.7455 31.7782 60.7442C31.7615 60.7428 31.7447 60.7422 31.728 60.7422C31.6865 60.7422 31.65 60.7482 31.6186 60.7602C31.5871 60.7716 31.5607 60.7884 31.5392 60.8104C31.5185 60.8319 31.5024 60.858 31.491 60.8888C31.4797 60.9195 31.473 60.954 31.471 60.9922L31.4158 60.9962C31.4158 60.9279 31.4224 60.8647 31.4358 60.8064C31.4492 60.7482 31.4693 60.697 31.4961 60.6528C31.5235 60.6086 31.5576 60.5742 31.5985 60.5494C31.64 60.5246 31.6878 60.5123 31.742 60.5123C31.7568 60.5123 31.7725 60.5136 31.7892 60.5163C31.8066 60.519 31.8197 60.522 31.8284 60.5253ZM32.4388 61.6387C32.3585 61.6387 32.2859 61.6257 32.2209 61.5996C32.1567 61.5728 32.1018 61.5357 32.0563 61.4881C32.0115 61.4406 31.977 61.3847 31.9529 61.3205C31.9288 61.2562 31.9167 61.1869 31.9167 61.1126V61.0725C31.9167 60.9875 31.9291 60.9105 31.9539 60.8416C31.9787 60.7726 32.0131 60.7137 32.0573 60.6649C32.1015 60.6153 32.1537 60.5775 32.2139 60.5514C32.2742 60.5253 32.3394 60.5123 32.4097 60.5123C32.4873 60.5123 32.5553 60.5253 32.6135 60.5514C32.6717 60.5775 32.7199 60.6143 32.7581 60.6619C32.7969 60.7087 32.8257 60.7646 32.8444 60.8295C32.8638 60.8944 32.8735 60.9661 32.8735 61.0444V61.1478H32.0342V60.9741H32.6346V60.955C32.6333 60.9115 32.6246 60.8707 32.6085 60.8325C32.5931 60.7944 32.5693 60.7636 32.5372 60.7402C32.5051 60.7167 32.4622 60.705 32.4087 60.705C32.3685 60.705 32.3327 60.7137 32.3013 60.7311C32.2705 60.7479 32.2447 60.7723 32.224 60.8044C32.2032 60.8365 32.1871 60.8754 32.1758 60.9209C32.1651 60.9657 32.1597 61.0163 32.1597 61.0725V61.1126C32.1597 61.1602 32.1661 61.2043 32.1788 61.2452C32.1922 61.2853 32.2116 61.3205 32.237 61.3506C32.2624 61.3807 32.2932 61.4045 32.3294 61.4219C32.3655 61.4386 32.4067 61.447 32.4529 61.447C32.5111 61.447 32.563 61.4353 32.6085 61.4118C32.654 61.3884 32.6935 61.3553 32.727 61.3124L32.8545 61.4359C32.831 61.4701 32.8006 61.5029 32.7631 61.5343C32.7256 61.5651 32.6798 61.5902 32.6256 61.6096C32.572 61.629 32.5098 61.6387 32.4388 61.6387ZM33.6717 61.3245C33.6717 61.3004 33.6657 61.2786 33.6536 61.2592C33.6416 61.2391 33.6185 61.2211 33.5844 61.205C33.5509 61.1889 33.5014 61.1742 33.4358 61.1608C33.3782 61.1481 33.3253 61.1331 33.2771 61.1157C33.2296 61.0976 33.1888 61.0758 33.1547 61.0504C33.1205 61.025 33.0941 60.9948 33.0753 60.96C33.0566 60.9252 33.0472 60.8851 33.0472 60.8396C33.0472 60.7954 33.0569 60.7535 33.0763 60.7141C33.0958 60.6746 33.1235 60.6398 33.1597 60.6096C33.1958 60.5795 33.2397 60.5558 33.2912 60.5384C33.3434 60.521 33.4016 60.5123 33.4659 60.5123C33.5569 60.5123 33.6349 60.5277 33.6998 60.5584C33.7654 60.5886 33.8156 60.6297 33.8504 60.6819C33.8852 60.7335 33.9026 60.7917 33.9026 60.8566H33.6607C33.6607 60.8278 33.6533 60.8011 33.6386 60.7763C33.6245 60.7509 33.6031 60.7305 33.5743 60.7151C33.5455 60.699 33.5094 60.691 33.4659 60.691C33.4244 60.691 33.3899 60.6977 33.3625 60.711C33.3357 60.7238 33.3156 60.7405 33.3022 60.7612C33.2895 60.782 33.2832 60.8048 33.2832 60.8295C33.2832 60.8476 33.2865 60.864 33.2932 60.8787C33.3006 60.8928 33.3126 60.9058 33.3294 60.9179C33.3461 60.9292 33.3688 60.94 33.3976 60.95C33.4271 60.96 33.4639 60.9697 33.5081 60.9791C33.5911 60.9965 33.6623 61.0189 33.7219 61.0464C33.7821 61.0732 33.8283 61.108 33.8605 61.1508C33.8926 61.193 33.9087 61.2465 33.9087 61.3114C33.9087 61.3596 33.8983 61.4038 33.8775 61.444C33.8574 61.4834 33.828 61.5179 33.7892 61.5474C33.7504 61.5762 33.7038 61.5986 33.6496 61.6146C33.5961 61.6307 33.5358 61.6387 33.4689 61.6387C33.3705 61.6387 33.2872 61.6213 33.2189 61.5865C33.1506 61.5511 33.0988 61.5059 33.0633 61.451C33.0285 61.3954 33.0111 61.3379 33.0111 61.2783H33.245C33.2477 61.3231 33.2601 61.359 33.2822 61.3857C33.3049 61.4118 33.333 61.4309 33.3665 61.443C33.4006 61.4543 33.4358 61.46 33.4719 61.46C33.5154 61.46 33.5519 61.4543 33.5814 61.443C33.6108 61.4309 33.6332 61.4148 33.6486 61.3948C33.664 61.374 33.6717 61.3506 33.6717 61.3245ZM34.7329 61.4008V60.8827C34.7329 60.8439 34.7259 60.8104 34.7118 60.7823C34.6978 60.7542 34.6764 60.7325 34.6476 60.7171C34.6195 60.7017 34.584 60.694 34.5412 60.694C34.5017 60.694 34.4675 60.7007 34.4388 60.7141C34.41 60.7274 34.3876 60.7455 34.3715 60.7683C34.3554 60.791 34.3474 60.8168 34.3474 60.8456H34.1064C34.1064 60.8027 34.1168 60.7612 34.1376 60.7211C34.1583 60.6809 34.1884 60.6451 34.2279 60.6137C34.2674 60.5822 34.3146 60.5574 34.3695 60.5394C34.4244 60.5213 34.4859 60.5123 34.5542 60.5123C34.6359 60.5123 34.7082 60.526 34.7711 60.5534C34.8347 60.5809 34.8845 60.6224 34.9207 60.6779C34.9575 60.7328 34.9759 60.8017 34.9759 60.8847V61.3677C34.9759 61.4172 34.9792 61.4617 34.9859 61.5012C34.9933 61.54 35.0037 61.5738 35.0171 61.6026V61.6187H34.7691C34.7577 61.5925 34.7487 61.5594 34.742 61.5193C34.7359 61.4784 34.7329 61.4389 34.7329 61.4008ZM34.7681 60.958L34.7701 61.1076H34.5964C34.5515 61.1076 34.512 61.112 34.4779 61.1207C34.4438 61.1287 34.4153 61.1408 34.3926 61.1568C34.3698 61.1729 34.3527 61.1923 34.3414 61.215C34.33 61.2378 34.3243 61.2636 34.3243 61.2924C34.3243 61.3211 34.331 61.3476 34.3444 61.3717C34.3578 61.3951 34.3772 61.4135 34.4026 61.4269C34.4287 61.4403 34.4602 61.447 34.497 61.447C34.5465 61.447 34.5897 61.4369 34.6265 61.4169C34.664 61.3961 34.6934 61.371 34.7149 61.3416C34.7363 61.3114 34.7477 61.283 34.749 61.2562L34.8273 61.3636C34.8193 61.3911 34.8055 61.4205 34.7861 61.452C34.7667 61.4834 34.7413 61.5136 34.7098 61.5423C34.679 61.5705 34.6419 61.5936 34.5984 61.6116C34.5556 61.6297 34.506 61.6387 34.4498 61.6387C34.3789 61.6387 34.3156 61.6247 34.26 61.5966C34.2045 61.5678 34.161 61.5293 34.1295 61.4811C34.0981 61.4322 34.0823 61.377 34.0823 61.3154C34.0823 61.2579 34.0931 61.207 34.1145 61.1628C34.1366 61.118 34.1687 61.0805 34.2109 61.0504C34.2537 61.0203 34.3059 60.9975 34.3675 60.9821C34.4291 60.9661 34.4993 60.958 34.5783 60.958H34.7681ZM35.4719 60.7392V61.6187H35.2299V60.5323H35.4608L35.4719 60.7392ZM35.8042 60.5253L35.8022 60.7502C35.7874 60.7475 35.7714 60.7455 35.754 60.7442C35.7372 60.7428 35.7205 60.7422 35.7038 60.7422C35.6623 60.7422 35.6258 60.7482 35.5943 60.7602C35.5629 60.7716 35.5365 60.7884 35.515 60.8104C35.4943 60.8319 35.4782 60.858 35.4668 60.8888C35.4555 60.9195 35.4488 60.954 35.4468 60.9922L35.3915 60.9962C35.3915 60.9279 35.3982 60.8647 35.4116 60.8064C35.425 60.7482 35.4451 60.697 35.4719 60.6528C35.4993 60.6086 35.5334 60.5742 35.5743 60.5494C35.6158 60.5246 35.6636 60.5123 35.7178 60.5123C35.7326 60.5123 35.7483 60.5136 35.765 60.5163C35.7824 60.519 35.7955 60.522 35.8042 60.5253Z" fill="#010F39"/>
<path d="M27.1659 67.3122H27.4169C27.4088 67.4079 27.3821 67.4932 27.3365 67.5682C27.291 67.6425 27.2271 67.7011 27.1448 67.7439C27.0625 67.7867 26.9624 67.8082 26.8446 67.8082C26.7542 67.8082 26.6729 67.7921 26.6006 67.76C26.5283 67.7272 26.4664 67.681 26.4149 67.6214C26.3634 67.5612 26.3239 67.4886 26.2964 67.4036C26.2696 67.3186 26.2563 67.2235 26.2563 67.1184V66.9969C26.2563 66.8919 26.27 66.7968 26.2974 66.7118C26.3255 66.6268 26.3657 66.5542 26.4179 66.4939C26.4701 66.433 26.5327 66.3865 26.6056 66.3544C26.6793 66.3223 26.7619 66.3062 26.8536 66.3062C26.9701 66.3062 27.0685 66.3276 27.1488 66.3705C27.2291 66.4133 27.2914 66.4725 27.3355 66.5482C27.3804 66.6238 27.4078 66.7105 27.4179 66.8082H27.1669C27.1602 66.7453 27.1455 66.6914 27.1227 66.6466C27.1006 66.6017 27.0678 66.5676 27.0243 66.5441C26.9808 66.52 26.9239 66.508 26.8536 66.508C26.7961 66.508 26.7459 66.5187 26.703 66.5401C26.6602 66.5615 26.6244 66.593 26.5956 66.6345C26.5668 66.676 26.5451 66.7272 26.5303 66.7881C26.5163 66.8484 26.5093 66.9173 26.5093 66.9949V67.1184C26.5093 67.1921 26.5156 67.259 26.5283 67.3192C26.5417 67.3788 26.5618 67.43 26.5886 67.4728C26.616 67.5157 26.6508 67.5488 26.693 67.5722C26.7352 67.5957 26.7857 67.6074 26.8446 67.6074C26.9162 67.6074 26.9741 67.596 27.0183 67.5732C27.0631 67.5505 27.0969 67.5173 27.1197 67.4738C27.1431 67.4297 27.1585 67.3758 27.1659 67.3122ZM27.8646 66.9086V67.7881H27.6227V66.7018H27.8536L27.8646 66.9086ZM28.197 66.6947L28.195 66.9196C28.1802 66.917 28.1642 66.915 28.1468 66.9136C28.13 66.9123 28.1133 66.9116 28.0966 66.9116C28.0551 66.9116 28.0186 66.9176 27.9871 66.9297C27.9557 66.9411 27.9292 66.9578 27.9078 66.9799C27.8871 67.0013 27.871 67.0274 27.8596 67.0582C27.8482 67.089 27.8416 67.1234 27.8395 67.1616L27.7843 67.1656C27.7843 67.0973 27.791 67.0341 27.8044 66.9759C27.8178 66.9176 27.8379 66.8664 27.8646 66.8222C27.8921 66.7781 27.9262 66.7436 27.9671 66.7188C28.0086 66.6941 28.0564 66.6817 28.1106 66.6817C28.1253 66.6817 28.1411 66.683 28.1578 66.6857C28.1752 66.6884 28.1883 66.6914 28.197 66.6947ZM28.8074 67.8082C28.7271 67.8082 28.6545 67.7951 28.5895 67.769C28.5253 67.7422 28.4704 67.7051 28.4249 67.6576C28.38 67.61 28.3456 67.5542 28.3215 67.4899C28.2974 67.4256 28.2853 67.3564 28.2853 67.2821V67.2419C28.2853 67.1569 28.2977 67.0799 28.3225 67.011C28.3472 66.9421 28.3817 66.8832 28.4259 66.8343C28.4701 66.7848 28.5223 66.747 28.5825 66.7208C28.6427 66.6947 28.708 66.6817 28.7783 66.6817C28.8559 66.6817 28.9239 66.6947 28.9821 66.7208C29.0403 66.747 29.0885 66.7838 29.1267 66.8313C29.1655 66.8781 29.1943 66.934 29.213 66.999C29.2324 67.0639 29.2421 67.1355 29.2421 67.2138V67.3172H28.4028V67.1435H29.0032V67.1245C29.0018 67.0809 28.9931 67.0401 28.9771 67.002C28.9617 66.9638 28.9379 66.933 28.9058 66.9096C28.8737 66.8862 28.8308 66.8745 28.7773 66.8745C28.7371 66.8745 28.7013 66.8832 28.6698 66.9006C28.6391 66.9173 28.6133 66.9417 28.5925 66.9739C28.5718 67.006 28.5557 67.0448 28.5443 67.0903C28.5336 67.1352 28.5283 67.1857 28.5283 67.2419V67.2821C28.5283 67.3296 28.5346 67.3738 28.5474 67.4146C28.5607 67.4548 28.5802 67.4899 28.6056 67.52C28.631 67.5501 28.6618 67.5739 28.698 67.5913C28.7341 67.608 28.7753 67.6164 28.8214 67.6164C28.8797 67.6164 28.9316 67.6047 28.9771 67.5813C29.0226 67.5578 29.0621 67.5247 29.0955 67.4819L29.223 67.6054C29.1996 67.6395 29.1692 67.6723 29.1317 67.7038C29.0942 67.7345 29.0483 67.7596 28.9941 67.7791C28.9406 67.7985 28.8783 67.8082 28.8074 67.8082ZM30.0433 67.5702V67.0522C30.0433 67.0133 30.0363 66.9799 30.0222 66.9518C30.0082 66.9237 29.9867 66.9019 29.958 66.8865C29.9298 66.8711 29.8944 66.8634 29.8515 66.8634C29.812 66.8634 29.7779 66.8701 29.7491 66.8835C29.7204 66.8969 29.6979 66.915 29.6819 66.9377C29.6658 66.9605 29.6578 66.9862 29.6578 67.015H29.4168C29.4168 66.9722 29.4272 66.9307 29.4479 66.8905C29.4687 66.8504 29.4988 66.8146 29.5383 66.7831C29.5778 66.7516 29.625 66.7269 29.6799 66.7088C29.7347 66.6907 29.7963 66.6817 29.8646 66.6817C29.9462 66.6817 30.0185 66.6954 30.0815 66.7229C30.145 66.7503 30.1949 66.7918 30.231 66.8473C30.2679 66.9022 30.2863 66.9712 30.2863 67.0542V67.5371C30.2863 67.5866 30.2896 67.6311 30.2963 67.6706C30.3037 67.7094 30.314 67.7432 30.3274 67.772V67.7881H30.0794C30.0681 67.762 30.059 67.7289 30.0523 67.6887C30.0463 67.6479 30.0433 67.6084 30.0433 67.5702ZM30.0784 67.1275L30.0804 67.2771H29.9068C29.8619 67.2771 29.8224 67.2814 29.7883 67.2901C29.7542 67.2981 29.7257 67.3102 29.7029 67.3263C29.6802 67.3423 29.6631 67.3617 29.6517 67.3845C29.6404 67.4072 29.6347 67.433 29.6347 67.4618C29.6347 67.4906 29.6414 67.517 29.6548 67.5411C29.6681 67.5645 29.6876 67.5829 29.713 67.5963C29.7391 67.6097 29.7706 67.6164 29.8074 67.6164C29.8569 67.6164 29.9001 67.6064 29.9369 67.5863C29.9744 67.5655 30.0038 67.5404 30.0252 67.511C30.0466 67.4809 30.058 67.4524 30.0594 67.4256L30.1377 67.5331C30.1296 67.5605 30.1159 67.59 30.0965 67.6214C30.0771 67.6529 30.0517 67.683 30.0202 67.7118C29.9894 67.7399 29.9523 67.763 29.9088 67.7811C29.8659 67.7991 29.8164 67.8082 29.7602 67.8082C29.6892 67.8082 29.626 67.7941 29.5704 67.766C29.5149 67.7372 29.4714 67.6987 29.4399 67.6505C29.4084 67.6017 29.3927 67.5465 29.3927 67.4849C29.3927 67.4273 29.4034 67.3765 29.4248 67.3323C29.4469 67.2874 29.4791 67.2499 29.5212 67.2198C29.5641 67.1897 29.6163 67.167 29.6778 67.1516C29.7394 67.1355 29.8097 67.1275 29.8887 67.1275H30.0784ZM30.7822 66.9086V67.7881H30.5403V66.7018H30.7712L30.7822 66.9086ZM31.1146 66.6947L31.1125 66.9196C31.0978 66.917 31.0818 66.915 31.0644 66.9136C31.0476 66.9123 31.0309 66.9116 31.0142 66.9116C30.9727 66.9116 30.9362 66.9176 30.9047 66.9297C30.8733 66.9411 30.8468 66.9578 30.8254 66.9799C30.8047 67.0013 30.7886 67.0274 30.7772 67.0582C30.7658 67.089 30.7591 67.1234 30.7571 67.1616L30.7019 67.1656C30.7019 67.0973 30.7086 67.0341 30.722 66.9759C30.7354 66.9176 30.7555 66.8664 30.7822 66.8222C30.8097 66.7781 30.8438 66.7436 30.8846 66.7188C30.9261 66.6941 30.974 66.6817 31.0282 66.6817C31.0429 66.6817 31.0587 66.683 31.0754 66.6857C31.0928 66.6884 31.1059 66.6914 31.1146 66.6947ZM32.222 67.6154C32.2614 67.6154 32.2969 67.6077 32.3284 67.5923C32.3605 67.5762 32.3863 67.5542 32.4057 67.526C32.4258 67.4979 32.4368 67.4655 32.4388 67.4287H32.6667C32.6654 67.4989 32.6446 67.5629 32.6045 67.6204C32.5643 67.678 32.5111 67.7238 32.4448 67.758C32.3786 67.7914 32.3053 67.8082 32.225 67.8082C32.142 67.8082 32.0697 67.7941 32.0081 67.766C31.9465 67.7372 31.8953 67.6977 31.8545 67.6475C31.8137 67.5973 31.7829 67.5394 31.7621 67.4738C31.742 67.4082 31.732 67.338 31.732 67.263V67.2279C31.732 67.1529 31.742 67.0826 31.7621 67.017C31.7829 66.9508 31.8137 66.8925 31.8545 66.8423C31.8953 66.7921 31.9465 66.753 32.0081 66.7249C32.0697 66.6961 32.1416 66.6817 32.224 66.6817C32.311 66.6817 32.3873 66.6991 32.4529 66.7339C32.5185 66.768 32.57 66.8159 32.6075 66.8775C32.6456 66.9384 32.6654 67.0093 32.6667 67.0903H32.4388C32.4368 67.0502 32.4268 67.014 32.4087 66.9819C32.3913 66.9491 32.3665 66.923 32.3344 66.9036C32.3029 66.8842 32.2651 66.8745 32.2209 66.8745C32.1721 66.8745 32.1316 66.8845 32.0995 66.9046C32.0673 66.924 32.0422 66.9508 32.0242 66.9849C32.0061 67.0184 31.993 67.0562 31.985 67.0983C31.9776 67.1398 31.974 67.183 31.974 67.2279V67.263C31.974 67.3078 31.9776 67.3514 31.985 67.3935C31.9924 67.4357 32.0051 67.4735 32.0232 67.507C32.0419 67.5398 32.0673 67.5662 32.0995 67.5863C32.1316 67.6057 32.1724 67.6154 32.222 67.6154ZM33.5061 67.5321V66.7018H33.749V67.7881H33.5201L33.5061 67.5321ZM33.5402 67.3062L33.6215 67.3042C33.6215 67.3771 33.6135 67.4444 33.5974 67.506C33.5814 67.5669 33.5566 67.6201 33.5231 67.6656C33.4897 67.7104 33.4468 67.7456 33.3946 67.771C33.3424 67.7958 33.2798 67.8082 33.2069 67.8082C33.154 67.8082 33.1055 67.8005 33.0613 67.7851C33.0171 67.7697 32.979 67.7459 32.9468 67.7138C32.9154 67.6817 32.8909 67.6398 32.8735 67.5883C32.8561 67.5368 32.8474 67.4752 32.8474 67.4036V66.7018H33.0894V67.4056C33.0894 67.4451 33.0941 67.4782 33.1035 67.505C33.1128 67.5311 33.1255 67.5521 33.1416 67.5682C33.1577 67.5843 33.1764 67.5957 33.1978 67.6023C33.2192 67.609 33.242 67.6124 33.2661 67.6124C33.335 67.6124 33.3893 67.599 33.4287 67.5722C33.4689 67.5448 33.4974 67.508 33.5141 67.4618C33.5315 67.4156 33.5402 67.3637 33.5402 67.3062ZM34.4759 67.8082C34.3956 67.8082 34.323 67.7951 34.258 67.769C34.1938 67.7422 34.1389 67.7051 34.0934 67.6576C34.0485 67.61 34.0141 67.5542 33.99 67.4899C33.9659 67.4256 33.9538 67.3564 33.9538 67.2821V67.2419C33.9538 67.1569 33.9662 67.0799 33.991 67.011C34.0157 66.9421 34.0502 66.8832 34.0944 66.8343C34.1386 66.7848 34.1908 66.747 34.251 66.7208C34.3113 66.6947 34.3765 66.6817 34.4468 66.6817C34.5244 66.6817 34.5924 66.6947 34.6506 66.7208C34.7088 66.747 34.757 66.7838 34.7952 66.8313C34.834 66.8781 34.8628 66.934 34.8815 66.999C34.9009 67.0639 34.9106 67.1355 34.9106 67.2138V67.3172H34.0713V67.1435H34.6717V67.1245C34.6703 67.0809 34.6616 67.0401 34.6456 67.002C34.6302 66.9638 34.6064 66.933 34.5743 66.9096C34.5422 66.8862 34.4993 66.8745 34.4458 66.8745C34.4056 66.8745 34.3698 66.8832 34.3384 66.9006C34.3076 66.9173 34.2818 66.9417 34.2611 66.9739C34.2403 67.006 34.2242 67.0448 34.2129 67.0903C34.2022 67.1352 34.1968 67.1857 34.1968 67.2419V67.2821C34.1968 67.3296 34.2032 67.3738 34.2159 67.4146C34.2293 67.4548 34.2487 67.4899 34.2741 67.52C34.2995 67.5501 34.3303 67.5739 34.3665 67.5913C34.4026 67.608 34.4438 67.6164 34.49 67.6164C34.5482 67.6164 34.6001 67.6047 34.6456 67.5813C34.6911 67.5578 34.7306 67.5247 34.764 67.4819L34.8916 67.6054C34.8681 67.6395 34.8377 67.6723 34.8002 67.7038C34.7627 67.7345 34.7169 67.7596 34.6626 67.7791C34.6091 67.7985 34.5469 67.8082 34.4759 67.8082ZM35.3393 66.9337V67.7881H35.0974V66.7018H35.3253L35.3393 66.9337ZM35.2962 67.2048L35.2179 67.2038C35.2185 67.1268 35.2292 67.0562 35.25 66.9919C35.2714 66.9277 35.3008 66.8724 35.3383 66.8263C35.3765 66.7801 35.422 66.7446 35.4749 66.7198C35.5277 66.6944 35.5866 66.6817 35.6516 66.6817C35.7038 66.6817 35.751 66.6891 35.7931 66.7038C35.836 66.7178 35.8725 66.7409 35.9026 66.7731C35.9334 66.8052 35.9568 66.847 35.9729 66.8986C35.9889 66.9494 35.9969 67.012 35.9969 67.0863V67.7881H35.754V67.0853C35.754 67.0331 35.7463 66.9919 35.7309 66.9618C35.7162 66.931 35.6944 66.9093 35.6656 66.8965C35.6375 66.8832 35.6024 66.8765 35.5602 66.8765C35.5187 66.8765 35.4816 66.8852 35.4488 66.9026C35.416 66.92 35.3882 66.9437 35.3654 66.9739C35.3434 67.004 35.3263 67.0388 35.3142 67.0783C35.3022 67.1178 35.2962 67.1599 35.2962 67.2048ZM36.7419 66.7018V66.8785H36.1295V66.7018H36.7419ZM36.3062 66.4357H36.5481V67.4879C36.5481 67.5214 36.5528 67.5471 36.5622 67.5652C36.5722 67.5826 36.586 67.5943 36.6034 67.6003C36.6208 67.6064 36.6412 67.6094 36.6646 67.6094C36.6813 67.6094 36.6974 67.6084 36.7128 67.6064C36.7282 67.6044 36.7406 67.6023 36.7499 67.6003L36.7509 67.7851C36.7309 67.7911 36.7074 67.7965 36.6807 67.8011C36.6546 67.8058 36.6244 67.8082 36.5903 67.8082C36.5347 67.8082 36.4856 67.7985 36.4427 67.7791C36.3999 67.759 36.3664 67.7265 36.3423 67.6817C36.3182 67.6368 36.3062 67.5772 36.3062 67.503V66.4357ZM37.5411 67.5702V67.0522C37.5411 67.0133 37.5341 66.9799 37.52 66.9518C37.5059 66.9237 37.4845 66.9019 37.4557 66.8865C37.4276 66.8711 37.3922 66.8634 37.3493 66.8634C37.3098 66.8634 37.2757 66.8701 37.2469 66.8835C37.2181 66.8969 37.1957 66.915 37.1796 66.9377C37.1636 66.9605 37.1555 66.9862 37.1555 67.015H36.9146C36.9146 66.9722 36.925 66.9307 36.9457 66.8905C36.9665 66.8504 36.9966 66.8146 37.0361 66.7831C37.0756 66.7516 37.1228 66.7269 37.1776 66.7088C37.2325 66.6907 37.2941 66.6817 37.3624 66.6817C37.444 66.6817 37.5163 66.6954 37.5792 66.7229C37.6428 66.7503 37.6927 66.7918 37.7288 66.8473C37.7656 66.9022 37.784 66.9712 37.784 67.0542V67.5371C37.784 67.5866 37.7874 67.6311 37.7941 67.6706C37.8014 67.7094 37.8118 67.7432 37.8252 67.772V67.7881H37.5772C37.5658 67.762 37.5568 67.7289 37.5501 67.6887C37.5441 67.6479 37.5411 67.6084 37.5411 67.5702ZM37.5762 67.1275L37.5782 67.2771H37.4045C37.3597 67.2771 37.3202 67.2814 37.2861 67.2901C37.2519 67.2981 37.2235 67.3102 37.2007 67.3263C37.178 67.3423 37.1609 67.3617 37.1495 67.3845C37.1381 67.4072 37.1325 67.433 37.1325 67.4618C37.1325 67.4906 37.1391 67.517 37.1525 67.5411C37.1659 67.5645 37.1853 67.5829 37.2108 67.5963C37.2369 67.6097 37.2683 67.6164 37.3051 67.6164C37.3547 67.6164 37.3978 67.6064 37.4347 67.5863C37.4721 67.5655 37.5016 67.5404 37.523 67.511C37.5444 67.4809 37.5558 67.4524 37.5571 67.4256L37.6355 67.5331C37.6274 67.5605 37.6137 67.59 37.5943 67.6214C37.5749 67.6529 37.5494 67.683 37.518 67.7118C37.4872 67.7399 37.4501 67.763 37.4065 67.7811C37.3637 67.7991 37.3142 67.8082 37.258 67.8082C37.187 67.8082 37.1238 67.7941 37.0682 67.766C37.0126 67.7372 36.9691 67.6987 36.9377 67.6505C36.9062 67.6017 36.8905 67.5465 36.8905 67.4849C36.8905 67.4273 36.9012 67.3765 36.9226 67.3323C36.9447 67.2874 36.9768 67.2499 37.019 67.2198C37.0618 67.1897 37.114 67.167 37.1756 67.1516C37.2372 67.1355 37.3075 67.1275 37.3865 67.1275H37.5762Z" fill="#1E4665"/>
</g>
</g>
<rect x="1.5" y="1.5" width="61" height="106" rx="5.5" stroke="#7B757F" stroke-width="3" stroke-linecap="round"/>
<defs>
<clipPath id="clip0_96_14533">
<rect x="3" y="3" width="58" height="103" rx="4" fill="white"/>
</clipPath>
<clipPath id="clip1_96_14533">
<rect x="3" y="3" width="58" height="103" rx="1.02885" fill="white"/>
</clipPath>
<clipPath id="clip2_96_14533">
<rect width="36.0098" height="11.3174" fill="white" transform="translate(14.0293 39)"/>
</clipPath>
</defs>
</svg>
