<svg width="24" height="24" viewBox="0 0 24 24" fill="none" xmlns="http://www.w3.org/2000/svg">
<g clip-path="url(#clip0_42_999)">
<path d="M5.8201 7.63007C6.2101 7.63007 6.6101 7.63007 7.0001 7.69007C7.66776 7.72789 8.32397 7.8801 8.9401 8.14007C9.01522 8.17733 9.1017 8.18459 9.18198 8.1604C9.26226 8.1362 9.33032 8.08234 9.37233 8.00978C9.41435 7.93721 9.42716 7.85138 9.40817 7.76971C9.38918 7.68804 9.33982 7.61666 9.2701 7.57007C8.71913 7.16943 8.09864 6.87445 7.4401 6.70007C6.8775 6.54391 6.28972 6.49974 5.7101 6.57007C5.04434 6.67311 4.39946 6.88245 3.8001 7.19007C3.72859 7.21718 3.67013 7.27057 3.63668 7.33935C3.60322 7.40812 3.59729 7.48707 3.6201 7.56007C3.64721 7.63389 3.70222 7.69411 3.77329 7.72778C3.84436 7.76144 3.92581 7.76586 4.0001 7.74007C4.60059 7.63416 5.21123 7.59725 5.8201 7.63007Z" fill="black"/>
<path d="M9.50021 10.16C8.76541 9.4937 7.82113 9.10467 6.83021 9.06004C6.55291 9.05064 6.27531 9.06402 6.00021 9.10004C5.35424 9.22107 4.726 9.42265 4.13021 9.70004C4.06563 9.72903 4.01388 9.78065 3.98472 9.84515C3.95557 9.90966 3.95101 9.9826 3.97192 10.0502C3.99282 10.1179 4.03774 10.1755 4.09821 10.2123C4.15868 10.2491 4.23053 10.2625 4.30021 10.25C4.90638 10.1661 5.51849 10.1326 6.13021 10.15H7.30021C7.9454 10.1753 8.57708 10.3426 9.15021 10.64C9.18315 10.6752 9.2234 10.7027 9.26812 10.7206C9.31283 10.7386 9.36094 10.7465 9.40905 10.7439C9.45716 10.7412 9.5041 10.7281 9.54659 10.7054C9.58908 10.6827 9.62608 10.6509 9.65499 10.6124C9.6839 10.5738 9.70402 10.5294 9.71393 10.4823C9.72384 10.4351 9.72331 10.3864 9.71237 10.3394C9.70143 10.2925 9.68035 10.2486 9.65061 10.2107C9.62086 10.1728 9.58318 10.1418 9.54021 10.12L9.50021 10.16Z" fill="black"/>
<path d="M6.88011 11.58C6.59452 11.5449 6.30571 11.5449 6.02011 11.58C5.36945 11.6682 4.73966 11.8714 4.16011 12.18C4.09188 12.2075 4.03665 12.2599 4.00561 12.3266C3.97456 12.3933 3.97002 12.4693 3.9929 12.5392C4.01578 12.6091 4.06437 12.6677 4.12884 12.7031C4.19331 12.7386 4.26883 12.7482 4.34011 12.73C4.90618 12.6182 5.4849 12.5845 6.06011 12.63H6.76011C6.99201 12.6486 7.22248 12.682 7.45011 12.73C7.9929 12.8594 8.51472 13.0648 9.00011 13.34C9.03416 13.3652 9.07287 13.3834 9.11401 13.3935C9.15514 13.4037 9.19788 13.4055 9.23974 13.399C9.2816 13.3925 9.32175 13.3778 9.35787 13.3556C9.39398 13.3335 9.42533 13.3044 9.45011 13.27C9.47644 13.235 9.49531 13.1951 9.50557 13.1525C9.51583 13.11 9.51725 13.0658 9.50976 13.0227C9.50226 12.9796 9.486 12.9384 9.46198 12.9019C9.43796 12.8653 9.40669 12.834 9.37011 12.81C8.87795 12.374 8.30799 12.0348 7.69011 11.81C7.42706 11.7107 7.1561 11.6338 6.88011 11.58Z" fill="black"/>
<path d="M15.5202 5.68001C15.5973 6.07311 15.6507 6.4705 15.6802 6.87001C15.8202 8.54001 15.6802 10.25 15.9702 11.87C15.9702 11.87 16.4102 12.48 16.8702 12.1C17.0867 11.921 17.2937 11.7308 17.4902 11.53C17.6139 11.3658 17.7243 11.1919 17.8202 11.01C17.9562 10.7611 18.0765 10.504 18.1802 10.24C18.41 10.4869 18.6207 10.751 18.8102 11.03C18.8102 11.03 19.3402 11.73 19.3802 11.77C19.4652 11.8712 19.5812 11.9415 19.7102 11.97C19.8414 12.0047 19.9809 11.9877 20.1 11.9226C20.2191 11.8575 20.3086 11.7492 20.3502 11.62C20.4146 11.4567 20.455 11.2849 20.4702 11.11V10.2L20.3702 7.54001C20.0002 4.00001 20.0002 3.54001 19.7602 3.05001C19.6717 2.87318 19.548 2.71632 19.3967 2.58906C19.2453 2.4618 19.0696 2.36684 18.8802 2.31001C18.5971 2.21532 18.2979 2.17793 18.0002 2.20001C17.6309 2.21092 17.2631 2.25105 16.9002 2.32001C16.8002 2.32001 14.7602 2.79001 14.5702 2.91001C14.5375 2.92859 14.509 2.95356 14.4862 2.98341C14.4634 3.01327 14.4468 3.04741 14.4375 3.0838C14.4282 3.12019 14.4262 3.15809 14.4319 3.19523C14.4375 3.23237 14.4505 3.26801 14.4702 3.30001C14.8923 4.05952 15.2438 4.8562 15.5202 5.68001ZM15.2602 3.37001L17.0002 3.00001C17.3332 2.97949 17.6672 2.97949 18.0002 3.00001C18.191 2.99149 18.3816 3.02211 18.5602 3.09001C18.6497 3.11845 18.7323 3.16513 18.8029 3.22708C18.8734 3.28904 18.9304 3.36495 18.9702 3.45001C19.0799 3.82658 19.1305 4.21791 19.1202 4.61001L19.3302 7.66001V10C19.191 9.8176 19.0407 9.64394 18.8802 9.48001C18.6559 9.25954 18.3997 9.07412 18.1202 8.93001C18.045 8.8951 17.9631 8.87702 17.8802 8.87702C17.7973 8.87702 17.7154 8.8951 17.6402 8.93001C17.5328 8.96949 17.4414 9.04331 17.3802 9.14001C17.3395 9.24766 17.3061 9.3579 17.2802 9.47001L17.1302 9.87001C17.0502 10.06 16.9702 10.26 16.8802 10.45L16.7402 10.71C16.5702 9.43001 16.5702 8.11001 16.3902 6.82001C16.3392 6.3917 16.2591 5.96738 16.1502 5.55001C16.0565 5.18249 15.9293 4.82432 15.7702 4.48001C15.6002 4.12001 15.4002 3.76001 15.1902 3.41001L15.2602 3.37001Z" fill="black"/>
<path d="M23.8902 10.2501C23.7802 9.25009 23.6101 8.25009 23.4601 7.33009C23.3682 6.61147 23.2143 5.90216 23.0002 5.21009C22.8901 4.83243 22.658 4.50188 22.3402 4.27009C21.973 4.06298 21.5686 3.93044 21.1502 3.88009C21.0802 3.87623 21.0101 3.87623 20.9402 3.88009C20.2902 3.88009 20.3802 4.50009 20.9402 4.61009H21.0102C21.3164 4.66585 21.6086 4.78138 21.8702 4.95009C22.0668 5.17699 22.186 5.46077 22.2101 5.76009C22.3301 6.38009 22.3402 7.09009 22.3902 7.53009C22.5202 8.40009 22.6502 9.38009 22.7802 10.3901C22.9102 11.4001 23.0102 12.2901 23.0402 13.2401C23.0845 14.1997 23.0309 15.1613 22.8801 16.1101C21.7401 15.73 20.5411 15.5573 19.3402 15.6001C18.094 15.6383 16.8576 15.8331 15.6602 16.1801C15.2808 16.2878 14.9175 16.4458 14.5802 16.6501C14.15 16.9117 13.7359 17.1989 13.3402 17.5101L13.0302 17.7101C13.0302 16.8301 13.1102 15.7101 13.1002 14.6001V13.0901C13.1002 12.5801 13.0202 12.0901 12.9602 11.5901C12.8002 10.2701 12.5502 9.04009 12.3502 8.13009C12.3505 8.0876 12.3408 8.04564 12.3219 8.00761C12.3029 7.96958 12.2753 7.93655 12.2412 7.91122C12.2071 7.88588 12.1675 7.86895 12.1256 7.86181C12.0837 7.85466 12.0407 7.8575 12.0002 7.87009C11.9632 7.87498 11.9276 7.88719 11.8955 7.906C11.8633 7.92482 11.8353 7.94986 11.8129 7.97966C11.7906 8.00946 11.7744 8.04342 11.7653 8.07956C11.7563 8.11569 11.7545 8.15326 11.7602 8.19008C11.8402 9.11008 11.8502 10.3401 11.9002 11.6601C11.9002 12.1401 11.9002 12.6601 11.9802 13.1401C12.0602 13.6201 12.0502 14.1401 12.1002 14.6301C12.1902 15.7001 12.2902 16.7001 12.3502 17.5401C12.1102 17.3701 11.8302 17.1701 11.4602 16.9501C11.0786 16.7185 10.6809 16.5146 10.2702 16.3401C8.84836 15.7367 7.29521 15.5095 5.76015 15.6801C4.38916 15.8594 3.06715 16.308 1.87015 17.0001C1.97431 16.1308 2.01774 15.2554 2.00015 14.3801C1.9834 13.408 1.89314 12.4386 1.73015 11.4801L1.11015 7.00009C1.11015 6.80009 1.22015 6.67009 1.38015 6.55009C1.64767 6.36516 1.94076 6.2203 2.25015 6.12009C3.74881 5.55172 5.33735 5.25705 6.94015 5.25009C8.54774 5.27038 10.1352 5.61031 11.6102 6.25009C11.6884 6.28589 11.7776 6.28915 11.8583 6.25914C11.9389 6.22914 12.0043 6.16832 12.0402 6.09009C12.076 6.01185 12.0792 5.92259 12.0492 5.84195C12.0192 5.76131 11.9584 5.69589 11.8802 5.66009C10.3603 4.89257 8.6997 4.4434 7.00015 4.34009C5.28016 4.26426 3.56103 4.50839 1.93015 5.06009C1.40464 5.21617 0.919866 5.48586 0.510152 5.85009C0.320286 6.00666 0.173717 6.20929 0.0844341 6.43862C-0.0048487 6.66796 -0.033866 6.91635 0.000151523 7.16009C0.000151523 7.37009 0.180152 8.36009 0.360152 9.40008C0.510152 10.2601 0.680152 11.1401 0.810152 11.6701C1.01877 12.5753 1.16247 13.4944 1.24015 14.4201C1.31015 15.3701 1.24015 17.5501 1.24015 17.6201C1.20055 18.0227 1.2955 18.4271 1.51015 18.7701C1.62861 18.9515 1.78622 19.104 1.97138 19.2165C2.15655 19.329 2.36457 19.3986 2.58015 19.4201C2.81183 19.4594 3.04848 19.4594 3.28015 19.4201C3.72015 19.3301 4.19015 19.1301 4.59015 19.0701C5.14451 19.008 5.70253 18.9846 6.26015 19.0001C6.80493 19.0038 7.34785 19.0641 7.88015 19.1801C8.78924 19.3044 9.61418 19.7779 10.1802 20.5001C10.4655 20.9216 10.8287 21.2847 11.2502 21.5701C11.6654 21.7871 12.1329 21.8841 12.6002 21.8501C13.2114 21.8544 13.8136 21.7029 14.3502 21.4101C15.011 20.9341 15.6239 20.3949 16.1802 19.8001C16.3934 19.6084 16.6411 19.4591 16.9102 19.3601C17.3618 19.1789 17.8309 19.0448 18.3102 18.9601C18.7938 18.8581 19.286 18.8012 19.7802 18.7901C20.2733 18.7828 20.7659 18.8264 21.2502 18.9201C21.3402 18.9201 21.9902 19.1701 22.2502 19.2101C22.3255 19.2253 22.4033 19.2234 22.4777 19.2043C22.5522 19.1853 22.6214 19.1496 22.6802 19.1001C22.8956 18.8604 23.05 18.5723 23.1301 18.2601C23.5332 16.616 23.8173 14.945 23.9802 13.2601C24.0123 12.2559 23.9823 11.2506 23.8902 10.2501ZM22.4802 18.0001C22.4424 18.1121 22.392 18.2194 22.3302 18.3201C22.0408 18.1993 21.7332 18.1283 21.4202 18.1101C20.883 17.9794 20.3329 17.9089 19.7802 17.9001C19.2314 17.8917 18.6829 17.9285 18.1402 18.0101C17.6003 18.0915 17.0684 18.2186 16.5501 18.3901C16.1845 18.5305 15.8461 18.7335 15.5502 18.9901C15.0274 19.5166 14.4584 19.9952 13.8502 20.4201C13.468 20.6201 13.0414 20.7198 12.6102 20.7101C11.7202 20.7101 11.5102 20.3101 11.1402 19.8601C10.7905 19.3892 10.3393 19.003 9.82015 18.7301C9.28394 18.4548 8.70632 18.269 8.11015 18.1801C7.51147 18.0883 6.9053 18.0548 6.30015 18.0801C5.69946 18.0968 5.10098 18.1604 4.51015 18.2701C4.10015 18.3501 3.63015 18.5801 3.18015 18.7001C3.03076 18.7434 2.87564 18.7636 2.72015 18.7601C2.5971 18.7559 2.47658 18.7241 2.36751 18.6669C2.25845 18.6098 2.16365 18.5289 2.09015 18.4301C1.9479 18.2136 1.87467 17.9591 1.88015 17.7001C3.11406 17.0275 4.4783 16.6285 5.88015 16.5301C7.25952 16.4564 8.63522 16.7316 9.88015 17.3301C10.722 17.7618 11.5338 18.2495 12.3102 18.7901C12.4925 18.8818 12.697 18.9199 12.9002 18.9001C13.217 18.8609 13.5193 18.7441 13.7802 18.5601C14.442 17.9692 15.1908 17.4835 16.0002 17.1201C17.1106 16.7459 18.2624 16.5075 19.4302 16.4101C20.5537 16.3028 21.6874 16.4114 22.7702 16.7301C22.7202 16.8001 22.5702 17.7201 22.4802 18.0001Z" fill="black"/>
<path d="M12.6502 6.18998C13.0341 6.00002 13.4319 5.83955 13.8402 5.70998L14.4002 5.47998C14.5033 5.4268 14.5861 5.34128 14.6359 5.23652C14.6857 5.13176 14.6997 5.01355 14.6759 4.90003C14.6521 4.78651 14.5916 4.68395 14.5039 4.60807C14.4162 4.53219 14.3059 4.4872 14.1902 4.47998C13.8298 4.53192 13.487 4.66904 13.1902 4.87998C12.8351 5.13354 12.5214 5.4405 12.2602 5.78998C12.2088 5.8439 12.1802 5.91552 12.1802 5.98998C12.1802 6.06445 12.2088 6.13606 12.2602 6.18998C12.3124 6.24069 12.3824 6.26905 12.4552 6.26905C12.528 6.26905 12.5979 6.24069 12.6502 6.18998Z" fill="black"/>
</g>
<defs>
<clipPath id="clip0_42_999">
<rect width="24" height="24" fill="white"/>
</clipPath>
</defs>
</svg>
