<svg width="25" height="22" viewBox="0 0 25 22" fill="none" xmlns="http://www.w3.org/2000/svg">
<path fill-rule="evenodd" clip-rule="evenodd" d="M11.0718 20.2341C11.2901 20.6933 11.6595 21.0635 12.1182 21.2829C12.5768 21.5023 13.0969 21.5574 13.5914 21.4391C16.111 21.0831 23.4508 13.9898 24.3546 12.4561C25.2583 10.9225 23.889 9.71742 22.5744 8.2659C19.6639 5.55011 16.581 3.02523 13.3449 0.707044C13.1355 0.581324 12.8978 0.510481 12.6537 0.501077C12.4096 0.491672 12.1671 0.544011 11.9487 0.653243C11.7302 0.762475 11.5428 0.92507 11.4039 1.12597C11.265 1.32687 11.179 1.55957 11.154 1.80253C10.9075 2.76108 10.6884 4.92466 10.5241 6.26664C8.53374 5.81029 6.5095 5.51719 4.47149 5.39025C4.25535 5.42773 4.05938 5.54032 3.91813 5.70817C3.77689 5.87602 3.69943 6.08835 3.69943 6.30772C3.69943 6.52709 3.77689 6.73941 3.91813 6.90726C4.05938 7.07511 4.25535 7.1877 4.47149 7.22519C7.21021 7.22519 11.3731 9.08751 12.1947 8.29329C12.7461 6.82542 13.0783 5.28433 13.1806 3.71963C16.1259 6.05502 18.8739 8.62898 21.3968 11.4154C19.335 13.5449 17.1297 15.5305 14.7965 17.3584C14.6047 17.4954 14.057 18.1253 13.6462 18.4265C13.6462 17.0298 14.413 13.9898 13.9201 12.9491C13.6974 12.6418 13.3886 12.4075 13.0327 12.2759C12.6768 12.1443 12.2898 12.1212 11.9208 12.2096C10.5788 12.4561 7.45669 13.3599 6.44337 13.6338C5.43004 13.9077 4.33456 14.5649 3.70465 14.3732C3.07475 14.1815 3.12952 13.3051 3.04736 12.8943C2.55439 10.8129 3.04736 8.51238 2.44484 6.43096C2.37542 6.24501 2.24102 6.09048 2.06649 5.99593C1.89197 5.90138 1.68912 5.87321 1.49543 5.91663C1.30175 5.96004 1.13033 6.0721 1.01286 6.23209C0.895388 6.39209 0.839806 6.5892 0.856389 6.78699C1.34936 9.52571 0.00738752 15.277 3.01997 16.3999C4.63582 17.0024 4.8823 16.1808 11.2361 15.0579C10.6472 16.7248 10.5898 18.5332 11.0718 20.2341Z" fill="#655A6F"/>
</svg>
