<svg width="9" height="8" viewBox="0 0 9 8" fill="none" xmlns="http://www.w3.org/2000/svg">
<path fill-rule="evenodd" clip-rule="evenodd" d="M5.13471 0.482253C5.05213 0.307326 4.9124 0.166273 4.7389 0.0827057C4.56539 -0.000861809 4.36865 -0.0218714 4.1816 0.0231925C3.2285 0.158824 0.452076 2.86102 0.110203 3.44528C-0.231671 4.02954 0.286319 4.4886 0.78359 5.04156C1.88454 6.07615 3.05072 7.03801 4.27484 7.92113C4.35406 7.96902 4.44399 7.99601 4.53632 7.99959C4.62864 8.00317 4.72037 7.98323 4.80301 7.94162C4.88565 7.90001 4.95652 7.83807 5.00907 7.76154C5.06162 7.685 5.09414 7.59635 5.10363 7.5038C5.19687 7.13864 5.27974 6.31441 5.3419 5.80319C6.09478 5.97703 6.8605 6.08869 7.63142 6.13705C7.71318 6.12277 7.78731 6.07988 7.84074 6.01593C7.89417 5.95199 7.92347 5.87111 7.92347 5.78754C7.92347 5.70397 7.89417 5.62308 7.84074 5.55914C7.78731 5.4952 7.71318 5.4523 7.63142 5.43802C6.59544 5.43802 5.02075 4.72857 4.70995 5.03113C4.50136 5.59032 4.37569 6.1774 4.337 6.77347C3.22287 5.8838 2.18338 4.90325 1.22906 3.84174C2.00897 3.03053 2.84316 2.27409 3.72577 1.57774C3.79829 1.52557 4.00549 1.28561 4.16089 1.17084C4.16089 1.70294 3.87081 2.86102 4.05729 3.25748C4.14151 3.37454 4.25833 3.4638 4.39296 3.51395C4.52759 3.56409 4.67397 3.57288 4.81355 3.53918C5.32118 3.44528 6.5022 3.10099 6.88551 2.99665C7.26883 2.89232 7.68322 2.64193 7.92149 2.71496C8.15977 2.78799 8.13905 3.12185 8.17013 3.27835C8.35661 4.07127 8.17013 4.94766 8.39804 5.74059C8.42431 5.81142 8.47515 5.87029 8.54116 5.90631C8.60718 5.94233 8.68391 5.95306 8.75718 5.93652C8.83045 5.91999 8.89529 5.8773 8.93972 5.81635C8.98416 5.7554 9.00519 5.68031 8.99891 5.60496C8.81244 4.56163 9.32007 2.37066 8.18049 1.9429C7.56926 1.71337 7.47602 2.02637 5.07255 2.45413C5.29531 1.81914 5.31703 1.13019 5.13471 0.482253Z" fill="white"/>
</svg>
