<svg width="9" height="8" viewBox="0 0 9 8" fill="none" xmlns="http://www.w3.org/2000/svg">
<path fill-rule="evenodd" clip-rule="evenodd" d="M3.86529 7.51775C3.94787 7.69267 4.0876 7.83373 4.2611 7.91729C4.43461 8.00086 4.63135 8.02187 4.8184 7.97681C5.7715 7.84118 8.54792 5.13898 8.8898 4.55472C9.23167 3.97046 8.71368 3.5114 8.21641 2.95844C7.11546 1.92385 5.94928 0.961992 4.72516 0.0788737C4.64594 0.0309805 4.55601 0.00399275 4.46368 0.000409972C4.37136 -0.0031728 4.27963 0.0167657 4.19699 0.058378C4.11435 0.0999902 4.04348 0.161931 3.99093 0.238464C3.93838 0.314996 3.90586 0.403645 3.89637 0.496201C3.80313 0.861363 3.72026 1.68559 3.6581 2.19681C2.90522 2.02297 2.1395 1.91131 1.36858 1.86295C1.28682 1.87723 1.21269 1.92012 1.15926 1.98407C1.10583 2.04801 1.07653 2.12889 1.07653 2.21246C1.07653 2.29603 1.10583 2.37692 1.15926 2.44086C1.21269 2.5048 1.28682 2.5477 1.36858 2.56198C2.40456 2.56198 3.97925 3.27143 4.29005 2.96887C4.49864 2.40968 4.62431 1.8226 4.663 1.22653C5.77713 2.1162 6.81662 3.09675 7.77094 4.15826C6.99103 4.96947 6.15684 5.72591 5.27423 6.42226C5.20171 6.47443 4.99451 6.71439 4.83911 6.82916C4.83911 6.29706 5.12919 5.13898 4.94271 4.74252C4.85849 4.62546 4.74167 4.5362 4.60704 4.48605C4.47241 4.43591 4.32603 4.42712 4.18645 4.46082C3.67882 4.55472 2.4978 4.89901 2.11449 5.00335C1.73117 5.10768 1.31678 5.35807 1.07851 5.28504C0.840231 5.21201 0.86095 4.87815 0.829871 4.72165C0.643395 3.92873 0.829871 3.05234 0.601956 2.25941C0.575693 2.18858 0.524854 2.12971 0.458836 2.09369C0.392818 2.05767 0.316085 2.04694 0.24282 2.06348C0.169555 2.08001 0.104712 2.1227 0.0602755 2.18365C0.0158391 2.2446 -0.00518585 2.31969 0.00108709 2.39504C0.187564 3.43837 -0.320067 5.62934 0.819511 6.0571C1.43074 6.28663 1.52398 5.97363 3.92745 5.54587C3.70469 6.18086 3.68297 6.86981 3.86529 7.51775Z" fill="white"/>
</svg>
