<svg width="382" height="87" viewBox="0 0 382 87" fill="none" xmlns="http://www.w3.org/2000/svg">
<g filter="url(#filter0_i_130_6295)">
<rect x="50" y="23" width="278" height="42" rx="10" fill="#DED8E0"/>
</g>
<rect x="50.5" y="23.5" width="277" height="41" rx="9.5" stroke="white"/>
<path fill-rule="evenodd" clip-rule="evenodd" d="M382 0H0V87H382V0ZM60 23C54.4772 23 50 27.4772 50 33V55C50 60.5228 54.4772 65 60 65H318C323.523 65 328 60.5228 328 55V33C328 27.4772 323.523 23 318 23H60Z" fill="#DED8E0"/>
<g filter="url(#filter1_i_130_6295)">
<path d="M19.8929 56.698L19.8908 56.6971C18.9042 56.2725 17.8565 56.0612 16.7524 56.0612C15.6482 56.0612 14.6055 56.2725 13.6293 56.698C12.6634 57.119 11.8173 57.6967 11.0949 58.4307C10.3609 59.153 9.78323 59.9992 9.36221 60.9651C8.93671 61.9412 8.7254 62.984 8.7254 64.0881L8.7254 73.0505L8.7254 73.5505L9.2254 73.5505L14.2492 73.5505L14.7492 73.5505L14.7492 73.0505L14.7492 64.0881C14.7492 63.8007 14.8016 63.5407 14.9022 63.3027C15.0045 63.0611 15.1464 62.856 15.3288 62.6827L15.3381 62.6739L15.3469 62.6646C15.5202 62.4822 15.7253 62.3403 15.9669 62.238C16.2049 62.1373 16.4649 62.085 16.7524 62.085C17.0385 62.085 17.3058 62.1369 17.5584 62.2393C17.8011 62.3425 18.0146 62.4866 18.2018 62.6737C18.3757 62.8476 18.5154 63.0555 18.62 63.3027C18.7206 63.5407 18.773 63.8007 18.773 64.0881L18.773 66.6088C18.773 67.712 18.984 68.7539 19.4087 69.7294C19.8185 70.697 20.3909 71.5496 21.125 72.2837C21.8486 73.0073 22.7012 73.5789 23.678 73.9994C24.6538 74.4246 25.6962 74.6357 26.8 74.6357L34.3269 74.6357L34.8269 74.6357L34.8269 74.1357L34.8269 57.2439L34.8269 56.7439L34.3269 56.7439L29.3031 56.7439L28.8031 56.7439L28.8031 57.2439L28.8031 68.6119L26.8 68.6119C26.5125 68.6119 26.2525 68.5596 26.0145 68.4589C25.7674 68.3543 25.5595 68.2146 25.3855 68.0407C25.1976 67.8528 25.0531 67.6382 24.9498 67.3942C24.8492 67.1563 24.7968 66.8962 24.7968 66.6088L24.7968 64.0881C24.7968 62.984 24.5855 61.9412 24.16 60.9651C23.7392 59.9997 23.1675 59.1535 22.4448 58.4307C21.7111 57.6971 20.8593 57.1193 19.8929 56.698Z" fill="#CCC4CF" stroke="#655A6F"/>
<path d="M32.6946 46.7972L32.6946 46.7972L32.6998 46.7951C33.1194 46.6191 33.4894 46.3732 33.8052 46.0574C34.1195 45.7431 34.3646 45.3752 34.5403 44.9581C34.7327 44.5297 34.8269 44.0703 34.8269 43.5858C34.8269 43.1098 34.7315 42.6518 34.5415 42.2161C34.3664 41.7998 34.1231 41.4282 33.8127 41.1042L33.8128 41.1042L33.8052 41.0966C33.4922 40.7836 33.1265 40.5339 32.7122 40.3468L32.7035 40.3429L32.6946 40.3393C32.2589 40.1623 31.798 40.075 31.3161 40.075C30.8441 40.075 30.393 40.163 29.9675 40.3414L29.9674 40.3413L29.955 40.3468C29.5408 40.5339 29.175 40.7836 28.862 41.0966L28.8619 41.0966L28.8546 41.1042C28.5441 41.4282 28.3009 41.7998 28.1258 42.216C27.9357 42.6518 27.8404 43.1098 27.8404 43.5858C27.8404 44.0703 27.9345 44.5297 28.1269 44.9581C28.3027 45.3752 28.5477 45.7431 28.862 46.0574C29.1779 46.3732 29.5479 46.6191 29.9675 46.7951C30.393 46.9735 30.8441 47.0615 31.3161 47.0615C31.798 47.0615 32.2589 46.9742 32.6946 46.7972Z" fill="#CCC4CF" stroke="#655A6F"/>
<path d="M19.8908 30.4383L19.8929 30.4374C20.8593 30.0161 21.7111 29.4383 22.4448 28.7047C23.1675 27.982 23.7392 27.1357 24.16 26.1703C24.5855 25.1942 24.7968 24.1514 24.7968 23.0473L24.7968 20.5266C24.7968 20.2392 24.8492 19.9792 24.9498 19.7412C25.0531 19.4972 25.1976 19.2827 25.3855 19.0947C25.5595 18.9208 25.7674 18.7811 26.0145 18.6765C26.2525 18.5758 26.5125 18.5235 26.8 18.5235L28.8031 18.5235L28.8031 29.8915L28.8031 30.3915L29.3031 30.3915L34.3269 30.3915L34.8269 30.3915L34.8269 29.8915L34.8269 12.9997L34.8269 12.4997L34.3269 12.4997L26.8 12.4997C25.6962 12.4997 24.6538 12.7108 23.678 13.136C22.7012 13.5565 21.8486 14.1282 21.125 14.8517C20.3909 15.5858 19.8185 16.4384 19.4087 17.406C18.984 18.3815 18.773 19.4234 18.773 20.5266L18.773 23.0473C18.773 23.3347 18.7207 23.5947 18.62 23.8327C18.5154 24.0799 18.3757 24.2878 18.2018 24.4617C18.0146 24.6488 17.8011 24.7929 17.5584 24.8961C17.3058 24.9985 17.0385 25.0504 16.7524 25.0504C16.4649 25.0504 16.2049 24.9981 15.9669 24.8974C15.7253 24.7951 15.5202 24.6533 15.3469 24.4709L15.3381 24.4616L15.3288 24.4527C15.1464 24.2794 15.0045 24.0744 14.9022 23.8327C14.8016 23.5947 14.7492 23.3347 14.7492 23.0473L14.7492 14.0849L14.7492 13.5849L14.2492 13.5849L9.2254 13.5849L8.7254 13.5849L8.7254 14.0849L8.7254 23.0473C8.7254 24.1514 8.93671 25.1942 9.36221 26.1703C9.78324 27.1362 10.3609 27.9824 11.0949 28.7047C11.8173 29.4387 12.6634 30.0164 13.6293 30.4374C14.6055 30.8629 15.6482 31.0742 16.7524 31.0742C17.8565 31.0742 18.9043 30.8629 19.8908 30.4383L19.8908 30.4383Z" fill="#CCC4CF" stroke="#655A6F"/>
</g>
<mask id="path-7-outside-1_130_6295" maskUnits="userSpaceOnUse" x="107" y="30.0674" width="163" height="29" fill="black">
<rect fill="white" x="107" y="30.0674" width="163" height="29"/>
<path d="M130.371 54.4942C129.204 55.4978 127.897 56.268 126.45 56.8048C125.003 57.3416 123.503 57.61 121.951 57.61C120.761 57.61 119.611 57.4525 118.503 57.1374C117.406 56.834 116.373 56.4022 115.404 55.8421C114.448 55.2703 113.572 54.5876 112.779 53.794C111.985 53.0005 111.303 52.1253 110.731 51.1684C110.171 50.1998 109.733 49.167 109.418 48.0701C109.114 46.9614 108.963 45.812 108.963 44.6217C108.963 43.4314 109.114 42.2819 109.418 41.1733C109.733 40.0646 110.171 39.0319 110.731 38.075C111.303 37.1064 111.985 36.2253 112.779 35.4318C113.572 34.6382 114.448 33.9614 115.404 33.4013C116.373 32.8294 117.406 32.3918 118.503 32.0884C119.611 31.7733 120.761 31.6158 121.951 31.6158C123.503 31.6158 125.003 31.8842 126.45 32.421C127.897 32.9461 129.204 33.7163 130.371 34.7316L127.71 39.1077C126.975 38.3142 126.106 37.7074 125.102 37.2873C124.098 36.8555 123.048 36.6396 121.951 36.6396C120.842 36.6396 119.804 36.8496 118.835 37.2698C117.867 37.6899 117.021 38.2617 116.297 38.9852C115.574 39.6971 115.002 40.5431 114.582 41.5234C114.162 42.4919 113.952 43.5247 113.952 44.6217C113.952 45.7186 114.162 46.7514 114.582 47.72C115.002 48.6769 115.574 49.5171 116.297 50.2406C117.021 50.9641 117.867 51.536 118.835 51.9561C119.804 52.3762 120.842 52.5862 121.951 52.5862C123.048 52.5862 124.098 52.3762 125.102 51.9561C126.106 51.5243 126.975 50.9116 127.71 50.1181L130.371 54.4942ZM153.068 47.0373V42.0135C153.068 41.325 152.934 40.6773 152.665 40.0705C152.409 39.452 152.053 38.9152 151.597 38.4601C151.142 38.0049 150.606 37.649 149.987 37.3923C149.38 37.1239 148.733 36.9897 148.044 36.9897C147.356 36.9897 146.702 37.1239 146.084 37.3923C145.477 37.649 144.946 38.0049 144.491 38.4601C144.036 38.9152 143.674 39.452 143.405 40.0705C143.149 40.6773 143.02 41.325 143.02 42.0135V47.0373H153.068ZM158.092 57.0674H153.068V52.0436H143.02V57.0674H138.014V42.0135C138.014 40.6248 138.277 39.3236 138.802 38.11C139.327 36.8847 140.039 35.8169 140.937 34.9066C141.847 33.9964 142.909 33.2787 144.123 32.7536C145.348 32.2284 146.655 31.9659 148.044 31.9659C149.433 31.9659 150.734 32.2284 151.948 32.7536C153.173 33.2787 154.241 33.9964 155.151 34.9066C156.061 35.8169 156.779 36.8847 157.304 38.11C157.829 39.3236 158.092 40.6248 158.092 42.0135V57.0674ZM172.474 36.9897V47.0373H177.498C178.186 47.0373 178.834 46.9089 179.441 46.6522C180.048 46.3838 180.579 46.022 181.034 45.5669C181.489 45.1118 181.845 44.5808 182.102 43.974C182.37 43.3555 182.504 42.702 182.504 42.0135C182.504 41.325 182.37 40.6773 182.102 40.0705C181.845 39.452 181.489 38.9152 181.034 38.4601C180.579 38.0049 180.048 37.649 179.441 37.3923C178.834 37.1239 178.186 36.9897 177.498 36.9897H172.474ZM172.474 57.0674H167.45V31.9659H177.498C178.42 31.9659 179.307 32.0884 180.159 32.3335C181.01 32.5669 181.804 32.9053 182.539 33.3487C183.286 33.7805 183.963 34.3057 184.57 34.9241C185.188 35.531 185.713 36.2078 186.145 36.9547C186.589 37.7015 186.927 38.5009 187.16 39.3528C187.405 40.2047 187.528 41.0916 187.528 42.0135C187.528 42.877 187.417 43.7173 187.195 44.5341C186.985 45.351 186.676 46.127 186.268 46.8622C185.871 47.5974 185.381 48.2743 184.797 48.8928C184.214 49.5113 183.56 50.0481 182.837 50.5032L185.62 57.0674H180.281L178.093 52.0086L172.474 52.0436V57.0674ZM205.919 57.0674H200.913V36.9897H193.368V31.9659H213.446V36.9897H205.919V57.0674ZM235.11 47.0373V42.0135C235.11 41.325 234.976 40.6773 234.708 40.0705C234.451 39.452 234.095 38.9152 233.64 38.4601C233.185 38.0049 232.648 37.649 232.029 37.3923C231.423 37.1239 230.775 36.9897 230.086 36.9897C229.398 36.9897 228.744 37.1239 228.126 37.3923C227.519 37.649 226.988 38.0049 226.533 38.4601C226.078 38.9152 225.716 39.452 225.448 40.0705C225.191 40.6773 225.063 41.325 225.063 42.0135V47.0373H235.11ZM240.134 57.0674H235.11V52.0436H225.063V57.0674H220.056V42.0135C220.056 40.6248 220.319 39.3236 220.844 38.11C221.369 36.8847 222.081 35.8169 222.98 34.9066C223.89 33.9964 224.952 33.2787 226.165 32.7536C227.391 32.2284 228.698 31.9659 230.086 31.9659C231.475 31.9659 232.776 32.2284 233.99 32.7536C235.215 33.2787 236.283 33.9964 237.193 34.9066C238.104 35.8169 238.821 36.8847 239.346 38.11C239.871 39.3236 240.134 40.6248 240.134 42.0135V57.0674ZM248.022 39.4928C248.022 38.4542 248.221 37.4798 248.617 36.5696C249.014 35.6593 249.551 34.8658 250.228 34.189C250.916 33.5004 251.716 32.9578 252.626 32.561C253.536 32.1643 254.511 31.9659 255.549 31.9659H267.067V36.9897H255.549C255.199 36.9897 254.872 37.0539 254.569 37.1822C254.266 37.3106 253.997 37.4915 253.764 37.7249C253.542 37.9466 253.367 38.2092 253.239 38.5126C253.11 38.816 253.046 39.1427 253.046 39.4928C253.046 39.8429 253.11 40.1755 253.239 40.4906C253.367 40.794 253.542 41.0624 253.764 41.2958C253.997 41.5175 254.266 41.6926 254.569 41.8209C254.872 41.9493 255.199 42.0135 255.549 42.0135H260.573C261.612 42.0135 262.586 42.2119 263.496 42.6086C264.418 42.9937 265.218 43.5305 265.894 44.2191C266.583 44.8959 267.12 45.6953 267.505 46.6172C267.902 47.5274 268.1 48.5018 268.1 49.5404C268.1 50.579 267.902 51.5535 267.505 52.4637C267.12 53.3739 266.583 54.1733 265.894 54.8618C265.218 55.5387 264.418 56.0755 263.496 56.4722C262.586 56.869 261.612 57.0674 260.573 57.0674H249.423V52.0436H260.573C260.923 52.0436 261.25 51.9794 261.553 51.851C261.857 51.7227 262.119 51.5476 262.341 51.3259C262.574 51.0925 262.755 50.8241 262.884 50.5207C263.012 50.2173 263.076 49.8905 263.076 49.5404C263.076 49.1903 263.012 48.8636 262.884 48.5602C262.755 48.2568 262.574 47.9942 262.341 47.7725C262.119 47.5391 261.857 47.3582 261.553 47.2298C261.25 47.1015 260.923 47.0373 260.573 47.0373H255.549C254.511 47.0373 253.536 46.8389 252.626 46.4421C251.716 46.0454 250.916 45.5086 250.228 44.8317C249.551 44.1432 249.014 43.3438 248.617 42.4336C248.221 41.5117 248.022 40.5314 248.022 39.4928Z"/>
</mask>
<g filter="url(#filter2_ii_130_6295)">
<path d="M130.371 54.4942C129.204 55.4978 127.897 56.268 126.45 56.8048C125.003 57.3416 123.503 57.61 121.951 57.61C120.761 57.61 119.611 57.4525 118.503 57.1374C117.406 56.834 116.373 56.4022 115.404 55.8421C114.448 55.2703 113.572 54.5876 112.779 53.794C111.985 53.0005 111.303 52.1253 110.731 51.1684C110.171 50.1998 109.733 49.167 109.418 48.0701C109.114 46.9614 108.963 45.812 108.963 44.6217C108.963 43.4314 109.114 42.2819 109.418 41.1733C109.733 40.0646 110.171 39.0319 110.731 38.075C111.303 37.1064 111.985 36.2253 112.779 35.4318C113.572 34.6382 114.448 33.9614 115.404 33.4013C116.373 32.8294 117.406 32.3918 118.503 32.0884C119.611 31.7733 120.761 31.6158 121.951 31.6158C123.503 31.6158 125.003 31.8842 126.45 32.421C127.897 32.9461 129.204 33.7163 130.371 34.7316L127.71 39.1077C126.975 38.3142 126.106 37.7074 125.102 37.2873C124.098 36.8555 123.048 36.6396 121.951 36.6396C120.842 36.6396 119.804 36.8496 118.835 37.2698C117.867 37.6899 117.021 38.2617 116.297 38.9852C115.574 39.6971 115.002 40.5431 114.582 41.5234C114.162 42.4919 113.952 43.5247 113.952 44.6217C113.952 45.7186 114.162 46.7514 114.582 47.72C115.002 48.6769 115.574 49.5171 116.297 50.2406C117.021 50.9641 117.867 51.536 118.835 51.9561C119.804 52.3762 120.842 52.5862 121.951 52.5862C123.048 52.5862 124.098 52.3762 125.102 51.9561C126.106 51.5243 126.975 50.9116 127.71 50.1181L130.371 54.4942ZM153.068 47.0373V42.0135C153.068 41.325 152.934 40.6773 152.665 40.0705C152.409 39.452 152.053 38.9152 151.597 38.4601C151.142 38.0049 150.606 37.649 149.987 37.3923C149.38 37.1239 148.733 36.9897 148.044 36.9897C147.356 36.9897 146.702 37.1239 146.084 37.3923C145.477 37.649 144.946 38.0049 144.491 38.4601C144.036 38.9152 143.674 39.452 143.405 40.0705C143.149 40.6773 143.02 41.325 143.02 42.0135V47.0373H153.068ZM158.092 57.0674H153.068V52.0436H143.02V57.0674H138.014V42.0135C138.014 40.6248 138.277 39.3236 138.802 38.11C139.327 36.8847 140.039 35.8169 140.937 34.9066C141.847 33.9964 142.909 33.2787 144.123 32.7536C145.348 32.2284 146.655 31.9659 148.044 31.9659C149.433 31.9659 150.734 32.2284 151.948 32.7536C153.173 33.2787 154.241 33.9964 155.151 34.9066C156.061 35.8169 156.779 36.8847 157.304 38.11C157.829 39.3236 158.092 40.6248 158.092 42.0135V57.0674ZM172.474 36.9897V47.0373H177.498C178.186 47.0373 178.834 46.9089 179.441 46.6522C180.048 46.3838 180.579 46.022 181.034 45.5669C181.489 45.1118 181.845 44.5808 182.102 43.974C182.37 43.3555 182.504 42.702 182.504 42.0135C182.504 41.325 182.37 40.6773 182.102 40.0705C181.845 39.452 181.489 38.9152 181.034 38.4601C180.579 38.0049 180.048 37.649 179.441 37.3923C178.834 37.1239 178.186 36.9897 177.498 36.9897H172.474ZM172.474 57.0674H167.45V31.9659H177.498C178.42 31.9659 179.307 32.0884 180.159 32.3335C181.01 32.5669 181.804 32.9053 182.539 33.3487C183.286 33.7805 183.963 34.3057 184.57 34.9241C185.188 35.531 185.713 36.2078 186.145 36.9547C186.589 37.7015 186.927 38.5009 187.16 39.3528C187.405 40.2047 187.528 41.0916 187.528 42.0135C187.528 42.877 187.417 43.7173 187.195 44.5341C186.985 45.351 186.676 46.127 186.268 46.8622C185.871 47.5974 185.381 48.2743 184.797 48.8928C184.214 49.5113 183.56 50.0481 182.837 50.5032L185.62 57.0674H180.281L178.093 52.0086L172.474 52.0436V57.0674ZM205.919 57.0674H200.913V36.9897H193.368V31.9659H213.446V36.9897H205.919V57.0674ZM235.11 47.0373V42.0135C235.11 41.325 234.976 40.6773 234.708 40.0705C234.451 39.452 234.095 38.9152 233.64 38.4601C233.185 38.0049 232.648 37.649 232.029 37.3923C231.423 37.1239 230.775 36.9897 230.086 36.9897C229.398 36.9897 228.744 37.1239 228.126 37.3923C227.519 37.649 226.988 38.0049 226.533 38.4601C226.078 38.9152 225.716 39.452 225.448 40.0705C225.191 40.6773 225.063 41.325 225.063 42.0135V47.0373H235.11ZM240.134 57.0674H235.11V52.0436H225.063V57.0674H220.056V42.0135C220.056 40.6248 220.319 39.3236 220.844 38.11C221.369 36.8847 222.081 35.8169 222.98 34.9066C223.89 33.9964 224.952 33.2787 226.165 32.7536C227.391 32.2284 228.698 31.9659 230.086 31.9659C231.475 31.9659 232.776 32.2284 233.99 32.7536C235.215 33.2787 236.283 33.9964 237.193 34.9066C238.104 35.8169 238.821 36.8847 239.346 38.11C239.871 39.3236 240.134 40.6248 240.134 42.0135V57.0674ZM248.022 39.4928C248.022 38.4542 248.221 37.4798 248.617 36.5696C249.014 35.6593 249.551 34.8658 250.228 34.189C250.916 33.5004 251.716 32.9578 252.626 32.561C253.536 32.1643 254.511 31.9659 255.549 31.9659H267.067V36.9897H255.549C255.199 36.9897 254.872 37.0539 254.569 37.1822C254.266 37.3106 253.997 37.4915 253.764 37.7249C253.542 37.9466 253.367 38.2092 253.239 38.5126C253.11 38.816 253.046 39.1427 253.046 39.4928C253.046 39.8429 253.11 40.1755 253.239 40.4906C253.367 40.794 253.542 41.0624 253.764 41.2958C253.997 41.5175 254.266 41.6926 254.569 41.8209C254.872 41.9493 255.199 42.0135 255.549 42.0135H260.573C261.612 42.0135 262.586 42.2119 263.496 42.6086C264.418 42.9937 265.218 43.5305 265.894 44.2191C266.583 44.8959 267.12 45.6953 267.505 46.6172C267.902 47.5274 268.1 48.5018 268.1 49.5404C268.1 50.579 267.902 51.5535 267.505 52.4637C267.12 53.3739 266.583 54.1733 265.894 54.8618C265.218 55.5387 264.418 56.0755 263.496 56.4722C262.586 56.869 261.612 57.0674 260.573 57.0674H249.423V52.0436H260.573C260.923 52.0436 261.25 51.9794 261.553 51.851C261.857 51.7227 262.119 51.5476 262.341 51.3259C262.574 51.0925 262.755 50.8241 262.884 50.5207C263.012 50.2173 263.076 49.8905 263.076 49.5404C263.076 49.1903 263.012 48.8636 262.884 48.5602C262.755 48.2568 262.574 47.9942 262.341 47.7725C262.119 47.5391 261.857 47.3582 261.553 47.2298C261.25 47.1015 260.923 47.0373 260.573 47.0373H255.549C254.511 47.0373 253.536 46.8389 252.626 46.4421C251.716 46.0454 250.916 45.5086 250.228 44.8317C249.551 44.1432 249.014 43.3438 248.617 42.4336C248.221 41.5117 248.022 40.5314 248.022 39.4928Z" fill="#FEF7FF"/>
</g>
<path d="M130.371 54.4942L131.023 55.2524L131.666 54.6994L131.225 53.9747L130.371 54.4942ZM126.45 56.8048L126.102 55.8672L126.102 55.8672L126.45 56.8048ZM118.503 57.1374L118.776 56.1755L118.769 56.1736L118.503 57.1374ZM115.404 55.8421L114.891 56.7005L114.898 56.7041L114.904 56.7077L115.404 55.8421ZM110.731 51.1684L109.865 51.669L109.869 51.6752L109.872 51.6813L110.731 51.1684ZM109.418 48.0701L108.453 48.334L108.457 48.3461L109.418 48.0701ZM109.418 41.1733L108.456 40.8999L108.453 40.9093L109.418 41.1733ZM110.731 38.075L109.87 37.5666L109.868 37.5698L110.731 38.075ZM115.404 33.4013L115.91 34.2643L115.913 34.2624L115.404 33.4013ZM118.503 32.0884L118.769 33.0522L118.776 33.0503L118.503 32.0884ZM126.45 32.421L126.102 33.3586L126.109 33.361L126.45 32.421ZM130.371 34.7316L131.225 35.2511L131.663 34.5306L131.027 33.9772L130.371 34.7316ZM127.71 39.1077L126.977 39.7874L127.877 40.7588L128.565 39.6272L127.71 39.1077ZM125.102 37.2873L124.707 38.2059L124.716 38.2097L125.102 37.2873ZM116.297 38.9852L116.999 39.6981L117.004 39.6923L116.297 38.9852ZM114.582 41.5234L115.499 41.9213L115.501 41.9173L114.582 41.5234ZM114.582 47.72L113.664 48.1179L113.666 48.122L114.582 47.72ZM116.297 50.2406L115.59 50.9477L116.297 50.2406ZM125.102 51.9561L125.488 52.8785L125.497 52.8747L125.102 51.9561ZM127.71 50.1181L128.565 49.5986L127.877 48.467L126.977 49.4385L127.71 50.1181ZM129.719 53.736C128.642 54.662 127.438 55.3716 126.102 55.8672L126.798 57.7424C128.356 57.1644 129.766 56.3336 131.023 55.2524L129.719 53.736ZM126.102 55.8672C124.767 56.3625 123.385 56.61 121.951 56.61V58.61C123.621 58.61 125.239 58.3207 126.798 57.7424L126.102 55.8672ZM121.951 56.61C120.85 56.61 119.793 56.4645 118.776 56.1755L118.229 58.0993C119.43 58.4405 120.671 58.61 121.951 58.61V56.61ZM118.769 56.1736C117.753 55.8924 116.799 55.4933 115.905 54.9764L114.904 56.7077C115.947 57.3111 117.059 57.7755 118.236 58.1012L118.769 56.1736ZM115.917 54.9837C115.032 54.4544 114.222 53.8226 113.486 53.0869L112.072 54.5011C112.923 55.3525 113.863 56.0861 114.891 56.7005L115.917 54.9837ZM113.486 53.0869C112.75 52.3512 112.118 51.5411 111.589 50.6554L109.872 51.6813C110.487 52.7094 111.22 53.6498 112.072 54.5011L113.486 53.0869ZM111.596 50.6677C111.078 49.7712 110.672 48.814 110.379 47.794L108.457 48.3461C108.794 49.52 109.263 50.6283 109.865 51.669L111.596 50.6677ZM110.382 47.8061C110.103 46.7865 109.963 45.726 109.963 44.6217H107.963C107.963 45.898 108.126 47.1364 108.453 48.334L110.382 47.8061ZM109.963 44.6217C109.963 43.5173 110.103 42.4568 110.382 41.4372L108.453 40.9093C108.126 42.1069 107.963 43.3454 107.963 44.6217H109.963ZM110.38 41.4466C110.673 40.4159 111.078 39.4615 111.594 38.5801L109.868 37.5698C109.263 38.6023 108.793 39.7133 108.456 40.8999L110.38 41.4466ZM111.592 38.5833C112.121 37.6871 112.752 36.8728 113.486 36.1389L112.072 34.7247C111.218 35.5778 110.484 36.5257 109.87 37.5666L111.592 38.5833ZM113.486 36.1389C114.22 35.405 115.027 34.7808 115.91 34.2643L114.899 32.5382C113.868 33.142 112.925 33.8715 112.072 34.7247L113.486 36.1389ZM115.913 34.2624C116.805 33.7358 117.756 33.3325 118.769 33.0522L118.236 31.1246C117.055 31.4512 115.941 31.9231 114.896 32.5401L115.913 34.2624ZM118.776 33.0503C119.793 32.7613 120.85 32.6158 121.951 32.6158V30.6158C120.671 30.6158 119.43 30.7853 118.229 31.1265L118.776 33.0503ZM121.951 32.6158C123.385 32.6158 124.767 32.8633 126.102 33.3586L126.798 31.4834C125.239 30.9051 123.621 30.6158 121.951 30.6158V32.6158ZM126.109 33.361C127.44 33.844 128.64 34.5511 129.714 35.486L131.027 33.9772C129.768 32.8816 128.354 32.0483 126.791 31.481L126.109 33.361ZM129.516 34.2121L126.856 38.5882L128.565 39.6272L131.225 35.2511L129.516 34.2121ZM128.444 38.4281C127.611 37.5291 126.623 36.8398 125.488 36.3648L124.716 38.2097C125.588 38.575 126.339 39.0993 126.977 39.7874L128.444 38.4281ZM125.497 36.3687C124.368 35.883 123.183 35.6396 121.951 35.6396V37.6396C122.913 37.6396 123.828 37.828 124.707 38.2059L125.497 36.3687ZM121.951 35.6396C120.713 35.6396 119.538 35.875 118.437 36.3523L119.233 38.1872C120.07 37.8243 120.972 37.6396 121.951 37.6396V35.6396ZM118.437 36.3523C117.357 36.8209 116.405 37.4628 115.59 38.2781L117.004 39.6923C117.636 39.0605 118.376 38.5589 119.233 38.1872L118.437 36.3523ZM115.596 38.2724C114.775 39.0799 114.131 40.0359 113.663 41.1294L115.501 41.9173C115.872 41.0503 116.372 40.3142 116.998 39.698L115.596 38.2724ZM113.664 41.1254C113.188 42.2245 112.952 43.3933 112.952 44.6217H114.952C114.952 43.6561 115.136 42.7594 115.499 41.9213L113.664 41.1254ZM112.952 44.6217C112.952 45.85 113.188 47.0188 113.664 48.1179L115.499 47.322C115.136 46.484 114.952 45.5872 114.952 44.6217H112.952ZM113.666 48.122C114.135 49.1902 114.777 50.1344 115.59 50.9477L117.004 49.5335C116.37 48.8997 115.869 48.1636 115.497 47.318L113.666 48.122ZM115.59 50.9477C116.405 51.763 117.357 52.405 118.437 52.8735L119.233 51.0386C118.376 50.6669 117.636 50.1653 117.004 49.5335L115.59 50.9477ZM118.437 52.8735C119.538 53.3508 120.713 53.5862 121.951 53.5862V51.5862C120.972 51.5862 120.07 51.4016 119.233 51.0386L118.437 52.8735ZM121.951 53.5862C123.18 53.5862 124.361 53.3502 125.488 52.8785L124.716 51.0336C123.836 51.4021 122.917 51.5862 121.951 51.5862V53.5862ZM125.497 52.8747C126.628 52.3883 127.613 51.6947 128.444 50.7977L126.977 49.4385C126.337 50.1286 125.583 50.6603 124.707 51.0375L125.497 52.8747ZM126.856 50.6376L129.516 55.0137L131.225 53.9747L128.565 49.5986L126.856 50.6376ZM153.068 47.0373V48.0373H154.068V47.0373H153.068ZM152.665 40.0705L151.742 40.4539L151.746 40.4645L151.751 40.475L152.665 40.0705ZM149.987 37.3923L149.583 38.3068L149.593 38.3115L149.604 38.3159L149.987 37.3923ZM146.084 37.3923L146.473 38.3133L146.482 38.3096L146.084 37.3923ZM143.405 40.0705L142.488 39.6724L142.484 39.6808L143.405 40.0705ZM143.02 47.0373H142.02V48.0373H143.02V47.0373ZM158.092 57.0674V58.0674H159.092V57.0674H158.092ZM153.068 57.0674H152.068V58.0674H153.068V57.0674ZM153.068 52.0436H154.068V51.0436H153.068V52.0436ZM143.02 52.0436V51.0436H142.02V52.0436H143.02ZM143.02 57.0674V58.0674H144.02V57.0674H143.02ZM138.014 57.0674H137.014V58.0674H138.014V57.0674ZM138.802 38.11L139.719 38.5071L139.721 38.5039L138.802 38.11ZM140.937 34.9066L140.23 34.1995L140.226 34.2041L140.937 34.9066ZM144.123 32.7536L143.729 31.8344L143.726 31.8358L144.123 32.7536ZM151.948 32.7536L151.55 33.6714L151.554 33.6727L151.948 32.7536ZM157.304 38.11L156.385 38.5039L156.386 38.5071L157.304 38.11ZM154.068 47.0373V42.0135H152.068V47.0373H154.068ZM154.068 42.0135C154.068 41.191 153.907 40.405 153.58 39.666L151.751 40.475C151.961 40.9496 152.068 41.4589 152.068 42.0135H154.068ZM153.589 39.6871C153.284 38.9525 152.856 38.3045 152.305 37.753L150.89 39.1672C151.249 39.5259 151.533 39.9514 151.742 40.4539L153.589 39.6871ZM152.305 37.753C151.753 37.2014 151.105 36.7736 150.37 36.4687L149.604 38.3159C150.106 38.5244 150.532 38.8085 150.89 39.1672L152.305 37.753ZM150.392 36.4778C149.653 36.1509 148.867 35.9897 148.044 35.9897V37.9897C148.599 37.9897 149.108 38.0969 149.583 38.3068L150.392 36.4778ZM148.044 35.9897C147.222 35.9897 146.432 36.1508 145.685 36.4749L146.482 38.3096C146.972 38.0969 147.49 37.9897 148.044 37.9897V35.9897ZM145.694 36.4713C144.971 36.777 144.332 37.2046 143.784 37.753L145.198 39.1672C145.56 38.8053 145.982 38.521 146.473 38.3133L145.694 36.4713ZM143.784 37.753C143.235 38.3011 142.804 38.9442 142.488 39.6724L144.323 40.4686C144.543 39.9598 144.836 39.5292 145.198 39.1672L143.784 37.753ZM142.484 39.6808C142.173 40.4165 142.02 41.1972 142.02 42.0135H144.02C144.02 41.4527 144.124 40.9381 144.326 40.4601L142.484 39.6808ZM142.02 42.0135V47.0373H144.02V42.0135H142.02ZM143.02 48.0373H153.068V46.0373H143.02V48.0373ZM158.092 56.0674H153.068V58.0674H158.092V56.0674ZM154.068 57.0674V52.0436H152.068V57.0674H154.068ZM153.068 51.0436H143.02V53.0436H153.068V51.0436ZM142.02 52.0436V57.0674H144.02V52.0436H142.02ZM143.02 56.0674H138.014V58.0674H143.02V56.0674ZM139.014 57.0674V42.0135H137.014V57.0674H139.014ZM139.014 42.0135C139.014 40.7544 139.251 39.5891 139.719 38.5071L137.884 37.7129C137.302 39.0581 137.014 40.4952 137.014 42.0135H139.014ZM139.721 38.5039C140.199 37.3886 140.842 36.4267 141.649 35.6092L140.226 34.2041C139.235 35.2071 138.455 36.3807 137.883 37.7161L139.721 38.5039ZM141.644 35.6137C142.463 34.7951 143.419 34.1478 144.52 33.6714L143.726 31.8358C142.4 32.4096 141.232 33.1977 140.23 34.1995L141.644 35.6137ZM144.517 33.6727C145.613 33.2032 146.785 32.9659 148.044 32.9659V30.9659C146.526 30.9659 145.084 31.2537 143.729 31.8344L144.517 33.6727ZM148.044 32.9659C149.303 32.9659 150.468 33.2032 151.55 33.6714L152.345 31.8358C150.999 31.2537 149.562 30.9659 148.044 30.9659V32.9659ZM151.554 33.6727C152.666 34.1496 153.627 34.7967 154.444 35.6137L155.858 34.1995C154.855 33.1961 153.68 32.4079 152.342 31.8344L151.554 33.6727ZM154.444 35.6137C155.261 36.4308 155.908 37.3913 156.385 38.5039L158.223 37.7161C157.65 36.378 156.861 35.2029 155.858 34.1995L154.444 35.6137ZM156.386 38.5071C156.854 39.5891 157.092 40.7544 157.092 42.0135H159.092C159.092 40.4952 158.804 39.0581 158.222 37.7129L156.386 38.5071ZM157.092 42.0135V57.0674H159.092V42.0135H157.092ZM172.474 36.9897V35.9897H171.474V36.9897H172.474ZM172.474 47.0373H171.474V48.0373H172.474V47.0373ZM179.441 46.6522L179.831 47.5732L179.838 47.57L179.845 47.5667L179.441 46.6522ZM182.102 43.974L181.184 43.5759L181.181 43.5844L182.102 43.974ZM182.102 40.0705L181.178 40.4539L181.182 40.4645L181.187 40.475L182.102 40.0705ZM179.441 37.3923L179.036 38.3068L179.044 38.3101L179.051 38.3133L179.441 37.3923ZM172.474 57.0674V58.0674H173.474V57.0674H172.474ZM167.45 57.0674H166.45V58.0674H167.45V57.0674ZM167.45 31.9659V30.9659H166.45V31.9659H167.45ZM180.159 32.3335L179.882 33.2946L179.894 33.2979L180.159 32.3335ZM182.539 33.3487L182.023 34.205L182.031 34.2098L182.039 34.2145L182.539 33.3487ZM184.57 34.9241L183.856 35.6245L183.863 35.6313L183.869 35.638L184.57 34.9241ZM186.145 36.9547L185.279 37.4552L185.285 37.4652L186.145 36.9547ZM187.16 39.3528L186.196 39.6171L186.199 39.6293L187.16 39.3528ZM187.195 44.5341L186.23 44.2722L186.227 44.2851L187.195 44.5341ZM186.268 46.8622L185.393 46.3766L185.388 46.3873L186.268 46.8622ZM182.837 50.5032L182.304 49.6567L181.584 50.1099L181.916 50.8935L182.837 50.5032ZM185.62 57.0674V58.0674H187.13L186.541 56.677L185.62 57.0674ZM180.281 57.0674L179.363 57.4644L179.624 58.0674H180.281V57.0674ZM178.093 52.0086L179.011 51.6116L178.748 51.0045L178.087 51.0086L178.093 52.0086ZM172.474 52.0436L172.468 51.0436L171.474 51.0498V52.0436H172.474ZM171.474 36.9897V47.0373H173.474V36.9897H171.474ZM172.474 48.0373H177.498V46.0373H172.474V48.0373ZM177.498 48.0373C178.314 48.0373 179.095 47.8844 179.831 47.5732L179.051 45.7312C178.573 45.9335 178.059 46.0373 177.498 46.0373V48.0373ZM179.845 47.5667C180.561 47.25 181.196 46.819 181.741 46.274L180.327 44.8598C179.962 45.225 179.534 45.5176 179.036 45.7376L179.845 47.5667ZM181.741 46.274C182.289 45.7256 182.717 45.0862 183.023 44.3636L181.181 43.5844C180.973 44.0754 180.689 44.4979 180.327 44.8598L181.741 46.274ZM183.019 44.3721C183.343 43.6252 183.504 42.836 183.504 42.0135H181.504C181.504 42.568 181.397 43.0857 181.184 43.5759L183.019 44.3721ZM183.504 42.0135C183.504 41.191 183.343 40.405 183.016 39.666L181.187 40.475C181.397 40.9496 181.504 41.4589 181.504 42.0135H183.504ZM183.025 39.6871C182.72 38.9525 182.292 38.3045 181.741 37.753L180.327 39.1672C180.685 39.5259 180.969 39.9514 181.178 40.4539L183.025 39.6871ZM181.741 37.753C181.193 37.2046 180.553 36.777 179.831 36.4713L179.051 38.3133C179.542 38.521 179.965 38.8053 180.327 39.1672L181.741 37.753ZM179.845 36.4778C179.106 36.1509 178.32 35.9897 177.498 35.9897V37.9897C178.052 37.9897 178.562 38.0969 179.036 38.3068L179.845 36.4778ZM177.498 35.9897H172.474V37.9897H177.498V35.9897ZM172.474 56.0674H167.45V58.0674H172.474V56.0674ZM168.45 57.0674V31.9659H166.45V57.0674H168.45ZM167.45 32.9659H177.498V30.9659H167.45V32.9659ZM177.498 32.9659C178.33 32.9659 179.124 33.0763 179.882 33.2945L180.435 31.3725C179.49 31.1005 178.51 30.9659 177.498 30.9659V32.9659ZM179.894 33.2979C180.66 33.5077 181.368 33.8104 182.023 34.205L183.056 32.4924C182.24 32.0002 181.361 31.626 180.423 31.369L179.894 33.2979ZM182.039 34.2145C182.707 34.6008 183.312 35.0702 183.856 35.6245L185.284 34.2238C184.614 33.5411 183.865 32.9602 183.04 32.483L182.039 34.2145ZM183.869 35.638C184.424 36.1818 184.893 36.7869 185.279 37.4552L187.011 36.4542C186.534 35.6287 185.953 34.8802 185.27 34.2103L183.869 35.638ZM185.285 37.4652C185.682 38.1337 185.986 38.8501 186.196 39.617L188.125 39.0886C187.868 38.1517 187.495 37.2693 187.005 36.4441L185.285 37.4652ZM186.199 39.6293C186.418 40.3877 186.528 41.1813 186.528 42.0135H188.528C188.528 41.0018 188.393 40.0216 188.121 39.0763L186.199 39.6293ZM186.528 42.0135C186.528 42.7904 186.428 43.5424 186.23 44.2722L188.161 44.7961C188.406 43.8921 188.528 42.9637 188.528 42.0135H186.528ZM186.227 44.2851C186.038 45.0196 185.76 45.7161 185.394 46.3766L187.142 47.3479C187.592 46.538 187.933 45.6824 188.164 44.7832L186.227 44.2851ZM185.388 46.3873C185.033 47.0443 184.595 47.6504 184.07 48.2065L185.525 49.579C186.167 48.8982 186.709 48.1505 187.148 47.3372L185.388 46.3873ZM184.07 48.2065C183.545 48.7633 182.957 49.2463 182.304 49.6567L183.369 51.3496C184.164 50.8498 184.883 50.2592 185.525 49.579L184.07 48.2065ZM181.916 50.8935L184.699 57.4577L186.541 56.677L183.757 50.1128L181.916 50.8935ZM185.62 56.0674H180.281V58.0674H185.62V56.0674ZM181.199 56.6704L179.011 51.6116L177.175 52.4056L179.363 57.4644L181.199 56.6704ZM178.087 51.0086L172.468 51.0436L172.48 53.0436L178.099 53.0086L178.087 51.0086ZM171.474 52.0436V57.0674H173.474V52.0436H171.474ZM205.919 57.0674V58.0674H206.919V57.0674H205.919ZM200.913 57.0674H199.913V58.0674H200.913V57.0674ZM200.913 36.9897H201.913V35.9897H200.913V36.9897ZM193.368 36.9897H192.368V37.9897H193.368V36.9897ZM193.368 31.9659V30.9659H192.368V31.9659H193.368ZM213.446 31.9659H214.446V30.9659H213.446V31.9659ZM213.446 36.9897V37.9897H214.446V36.9897H213.446ZM205.919 36.9897V35.9897H204.919V36.9897H205.919ZM205.919 56.0674H200.913V58.0674H205.919V56.0674ZM201.913 57.0674V36.9897H199.913V57.0674H201.913ZM200.913 35.9897H193.368V37.9897H200.913V35.9897ZM194.368 36.9897V31.9659H192.368V36.9897H194.368ZM193.368 32.9659H213.446V30.9659H193.368V32.9659ZM212.446 31.9659V36.9897H214.446V31.9659H212.446ZM213.446 35.9897H205.919V37.9897H213.446V35.9897ZM204.919 36.9897V57.0674H206.919V36.9897H204.919ZM235.11 47.0373V48.0373H236.11V47.0373H235.11ZM234.708 40.0705L233.784 40.4539L233.788 40.4645L233.793 40.475L234.708 40.0705ZM232.029 37.3923L231.625 38.3068L231.635 38.3115L231.646 38.3159L232.029 37.3923ZM228.126 37.3923L228.516 38.3133L228.524 38.3096L228.126 37.3923ZM225.448 40.0705L224.53 39.6724L224.527 39.6808L225.448 40.0705ZM225.063 47.0373H224.063V48.0373H225.063V47.0373ZM240.134 57.0674V58.0674H241.134V57.0674H240.134ZM235.11 57.0674H234.11V58.0674H235.11V57.0674ZM235.11 52.0436H236.11V51.0436H235.11V52.0436ZM225.063 52.0436V51.0436H224.063V52.0436H225.063ZM225.063 57.0674V58.0674H226.063V57.0674H225.063ZM220.056 57.0674H219.056V58.0674H220.056V57.0674ZM220.844 38.11L221.762 38.5071L221.763 38.5039L220.844 38.11ZM222.98 34.9066L222.272 34.1995L222.268 34.2041L222.98 34.9066ZM226.165 32.7536L225.771 31.8344L225.768 31.8358L226.165 32.7536ZM233.99 32.7536L233.593 33.6714L233.596 33.6727L233.99 32.7536ZM239.346 38.11L238.427 38.5039L238.429 38.5071L239.346 38.11ZM236.11 47.0373V42.0135H234.11V47.0373H236.11ZM236.11 42.0135C236.11 41.191 235.949 40.405 235.622 39.666L233.793 40.475C234.003 40.9496 234.11 41.4589 234.11 42.0135H236.11ZM235.631 39.6871C235.326 38.9525 234.899 38.3045 234.347 37.753L232.933 39.1672C233.291 39.5259 233.575 39.9514 233.784 40.4539L235.631 39.6871ZM234.347 37.753C233.795 37.2014 233.147 36.7736 232.413 36.4687L231.646 38.3159C232.148 38.5244 232.574 38.8085 232.933 39.1672L234.347 37.753ZM232.434 36.4778C231.695 36.1509 230.909 35.9897 230.086 35.9897V37.9897C230.641 37.9897 231.15 38.0969 231.625 38.3068L232.434 36.4778ZM230.086 35.9897C229.264 35.9897 228.475 36.1508 227.728 36.4749L228.524 38.3096C229.014 38.0969 229.532 37.9897 230.086 37.9897V35.9897ZM227.736 36.4713C227.014 36.777 226.374 37.2046 225.826 37.753L227.24 39.1672C227.602 38.8053 228.024 38.521 228.516 38.3133L227.736 36.4713ZM225.826 37.753C225.278 38.3011 224.846 38.9442 224.53 39.6724L226.365 40.4686C226.586 39.9598 226.878 39.5292 227.24 39.1672L225.826 37.753ZM224.527 39.6808C224.216 40.4165 224.063 41.1972 224.063 42.0135H226.063C226.063 41.4527 226.166 40.9381 226.369 40.4601L224.527 39.6808ZM224.063 42.0135V47.0373H226.063V42.0135H224.063ZM225.063 48.0373H235.11V46.0373H225.063V48.0373ZM240.134 56.0674H235.11V58.0674H240.134V56.0674ZM236.11 57.0674V52.0436H234.11V57.0674H236.11ZM235.11 51.0436H225.063V53.0436H235.11V51.0436ZM224.063 52.0436V57.0674H226.063V52.0436H224.063ZM225.063 56.0674H220.056V58.0674H225.063V56.0674ZM221.056 57.0674V42.0135H219.056V57.0674H221.056ZM221.056 42.0135C221.056 40.7544 221.294 39.5891 221.762 38.5071L219.926 37.7129C219.344 39.0581 219.056 40.4952 219.056 42.0135H221.056ZM221.763 38.5039C222.241 37.3886 222.884 36.4267 223.691 35.6092L222.268 34.2041C221.278 35.2071 220.497 36.3807 219.925 37.7161L221.763 38.5039ZM223.687 35.6137C224.505 34.7951 225.461 34.1478 226.563 33.6714L225.768 31.8358C224.442 32.4096 223.274 33.1977 222.272 34.1995L223.687 35.6137ZM226.559 33.6727C227.655 33.2032 228.827 32.9659 230.086 32.9659V30.9659C228.568 30.9659 227.126 31.2537 225.772 31.8344L226.559 33.6727ZM230.086 32.9659C231.346 32.9659 232.511 33.2032 233.593 33.6714L234.387 31.8358C233.042 31.2537 231.605 30.9659 230.086 30.9659V32.9659ZM233.596 33.6727C234.709 34.1496 235.669 34.7967 236.486 35.6137L237.9 34.1995C236.897 33.1961 235.722 32.4079 234.384 31.8344L233.596 33.6727ZM236.486 35.6137C237.303 36.4308 237.95 37.3913 238.427 38.5039L240.265 37.7161C239.692 36.378 238.904 35.2029 237.9 34.1995L236.486 35.6137ZM238.429 38.5071C238.897 39.5891 239.134 40.7544 239.134 42.0135H241.134C241.134 40.4952 240.846 39.0581 240.264 37.7129L238.429 38.5071ZM239.134 42.0135V57.0674H241.134V42.0135H239.134ZM248.617 36.5696L247.701 36.17L248.617 36.5696ZM250.228 34.189L249.521 33.4819L250.228 34.189ZM267.067 31.9659H268.067V30.9659H267.067V31.9659ZM267.067 36.9897V37.9897H268.067V36.9897H267.067ZM253.764 37.7249L253.057 37.0178L253.764 37.7249ZM253.239 40.4906L252.312 40.8679L252.318 40.8802L253.239 40.4906ZM253.764 41.2958L253.039 41.9845L253.056 42.0031L253.075 42.0208L253.764 41.2958ZM263.496 42.6086L263.097 43.5253L263.104 43.5284L263.111 43.5314L263.496 42.6086ZM265.894 44.2191L265.181 44.9201L265.187 44.9262L265.193 44.9322L265.894 44.2191ZM267.505 46.6172L266.582 47.0026L266.585 47.0097L266.588 47.0168L267.505 46.6172ZM267.505 52.4637L266.588 52.0641L266.584 52.0741L267.505 52.4637ZM265.894 54.8618L266.602 55.5689L265.894 54.8618ZM263.496 56.4722L263.101 55.5537L263.097 55.5555L263.496 56.4722ZM249.423 57.0674H248.423V58.0674H249.423V57.0674ZM249.423 52.0436V51.0436H248.423V52.0436H249.423ZM262.341 51.3259L261.634 50.6188L262.341 51.3259ZM262.341 47.7725L261.616 48.4612L261.634 48.4798L261.652 48.4975L262.341 47.7725ZM250.228 44.8317L249.515 45.5328L249.521 45.5388L249.527 45.5448L250.228 44.8317ZM248.617 42.4336L247.699 42.8289L247.701 42.8332L248.617 42.4336ZM249.022 39.4928C249.022 38.5853 249.195 37.7476 249.534 36.9692L247.701 36.17C247.247 37.2121 247.022 38.3232 247.022 39.4928H249.022ZM249.534 36.9692C249.883 36.1693 250.35 35.4811 250.935 34.8961L249.521 33.4819C248.752 34.2505 248.146 35.1494 247.701 36.17L249.534 36.9692ZM250.935 34.8961C251.533 34.2978 252.228 33.8255 253.026 33.4777L252.226 31.6443C251.204 32.0901 250.3 32.7031 249.521 33.4819L250.935 34.8961ZM253.026 33.4777C253.804 33.1384 254.642 32.9659 255.549 32.9659V30.9659C254.38 30.9659 253.268 31.1901 252.226 31.6443L253.026 33.4777ZM255.549 32.9659H267.067V30.9659H255.549V32.9659ZM266.067 31.9659V36.9897H268.067V31.9659H266.067ZM267.067 35.9897H255.549V37.9897H267.067V35.9897ZM255.549 35.9897C255.074 35.9897 254.614 36.0775 254.179 36.2613L254.959 38.1032C255.131 38.0302 255.324 37.9897 255.549 37.9897V35.9897ZM254.179 36.2613C253.757 36.4399 253.381 36.6935 253.057 37.0178L254.471 38.432C254.613 38.2895 254.774 38.1813 254.959 38.1032L254.179 36.2613ZM253.057 37.0178C252.739 37.3351 252.494 37.707 252.318 38.1229L254.16 38.9022C254.24 38.7113 254.345 38.5581 254.471 38.432L253.057 37.0178ZM252.318 38.1229C252.134 38.5572 252.046 39.0174 252.046 39.4928H254.046C254.046 39.2681 254.087 39.0747 254.16 38.9022L252.318 38.1229ZM252.046 39.4928C252.046 39.9685 252.134 40.4295 252.313 40.8679L254.165 40.1133C254.087 39.9215 254.046 39.7174 254.046 39.4928H252.046ZM252.318 40.8802C252.492 41.2917 252.732 41.662 253.039 41.9845L254.489 40.607C254.352 40.4628 254.242 40.2963 254.16 40.1009L252.318 40.8802ZM253.075 42.0208C253.398 42.3272 253.768 42.5678 254.179 42.7419L254.959 40.9C254.763 40.8173 254.597 40.7078 254.453 40.5708L253.075 42.0208ZM254.179 42.7419C254.614 42.9256 255.074 43.0135 255.549 43.0135V41.0135C255.324 41.0135 255.131 40.973 254.959 40.9L254.179 42.7419ZM255.549 43.0135H260.573V41.0135H255.549V43.0135ZM260.573 43.0135C261.481 43.0135 262.318 43.186 263.097 43.5253L263.896 41.6919C262.854 41.2377 261.743 41.0135 260.573 41.0135V43.0135ZM263.111 43.5314C263.914 43.867 264.601 44.3299 265.181 44.9201L266.608 43.518C265.834 42.7312 264.922 42.1205 263.882 41.6859L263.111 43.5314ZM265.193 44.9322C265.784 45.5124 266.247 46.1992 266.582 47.0026L268.428 46.2317C267.993 45.1913 267.382 44.2794 266.595 43.5059L265.193 44.9322ZM266.588 47.0168C266.927 47.7952 267.1 48.6329 267.1 49.5404H269.1C269.1 48.3708 268.876 47.2597 268.422 46.2176L266.588 47.0168ZM267.1 49.5404C267.1 50.448 266.927 51.2857 266.588 52.0641L268.422 52.8633C268.876 51.8212 269.1 50.7101 269.1 49.5404H267.1ZM266.584 52.0741C266.248 52.8675 265.783 53.5587 265.187 54.1547L266.602 55.5689C267.382 54.7879 267.991 53.8803 268.426 52.8533L266.584 52.0741ZM265.187 54.1547C264.604 54.7376 263.912 55.2045 263.101 55.5537L263.892 57.3908C264.924 56.9464 265.831 56.3397 266.602 55.5689L265.187 54.1547ZM263.097 55.5555C262.318 55.8948 261.481 56.0674 260.573 56.0674V58.0674C261.743 58.0674 262.854 57.8432 263.896 57.3889L263.097 55.5555ZM260.573 56.0674H249.423V58.0674H260.573V56.0674ZM250.423 57.0674V52.0436H248.423V57.0674H250.423ZM249.423 53.0436H260.573V51.0436H249.423V53.0436ZM260.573 53.0436C261.048 53.0436 261.509 52.9557 261.943 52.772L261.164 50.9301C260.991 51.0031 260.798 51.0436 260.573 51.0436V53.0436ZM261.943 52.772C262.359 52.596 262.731 52.3504 263.048 52.033L261.634 50.6188C261.508 50.7449 261.355 50.8493 261.164 50.9301L261.943 52.772ZM263.048 52.033C263.372 51.7087 263.626 51.3326 263.805 50.9103L261.963 50.131C261.885 50.3156 261.776 50.4763 261.634 50.6188L263.048 52.033ZM263.805 50.9103C263.988 50.476 264.076 50.0159 264.076 49.5404H262.076C262.076 49.7652 262.036 49.9585 261.963 50.131L263.805 50.9103ZM264.076 49.5404C264.076 49.065 263.988 48.6048 263.805 48.1705L261.963 48.9498C262.036 49.1223 262.076 49.3157 262.076 49.5404H264.076ZM263.805 48.1705C263.624 47.7436 263.365 47.3661 263.03 47.0475L261.652 48.4975C261.784 48.6223 261.887 48.7699 261.963 48.9498L263.805 48.1705ZM263.066 47.0837C262.747 46.7483 262.37 46.4895 261.943 46.3089L261.164 48.1508C261.344 48.2269 261.491 48.3298 261.616 48.4612L263.066 47.0837ZM261.943 46.3089C261.509 46.1251 261.048 46.0373 260.573 46.0373V48.0373C260.798 48.0373 260.991 48.0778 261.164 48.1508L261.943 46.3089ZM260.573 46.0373H255.549V48.0373H260.573V46.0373ZM255.549 46.0373C254.642 46.0373 253.804 45.8647 253.026 45.5254L252.226 47.3588C253.268 47.8131 254.38 48.0373 255.549 48.0373V46.0373ZM253.026 45.5254C252.224 45.1761 251.528 44.7073 250.929 44.1186L249.527 45.5448C250.305 46.3098 251.207 46.9146 252.226 47.3588L253.026 45.5254ZM250.941 44.1307C250.352 43.5318 249.883 42.8354 249.534 42.034L247.701 42.8332C248.145 43.8523 248.75 44.7546 249.515 45.5328L250.941 44.1307ZM249.536 42.0383C249.195 41.2456 249.022 40.4003 249.022 39.4928H247.022C247.022 40.6625 247.247 41.7778 247.699 42.8289L249.536 42.0383Z" fill="#655A6F" mask="url(#path-7-outside-1_130_6295)"/>
<g filter="url(#filter3_i_130_6295)">
<path d="M358.107 30.4378L358.109 30.4387C359.096 30.8633 360.143 31.0746 361.248 31.0746C362.352 31.0746 363.395 30.8632 364.371 30.4377C365.337 30.0167 366.183 29.4391 366.905 28.7051C367.639 27.9827 368.217 27.1365 368.638 26.1707C369.063 25.1945 369.275 24.1517 369.275 23.0476V14.0853V13.5853H368.775L363.751 13.5853H363.251V14.0853L363.251 23.0476C363.251 23.335 363.198 23.5951 363.098 23.833C362.996 24.0747 362.854 24.2798 362.671 24.4531L362.662 24.4619L362.653 24.4712C362.48 24.6536 362.275 24.7955 362.033 24.8977C361.795 24.9984 361.535 25.0508 361.248 25.0508C360.961 25.0508 360.694 24.9988 360.442 24.8964C360.199 24.7933 359.985 24.6492 359.798 24.462C359.624 24.2881 359.485 24.0802 359.38 23.833C359.279 23.5951 359.227 23.335 359.227 23.0476V20.527C359.227 19.4237 359.016 18.3818 358.591 17.4063C358.182 16.4388 357.609 15.5861 356.875 14.852C356.151 14.1285 355.299 13.5569 354.322 13.1363C353.346 12.7111 352.304 12.5 351.2 12.5L343.673 12.5H343.173L343.173 13L343.173 29.8919V30.3919H343.673L348.697 30.3919H349.197V29.8919L349.197 18.5238H351.2C351.487 18.5238 351.748 18.5762 351.985 18.6768C352.233 18.7814 352.441 18.9211 352.614 19.095C352.802 19.283 352.947 19.4975 353.05 19.7415C353.151 19.9795 353.203 20.2395 353.203 20.5269V23.0476C353.203 24.1517 353.414 25.1945 353.84 26.1707C354.261 27.1361 354.832 27.9823 355.555 28.705C356.289 29.4387 357.141 30.0165 358.107 30.4378Z" fill="#CCC4CF" stroke="#655A6F"/>
<path d="M345.305 40.3385L345.305 40.3385L345.3 40.3407C344.881 40.5166 344.511 40.7625 344.195 41.0784C343.88 41.3927 343.635 41.7606 343.46 42.1776C343.267 42.606 343.173 43.0655 343.173 43.55C343.173 44.026 343.268 44.484 343.459 44.9197C343.634 45.3359 343.877 45.7075 344.187 46.0315L344.187 46.0316L344.195 46.0391C344.508 46.3521 344.874 46.6018 345.288 46.7889L345.297 46.7928L345.305 46.7964C345.741 46.9735 346.202 47.0608 346.684 47.0608C347.156 47.0608 347.607 46.9727 348.033 46.7943L348.033 46.7945L348.045 46.7889C348.459 46.6018 348.825 46.3521 349.138 46.0391L349.138 46.0392L349.145 46.0315C349.456 45.7075 349.699 45.3359 349.874 44.9197C350.064 44.484 350.16 44.026 350.16 43.55C350.16 43.0655 350.065 42.606 349.873 42.1776C349.697 41.7606 349.452 41.3927 349.138 41.0784C348.822 40.7625 348.452 40.5166 348.033 40.3407C347.607 40.1622 347.156 40.0742 346.684 40.0742C346.202 40.0742 345.741 40.1615 345.305 40.3385Z" fill="#CCC4CF" stroke="#655A6F"/>
<path d="M358.109 56.6974L358.107 56.6983C357.141 57.1196 356.289 57.6974 355.555 58.431C354.832 59.1538 354.261 60 353.84 60.9654C353.414 61.9416 353.203 62.9843 353.203 64.0885V66.6091C353.203 66.8965 353.151 67.1566 353.05 67.3946C352.947 67.6386 352.802 67.8531 352.614 68.041C352.441 68.2149 352.233 68.3547 351.985 68.4592C351.748 68.5599 351.487 68.6123 351.2 68.6123L349.197 68.6123L349.197 57.2442V56.7442L348.697 56.7442L343.673 56.7442L343.173 56.7442L343.173 57.2442L343.173 74.1361V74.6361H343.673H351.2C352.304 74.6361 353.346 74.4249 354.322 73.9997C355.299 73.5792 356.151 73.0076 356.875 72.2841C357.609 71.55 358.182 70.6973 358.591 69.7297C359.016 68.7543 359.227 67.7123 359.227 66.6091V64.0885C359.227 63.8011 359.279 63.541 359.38 63.303C359.485 63.0559 359.624 62.848 359.798 62.6741C359.985 62.4869 360.199 62.3428 360.442 62.2397C360.694 62.1372 360.961 62.0853 361.248 62.0853C361.535 62.0853 361.795 62.1377 362.033 62.2384C362.275 62.3406 362.48 62.4825 362.653 62.6649L362.662 62.6742L362.671 62.683C362.854 62.8563 362.996 63.0614 363.098 63.303C363.198 63.541 363.251 63.8011 363.251 64.0885L363.251 73.0508V73.5508H363.751H368.775H369.275V73.0508V64.0885C369.275 62.9843 369.063 61.9416 368.638 60.9654C368.217 59.9995 367.639 59.1534 366.905 58.431C366.183 57.697 365.337 57.1193 364.371 56.6983C363.395 56.2728 362.352 56.0615 361.248 56.0615C360.143 56.0615 359.096 56.2728 358.109 56.6974L358.109 56.6974Z" fill="#CCC4CF" stroke="#655A6F"/>
</g>
<defs>
<filter id="filter0_i_130_6295" x="50" y="23" width="278" height="46" filterUnits="userSpaceOnUse" color-interpolation-filters="sRGB">
<feFlood flood-opacity="0" result="BackgroundImageFix"/>
<feBlend mode="normal" in="SourceGraphic" in2="BackgroundImageFix" result="shape"/>
<feColorMatrix in="SourceAlpha" type="matrix" values="0 0 0 0 0 0 0 0 0 0 0 0 0 0 0 0 0 0 127 0" result="hardAlpha"/>
<feOffset dy="4"/>
<feGaussianBlur stdDeviation="2"/>
<feComposite in2="hardAlpha" operator="arithmetic" k2="-1" k3="1"/>
<feColorMatrix type="matrix" values="0 0 0 0 0 0 0 0 0 0 0 0 0 0 0 0 0 0 0.25 0"/>
<feBlend mode="normal" in2="shape" result="effect1_innerShadow_130_6295"/>
</filter>
<filter id="filter1_i_130_6295" x="8" y="12" width="27.3269" height="65.1357" filterUnits="userSpaceOnUse" color-interpolation-filters="sRGB">
<feFlood flood-opacity="0" result="BackgroundImageFix"/>
<feBlend mode="normal" in="SourceGraphic" in2="BackgroundImageFix" result="shape"/>
<feColorMatrix in="SourceAlpha" type="matrix" values="0 0 0 0 0 0 0 0 0 0 0 0 0 0 0 0 0 0 127 0" result="hardAlpha"/>
<feOffset dy="2"/>
<feGaussianBlur stdDeviation="1.5"/>
<feComposite in2="hardAlpha" operator="arithmetic" k2="-1" k3="1"/>
<feColorMatrix type="matrix" values="0 0 0 0 0.427451 0 0 0 0 0.32549 0 0 0 0 0.545098 0 0 0 0.4 0"/>
<feBlend mode="normal" in2="shape" result="effect1_innerShadow_130_6295"/>
</filter>
<filter id="filter2_ii_130_6295" x="105.963" y="28.6162" width="163.137" height="31.9941" filterUnits="userSpaceOnUse" color-interpolation-filters="sRGB">
<feFlood flood-opacity="0" result="BackgroundImageFix"/>
<feBlend mode="normal" in="SourceGraphic" in2="BackgroundImageFix" result="shape"/>
<feColorMatrix in="SourceAlpha" type="matrix" values="0 0 0 0 0 0 0 0 0 0 0 0 0 0 0 0 0 0 127 0" result="hardAlpha"/>
<feOffset dx="-2" dy="-2"/>
<feGaussianBlur stdDeviation="1"/>
<feComposite in2="hardAlpha" operator="arithmetic" k2="-1" k3="1"/>
<feColorMatrix type="matrix" values="0 0 0 0 0.796078 0 0 0 0 0.760784 0 0 0 0 0.807843 0 0 0 0.4 0"/>
<feBlend mode="normal" in2="shape" result="effect1_innerShadow_130_6295"/>
<feColorMatrix in="SourceAlpha" type="matrix" values="0 0 0 0 0 0 0 0 0 0 0 0 0 0 0 0 0 0 127 0" result="hardAlpha"/>
<feOffset dy="2"/>
<feGaussianBlur stdDeviation="1"/>
<feComposite in2="hardAlpha" operator="arithmetic" k2="-1" k3="1"/>
<feColorMatrix type="matrix" values="0 0 0 0 1 0 0 0 0 1 0 0 0 0 1 0 0 0 0.4 0"/>
<feBlend mode="normal" in2="effect1_innerShadow_130_6295" result="effect2_innerShadow_130_6295"/>
</filter>
<filter id="filter3_i_130_6295" x="342.673" y="12" width="27.3269" height="65.1357" filterUnits="userSpaceOnUse" color-interpolation-filters="sRGB">
<feFlood flood-opacity="0" result="BackgroundImageFix"/>
<feBlend mode="normal" in="SourceGraphic" in2="BackgroundImageFix" result="shape"/>
<feColorMatrix in="SourceAlpha" type="matrix" values="0 0 0 0 0 0 0 0 0 0 0 0 0 0 0 0 0 0 127 0" result="hardAlpha"/>
<feOffset dy="2"/>
<feGaussianBlur stdDeviation="1.5"/>
<feComposite in2="hardAlpha" operator="arithmetic" k2="-1" k3="1"/>
<feColorMatrix type="matrix" values="0 0 0 0 0.427451 0 0 0 0 0.32549 0 0 0 0 0.545098 0 0 0 0.4 0"/>
<feBlend mode="normal" in2="shape" result="effect1_innerShadow_130_6295"/>
</filter>
</defs>
</svg>
