<svg width="24" height="24" viewBox="0 0 24 24" fill="none" xmlns="http://www.w3.org/2000/svg">
<g clip-path="url(#clip0_42_972)">
<path fill-rule="evenodd" clip-rule="evenodd" d="M24 21.19C23.86 20.19 22.58 19.11 21.95 18.67L21.28 18.2C20.6 17.69 20.85 17.46 20.45 17.46C20.45 16.46 20.58 15.53 20.58 14.66V13.46C20.58 13.07 20.5 12.66 20.44 12.26C20.3 11.39 20.11 10.51 19.87 9.49C19.8551 9.38802 19.8005 9.29607 19.7181 9.23424C19.6356 9.1724 19.5321 9.14572 19.43 9.16C19.3798 9.16729 19.3316 9.18454 19.2882 9.21074C19.2448 9.23694 19.2071 9.27156 19.1773 9.31256C19.1474 9.35356 19.1261 9.40012 19.1146 9.44948C19.103 9.49885 19.1015 9.55003 19.11 9.60001C19.18 10.66 19.18 11.6 19.22 12.45C19.22 13.09 19.22 13.71 19.33 14.34C19.44 15.34 19.63 16.34 19.81 17.48H17.88C16.68 17.43 15.47 17.3 14.27 17.22C13.45 17.17 12.64 17.14 11.83 17.12C10.83 17.12 9.87999 17.12 8.90999 17.23C7.45999 17.34 6.02999 17.53 4.57999 17.71C4.48982 17.71 4.40334 17.7458 4.33957 17.8096C4.27581 17.8734 4.23999 17.9598 4.23999 18.05C4.23999 18.1402 4.27581 18.2267 4.33957 18.2904C4.40334 18.3542 4.48982 18.39 4.57999 18.39H7.45999C8.88999 18.39 10.31 18.39 11.75 18.47C12.61 18.47 13.47 18.52 14.34 18.54C15.21 18.56 16.08 18.54 16.95 18.54C17.95 18.54 19.01 18.46 20.02 18.36L20.77 18.95L21.44 19.47C21.8026 19.7321 22.1376 20.0303 22.44 20.36L18.31 20H14.23C12.23 20 10.16 20.12 8.12999 20.12C6.44999 20.18 4.74999 20.41 3.05999 20.47H1.25999C1.4434 20.0128 1.69271 19.585 1.99999 19.2L2.67999 18.59L3.67999 17.93C3.75956 17.8876 3.819 17.8153 3.84526 17.729C3.87151 17.6427 3.86243 17.5496 3.81999 17.47C3.78262 17.4111 3.72804 17.3651 3.66364 17.3383C3.59923 17.3114 3.52814 17.3051 3.45999 17.32L3.59999 15.48C3.66999 14.57 3.77999 13.67 3.84999 12.75C3.91999 11.83 3.99999 10.93 3.99999 10C3.88999 7.66001 3.79999 8.76001 4.99999 8.56001L7.36999 8.13001C7.46284 8.10128 7.54162 8.03891 7.59089 7.95513C7.64015 7.87135 7.65637 7.7722 7.63634 7.67709C7.61632 7.58198 7.56151 7.49778 7.48264 7.44097C7.40378 7.38417 7.30654 7.35886 7.20999 7.37L4.89999 7.57001C4.71999 7.57001 3.89999 7.50001 3.49999 7.57001C3.39604 7.58191 3.29555 7.6146 3.2045 7.66614C3.11345 7.71768 3.0337 7.78701 2.96999 7.87C2.86009 8.05652 2.79186 8.26462 2.76999 8.48C2.69999 8.96 2.76999 9.71 2.76999 9.98C2.76999 10.9 2.66999 11.82 2.65999 12.73C2.64999 13.64 2.65999 14.57 2.72999 15.49L2.81999 17.72L2.32999 18.02L1.51999 18.68C0.855263 19.3221 0.360449 20.1193 0.0799908 21C-0.0467426 21.3565 -0.0538019 21.7447 0.0598826 22.1056C0.173567 22.4665 0.401799 22.7805 0.709991 23C1.04489 23.2212 1.42345 23.3679 1.81999 23.43C2.33006 23.501 2.84531 23.5277 3.35999 23.51L6.63999 23.65C9.49999 23.65 12.36 23.82 15.21 23.83C16.45 23.83 17.69 23.83 18.93 23.7L21 23.38L22.28 23.05L23.13 22.69C23.4258 22.5787 23.674 22.3685 23.8325 22.0952C23.9911 21.8218 24.0502 21.502 24 21.19ZM22.68 21.8L21.98 22.06L20.81 22.32L18.89 22.5H16.46C13.19 22.5 9.91999 22.3 6.64999 22.33H3.34999C2.89086 22.3701 2.42912 22.3701 1.96999 22.33C1.72099 22.2986 1.48013 22.2205 1.25999 22.1C1.10588 21.9904 0.992703 21.8326 0.938368 21.6515C0.884033 21.4704 0.891642 21.2763 0.959991 21.1C0.959991 21.1 0.959991 21.05 0.959991 21.03C1.64926 21.1302 2.34376 21.1903 3.03999 21.21C4.71999 21.27 6.42999 21.21 8.09999 21.21H12.2C14.2 21.16 16.27 21.02 18.3 20.95H22.87H22.93C22.9867 21.0183 23.0252 21.0998 23.0422 21.187C23.0592 21.2741 23.054 21.3641 23.0271 21.4487C23.0002 21.5334 22.9525 21.6099 22.8884 21.6712C22.8242 21.7326 22.7457 21.7769 22.66 21.8H22.68Z" fill="black"/>
<path fill-rule="evenodd" clip-rule="evenodd" d="M9.40986 6.99989C9.75784 7.32241 10.1363 7.61042 10.5399 7.85989C10.5784 7.89448 10.6235 7.92103 10.6725 7.938C10.7214 7.95497 10.7733 7.96202 10.825 7.95873C10.8767 7.95544 10.9272 7.94188 10.9736 7.91885C11.02 7.89581 11.0614 7.86376 11.0953 7.82456C11.1291 7.78536 11.1549 7.73981 11.1709 7.69056C11.187 7.6413 11.1931 7.58934 11.1889 7.5377C11.1847 7.48607 11.1702 7.43579 11.1463 7.3898C11.1225 7.34382 11.0897 7.30306 11.0499 7.26989C10.7801 7.02963 10.5294 6.76886 10.2999 6.48989C10.2035 6.36843 10.1414 6.22343 10.1199 6.06989L10.2899 5.80989C10.4706 5.53389 10.7138 5.30435 10.9999 5.13989C11.3314 4.94286 11.6928 4.80101 12.0699 4.71989L12.4999 4.64989C12.4999 4.64989 12.4199 4.74989 12.3899 4.80989C11.9349 5.58215 11.5978 6.41804 11.3899 7.28989C11.299 7.62577 11.2973 7.97954 11.385 8.31626C11.4727 8.65299 11.6467 8.96101 11.8899 9.20989L12.6599 9.99989C12.9143 10.2604 13.235 10.4466 13.5875 10.5382C13.9399 10.6299 14.3107 10.6235 14.6599 10.5199C15.5388 10.2854 16.378 9.92141 17.1499 9.43989C17.2299 9.43989 17.2999 9.32989 17.3799 9.28989L17.2899 9.79989C17.2087 10.177 17.0669 10.5383 16.8699 10.8699C16.7017 11.1705 16.4654 11.4273 16.1799 11.6199L15.9199 11.7899C15.7663 11.7684 15.6213 11.7062 15.4999 11.6099C15.2232 11.3778 14.9626 11.1272 14.7199 10.8599C14.6516 10.7838 14.5562 10.7375 14.4542 10.731C14.3522 10.7245 14.2518 10.7584 14.1744 10.8252C14.0971 10.892 14.0491 10.9866 14.0408 11.0884C14.0324 11.1903 14.0644 11.2914 14.1299 11.3699C14.3793 11.7735 14.6673 12.1519 14.9899 12.4999C15.1863 12.6894 15.4269 12.8269 15.6899 12.8999C15.8744 12.9399 16.0653 12.9399 16.2499 12.8999C16.476 12.8541 16.6925 12.7695 16.8899 12.6499C17.3584 12.3713 17.7421 11.9702 17.9999 11.4899C18.1737 11.013 18.2551 10.5073 18.2399 9.99989L18.1599 8.99989C18.1549 8.93999 18.1549 8.87979 18.1599 8.81989C18.8198 8.35797 19.418 7.81355 19.9399 7.19989C20.7473 6.21068 21.294 5.03485 21.5299 3.77989C21.6056 3.22915 21.6056 2.67063 21.5299 2.11989C21.5147 1.61913 21.3275 1.13886 20.9999 0.759893C20.6464 0.454513 20.2053 0.268968 19.7399 0.229893C19.1916 0.190856 18.6406 0.221094 18.0999 0.319893C16.8589 0.595478 15.7049 1.17247 14.7399 1.99989C14.1223 2.53574 13.5746 3.14722 13.1099 3.81989H12.9999L11.9999 3.69989C11.4652 3.69646 10.9351 3.7984 10.4399 3.99989C9.93727 4.25477 9.52016 4.65103 9.23986 5.13989C9.12583 5.33172 9.04471 5.54128 8.99986 5.75989C8.95968 5.94103 8.95968 6.12876 8.99986 6.30989C9.08089 6.5687 9.22129 6.80499 9.40986 6.99989ZM15.4099 2.83989C16.2596 2.18638 17.2544 1.74732 18.3099 1.55989C18.6598 1.49951 19.015 1.47604 19.3699 1.48989C19.6154 1.46941 19.861 1.52906 20.0699 1.65989C20.21 1.87619 20.2733 2.13327 20.2499 2.38989C20.2738 2.75396 20.2571 3.11955 20.1999 3.47989C20.052 4.53872 19.6393 5.5431 18.9999 6.39989C18.3357 7.27611 17.5152 8.02197 16.5799 8.59989C15.9091 9.06076 15.1747 9.42123 14.3999 9.66989C14.199 9.74311 13.9824 9.76225 13.7718 9.72539C13.5612 9.68854 13.3639 9.59698 13.1999 9.45989L12.3899 8.68989C12.2459 8.51761 12.1498 8.3105 12.1112 8.08934C12.0726 7.86819 12.0928 7.64076 12.1699 7.42989C12.4207 6.65531 12.7882 5.92355 13.2599 5.25989C13.8379 4.3365 14.5761 3.52374 15.4399 2.85989L15.4099 2.83989Z" fill="black"/>
<path fill-rule="evenodd" clip-rule="evenodd" d="M8.16007 10.88C8.25466 10.9487 8.3592 11.0027 8.47007 11.04L8.39007 11.15C7.99683 11.6254 7.66117 12.1457 7.39007 12.7C7.25137 13.0533 7.22347 13.4404 7.31007 13.81C7.34342 13.9127 7.40185 14.0055 7.48007 14.08C7.55555 14.1569 7.64802 14.2152 7.75007 14.25C8.15898 14.3805 8.60034 14.3664 9.00007 14.21C9.55131 13.939 10.0683 13.6033 10.5401 13.21L10.6501 13.13C10.6892 13.2432 10.743 13.3507 10.8101 13.45C10.9138 13.6595 11.0943 13.8211 11.314 13.9011C11.5337 13.9812 11.7758 13.9736 11.9901 13.88C12.4139 13.6586 12.7362 13.2826 12.8901 12.83C12.9989 12.5085 13.0398 12.168 13.0101 11.83C12.9742 11.3964 12.9107 10.9655 12.8201 10.54C12.8142 10.4892 12.7978 10.4402 12.772 10.3961C12.7462 10.3519 12.7115 10.3136 12.6702 10.2836C12.6288 10.2535 12.5817 10.2323 12.5318 10.2214C12.4819 10.2104 12.4302 10.2099 12.3801 10.22C12.33 10.2261 12.2816 10.2422 12.2378 10.2672C12.194 10.2922 12.1556 10.3257 12.1249 10.3658C12.0942 10.4058 12.0718 10.4515 12.0589 10.5003C12.0461 10.5491 12.0431 10.6 12.0501 10.65C12.106 11.0442 12.1361 11.4418 12.1401 11.84C12.1417 12.0623 12.101 12.2829 12.0201 12.49C12.0201 12.58 11.8001 12.66 11.7001 12.75L11.6501 12.09C11.6035 11.9269 11.4942 11.789 11.3461 11.7066C11.198 11.6241 11.0232 11.6037 10.8601 11.65L10.5801 11.75L9.85007 12.17C9.61007 12.32 9.26007 12.57 8.85007 12.77H8.80007C8.98369 12.425 9.18737 12.0911 9.41007 11.77L9.82007 11.02C9.8606 10.9328 9.89404 10.8425 9.92007 10.75C9.92475 10.7201 9.92475 10.6898 9.92007 10.66C9.94068 10.5828 9.94455 10.5021 9.93142 10.4234C9.91829 10.3446 9.88847 10.2696 9.84396 10.2033C9.79945 10.137 9.74127 10.081 9.67334 10.039C9.6054 9.99704 9.52927 9.97009 9.45007 9.95996L8.73007 9.99996C8.73007 9.99996 8.73007 9.94996 8.67007 9.99996C8.61007 10.05 8.67007 10.1 8.67007 10.09C8.67007 10.08 8.94007 9.75996 9.09007 9.69996C9.29935 9.61234 9.52324 9.56485 9.75007 9.55996C10.1481 9.56069 10.5456 9.58741 10.9401 9.63996C10.9848 9.64703 11.0305 9.6451 11.0744 9.63428C11.1184 9.62347 11.1597 9.60398 11.196 9.57697C11.2324 9.54996 11.2629 9.51596 11.286 9.47698C11.309 9.438 11.324 9.39481 11.3301 9.34996C11.3419 9.29946 11.3425 9.24696 11.3316 9.19624C11.3207 9.14552 11.2986 9.09786 11.267 9.05671C11.2354 9.01556 11.1951 8.98194 11.1489 8.95829C11.1028 8.93464 11.0519 8.92154 11.0001 8.91996C10.5772 8.83076 10.15 8.764 9.72007 8.71996C9.38278 8.69293 9.04342 8.73026 8.72007 8.82996C8.29193 8.99378 7.937 9.30613 7.72007 9.70996C7.63011 9.92428 7.62558 10.1649 7.7074 10.3825C7.78921 10.6 7.95118 10.778 8.16007 10.88Z" fill="black"/>
</g>
<defs>
<clipPath id="clip0_42_972">
<rect width="24" height="24" fill="white"/>
</clipPath>
</defs>
</svg>
