<svg width="24" height="24" viewBox="0 0 24 24" fill="none" xmlns="http://www.w3.org/2000/svg">
<g clip-path="url(#clip0_42_1023)">
<path fill-rule="evenodd" clip-rule="evenodd" d="M2.99999 10.39C3.05999 9.54 2.74999 9.78 4.58999 9.32C5.85992 9.04289 7.15136 8.8756 8.44999 8.82C12.7 8.55 13.12 8.91 13.14 8.3C13.1413 8.24878 13.1325 8.1978 13.1142 8.14998C13.0958 8.10215 13.0682 8.05841 13.0329 8.02127C12.9976 7.98412 12.9553 7.95429 12.9085 7.93348C12.8617 7.91268 12.8112 7.9013 12.76 7.9C10.38 7.76 4.57999 7.53 2.45999 8.6C1.90999 8.87 1.78999 9.36 1.70999 10.02C1.36999 13.13 2.14999 16.72 2.57999 19.32C2.69999 19.56 3.39999 19.68 3.34999 19.17C2.96183 16.2605 2.84466 13.3212 2.99999 10.39Z" fill="black"/>
<path fill-rule="evenodd" clip-rule="evenodd" d="M21.5101 16.1799C21.5101 14.5799 21.3901 14.2999 21.0401 14.2799C20.6901 14.2599 20.6201 14.3799 20.2801 16.0899C20.1723 17.1523 20.1991 18.2242 20.3601 19.2799C20.4021 19.3618 20.4658 19.4305 20.5444 19.4785C20.6229 19.5265 20.7131 19.5519 20.8051 19.5519C20.8972 19.5519 20.9874 19.5265 21.0659 19.4785C21.1444 19.4305 21.2082 19.3618 21.2501 19.2799C21.428 18.2562 21.515 17.2188 21.5101 16.1799Z" fill="black"/>
<path fill-rule="evenodd" clip-rule="evenodd" d="M22.8502 19.9099C11.3702 19.6099 3.62017 19.4799 1.00017 19.9999C0.320166 20.1299 0.330166 20.3099 0.270166 20.5299C-0.999834 25.0899 6.57017 23.8499 19.0602 23.8499C19.9202 23.8499 21.4802 23.9699 22.3602 23.4299C23.4302 22.7799 23.1902 21.8499 23.0902 20.5899C23.1532 20.5409 23.1992 20.4734 23.2216 20.3968C23.2441 20.3203 23.2419 20.2386 23.2153 20.1634C23.1888 20.0881 23.1392 20.0232 23.0737 19.9777C23.0081 19.9322 22.9299 19.9085 22.8502 19.9099ZM21.5902 22.7599C20.1902 23.1399 19.0602 22.3499 9.29017 22.6999C3.85017 22.8999 0.480166 23.3899 0.900166 20.8299C3.90017 20.7299 13.6202 20.9599 22.3102 20.6999C22.3402 21.9199 22.5102 22.5099 21.5902 22.7599Z" fill="black"/>
<path fill-rule="evenodd" clip-rule="evenodd" d="M23.8004 2.04995C23.7079 1.59759 23.4424 1.19927 23.0604 0.939948C21.1304 -0.200052 17.6204 0.409948 15.8204 -5.21232e-05C15.4404 -0.0900521 14.5904 6.41995 14.5304 7.07995C14.3826 8.50821 14.3292 9.94466 14.3704 11.3799C14.3784 11.5273 14.4304 11.6688 14.5194 11.7864C14.6085 11.904 14.7308 11.9923 14.8704 12.0399C16.4204 12.6799 20.1504 12.7899 20.8704 12.8599C20.9656 12.8581 21.0568 12.8216 21.1268 12.7572C21.1969 12.6928 21.241 12.605 21.2509 12.5103C21.2607 12.4157 21.2356 12.3207 21.1802 12.2432C21.1249 12.1658 21.0431 12.1113 20.9504 12.0899C15.0504 11.3199 16.7104 11.0299 15.5804 10.8399C15.5804 9.83995 15.6704 8.76995 15.7504 7.42995C17.7504 5.99995 17.3304 6.35995 17.6504 5.99995C18.2333 6.87941 18.8712 7.72109 19.5604 8.51995C19.6294 8.60084 19.7276 8.65102 19.8336 8.65946C19.9395 8.6679 20.0445 8.6339 20.1254 8.56495C20.2063 8.49599 20.2565 8.39773 20.2649 8.29177C20.2734 8.18581 20.2394 8.08084 20.1704 7.99995L19.6104 6.93995L20.9304 6.14995C21.0504 6.29995 20.8204 6.07995 22.2604 7.42995C22.1111 9.1647 21.8707 10.8904 21.5404 12.5999C21.5165 12.7007 21.5337 12.8069 21.5881 12.895C21.6424 12.9832 21.7296 13.0461 21.8304 13.0699C21.9312 13.0938 22.0373 13.0767 22.1255 13.0223C22.2136 12.9679 22.2765 12.8807 22.3004 12.7799C22.7804 10.7999 24.3104 3.99995 23.8004 2.04995ZM20.5704 4.83995C20.0477 5.21418 19.5885 5.66999 19.2104 6.18995L18.8404 5.46995C17.6404 3.85995 17.1804 4.63995 15.8404 6.10995C16.1704 0.109948 16.1404 0.839948 16.1404 0.769948C17.9604 1.14995 21.1404 1.16995 22.3504 2.00995C22.8204 2.32995 22.4604 4.71995 22.3504 6.00995C22.0004 5.33995 21.2204 4.39995 20.5704 4.83995Z" fill="black"/>
<path fill-rule="evenodd" clip-rule="evenodd" d="M12.6904 15.45C12.0504 14.16 10.5304 10.94 9.33038 11.74C9.15038 11.86 8.69038 12.42 4.18038 17.53C3.87038 17.86 4.38038 18.32 4.69038 17.99C6.89038 15.82 7.49038 15.7 9.82038 13.12C11.1104 14.37 11.8904 16.44 13.2804 18C13.3504 18.0637 13.4413 18.0996 13.5359 18.1013C13.6305 18.1029 13.7225 18.07 13.7947 18.0089C13.8669 17.9477 13.9144 17.8623 13.9283 17.7687C13.9423 17.6751 13.9217 17.5796 13.8704 17.5C13.5557 17.0871 13.2812 16.6451 13.0504 16.18L14.6204 15C15.2404 14.44 14.5204 14.22 15.5404 15.17C16.4104 15.87 17.4304 16.75 18.1704 17.49C18.2386 17.5661 18.334 17.6124 18.436 17.6189C18.538 17.6254 18.6385 17.5916 18.7158 17.5247C18.7931 17.4579 18.8411 17.3634 18.8495 17.2615C18.8578 17.1596 18.8258 17.0586 18.7604 16.98C18.3304 16.39 17.8804 15.83 17.4004 15.29C16.5404 14.29 15.2004 12.63 14.2704 13.56C13.7797 14.2193 13.2522 14.8503 12.6904 15.45Z" fill="black"/>
</g>
<defs>
<clipPath id="clip0_42_1023">
<rect width="24" height="24" fill="white"/>
</clipPath>
</defs>
</svg>
