<svg width="24" height="24" viewBox="0 0 24 24" fill="none" xmlns="http://www.w3.org/2000/svg">
<g clip-path="url(#clip0_42_1018)">
<path d="M18.5898 9.3101C18.4081 9.21202 18.2062 9.15726 17.9998 9.1501C17.5098 9.1501 16.7598 9.2901 16.4698 9.3101C16.2967 9.29807 16.123 9.29807 15.9498 9.3101C15.8144 9.34261 15.6923 9.41591 15.5998 9.5201C15.3598 9.8201 15.2598 10.2701 15.0498 10.6001C15.0171 10.6572 14.9707 10.7053 14.9149 10.7402C14.8591 10.7751 14.7955 10.7957 14.7298 10.8001C14.4898 10.8001 14.3498 10.8001 14.2698 10.6501C13.9698 10.2501 13.8898 9.6501 13.3698 9.4301C13.0871 9.3338 12.7876 9.29637 12.4898 9.3201C12.0498 9.3201 11.5398 9.4101 11.1498 9.4501C11.1989 9.32647 11.239 9.19947 11.2698 9.0701C11.3898 8.4701 11.2698 7.8201 11.3998 7.2101L11.5798 7.2701C11.7705 7.3152 11.9691 7.3152 12.1598 7.2701C12.8643 7.03825 13.4496 6.53912 13.7898 5.8801C13.9177 5.63998 13.9845 5.37212 13.9845 5.1001C13.9845 4.82808 13.9177 4.56022 13.7898 4.3201C13.7089 4.1787 13.5946 4.05923 13.4569 3.97209C13.3192 3.88495 13.1623 3.83277 12.9998 3.8201C12.6942 3.78524 12.3855 3.78524 12.0798 3.8201H11.8198C11.5489 3.38341 11.356 2.90291 11.2498 2.4001C11.166 2.09947 11.0195 1.82 10.8198 1.5801C10.5588 1.36801 10.2534 1.21743 9.92617 1.13953C9.59898 1.06163 9.25845 1.0584 8.92985 1.1301C8.84587 1.13771 8.76799 1.17719 8.7122 1.24041C8.65642 1.30364 8.62695 1.38583 8.62985 1.4701C8.63239 1.51215 8.64322 1.55328 8.6617 1.59114C8.68018 1.629 8.70595 1.66284 8.73754 1.69071C8.76913 1.71858 8.80591 1.73994 8.84578 1.75357C8.88564 1.76719 8.92781 1.77281 8.96985 1.7701C9.71985 1.7701 10.1098 1.7701 10.3198 2.0501C10.484 2.28532 10.5902 2.55602 10.6298 2.8401C10.7477 3.38833 10.972 3.90814 11.2898 4.3701C11.342 4.43898 11.4082 4.496 11.4841 4.53738C11.5599 4.57875 11.6437 4.60354 11.7298 4.6101H12.6698C12.8298 4.6101 12.9998 4.6101 13.0698 4.7201C13.1452 4.88388 13.1703 5.06637 13.1418 5.24441C13.1133 5.42245 13.0326 5.58802 12.9098 5.7201C12.6621 6.05653 12.3108 6.30243 11.9098 6.4201C11.8298 6.4201 11.7198 6.4201 11.6098 6.3501C11.4102 6.30285 11.204 6.28933 10.9998 6.3101C10.8655 6.31855 10.7378 6.37119 10.6365 6.45982C10.5352 6.54845 10.4661 6.66809 10.4398 6.8001C10.2698 7.4801 10.3598 8.2201 10.2098 8.9101C10.1642 9.09387 10.0899 9.26934 9.98985 9.4301C9.72985 9.4301 9.30985 9.2501 9.25985 9.2501C8.9705 9.16635 8.67106 9.12261 8.36985 9.1201C8.22466 8.65062 8.01607 8.20316 7.74985 7.7901C7.58684 7.57276 7.37547 7.39635 7.13247 7.27485C6.88947 7.15335 6.62153 7.0901 6.34985 7.0901C6.11013 7.07556 5.87064 7.12206 5.65379 7.22524C5.43693 7.32842 5.24978 7.48492 5.10985 7.6801C4.79344 8.24044 4.596 8.86001 4.52985 9.5001L4.12985 9.5701H2.50985C2.17236 9.56912 1.83636 9.52544 1.50985 9.4401C1.25985 9.3801 1.20985 9.1601 1.20985 8.9201C1.27009 8.33661 1.42195 7.76628 1.65985 7.2301C2.12703 6.11714 2.84181 5.12534 3.74985 4.3301C4.65898 3.50934 5.73294 2.89224 6.89985 2.5201C6.95372 2.48798 6.99525 2.43869 7.01777 2.38016C7.04029 2.32162 7.04251 2.25721 7.02407 2.19726C7.00562 2.13731 6.96758 2.08529 6.91604 2.04954C6.86451 2.01379 6.80246 1.99638 6.73985 2.0001C5.47871 2.35495 4.30655 2.97169 3.29985 3.8101C2.27311 4.65579 1.45525 5.72688 0.909847 6.9401C0.533933 7.6838 0.341894 8.50683 0.349847 9.3401C0.378841 9.59033 0.483364 9.8258 0.649501 10.0152C0.815638 10.2045 1.03551 10.3388 1.27985 10.4001C1.66526 10.5071 2.06069 10.5742 2.45985 10.6001H4.13985C4.40293 10.6163 4.66676 10.6163 4.92985 10.6001C5.04895 10.5922 5.163 10.549 5.25741 10.476C5.35183 10.4029 5.42231 10.3034 5.45985 10.1901C5.54398 9.61008 5.68808 9.04036 5.88985 8.4901C5.9214 8.38973 5.98381 8.30187 6.0682 8.23903C6.15258 8.17619 6.25464 8.14157 6.35985 8.1401C6.47247 8.13971 6.58361 8.16574 6.68434 8.21611C6.78507 8.26647 6.87259 8.33977 6.93985 8.4301C7.20272 8.88519 7.41402 9.36817 7.56985 9.8701C7.61434 9.96476 7.68137 10.0471 7.76505 10.1098C7.84873 10.1726 7.94651 10.2139 8.04985 10.2301C8.44937 10.2577 8.85032 10.2577 9.24985 10.2301C9.34985 10.2301 10.0098 10.3201 10.2498 10.3101C10.3466 10.3122 10.4426 10.2926 10.5309 10.2528C10.6191 10.213 10.6973 10.154 10.7598 10.0801V10.0201C11.1498 10.0201 11.8298 9.9501 12.3998 9.9601C12.5972 9.95161 12.7943 9.9822 12.9798 10.0501C13.2098 10.1601 13.2398 10.4101 13.3198 10.6301C13.3969 10.9011 13.5454 11.1463 13.7498 11.3401C14.0094 11.5476 14.3387 11.6478 14.6698 11.6201C14.9697 11.6149 15.2574 11.5012 15.4798 11.3001C15.7286 10.9928 15.9401 10.6572 16.1098 10.3001C16.5098 10.3001 17.7998 10.1701 17.7998 10.1701C17.7998 10.3401 17.5798 11.5701 17.4698 12.0601C17.3612 12.5532 17.2277 13.0405 17.0698 13.5201L15.9998 16.7001C15.9259 16.9764 15.8324 17.2471 15.7198 17.5101C15.6697 17.6279 15.5906 17.7311 15.4898 17.8101C15.1678 18.0095 14.806 18.1358 14.4298 18.1801C13.7946 18.2401 13.1551 18.2401 12.5198 18.1801H11.1398C10.99 18.1904 10.8397 18.1904 10.6898 18.1801C10.8529 17.8049 10.9575 17.407 10.9998 17.0001C11.1328 16.2593 11.1328 15.5008 10.9998 14.7601C10.9596 14.6587 10.8929 14.57 10.8067 14.5032C10.7206 14.4364 10.618 14.3939 10.5098 14.3801L9.74985 14.2801C9.47274 14.2336 9.2135 14.1126 8.99985 13.9301C8.91204 13.8576 8.8401 13.7678 8.78849 13.6663C8.73688 13.5648 8.70671 13.4538 8.69985 13.3401C8.69985 13.0601 8.69985 12.9101 8.87985 12.8801C9.21577 12.8622 9.55253 12.8925 9.87985 12.9701C10.1 13.0235 10.3297 13.0235 10.5498 12.9701C10.6584 12.9018 10.7482 12.8075 10.8111 12.6958C10.8739 12.584 10.9079 12.4583 10.9098 12.3301C10.9463 11.7807 10.9463 11.2295 10.9098 10.6801C10.9073 10.638 10.8965 10.5969 10.878 10.5591C10.8595 10.5212 10.8337 10.4874 10.8021 10.4595C10.7706 10.4316 10.7338 10.4103 10.6939 10.3966C10.654 10.383 10.6119 10.3774 10.5698 10.3801C10.4867 10.3853 10.4089 10.4226 10.3529 10.4842C10.2969 10.5458 10.2671 10.6269 10.2698 10.7101C10.3017 11.2474 10.2816 11.7866 10.2098 12.3201C9.9195 12.284 9.6321 12.2271 9.34985 12.1501C9.0081 12.0824 8.65341 12.1392 8.34985 12.3101C8.18973 12.4352 8.06431 12.5992 7.98553 12.7865C7.90676 12.9738 7.87726 13.1782 7.89985 13.3801C7.90128 13.7416 8.02066 14.0927 8.23985 14.3801C8.56225 14.7755 8.99875 15.0618 9.48985 15.2001L10.0898 15.3101C10.1339 15.7156 10.1339 16.1246 10.0898 16.5301C10.061 17.0106 9.91692 17.477 9.66985 17.8901C9.66985 17.9401 9.56985 17.9401 9.50985 17.9601C9.30112 18.0198 9.08653 18.0567 8.86985 18.0701H7.61985C7.12879 18.0829 6.63746 18.0595 6.14985 18.0001C5.87542 17.9749 5.6078 17.9004 5.35985 17.7801C5.21442 17.7015 5.09073 17.5882 4.99985 17.4501C4.77985 17.1101 4.60985 16.7201 4.41985 16.4501C3.64034 15.4098 2.93845 14.3135 2.31985 13.1701C1.92192 12.4094 1.60678 11.6081 1.37985 10.7801C1.37554 10.7405 1.36286 10.7024 1.34264 10.6681C1.32243 10.6338 1.29514 10.6043 1.2626 10.5814C1.23006 10.5585 1.19302 10.5428 1.15394 10.5353C1.11485 10.5279 1.07463 10.5288 1.03595 10.5382C0.997274 10.5475 0.961023 10.5649 0.929615 10.5893C0.898207 10.6138 0.872364 10.6446 0.853809 10.6798C0.835253 10.715 0.82441 10.7537 0.822002 10.7934C0.819595 10.8332 0.825678 10.8729 0.839847 10.9101C1.02506 11.7942 1.31372 12.6535 1.69985 13.4701C2.28286 14.6826 2.9512 15.8522 3.69985 16.9701C3.90985 17.2901 4.07985 17.7801 4.32985 18.1601C4.47191 18.3839 4.66351 18.5721 4.88985 18.7101C5.23649 18.8928 5.61196 19.0146 5.99985 19.0701L6.46985 19.1301V19.8601C6.47564 20.0697 6.5197 20.2764 6.59985 20.4701C6.68584 20.678 6.82353 20.8604 6.99985 21.0001L7.17985 21.1001C7.17499 21.1299 7.17499 21.1603 7.17985 21.1901C7.21699 21.7718 7.38081 22.3383 7.65985 22.8501C7.88614 23.228 8.21576 23.5333 8.60985 23.7301C9.08668 23.9403 9.60576 24.0371 10.1263 24.0128C10.6468 23.9885 11.1547 23.8438 11.6098 23.5901C12.0895 23.3549 12.4748 22.9632 12.702 22.4796C12.9292 21.9961 12.9849 21.4495 12.8598 20.9301C13.0171 20.8545 13.1648 20.7605 13.2998 20.6501C13.5238 20.4381 13.7016 20.1821 13.8221 19.8982C13.9425 19.6142 14.003 19.3085 13.9998 19.0001H14.5398C15.0427 18.9582 15.5305 18.8081 15.9698 18.5601C16.2108 18.4112 16.4076 18.2006 16.5398 17.9501C16.6819 17.6582 16.8055 17.3576 16.9098 17.0501C17.1998 16.3201 17.5298 15.6001 17.8198 14.8701C17.9498 14.5401 18.0698 14.2201 18.1798 13.8701C18.3498 13.3601 18.4998 12.8701 18.6198 12.3101C18.7389 11.7766 18.8191 11.2352 18.8598 10.6901C18.892 10.3742 18.892 10.0559 18.8598 9.7401C18.846 9.65397 18.815 9.57152 18.7686 9.49764C18.7222 9.42377 18.6614 9.35999 18.5898 9.3101ZM11.5198 22.4901C11.1503 22.7285 10.728 22.8727 10.2898 22.9101C9.85634 22.97 9.41486 22.929 8.99985 22.7901C8.67571 22.6862 8.39692 22.4745 8.20985 22.1901C8.04304 21.9265 7.91506 21.6402 7.82985 21.3401H7.88985C8.29006 21.404 8.69456 21.4375 9.09985 21.4401C9.68985 21.4401 10.2798 21.3701 10.8398 21.3301C11.3069 21.2922 11.7711 21.2254 12.2298 21.1301C12.2397 21.3989 12.1794 21.6657 12.0549 21.9041C11.9304 22.1426 11.746 22.3445 11.5198 22.4901ZM12.7698 20.0001C12.1445 20.2857 11.4505 20.3864 10.7698 20.2901C10.1298 20.3401 9.45985 20.3901 8.76985 20.4001C8.50005 20.4151 8.22964 20.4151 7.95985 20.4001C7.8085 20.3925 7.65963 20.3586 7.51985 20.3001C7.39734 20.2637 7.28907 20.1904 7.20985 20.0901C7.13789 19.9505 7.09696 19.797 7.08985 19.6401C7.0802 19.4769 7.0802 19.3133 7.08985 19.1501H7.59985C8.23179 19.1651 8.86391 19.1283 9.48985 19.0401C9.78254 18.9852 10.0593 18.8656 10.2998 18.6901C10.344 18.7432 10.4033 18.7815 10.4698 18.8001C10.6811 18.8393 10.8951 18.8627 11.1098 18.8701H12.4698L13.3198 18.9501C13.3055 19.1536 13.2492 19.3519 13.1546 19.5326C13.0599 19.7133 12.9289 19.8724 12.7698 20.0001Z" fill="black"/>
<path d="M23.58 4.30007C23.4143 3.85491 23.2206 3.42071 23 3.00007C22.7046 2.32086 22.257 1.71869 21.6917 1.24011C21.1264 0.761529 20.4586 0.419362 19.74 0.240065C18.3505 -0.112014 16.8912 -0.0774333 15.52 0.340065C15.4791 0.351554 15.4409 0.371078 15.4076 0.397496C15.3743 0.423914 15.3466 0.456698 15.3261 0.493934C15.3057 0.53117 15.2928 0.572113 15.2883 0.614371C15.2838 0.65663 15.2878 0.69936 15.3 0.740065C15.3255 0.819054 15.3797 0.88556 15.452 0.926332C15.5243 0.967104 15.6093 0.979148 15.69 0.960065C16.9427 0.610247 18.2673 0.610247 19.52 0.960065C20.1174 1.12374 20.6686 1.42391 21.1302 1.83692C21.5918 2.24993 21.9512 2.76449 22.18 3.34007C22.25 3.51007 22.41 3.86007 22.53 4.21007C22.65 4.56007 22.73 4.67007 22.69 4.80007C22.65 4.93007 22.56 4.91007 22.48 4.97007C22.25 5.12007 21.96 5.26007 21.73 5.40007C21.589 5.48844 21.4611 5.59616 21.35 5.72007C21.2913 5.78483 21.246 5.86061 21.2169 5.94301C21.1877 6.02541 21.1752 6.11279 21.18 6.20007C21.18 6.36007 21.25 6.62007 21.25 6.74007C21.2381 6.9654 21.173 7.18471 21.06 7.38007C21.0315 7.45063 20.9852 7.5126 20.9256 7.55992C20.866 7.60724 20.7952 7.6383 20.72 7.65007C20.49 7.65007 20.39 7.51007 20.29 7.36007C20.1454 7.11483 19.978 6.88381 19.79 6.67007C19.6127 6.47857 19.3833 6.34302 19.13 6.28007C18.9692 6.23943 18.8008 6.23943 18.64 6.28007C18.2775 6.423 17.9265 6.5935 17.59 6.79007C17.5059 6.83973 17.4149 6.87679 17.32 6.90007C17.32 6.90007 17.27 6.90007 17.25 6.90007C17.1732 6.79301 17.1063 6.67921 17.05 6.56007C16.88 6.19007 16.75 5.75007 16.59 5.43007L16.52 5.29007C17.0311 4.99142 17.4712 4.5854 17.81 4.10007C17.9797 3.83773 18.0441 3.521 17.9903 3.21323C17.9366 2.90547 17.7686 2.62934 17.52 2.44007C17.3949 2.31669 17.2465 2.21953 17.0833 2.15427C16.9202 2.08902 16.7457 2.05699 16.57 2.06007C16.0479 2.1615 15.5383 2.31908 15.05 2.53007L15 2.36006L14.44 0.810065C14.4148 0.738457 14.3622 0.67979 14.2938 0.646971C14.2253 0.614152 14.1466 0.60987 14.075 0.635065C14.0034 0.660261 13.9447 0.712871 13.9119 0.781321C13.8791 0.849772 13.8748 0.928457 13.9 1.00007L14.39 2.57007C14.39 2.57007 14.48 2.89007 14.53 3.00007C14.5565 3.06848 14.6033 3.12717 14.664 3.16827C14.7248 3.20938 14.7967 3.23094 14.87 3.23007C15.36 3.23007 15.87 2.89007 16.38 2.81007C16.4909 2.78256 16.6071 2.7857 16.7163 2.81917C16.8255 2.85264 16.9236 2.91517 17 3.00007C17.0989 3.08218 17.1646 3.19744 17.1848 3.32437C17.2051 3.45131 17.1785 3.58127 17.11 3.69007C16.74 4.14667 16.2762 4.5184 15.75 4.78007C15.6685 4.82639 15.6023 4.8956 15.5596 4.97912C15.517 5.06265 15.4997 5.15684 15.51 5.25007C15.5594 5.47544 15.6367 5.69378 15.74 5.90007C15.88 6.22007 16 6.66007 16.15 7.04007C16.2342 7.23872 16.3416 7.4267 16.47 7.60007C16.5642 7.72562 16.6866 7.82726 16.8273 7.89675C16.968 7.96623 17.1231 8.00163 17.28 8.00006C17.6794 7.95577 18.0629 7.8188 18.4 7.60007C18.6 7.49007 18.93 7.36007 18.93 7.36007C19.0683 7.47785 19.1836 7.62026 19.27 7.78007C19.4084 8.01408 19.5764 8.2292 19.77 8.42006C19.9114 8.54992 20.0797 8.64685 20.263 8.70391C20.4463 8.76096 20.6399 8.77673 20.83 8.75006C21.0282 8.72954 21.2198 8.66723 21.3922 8.56726C21.5646 8.46729 21.7138 8.33191 21.83 8.17006C22.1266 7.76959 22.2941 7.28818 22.31 6.79007C22.3351 6.62434 22.3351 6.45579 22.31 6.29007C22.59 6.09007 23.01 5.90007 23.31 5.67007C23.4644 5.53328 23.5843 5.36196 23.66 5.17007C23.7221 4.87866 23.6942 4.57526 23.58 4.30007Z" fill="black"/>
</g>
<defs>
<clipPath id="clip0_42_1018">
<rect width="24" height="24" fill="white"/>
</clipPath>
</defs>
</svg>
