<svg width="150" height="96" viewBox="0 0 150 96" fill="none" xmlns="http://www.w3.org/2000/svg">
<g clip-path="url(#clip0_93_5904)">
<mask id="path-1-outside-1_93_5904" maskUnits="userSpaceOnUse" x="-0.259766" y="0" width="151" height="96" fill="black">
<rect fill="white" x="-0.259766" width="151" height="96"/>
<path d="M2.74023 7.14286C2.74023 5.40711 4.14734 4 5.88309 4H144.357C146.093 4 147.5 5.4071 147.5 7.14286V88.8571C147.5 90.5929 146.093 92 144.357 92H5.88309C4.14734 92 2.74023 90.5929 2.74023 88.8571V7.14286Z"/>
</mask>
<rect width="144.886" height="88" transform="translate(2.73633 4.08911)" fill="#FBFFFF"/>
<g clip-path="url(#clip1_93_5904)">
<path d="M64.0733 55.6387C64.0733 55.6387 61.8516 55.6387 61.8516 53.4684C61.8516 51.2981 64.0733 44.7871 75.1819 44.7871C86.2905 44.7871 88.5122 51.2981 88.5122 53.4684C88.5122 55.6387 86.2905 55.6387 86.2905 55.6387H64.0733ZM81.8471 36.1057C81.8471 37.8325 81.1448 39.4887 79.8949 40.7097C78.6449 41.9308 76.9496 42.6167 75.1819 42.6167C73.4142 42.6167 71.7189 41.9308 70.4689 40.7097C69.219 39.4887 68.5167 37.8325 68.5167 36.1057C68.5167 34.3789 69.219 32.7228 70.4689 31.5018C71.7189 30.2807 73.4142 29.5947 75.1819 29.5947C76.9496 29.5947 78.6449 30.2807 79.8949 31.5018C81.1448 32.7228 81.8471 34.3789 81.8471 36.1057Z" fill="#01CDBB"/>
<path d="M78.6416 19.3411C78.9476 19.3411 79.2411 19.4621 79.4573 19.6777C79.6737 19.8932 79.7953 20.1855 79.7953 20.4903C79.7953 20.7951 79.9169 21.0874 80.1332 21.303C80.3496 21.5185 80.6431 21.6396 80.9491 21.6396C81.255 21.6396 81.5485 21.7606 81.7649 21.9762C81.9813 22.1917 82.1028 22.484 82.1028 22.7888V23.9381C82.1028 24.2429 81.9813 24.5352 81.7649 24.7507C81.5485 24.9662 81.255 25.0873 80.9491 25.0873H69.4115C69.1056 25.0873 68.8121 24.9662 68.5958 24.7507C68.3794 24.5352 68.2578 24.2429 68.2578 23.9381V22.7888C68.2578 22.484 68.3794 22.1917 68.5958 21.9762C68.8121 21.7606 69.1056 21.6396 69.4115 21.6396C69.7176 21.6396 70.011 21.5185 70.2274 21.303C70.4438 21.0874 70.5654 20.7951 70.5654 20.4903C70.5654 20.1855 70.6869 19.8932 70.9033 19.6777C71.1196 19.4621 71.413 19.3411 71.7191 19.3411H78.6416Z" fill="#334241"/>
<path d="M63.7392 25.0876C63.7392 24.7829 63.8607 24.4905 64.0771 24.275C64.2934 24.0595 64.5869 23.9384 64.8929 23.9384H66.0466C66.3526 23.9384 66.6461 23.8173 66.8625 23.6018C67.0789 23.3863 67.2004 23.0939 67.2004 22.7892C67.2004 22.4843 67.0789 22.192 66.8625 21.9765C66.6461 21.761 66.3526 21.6399 66.0466 21.6399H64.8929C63.9749 21.6399 63.0945 22.0031 62.4455 22.6497C61.7963 23.2963 61.4316 24.1732 61.4316 25.0876V52.6697C61.4316 53.5841 61.7963 54.461 62.4455 55.1076C63.0945 55.7542 63.9749 56.1175 64.8929 56.1175H85.6604C86.5784 56.1175 87.4588 55.7542 88.1078 55.1076C88.757 54.461 89.1217 53.5841 89.1217 52.6697V25.0876C89.1217 24.1732 88.757 23.2963 88.1078 22.6497C87.4588 22.0031 86.5784 21.6399 85.6604 21.6399H84.5067C84.2007 21.6399 83.9072 21.761 83.6908 21.9765C83.4745 22.192 83.3529 22.4843 83.3529 22.7892C83.3529 23.0939 83.4745 23.3863 83.6908 23.6018C83.9072 23.8173 84.2007 23.9384 84.5067 23.9384H85.6604C85.9665 23.9384 86.2599 24.0595 86.4762 24.275C86.6926 24.4905 86.8141 24.7829 86.8141 25.0876V52.6697C86.8141 52.9744 86.6926 53.2668 86.4762 53.4823C86.2599 53.6978 85.9665 53.8189 85.6604 53.8189H64.8929C64.5869 53.8189 64.2934 53.6978 64.0771 53.4823C63.8607 53.2668 63.7392 52.9744 63.7392 52.6697V25.0876Z" fill="#334241"/>
<path d="M66.7287 59.3987V73.7536H61.8701V68.4628H57.3821V73.7536H52.5234V59.3987H57.3821V64.4844H61.8701V59.3987H66.7287ZM76.5224 74.0817C74.999 74.0817 73.6264 73.7673 72.4049 73.1384C71.1834 72.4958 70.2227 71.6072 69.5227 70.4725C68.8364 69.3241 68.4933 68.0253 68.4933 66.5761C68.4933 65.1269 68.8364 63.835 69.5227 62.7003C70.2227 61.5519 71.1834 60.6632 72.4049 60.0344C73.6264 59.3918 74.999 59.0706 76.5224 59.0706C77.9224 59.0706 79.1713 59.3166 80.2693 59.8088C81.3673 60.301 82.2731 61.0119 82.9869 61.9415L79.9193 64.669C79.0272 63.5479 77.9772 62.9874 76.7695 62.9874C75.7538 62.9874 74.9372 63.3155 74.3196 63.9717C73.7019 64.6142 73.3931 65.4824 73.3931 66.5761C73.3931 67.6698 73.7019 68.5448 74.3196 69.2011C74.9372 69.8435 75.7538 70.1649 76.7695 70.1649C77.9772 70.1649 79.0272 69.6043 79.9193 68.4833L82.9869 71.2108C82.2731 72.1403 81.3673 72.8513 80.2693 73.3435C79.1713 73.8357 77.9224 74.0817 76.5224 74.0817ZM91.3276 59.3987C92.6589 59.3987 93.8187 59.6174 94.8069 60.0549C95.7951 60.4923 96.5568 61.1213 97.0921 61.9415C97.6274 62.7618 97.895 63.7188 97.895 64.8125C97.895 65.9062 97.6274 66.8633 97.0921 67.6835C96.5568 68.5038 95.7951 69.1327 94.8069 69.5702C93.8187 70.0076 92.6589 70.2264 91.3276 70.2264H89.2483V73.7536H84.3897V59.3987H91.3276ZM91.0188 66.4941C91.6776 66.4941 92.1717 66.3506 92.5011 66.0635C92.8305 65.7626 92.9952 65.3457 92.9952 64.8125C92.9952 64.2794 92.8305 63.8692 92.5011 63.5821C92.1717 63.2813 91.6776 63.131 91.0188 63.131H89.2483V66.4941H91.0188Z" fill="#7DB9FF"/>
</g>
</g>
<path d="M0.383091 6.35714C0.383091 3.31958 2.84553 0.857143 5.88309 0.857143H144.357C147.395 0.857143 149.857 3.31958 149.857 6.35714L145.143 7.14286C145.143 7.14286 144.791 7.14286 144.357 7.14286H5.88309C5.44915 7.14286 5.09738 7.14286 5.09738 7.14286L0.383091 6.35714ZM149.857 89.6429C149.857 92.6804 147.395 95.1429 144.357 95.1429H5.88309C2.84553 95.1429 0.383091 92.6804 0.383091 89.6429L5.09738 88.8571C5.09738 88.8571 5.44915 88.8571 5.88309 88.8571H144.357C144.791 88.8571 145.143 88.8571 145.143 88.8571L149.857 89.6429ZM5.88309 95.1429C2.84553 95.1429 0.383091 92.6804 0.383091 89.6429V6.35714C0.383091 3.31958 2.84553 0.857143 5.88309 0.857143V7.14286C5.44915 7.14286 5.09738 7.14286 5.09738 7.14286V88.8571C5.09738 88.8571 5.44915 88.8571 5.88309 88.8571V95.1429ZM144.357 0.857143C147.395 0.857143 149.857 3.31958 149.857 6.35714V89.6429C149.857 92.6804 147.395 95.1429 144.357 95.1429V88.8571C144.791 88.8571 145.143 88.8571 145.143 88.8571V7.14286C145.143 7.14286 144.791 7.14286 144.357 7.14286V0.857143Z" fill="black" mask="url(#path-1-outside-1_93_5904)"/>
<defs>
<clipPath id="clip0_93_5904">
<path d="M2.74023 7.14286C2.74023 5.40711 4.14734 4 5.88309 4H144.357C146.093 4 147.5 5.4071 147.5 7.14286V88.8571C147.5 90.5929 146.093 92 144.357 92H5.88309C4.14734 92 2.74023 90.5929 2.74023 88.8571V7.14286Z" fill="white"/>
</clipPath>
<clipPath id="clip1_93_5904">
<rect width="47.248" height="57.3173" fill="white" transform="translate(51.5547 19.4304)"/>
</clipPath>
</defs>
</svg>
