<svg width="24" height="24" viewBox="0 0 24 24" fill="none" xmlns="http://www.w3.org/2000/svg">
<path d="M6.42985 13.2558C11.9171 18.1483 13.1041 17.7166 18.0076 20.9029C18.1547 21.0036 18.5052 21 18.5052 21C18.5052 21 18.8068 10.0294 19 3C16 3.5 12 6.5 12 6.5C12 6.5 10.1075 7.37659 7.36386 9.61726C6.91631 9.96673 5.59314 10.6451 5.41801 11.6729C5.24289 12.7008 5.94339 12.8652 6.42985 13.2558ZM13 7.5C14.2205 6.41859 18.9923 3.27881 19 3C19 3.30835 18.5052 21 18.5052 21C18.5052 21 12.0339 15.8459 7.90869 11.8579C8.22003 11.6935 11.7795 8.58141 13 7.5Z" fill="white"/>
</svg>
