<svg width="24" height="24" viewBox="0 0 24 24" fill="none" xmlns="http://www.w3.org/2000/svg">
<g clip-path="url(#clip0_42_989)">
<path fill-rule="evenodd" clip-rule="evenodd" d="M23.4299 17.2702C23.3048 15.6403 22.9686 14.0336 22.4299 12.4902C22.0543 11.404 21.4391 10.4163 20.6299 9.60021C20.3348 9.33489 19.9966 9.12183 19.6299 8.97021C19.1473 8.78696 18.6528 8.63662 18.1499 8.52021C17.2324 8.29156 16.2945 8.15423 15.3499 8.11021C13.9899 8.04021 12.6299 8.11021 11.2199 8.11021C10.5599 8.11021 7.21989 8.36021 6.80989 8.44021C5.96716 8.56508 5.13948 8.77619 4.33989 9.07021C3.77012 9.29034 3.25492 9.63153 2.82989 10.0702C2.42123 10.5231 2.08402 11.0357 1.82989 11.5902C1.47578 12.3865 1.19463 13.2132 0.989891 14.0602L0.709891 16.0002L0.509891 17.6602V18.8402C0.480039 20.1347 0.772112 21.4164 1.35989 22.5702C1.59244 23.0305 1.99376 23.3831 2.48008 23.5545C2.9664 23.7259 3.50015 23.7029 3.96989 23.4902C4.34457 23.332 4.69212 23.1161 4.99989 22.8502C5.5706 22.3409 6.10211 21.7894 6.58989 21.2002C6.97083 21.3044 7.36925 21.3282 7.75989 21.2702C8.28516 21.1511 8.76555 20.8846 9.14462 20.502C9.52369 20.1194 9.78571 19.6366 9.89989 19.1102C10.3399 19.2002 10.7499 19.3102 11.1999 19.3602C11.3829 19.3752 11.5669 19.3752 11.7499 19.3602C11.9364 19.3701 12.1234 19.3701 12.3099 19.3602C12.7099 19.3002 13.0899 19.2202 13.4899 19.1402C13.5833 19.4998 13.7427 19.8389 13.9599 20.1402C14.2619 20.535 14.6643 20.8416 15.1251 21.028C15.5859 21.2144 16.0883 21.2739 16.5799 21.2002C16.8319 21.1515 17.0749 21.0638 17.2999 20.9402C17.6324 21.5262 18.0428 22.0644 18.5199 22.5402C18.9995 23.029 19.5571 23.4345 20.1699 23.7402C20.5569 23.9554 20.9983 24.0527 21.4399 24.0202C21.7815 23.9767 22.0968 23.8137 22.3299 23.5602C22.928 22.864 23.3011 22.0028 23.3999 21.0902C23.5576 19.8223 23.5676 18.5404 23.4299 17.2702ZM11.2699 8.89021C12.5999 8.89021 13.8799 8.89021 15.1499 9.05021C15.0203 9.75523 14.8534 10.4529 14.6499 11.1402C14.535 11.5296 14.3091 11.8771 13.9999 12.1402C13.8475 12.2266 13.6751 12.2714 13.4999 12.2702C13.0599 12.2702 12.5799 12.2702 12.2399 12.3302L10.7299 12.4902C10.4369 12.5113 10.1428 12.5113 9.84989 12.4902C9.6003 12.4963 9.35203 12.4521 9.11989 12.3602C8.93752 12.2508 8.77895 12.106 8.65356 11.9342C8.52817 11.7624 8.43851 11.5672 8.38989 11.3602C8.13961 10.6124 7.96212 9.84215 7.85989 9.06021C7.85989 9.00021 7.85989 8.97021 7.78989 8.92021C9.16989 9.00021 9.14989 8.83021 11.2699 8.89021ZM8.86989 18.6802C8.81323 19.0175 8.65895 19.3309 8.42613 19.5815C8.19331 19.8321 7.89215 20.0089 7.55989 20.0902C7.27182 20.1394 6.97587 20.1117 6.70195 20.0098C6.42803 19.908 6.18585 19.7357 5.99989 19.5102C5.78856 19.2941 5.6419 19.0231 5.57652 18.728C5.51113 18.4329 5.52962 18.1254 5.62989 17.8402C5.78155 17.4844 6.01041 17.1667 6.29989 16.9102C6.60391 16.7169 6.95075 16.6012 7.30994 16.5733C7.66913 16.5454 8.02967 16.6062 8.35989 16.7502C8.63035 16.9824 8.82392 17.2913 8.91499 17.6359C9.00606 17.9805 8.99033 18.3447 8.86989 18.6802ZM16.3999 20.0002C16.1119 20.0464 15.8169 20.0172 15.5435 19.9156C15.2702 19.8139 15.0278 19.6433 14.8399 19.4202C14.6303 19.203 14.4855 18.9316 14.4219 18.6365C14.3583 18.3415 14.3784 18.0345 14.4799 17.7502C15.3199 15.7502 18.3599 16.0702 17.7199 18.5902C17.6601 18.9278 17.5035 19.2408 17.2692 19.4911C17.0348 19.7414 16.7328 19.9183 16.3999 20.0002ZM22.3999 21.0002C22.3584 21.7258 22.1007 22.4224 21.6599 23.0002C21.6019 23.0651 21.5311 23.1172 21.4519 23.1534C21.3727 23.1895 21.2869 23.2089 21.1999 23.2102C20.9671 23.2012 20.7388 23.1433 20.5299 23.0402C19.9893 22.788 19.493 22.4504 19.0599 22.0402C18.6168 21.626 18.2301 21.1553 17.9099 20.6402L17.8499 20.5702C18.3225 20.1185 18.6438 19.5317 18.7699 18.8902C18.9088 18.3484 18.8767 17.777 18.678 17.2542C18.4792 16.7314 18.1236 16.2829 17.6599 15.9702C16.9334 15.6517 16.1121 15.6257 15.367 15.8976C14.6218 16.1696 14.0103 16.7186 13.6599 17.4302C13.4905 17.7374 13.3947 18.0797 13.3799 18.4302C13.0099 18.3802 12.6499 18.3202 12.2699 18.2902C12.0867 18.28 11.9031 18.28 11.7199 18.2902C11.5368 18.2757 11.3529 18.2757 11.1699 18.2902C10.7694 18.35 10.3722 18.4301 9.97989 18.5302C10.048 18.0449 9.97819 17.5503 9.77835 17.1029C9.57851 16.6555 9.25675 16.2733 8.84989 16.0002C8.68441 15.907 8.50569 15.8396 8.31989 15.8002C7.93888 15.6806 7.53516 15.6517 7.141 15.7159C6.74684 15.7802 6.37318 15.9358 6.04989 16.1702L5.99989 16.2302C5.5253 16.5411 5.13394 16.9634 4.85989 17.4602C4.64246 17.8995 4.55517 18.3918 4.60832 18.879C4.66148 19.3663 4.85286 19.8282 5.15989 20.2102C5.36496 20.482 5.6194 20.7127 5.90989 20.8902C5.54989 21.2602 5.19989 21.6402 4.80989 21.9702C4.47308 22.2851 4.07472 22.5268 3.63989 22.6802C3.36897 22.787 3.06708 22.7842 2.79825 22.6721C2.52943 22.5601 2.3148 22.3478 2.19989 22.0802C1.75633 21.0783 1.5641 19.9833 1.63989 18.8902L1.70989 17.7902L1.90989 16.1902L2.21989 14.4102C2.37848 13.625 2.60603 12.8554 2.89989 12.1102C3.0855 11.6366 3.33807 11.1921 3.64989 10.7902C3.96106 10.4213 4.34597 10.1215 4.77989 9.91021C5.49397 9.59664 6.23769 9.35543 6.99989 9.19021L7.23989 9.13021V9.19021C7.2476 10.186 7.39572 11.1758 7.67989 12.1302C7.84096 12.6288 8.16954 13.0563 8.60989 13.3402C8.89921 13.5057 9.21891 13.6111 9.54989 13.6502C9.98149 13.705 10.4183 13.705 10.8499 13.6502L12.4399 13.4702C12.8199 13.4002 13.4399 13.4102 13.8999 13.2902C14.1879 13.2261 14.4558 13.0922 14.6799 12.9002C15.0966 12.4916 15.385 11.9703 15.5099 11.4002C15.6602 10.6668 15.7704 9.92567 15.8399 9.18021C15.8399 9.18021 15.8399 9.18021 15.8399 9.12021C16.5406 9.20576 17.233 9.3496 17.9099 9.55021C18.3526 9.67172 18.7868 9.82204 19.2099 10.0002C19.4457 10.1068 19.662 10.2522 19.8499 10.4302C20.5254 11.1276 21.0347 11.9685 21.3399 12.8902C21.8416 14.3417 22.1607 15.8499 22.2899 17.3802C22.4722 18.5509 22.5192 19.7387 22.4299 20.9202L22.3999 21.0002Z" fill="black"/>
<path fill-rule="evenodd" clip-rule="evenodd" d="M12.5901 3.90013C12.2087 3.80005 11.8124 3.76956 11.4201 3.81013C11.0355 3.85106 10.6603 3.95583 10.3101 4.12013C9.54657 4.50894 8.89576 5.08744 8.42011 5.80013C8.39319 5.83099 8.37261 5.86686 8.35955 5.90567C8.34649 5.94448 8.3412 5.98549 8.34398 6.02635C8.34677 6.0672 8.35758 6.10711 8.37579 6.1438C8.39399 6.18048 8.41925 6.21321 8.45011 6.24013C8.48097 6.26705 8.51683 6.28763 8.55565 6.3007C8.59446 6.31376 8.63547 6.31905 8.67632 6.31626C8.71718 6.31348 8.75709 6.30267 8.79377 6.28446C8.83045 6.26625 8.86319 6.24099 8.89011 6.21013C9.4218 5.74462 10.0503 5.40305 10.7301 5.21013C10.9968 5.11622 11.2711 5.04595 11.5501 5.00013C12.0226 4.92306 12.5069 4.96499 12.9591 5.12213C13.4113 5.27928 13.8172 5.54667 14.1401 5.90013C14.1727 5.93339 14.2116 5.95982 14.2545 5.97786C14.2975 5.99589 14.3435 6.00519 14.3901 6.00519C14.4367 6.00519 14.4828 5.99589 14.5257 5.97786C14.5686 5.95982 14.6075 5.93339 14.6401 5.90013C14.6731 5.86841 14.6993 5.83036 14.7172 5.78826C14.7351 5.74617 14.7444 5.70089 14.7444 5.65513C14.7444 5.60938 14.7351 5.5641 14.7172 5.522C14.6993 5.47991 14.6731 5.44186 14.6401 5.41013C14.1569 4.68013 13.4306 4.1451 12.5901 3.90013Z" fill="black"/>
<path fill-rule="evenodd" clip-rule="evenodd" d="M6.35973 4.2001C7.19754 2.96938 8.41145 2.04316 9.81973 1.5601C10.6178 1.26373 11.4715 1.14762 12.3197 1.2201C12.8825 1.25562 13.4344 1.39107 13.9497 1.6201C14.4121 1.82345 14.8404 2.09664 15.2197 2.4301C15.8062 2.98794 16.3416 3.59703 16.8197 4.2501C16.8456 4.28876 16.8792 4.32169 16.9184 4.34685C16.9575 4.37201 17.0014 4.38886 17.0474 4.39636C17.0933 4.40386 17.1403 4.40185 17.1854 4.39045C17.2306 4.37905 17.2729 4.35851 17.3097 4.3301C17.3473 4.30327 17.3791 4.26928 17.4035 4.23009C17.4278 4.1909 17.4442 4.14728 17.4516 4.10174C17.4591 4.0562 17.4574 4.00964 17.4468 3.96473C17.4362 3.91983 17.4168 3.87747 17.3897 3.8401C16.9425 3.10584 16.4305 2.41307 15.8597 1.7701C15.4384 1.32967 14.9529 0.955447 14.4197 0.660096C13.7994 0.324239 13.1205 0.110381 12.4197 0.0300965C11.3951 -0.0699256 10.362 0.0953736 9.41973 0.510096C7.86837 1.18674 6.59717 2.37672 5.81973 3.8801C5.79871 3.91555 5.78489 3.9548 5.77905 3.9956C5.77321 4.0364 5.77546 4.07795 5.78567 4.11788C5.79588 4.15781 5.81386 4.19533 5.83858 4.22831C5.8633 4.2613 5.89427 4.28908 5.92973 4.3101C5.96518 4.33111 6.00443 4.34493 6.04523 4.35077C6.08603 4.35662 6.12758 4.35437 6.16751 4.34415C6.20744 4.33394 6.24496 4.31596 6.27794 4.29124C6.31093 4.26652 6.33871 4.23555 6.35973 4.2001Z" fill="black"/>
</g>
<defs>
<clipPath id="clip0_42_989">
<rect width="24" height="24" fill="white"/>
</clipPath>
</defs>
</svg>
