<svg width="24" height="24" viewBox="0 0 24 24" fill="none" xmlns="http://www.w3.org/2000/svg">
<g clip-path="url(#clip0_52_1700)">
<g filter="url(#filter0_f_52_1700)">
<ellipse cx="11" cy="12.5" rx="9" ry="9.5" fill="white" fill-opacity="0.3"/>
</g>
<path d="M9.25356 10.9678C9.25356 10.9678 6.22724 8.2679 7.66239 7.22364C9.01662 6.23826 11.3751 8.82831 11.3751 8.82831C11.3751 8.82831 15.2154 6.95183 16.1486 8.82831C16.8246 10.1876 15.6182 12.0376 15.6182 12.0376C15.6182 12.0376 18.9365 14.2239 17.7397 15.7816C16.5361 17.3481 13.4967 14.712 13.4967 14.712C13.4967 14.712 12.7225 19.2273 11.375 18.9909C9.2445 18.6173 10.3142 14.177 10.3142 14.177C10.3142 14.177 5.18609 14.4323 5.01045 12.5724C5.01045 12.5724 4.98694 12.245 5.01045 12.0375C5.20439 10.3262 9.25356 10.9678 9.25356 10.9678Z" fill="#FEDD07"/>
<path d="M5.71361 13.4981L8.8568 14.0283C8.73547 14.0695 8.62055 14.1094 8.52438 14.1437C8.45114 14.1698 8.3872 14.1932 8.33911 14.2119C8.31535 14.2211 8.29318 14.2301 8.27483 14.2381C8.26583 14.2421 8.25526 14.2469 8.24477 14.2523L8.24412 14.2526C8.23831 14.2556 8.21468 14.2676 8.19091 14.2872C7.76344 14.64 6.05019 16.2223 4.38094 17.9099C3.54532 18.7548 2.71653 19.6302 2.06248 20.3952C1.73557 20.7775 1.44986 21.135 1.22807 21.4492C1.00974 21.7585 0.840637 22.0433 0.762829 22.2767L0.75 22.3152V22.3558C0.75 22.6827 0.917029 23.085 1.33312 23.189C1.73154 23.2886 2.21381 23.0706 2.75175 22.5325L2.75178 22.5326L2.75488 22.5293C5.38066 19.8075 6.53494 18.5835 7.20855 17.8691C8.12597 16.8962 8.15181 16.8688 9.78917 15.291C9.79601 15.3998 9.80262 15.509 9.80922 15.6179C9.83107 15.9784 9.85279 16.337 9.88205 16.6761C9.91846 17.0982 9.967 17.4896 10.046 17.7899C10.0853 17.9395 10.1357 18.0804 10.2045 18.1949C10.2725 18.3078 10.376 18.4233 10.532 18.4673C10.9332 18.5804 11.2551 18.3954 11.4795 18.183C11.6642 18.0082 11.8174 17.7823 11.9271 17.6204C11.9472 17.5908 11.9658 17.5633 11.9829 17.5387L11.9836 17.5377C12.5749 16.6767 12.8345 16.1355 12.9528 15.7131C13.0123 15.5003 13.0343 15.3239 13.0475 15.1622C13.0513 15.1149 13.0543 15.071 13.0572 15.0289C13.1588 15.0641 13.2613 15.0969 13.3645 15.1272C14.1806 15.6087 15.0964 15.8989 16.0423 15.9758L16.0524 15.9767H16.0625C16.4113 15.9767 16.8021 15.9262 17.0921 15.7673C17.241 15.6857 17.3777 15.5674 17.4573 15.399C17.538 15.2281 17.5461 15.035 17.4903 14.832C17.4259 14.5799 17.2437 14.3528 16.8958 13.9608C16.7717 13.821 16.624 13.658 16.4462 13.4617C16.1084 13.0888 15.6618 12.5958 15.0609 11.9129C15.0617 11.8936 15.063 11.8756 15.065 11.8588C15.0666 11.8463 15.0683 11.8372 15.0697 11.8311L15.1 11.7967L15.1132 11.7311C15.1717 11.4403 15.2782 11.1303 15.4003 10.7983C15.4226 10.7377 15.4454 10.6763 15.4685 10.6142C15.5696 10.3424 15.6752 10.0582 15.7592 9.77639C15.8717 9.39878 15.8786 8.95877 15.7185 8.60183C15.637 8.42009 15.5102 8.25666 15.3298 8.14165C15.1488 8.02625 14.9288 7.96917 14.6769 7.97668L14.6501 7.97748L14.624 7.98395L11.512 8.75758C11.2628 8.61488 11.0197 8.43486 10.7718 8.23811C10.6807 8.16588 10.5877 8.09023 10.4935 8.01364C10.3098 7.86435 10.1217 7.71147 9.9355 7.57319C9.37263 7.15525 8.73261 6.79554 7.96231 6.89653C7.80087 6.89541 7.64157 6.93485 7.49924 7.01144C7.35037 7.09156 7.22529 7.2095 7.13682 7.35345C7.04834 7.49742 6.99968 7.66221 6.99588 7.8311C6.99208 7.99999 7.0333 8.1668 7.11523 8.31457L7.11953 8.32233L7.12438 8.32977C7.61024 9.07589 8.03443 9.85988 8.3928 10.674C8.38932 10.6753 8.38589 10.6766 8.38252 10.6778C8.34421 10.6919 8.31408 10.7027 8.28949 10.7104C8.26805 10.7172 8.25941 10.7188 8.25943 10.7189L8.25095 10.7197L8.24067 10.7216C8.07065 10.753 7.89523 10.784 7.71772 10.8154C7.11121 10.9224 6.48038 11.0338 5.95759 11.1816C5.61885 11.2774 5.30548 11.3936 5.06318 11.545C4.82246 11.6955 4.61627 11.9039 4.56518 12.1945C4.51868 12.4536 4.62403 12.7181 4.812 12.9362C5.00255 13.1572 5.2927 13.351 5.67064 13.4868L5.69162 13.4944L5.71361 13.4981ZM9.78598 15.2405C9.78598 15.2405 9.78599 15.2405 9.78599 15.2405L9.63925 15.0883L9.78598 15.2405Z" stroke="black" stroke-width="0.5"/>
<path fill-rule="evenodd" clip-rule="evenodd" d="M12.0256 4.69313C12.0402 4.77863 12.0846 4.85621 12.1509 4.91214C12.2172 4.96808 12.3011 4.99876 12.3879 4.99876C12.4746 4.99876 12.5586 4.96808 12.6249 4.91214C12.6912 4.85621 12.7355 4.77863 12.7502 4.69313C12.7502 4.57762 13.4327 2.39342 12.3091 2.02589C11.511 1.74236 11.8576 3.86355 12.0256 4.69313Z" fill="#FEDD07" fill-opacity="0.5"/>
<path fill-rule="evenodd" clip-rule="evenodd" d="M3.79312 8.77786C3.85996 8.8461 3.95117 8.88498 4.04668 8.88597C4.14219 8.88695 4.23418 8.84995 4.30241 8.78311C4.37065 8.71627 4.40953 8.62506 4.41052 8.52955C4.4115 8.43404 4.3745 8.34205 4.30766 8.27382C4.12062 7.99106 3.89029 7.73946 3.6251 7.52825C3.10707 7.15829 2.49614 6.9401 1.86094 6.89819C1.79794 6.89819 1.57742 7.18172 1.86094 7.51775C2.94254 8.81987 3.32057 8.48384 3.79312 8.77786Z" fill="#FEDD07" fill-opacity="0.5"/>
<path fill-rule="evenodd" clip-rule="evenodd" d="M14.1258 17.5674C14.0506 17.6039 13.9916 17.6672 13.9606 17.7449C13.9295 17.8226 13.9285 17.9091 13.9578 17.9874C14.1048 19.2895 15.911 19.9091 16.1735 19.6466C16.2081 19.6133 16.2357 19.5733 16.2545 19.5291C16.2733 19.4849 16.283 19.4373 16.283 19.3893C16.283 19.3413 16.2733 19.2937 16.2545 19.2495C16.2357 19.2053 16.2081 19.1653 16.1735 19.132C15.7065 18.3765 14.9775 17.8194 14.1258 17.5674Z" fill="#FEDD07" fill-opacity="0.5"/>
<path fill-rule="evenodd" clip-rule="evenodd" d="M21.0462 10.6473C20.4056 10.6473 18.946 10.0277 17.8434 11.1408C17.8083 11.1629 17.7778 11.1917 17.7537 11.2255C17.7297 11.2593 17.7125 11.2976 17.7033 11.338C17.694 11.3785 17.6928 11.4204 17.6997 11.4613C17.7067 11.5023 17.7216 11.5414 17.7437 11.5766C17.7657 11.6118 17.7945 11.6422 17.8283 11.6663C17.8622 11.6903 17.9004 11.7075 17.9409 11.7167C17.9814 11.726 18.0233 11.7272 18.0642 11.7203C18.1051 11.7133 18.1443 11.6984 18.1794 11.6764C19.1969 11.7518 20.2194 11.6342 21.1932 11.3298C21.2677 11.2963 21.3284 11.2382 21.3653 11.1653C21.4021 11.0923 21.4128 11.009 21.3956 10.9291C21.3784 10.8493 21.3343 10.7777 21.2707 10.7264C21.2072 10.6751 21.1279 10.6472 21.0462 10.6473Z" fill="#FEDD07" fill-opacity="0.5"/>
</g>
<defs>
<filter id="filter0_f_52_1700" x="-2" y="-1" width="26" height="27" filterUnits="userSpaceOnUse" color-interpolation-filters="sRGB">
<feFlood flood-opacity="0" result="BackgroundImageFix"/>
<feBlend mode="normal" in="SourceGraphic" in2="BackgroundImageFix" result="shape"/>
<feGaussianBlur stdDeviation="2" result="effect1_foregroundBlur_52_1700"/>
</filter>
<clipPath id="clip0_52_1700">
<rect width="24" height="24" fill="white"/>
</clipPath>
</defs>
</svg>
