<svg width="24" height="24" viewBox="0 0 24 24" fill="none" xmlns="http://www.w3.org/2000/svg">
<path d="M13 22L14 23.5H20.5L21.5 20.5L20.5 16.5L17.5 15.5H15.5L14 10.5L12 9L11 10.5L11.5 15V17L10 18.5L10.5 20.5L13 22Z" fill="white"/>
<path d="M21.3921 17.6791C21.3029 17.1621 21.1016 16.6709 20.8023 16.2399C20.5031 15.809 20.1131 15.4488 19.6598 15.1846C19.2871 14.9916 18.8869 14.8572 18.4732 14.7862C17.8667 14.6847 17.251 14.6498 16.637 14.6823C16.4984 14.6823 16.074 14.8295 15.7708 14.8642L15.3637 13.1319C15.2183 12.5103 15.0213 11.9019 14.7748 11.313C14.5211 10.7136 14.1922 10.149 13.796 9.63267C13.5542 9.30058 13.262 9.00834 12.9299 8.76653C12.6656 8.55876 12.3466 8.43236 12.0118 8.40275C11.7027 8.3624 11.3889 8.42548 11.1194 8.58216C10.8499 8.73884 10.6399 8.98031 10.522 9.26889C10.315 9.95902 10.2559 10.6851 10.3488 11.3996C10.3971 12.1255 10.4838 12.8483 10.6086 13.565C10.7305 14.2852 10.8983 14.9968 11.111 15.6957C11.1889 15.9295 11.2582 16.172 11.3275 16.4059C10.9526 16.5571 10.6139 16.7857 10.3333 17.0768C10.0527 17.3678 9.83663 17.7147 9.69918 18.0949C9.53372 18.5134 9.45703 18.9617 9.47398 19.4114C9.4929 19.8785 9.62678 20.3337 9.86375 20.7366C10.0405 21.0145 10.2631 21.2605 10.522 21.4642C10.8823 21.7227 11.2719 21.9378 11.6826 22.1051L12.3842 22.3043C12.5158 22.3958 12.6326 22.5068 12.7307 22.6335C13.0078 23.0146 13.1897 23.4996 13.4929 23.8287C13.516 23.8603 13.5451 23.8869 13.5786 23.9071C13.6121 23.9273 13.6493 23.9406 13.688 23.9462C13.7267 23.9519 13.7662 23.9498 13.8041 23.94C13.8419 23.9302 13.8775 23.913 13.9086 23.8894C13.9412 23.8671 13.9688 23.8383 13.9897 23.8048C14.0106 23.7713 14.0243 23.7338 14.03 23.6948C14.0357 23.6557 14.0332 23.6159 14.0228 23.5778C14.0123 23.5398 13.9941 23.5043 13.9693 23.4736C13.7094 23.0925 13.5795 22.6075 13.3456 22.2264C13.222 22.0141 13.0639 21.8238 12.8779 21.6634C12.7804 21.5876 12.6725 21.5264 12.5574 21.4815C12.4015 21.4122 12.2197 21.3775 12.0637 21.2909C11.7375 21.1246 11.4298 20.9243 11.1456 20.6933C10.9798 20.558 10.8365 20.3972 10.7212 20.2169C10.5565 19.9376 10.4508 19.6275 10.4105 19.3057C10.3703 18.9839 10.3965 18.6573 10.4874 18.3461C10.5654 18.0621 10.699 17.7965 10.8803 17.5646C11.0617 17.3327 11.2873 17.139 11.5441 16.9949C11.622 17.2374 11.7 17.4886 11.7866 17.7224C11.9491 18.166 12.137 18.5998 12.3496 19.0216C12.3812 19.0842 12.4361 19.1319 12.5024 19.1546C12.5688 19.1773 12.6414 19.1731 12.7047 19.1429C12.7357 19.1273 12.7634 19.1057 12.7859 19.0793C12.8085 19.0529 12.8255 19.0222 12.836 18.9891C12.8465 18.956 12.8502 18.9211 12.847 18.8866C12.8438 18.852 12.8337 18.8184 12.8173 18.7878C12.6303 18.3823 12.4683 17.9658 12.3323 17.5405C12.1244 16.8909 11.9598 16.2327 11.7866 15.5571C11.6104 14.879 11.4773 14.1905 11.3882 13.4957C11.3008 12.7999 11.2459 12.1005 11.2236 11.3996C11.1521 10.8165 11.2112 10.2247 11.3968 9.66732C11.4471 9.55592 11.5334 9.46463 11.6417 9.40809C11.7501 9.35155 11.8743 9.33303 11.9945 9.35551C12.1955 9.37777 12.3824 9.46969 12.5228 9.61535C12.7189 9.787 12.8934 9.98186 13.0425 10.1957C13.3943 10.6528 13.6855 11.1535 13.9086 11.6854C14.1344 12.2274 14.3168 12.7863 14.4543 13.3571L14.87 15.3319C14.8931 15.4508 14.9533 15.5594 15.042 15.6419C15.1308 15.7244 15.2434 15.7766 15.3637 15.7909C15.7965 15.7857 16.2281 15.7452 16.6543 15.6697C17.2014 15.6141 17.7528 15.6141 18.3 15.6697C18.6396 15.7111 18.9702 15.8076 19.2787 15.9555C19.6315 16.1547 19.9367 16.4283 20.1731 16.7574C20.4094 17.0864 20.5712 17.4631 20.6472 17.861C20.8937 19.1777 20.8937 20.5286 20.6472 21.8453L20.37 23.1878C20.3609 23.2259 20.3594 23.2654 20.3656 23.3041C20.3718 23.3428 20.3855 23.3799 20.406 23.4133C20.4475 23.4807 20.514 23.5289 20.5909 23.5472C20.6679 23.5656 20.749 23.5527 20.8164 23.5112C20.8498 23.4907 20.8788 23.4639 20.9018 23.4321C20.9247 23.4004 20.9413 23.3645 20.9504 23.3264L21.2708 21.9492C21.5783 20.546 21.6195 19.0975 21.3921 17.6791Z" fill="black"/>
</svg>
