<svg width="24" height="24" viewBox="0 0 24 24" fill="none" xmlns="http://www.w3.org/2000/svg">
<path d="M17.9607 10.7442C12.4734 5.85174 11.2864 6.28343 6.38291 3.09715C6.2358 2.99641 5.88537 3.00002 5.88537 3.00002C5.88537 3.00002 5.58378 13.9706 5.39053 21C8.39053 20.5 12.3905 17.5 12.3905 17.5C12.3905 17.5 14.283 16.6234 17.0267 14.3827C17.4742 14.0333 18.7974 13.3549 18.9725 12.3271C19.1476 11.2992 18.4471 11.1348 17.9607 10.7442ZM11.3905 16.5C10.17 17.5814 5.3982 20.7212 5.39053 21C5.39053 20.6917 5.88537 3.00002 5.88537 3.00002C5.88537 3.00002 12.3566 8.15408 16.4818 12.1421C16.1705 12.3065 12.611 15.4186 11.3905 16.5Z" fill="white"/>
</svg>
