<svg width="24" height="24" viewBox="0 0 24 24" fill="none" xmlns="http://www.w3.org/2000/svg">
<g clip-path="url(#clip0_191_21979)">
<path fill-rule="evenodd" clip-rule="evenodd" d="M3.27999 1.1C3.28982 1.05996 3.29128 1.01832 3.2843 0.977681C3.27731 0.937045 3.26202 0.898285 3.23939 0.863821C3.21675 0.829357 3.18725 0.79993 3.15274 0.777375C3.11822 0.754821 3.07942 0.739624 3.03877 0.732734C2.99812 0.725844 2.95648 0.727408 2.91646 0.737328C2.87644 0.747249 2.83889 0.765313 2.80616 0.790393C2.77343 0.815473 2.74622 0.84703 2.72624 0.883095C2.70625 0.91916 2.69391 0.958957 2.68999 1C1.68999 5.63 2.26999 11.47 2.55999 14.75C2.56662 14.8402 2.6088 14.924 2.67726 14.9831C2.74571 15.0422 2.83482 15.0716 2.92499 15.065C3.01517 15.0584 3.09901 15.0162 3.15809 14.9477C3.21716 14.8793 3.24662 14.7902 3.23999 14.7C3.12999 12.43 2.99999 10.07 2.99999 6.28C3.0039 4.54966 3.09736 2.82068 3.27999 1.1Z" fill="#6D538B"/>
<path fill-rule="evenodd" clip-rule="evenodd" d="M20.58 4.47C15.23 4.43 4 4.55 4 4.55C3.52 4.66 3.51 5.05 4 5.11C4 5.11 8 5.38 12 5.39C15.63 5.39 18 5.22 20.59 5.16C20.6713 5.14495 20.7446 5.10164 20.797 5.03772C20.8493 4.97381 20.8774 4.89341 20.8762 4.81078C20.875 4.72815 20.8446 4.6486 20.7904 4.58623C20.7362 4.52386 20.6617 4.48269 20.58 4.47Z" fill="#6D538B"/>
<path fill-rule="evenodd" clip-rule="evenodd" d="M22.72 0.770005C21.37 -0.409995 6.08999 0.0600047 4.28999 0.220005C4.20518 0.232404 4.12817 0.276383 4.0744 0.343137C4.02063 0.40989 3.99405 0.494492 3.99999 0.580005C3.99999 1.25 4.35999 0.580005 15.19 0.980005C15.71 0.980005 21.61 1.27 22 1.62C22.67 2.21 22.82 16.07 22.43 17.48C22.35 17.42 22.23 17.61 22.06 17.67C20.22 18.29 14.77 18.26 12.82 18.25C12.7404 18.25 12.6641 18.2816 12.6079 18.3379C12.5516 18.3941 12.52 18.4704 12.52 18.55C12.52 18.6296 12.5516 18.7059 12.6079 18.7621C12.6641 18.8184 12.7404 18.85 12.82 18.85C14.9 18.93 21.23 19.18 22.82 18.35C23.0492 18.2401 23.228 18.047 23.32 17.81C23.85 16.19 24.1 2 22.72 0.770005Z" fill="#6D538B"/>
<path fill-rule="evenodd" clip-rule="evenodd" d="M6.5 3.11C6.58098 2.96033 6.60633 2.78681 6.57155 2.62023C6.53676 2.45364 6.4441 2.30476 6.31 2.2C5.63 1.84 4.79 2.53 5.4 3.15C5.47292 3.22324 5.5602 3.28062 5.65635 3.31854C5.7525 3.35645 5.85545 3.37409 5.95874 3.37033C6.06203 3.36657 6.16342 3.34151 6.25657 3.29671C6.34971 3.25191 6.43259 3.18835 6.5 3.11Z" fill="#6D538B"/>
<path fill-rule="evenodd" clip-rule="evenodd" d="M8.84 2.86001C8.90744 2.71655 8.92635 2.55505 8.89387 2.39989C8.8614 2.24474 8.7793 2.10438 8.66 2.00001C7.98 1.65001 7.14 2.34001 7.75 3.00001C7.82862 3.06746 7.92052 3.11766 8.01977 3.14735C8.11901 3.17703 8.22338 3.18556 8.32613 3.17236C8.42887 3.15916 8.5277 3.12454 8.61622 3.07074C8.70474 3.01693 8.78098 2.94514 8.84 2.86001Z" fill="#6D538B"/>
<path fill-rule="evenodd" clip-rule="evenodd" d="M11.4 2.86001C11.468 2.71585 11.4862 2.5532 11.4518 2.39757C11.4174 2.24193 11.3324 2.10211 11.21 2.00001C10.53 1.65001 9.68999 2.34001 10.3 3.00001C10.3795 3.06767 10.4722 3.11801 10.5722 3.14779C10.6722 3.17757 10.7774 3.18615 10.8809 3.17297C10.9845 3.1598 11.0841 3.12515 11.1735 3.07126C11.2629 3.01737 11.34 2.94542 11.4 2.86001Z" fill="#6D538B"/>
<path fill-rule="evenodd" clip-rule="evenodd" d="M10.63 19.68C10.5366 19.5144 10.3879 19.387 10.21 19.32C9.53 19.09 2.21 19.41 1.42 19.46C1.33068 19.4651 1.24671 19.5042 1.18534 19.5693C1.12397 19.6344 1.08985 19.7205 1.09 19.81C1.09 19.91 1.09 19.72 0.939997 19.63C0.0999975 19.23 0.189997 22.83 0.439997 23.39C0.869997 24.34 8.52 23.94 9.62 23.81C10.14 23.75 10.48 23.67 10.69 23.3C10.8812 22.8188 10.9861 22.3076 11 21.79C10.9847 21.0719 10.8599 20.3604 10.63 19.68ZM9.79 22.33C9.79 22.46 9.64 22.61 9.64 22.69C8.86 22.69 3.89 23.12 1.73 23C1.1 23 0.999997 23.32 0.999997 21.56C0.937257 20.9956 0.988261 20.4244 1.15 19.88C1.16653 19.9567 1.20982 20.025 1.27213 20.0726C1.33443 20.1202 1.41167 20.1441 1.49 20.14C2.57 20.14 9.16 20.14 9.82 20.32C9.90444 20.9881 9.89434 21.6647 9.79 22.33Z" fill="#6D538B"/>
<path fill-rule="evenodd" clip-rule="evenodd" d="M8.76 15.66C8.33923 16.1763 7.96446 16.7284 7.64 17.31C7.63996 17.4011 7.67546 17.4887 7.73895 17.554C7.80244 17.6194 7.88892 17.6574 7.98 17.66C8.24 17.66 8.3 17.57 9.5 16.23C10.5892 15.1388 11.5767 13.9506 12.45 12.68C13.25 11.59 13.39 11.41 13.45 11.39C13.65 11.93 13.62 12.16 14.19 13.86C14.34 14.47 14.68 15.07 15.26 14.86C15.84 14.65 16.04 13.56 16.2 13.14C16.58 12.14 17.4 8.36001 17.15 7.38001C17.116 7.20612 17.0154 7.05238 16.8697 6.95152C16.724 6.85067 16.5447 6.81066 16.37 6.84001C14.3684 7.3104 12.4111 7.95279 10.52 8.76001C8.22 9.84001 8.52 10.96 9.73 11.14C10.04 11.19 12.73 11.14 12.8 11.08C11.2909 12.4554 9.93627 13.9911 8.76 15.66ZM12.76 10.44C11.92 10.37 10.55 10.44 9.69 10.3C9.83912 10.1574 10.0074 10.0362 10.19 9.94001C12.07 9.1475 14.0136 8.51526 16 8.05001C15.8863 9.9349 15.5712 11.8022 15.06 13.62C14.93 14.05 15.01 13.91 14.92 13.62L14.54 12.62C14.54 12.62 14.21 11.5 14.04 11.1C13.8832 10.9083 13.6886 10.7508 13.4685 10.6372C13.2483 10.5237 13.0072 10.4566 12.76 10.44Z" fill="#6D538B"/>
</g>
<defs>
<clipPath id="clip0_191_21979">
<rect width="24" height="24" fill="white"/>
</clipPath>
</defs>
</svg>
