<svg width="25" height="22" viewBox="0 0 25 22" fill="none" xmlns="http://www.w3.org/2000/svg">
<path fill-rule="evenodd" clip-rule="evenodd" d="M14.0466 1.76591C13.8264 1.30673 13.4537 0.936467 12.9911 0.717102C12.5284 0.497738 12.0037 0.442588 11.505 0.56088C8.96335 0.916913 1.55954 8.01019 0.64788 9.54387C-0.263783 11.0775 1.11752 12.2826 2.44358 13.7341C5.37944 16.4499 8.48925 18.9748 11.7536 21.293C11.9648 21.4187 12.2046 21.4895 12.4508 21.4989C12.697 21.5083 12.9417 21.456 13.162 21.3468C13.3824 21.2375 13.5714 21.0749 13.7115 20.874C13.8517 20.6731 13.9384 20.4404 13.9637 20.1975C14.2123 19.2389 14.4333 17.0753 14.5991 15.7334C16.6068 16.1897 18.6487 16.4828 20.7045 16.6098C20.9225 16.5723 21.1202 16.4597 21.2626 16.2918C21.4051 16.124 21.4833 15.9117 21.4833 15.6923C21.4833 15.4729 21.4051 15.2606 21.2626 15.0927C21.1202 14.9249 20.9225 14.8123 20.7045 14.7748C17.9418 14.7748 13.7427 12.9125 12.9139 13.7067C12.3576 15.1746 12.0225 16.7157 11.9193 18.2804C8.94832 15.945 6.17634 13.371 3.6315 10.5846C5.71126 8.45513 7.93577 6.46948 10.2894 4.64157C10.4828 4.50463 11.0353 3.87472 11.4497 3.57347C11.4497 4.97021 10.6762 8.01019 11.1734 9.0509C11.398 9.35818 11.7096 9.59247 12.0686 9.72411C12.4276 9.85575 12.8179 9.8788 13.1901 9.79035C14.5438 9.54387 17.6932 8.64009 18.7154 8.36622C19.7375 8.09235 20.8426 7.43506 21.478 7.62677C22.1134 7.81848 22.0581 8.69487 22.141 9.10567C22.6383 11.1871 22.141 13.4876 22.7488 15.569C22.8188 15.755 22.9544 15.9095 23.1304 16.0041C23.3065 16.0986 23.5111 16.1268 23.7065 16.0834C23.9019 16.04 24.0748 15.9279 24.1933 15.7679C24.3118 15.6079 24.3678 15.4108 24.3511 15.213C23.8538 12.4743 25.2075 6.72299 22.1686 5.60011C20.5387 4.9976 20.2901 5.81921 13.8808 6.94209C14.4748 5.27524 14.5328 3.46676 14.0466 1.76591Z" fill="#655A6F"/>
</svg>
