<svg width="24" height="24" viewBox="0 0 24 24" fill="none" xmlns="http://www.w3.org/2000/svg">
<g clip-path="url(#clip0_42_984)">
<path d="M18.9998 3.1999C18.9353 2.57032 18.7412 1.96089 18.4298 1.4099C18.1381 0.911708 17.6766 0.535373 17.1298 0.349899C16.0357 0.0959993 14.9117 -0.00496205 13.7898 0.0498993C11.6698 -0.0301007 9.56985 -0.013434 7.48985 0.0998993C-0.930151 0.549899 1.11985 -1.2101 0.81985 9.2799C0.78985 10.9999 0.70985 12.6999 0.67985 14.4099V17.8599C0.595649 18.6376 0.595649 19.4222 0.67985 20.1999C0.771076 20.6372 1.01584 21.0274 1.36985 21.2999C1.90456 21.6681 2.51719 21.9077 3.15985 21.9999C4.45306 22.1648 5.75629 22.2383 7.05985 22.2199C7.71985 22.2199 8.37985 22.2799 9.05985 22.2799C9.7278 22.2813 10.3954 22.2479 11.0598 22.1799C11.6798 22.1199 12.3198 22.0799 12.9498 22.0399C17.9498 21.8099 17.4998 21.9699 17.5498 21.9699C17.5906 21.9755 17.6321 21.9729 17.6718 21.9624C17.7116 21.9518 17.7489 21.9334 17.7814 21.9082C17.814 21.8831 17.8413 21.8517 17.8616 21.816C17.8819 21.7802 17.8949 21.7407 17.8998 21.6999C18.0398 20.5499 18.1498 19.3799 18.2398 18.1999C18.3798 16.4499 18.4698 14.6899 18.5498 12.9599L19.0698 5.8099C19.1258 4.93958 19.1024 4.06597 18.9998 3.1999ZM17.9998 5.7599L17.6498 12.9399C17.6498 14.6599 17.5798 16.4199 17.4898 18.1699C17.4398 19.1699 17.3699 20.2299 17.2799 21.2499C15.8198 21.2999 14.3498 21.2499 12.8898 21.2999C12.2498 21.2999 11.5998 21.2999 10.9598 21.3799C10.3198 21.4599 9.67985 21.4299 9.03985 21.3799C8.39985 21.3299 7.74985 21.3199 7.10985 21.2599C6.10985 21.1699 4.94985 21.2099 3.84985 21.0599C3.20589 20.9999 2.58713 20.7799 2.04985 20.4199C1.94191 20.3251 1.85566 20.2081 1.79699 20.077C1.73832 19.9458 1.7086 19.8036 1.70985 19.6599C1.63985 19.0099 1.76985 18.2699 1.70985 17.7699C1.70985 16.9299 1.70985 16.0799 1.65985 15.2299V9.2299L1.59985 1.2299C3.59985 1.02323 5.56318 0.899899 7.48985 0.859899C9.55985 0.859899 11.6198 0.859899 13.7098 1.0299C14.6034 1.0237 15.4961 1.08722 16.3798 1.2199C16.6126 1.24901 16.8364 1.32739 17.0364 1.44982C17.2364 1.57225 17.4081 1.73591 17.5399 1.9299C17.787 2.36392 17.9435 2.84361 17.9998 3.3399C18.0697 4.14505 18.0697 4.95475 17.9998 5.7599Z" fill="black"/>
<path d="M13.34 8.54985C12.819 8.1295 12.2675 7.74845 11.69 7.40985C11.2216 7.12471 10.7857 6.7894 10.39 6.40985C9.99293 5.9972 9.66838 5.52051 9.42997 4.99985C9.39942 4.93227 9.34329 4.87957 9.27393 4.85332C9.20456 4.82708 9.12761 4.82942 9.05997 4.85985C8.94174 4.94673 8.83132 5.04376 8.72997 5.14985C8.53997 5.49985 8.35997 5.87985 8.14997 6.22985C8.02277 6.44291 7.8718 6.64084 7.69997 6.81985C7.16997 7.38985 6.53997 7.81985 5.98997 8.31985C5.72665 8.5532 5.48253 8.80735 5.25997 9.07985C4.72056 9.71632 4.37368 10.4933 4.25997 11.3199C4.21471 11.7847 4.26987 12.2538 4.42169 12.6955C4.57352 13.1372 4.81847 13.5411 5.13997 13.8799C5.45156 14.224 5.8596 14.4662 6.31089 14.575C6.76219 14.6839 7.2358 14.6542 7.66997 14.4899V14.6099C7.55519 14.8808 7.41805 15.1417 7.25997 15.3899C6.70997 16.0899 6.63997 15.8699 6.62997 16.2599C6.63251 16.3403 6.65483 16.4189 6.69494 16.4886C6.73506 16.5584 6.79173 16.6172 6.85997 16.6599C7.01465 16.7604 7.18816 16.8285 7.36997 16.8599C7.66927 16.8889 7.97067 16.8889 8.26997 16.8599C8.70997 16.8599 9.15997 16.8599 9.60997 16.7999C10.06 16.7399 10.22 16.7299 10.52 16.6799C10.9593 16.6203 11.3915 16.5164 11.81 16.3699C11.8489 16.3212 11.877 16.2649 11.8926 16.2045C11.9081 16.1442 11.9106 16.0812 11.9 16.0199C11.8708 15.8151 11.8101 15.616 11.72 15.4299C11.53 15.0299 11.23 14.6599 11.02 14.2599C11.1834 14.3149 11.3504 14.3584 11.52 14.3899C11.6794 14.4097 11.8406 14.4097 12 14.3899C12.5077 14.3455 12.9915 14.1546 13.3928 13.8404C13.794 13.5262 14.0953 13.1021 14.26 12.6199C14.6003 11.69 14.6003 10.6697 14.26 9.73985C14.049 9.27765 13.7342 8.87041 13.34 8.54985ZM13.34 12.3599C13.2517 12.7076 13.0652 13.0226 12.8028 13.2673C12.5403 13.512 12.2131 13.6761 11.86 13.7399C11.7605 13.7549 11.6594 13.7549 11.56 13.7399C10.39 13.6199 10.66 13.4599 10.41 13.5099C10.369 13.5159 10.3297 13.5301 10.2943 13.5516C10.259 13.5731 10.2283 13.6015 10.204 13.635C10.1798 13.6686 10.1625 13.7066 10.1533 13.747C10.144 13.7873 10.1428 13.8291 10.15 13.8699C10.3089 14.4898 10.544 15.0877 10.85 15.6499H10.31L8.17997 15.7899H7.90997L7.96997 15.6899C8.10041 15.3851 8.20739 15.0709 8.28997 14.7499C8.37558 14.4211 8.43906 14.0871 8.47997 13.7499C8.48725 13.7137 8.48734 13.6765 8.48022 13.6404C8.47309 13.6042 8.45891 13.5698 8.43847 13.5392C8.41803 13.5085 8.39174 13.4822 8.36111 13.4617C8.33048 13.4413 8.29611 13.427 8.25997 13.4199C7.89887 13.7122 7.43825 13.8527 6.97546 13.8116C6.51266 13.7706 6.08397 13.5512 5.77997 13.1999C5.56945 12.9434 5.41743 12.6441 5.33453 12.3229C5.25162 12.0016 5.23983 11.6661 5.29997 11.3399C5.40227 10.7073 5.67154 10.1136 6.07997 9.61985C6.72997 8.76985 7.58997 8.08985 8.28997 7.19985C8.42375 7.01542 8.54407 6.82158 8.64997 6.61985C8.82997 6.26985 8.96997 5.88985 9.11997 5.52985C9.31823 5.95032 9.55952 6.34911 9.83997 6.71985C10.2276 7.20596 10.6668 7.64855 11.15 8.03985C11.6667 8.40286 12.161 8.79692 12.63 9.21985C12.898 9.45292 13.1099 9.74347 13.25 10.0699C13.5786 10.79 13.625 11.6072 13.38 12.3599H13.34Z" fill="black"/>
<path fill-rule="evenodd" clip-rule="evenodd" d="M22.8101 3.61983C22.3582 3.17594 21.8159 2.83484 21.2201 2.61983C20.8204 2.49598 20.4128 2.39909 20.0001 2.32983C19.2001 2.32983 19.1401 2.85983 19.6301 3.13983C19.8495 3.2944 20.0977 3.40323 20.3601 3.45983C20.9899 3.61354 21.571 3.92301 22.0501 4.35983C22.1387 4.47153 22.2038 4.59996 22.2416 4.73741C22.2794 4.87487 22.2891 5.01855 22.2701 5.15983C22.2501 5.80983 22.0001 6.51983 22.0001 6.99983C21.9101 7.83983 21.7901 8.67983 21.6801 9.51983C21.4001 11.5198 21.0901 13.5198 20.8201 15.4498L19.6901 23.4498C17.6901 23.3598 15.6901 23.1498 13.7701 22.8898C13.0301 22.7898 11.3801 22.3298 10.8401 22.3498C9.99009 22.3498 9.95009 23.0798 10.9101 23.2798C11.8701 23.4798 12.9101 23.6298 13.7101 23.7098C15.7101 23.8965 17.7101 23.9998 19.7101 24.0198C20.5301 23.9698 20.1401 23.8998 21.6301 15.6198C21.9101 13.9298 22.2501 12.2498 22.5301 10.6198C22.7168 9.47983 22.8768 8.33983 23.0101 7.19983C23.1968 6.43967 23.3041 5.66216 23.3301 4.87983C23.3186 4.40997 23.1333 3.96106 22.8101 3.61983Z" fill="black"/>
</g>
<defs>
<clipPath id="clip0_42_984">
<rect width="24" height="24" fill="white"/>
</clipPath>
</defs>
</svg>
