<svg width="24" height="24" viewBox="0 0 24 24" fill="none" xmlns="http://www.w3.org/2000/svg">
<g clip-path="url(#clip0_42_1008)">
<path fill-rule="evenodd" clip-rule="evenodd" d="M7.21976 14.3101C7.48863 14.3449 7.76088 14.3449 8.02976 14.3101C8.29193 14.2716 8.54978 14.2079 8.79976 14.1201C9.35989 13.9066 9.89615 13.6351 10.3998 13.3101C10.4752 13.2714 10.5329 13.2051 10.5608 13.1251C10.5888 13.045 10.5848 12.9573 10.5498 12.8801C10.5093 12.8063 10.443 12.7501 10.3636 12.7224C10.2842 12.6947 10.1973 12.6974 10.1198 12.7301C9.58871 12.9165 9.04365 13.0603 8.48976 13.1601C8.15933 13.2278 7.82552 13.2779 7.48976 13.3101H6.98976C7.57334 12.5455 7.92402 11.6289 7.99976 10.6701C8.19976 8.67005 7.20976 6.67005 4.88976 6.47005C4.14417 6.46564 3.40818 6.6383 2.74234 6.97383C2.0765 7.30936 1.49983 7.79817 1.05976 8.40005C0.568217 8.97687 0.274761 9.69621 0.222558 10.4523C0.170355 11.2083 0.36216 11.9612 0.769759 12.6001C1.02815 12.9846 1.36997 13.3059 1.76976 13.5401L2.14976 13.7401C1.38268 14.5243 0.801698 15.471 0.449759 16.5101C0.187019 17.3157 0.0356184 18.1534 -0.000240904 19.0001C-0.0448979 20.235 0.0355116 21.4713 0.239759 22.6901C0.242161 22.7353 0.253842 22.7795 0.274074 22.82C0.294306 22.8605 0.322656 22.8964 0.357362 22.9255C0.392067 22.9546 0.432385 22.9762 0.475806 22.989C0.519228 23.0019 0.564824 23.0056 0.609759 23.0001C0.691089 22.99 0.765468 22.9491 0.817563 22.8859C0.869657 22.8226 0.895498 22.7418 0.889759 22.6601C0.828031 21.4657 0.864822 20.2683 0.999759 19.0801C1.08699 18.3189 1.23751 17.5662 1.44976 16.8301C1.72954 15.8034 2.20864 14.8417 2.85976 14.0001C3.12976 14.0701 3.39976 14.1401 3.66976 14.1901C3.74269 14.2046 3.81844 14.1897 3.88032 14.1484C3.94221 14.1071 3.98517 14.043 3.99976 13.9701C4.01435 13.8971 3.99936 13.8214 3.9581 13.7595C3.91685 13.6976 3.85269 13.6546 3.77976 13.6401C1.77976 13.1801 1.41976 12.2501 1.40976 12.2201C1.12549 11.7085 1.01379 11.1189 1.09125 10.5388C1.16872 9.95872 1.43122 9.41909 1.83976 9.00005C2.18903 8.535 2.6422 8.15807 3.1631 7.89936C3.68399 7.64065 4.25816 7.50733 4.83976 7.51005C6.54976 7.61005 7.22976 9.10005 7.13976 10.5801C7.14987 11.3541 6.90312 12.1096 6.43809 12.7284C5.97307 13.3472 5.31602 13.7944 4.56976 14.0001C4.48756 14.0148 4.41399 14.0601 4.36388 14.1269C4.31378 14.1937 4.29086 14.277 4.29976 14.3601C4.31446 14.4416 4.36018 14.5142 4.42732 14.5627C4.49445 14.6111 4.57777 14.6317 4.65976 14.6201C5.20077 14.5424 5.71334 14.3291 6.14976 14.0001C6.48852 14.1574 6.84936 14.2619 7.21976 14.3101Z" fill="black"/>
<path fill-rule="evenodd" clip-rule="evenodd" d="M10.5698 14.7C10.1616 15.0863 9.70829 15.4221 9.21977 15.7C8.73636 15.9674 8.22709 16.1852 7.69977 16.35C7.29401 16.4499 6.89351 16.57 6.49977 16.71C6.22089 16.8127 5.98483 17.0065 5.82977 17.26C5.60455 17.8109 5.50876 18.4062 5.54977 19C5.54977 20.25 5.95977 21.79 6.01977 22.58C6.02103 22.6216 6.03065 22.6625 6.04806 22.7003C6.06547 22.7381 6.09031 22.772 6.1211 22.8C6.1519 22.828 6.18802 22.8495 6.2273 22.8633C6.26659 22.877 6.30824 22.8827 6.34977 22.88C6.39049 22.8787 6.43055 22.8694 6.46767 22.8526C6.50479 22.8358 6.53823 22.8119 6.5661 22.7822C6.59396 22.7524 6.61569 22.7175 6.63005 22.6794C6.6444 22.6413 6.65111 22.6007 6.64977 22.56C6.64977 21.88 6.53977 20.63 6.53977 19.48C6.53977 16.89 7.14977 17.62 8.06977 17.26C8.61937 17.0005 9.14478 16.6926 9.63977 16.34C10.1436 15.9818 10.6005 15.5619 10.9998 15.09C11.0277 15.0647 11.05 15.0338 11.0652 14.9994C11.0805 14.9649 11.0884 14.9277 11.0884 14.89C11.0884 14.8523 11.0805 14.8151 11.0652 14.7806C11.05 14.7462 11.0277 14.7153 10.9998 14.69C10.9728 14.6591 10.9393 14.6345 10.9017 14.618C10.8642 14.6014 10.8235 14.5934 10.7824 14.5943C10.7414 14.5953 10.7011 14.6052 10.6643 14.6235C10.6276 14.6417 10.5953 14.6679 10.5698 14.7Z" fill="black"/>
<path fill-rule="evenodd" clip-rule="evenodd" d="M20.6396 13.1299C20.1642 13.1799 19.6849 13.1799 19.2096 13.1299C17.7896 12.9299 15.8596 11.6899 16.5396 9.65988C16.7688 9.06708 17.136 8.53744 17.6108 8.11485C18.0856 7.69227 18.6542 7.3889 19.2696 7.22988C19.9193 7.03302 20.6155 7.05344 21.2525 7.28805C21.8896 7.52266 22.4327 7.95865 22.7996 8.52988C22.9818 8.82208 23.1041 9.14755 23.1595 9.48741C23.2149 9.82727 23.2022 10.1748 23.1222 10.5097C23.0422 10.8446 22.8964 11.1603 22.6934 11.4384C22.4904 11.7165 22.2342 11.9516 21.9396 12.1299C21.8714 12.1783 21.8249 12.2514 21.8099 12.3336C21.795 12.4158 21.8128 12.5006 21.8596 12.5699C21.8816 12.6059 21.911 12.6368 21.9459 12.6606C21.9807 12.6845 22.0201 12.7007 22.0617 12.7083C22.1032 12.7158 22.1459 12.7145 22.1869 12.7045C22.2278 12.6944 22.2663 12.6758 22.2996 12.6499C22.6833 12.4348 23.0206 12.1456 23.2916 11.7991C23.5626 11.4526 23.7621 11.0556 23.8784 10.6314C23.9947 10.2071 24.0255 9.76391 23.9691 9.32761C23.9126 8.89131 23.77 8.47059 23.5496 8.08988C23.1038 7.31834 22.4177 6.71394 21.596 6.36905C20.7744 6.02415 19.8625 5.95771 18.9996 6.17988C18.2162 6.38456 17.4953 6.77901 16.9006 7.3284C16.3059 7.87778 15.8556 8.56519 15.5896 9.32988C15.4225 9.84129 15.3928 10.3876 15.5033 10.9141C15.6139 11.4407 15.8609 11.9289 16.2196 12.3299C16.0545 12.272 15.8941 12.2018 15.7396 12.1199C15.2172 11.7722 14.788 11.3018 14.4896 10.7499C14.2447 10.3091 13.9345 9.90789 13.5696 9.55988C13.2766 9.26569 12.9136 9.05078 12.5148 8.93534C12.116 8.81989 11.6944 8.80769 11.2896 8.89988C10.9578 9.04011 10.6662 9.26071 10.441 9.54178C10.2158 9.82284 10.0641 10.1555 9.99956 10.5099C9.94025 10.7361 9.94025 10.9737 9.99956 11.1999C10.1051 11.4761 10.2253 11.7465 10.3596 12.0099C10.494 12.2689 10.6443 12.5194 10.8096 12.7599C11.2205 13.3907 11.7038 13.9713 12.2496 14.4899C12.8012 15.0101 13.42 15.454 14.0896 15.8099C14.6255 16.0353 15.1729 16.2322 15.7296 16.3999C15.8958 16.4595 16.0538 16.5402 16.1996 16.6399C16.3029 17.0091 16.3699 17.3876 16.3996 17.7699C16.4744 18.3668 16.5045 18.9685 16.4896 19.5699C16.4672 20.4899 16.3937 21.408 16.2696 22.3199C16.2576 22.3941 16.2757 22.4701 16.3198 22.5311C16.3638 22.592 16.4303 22.6329 16.5046 22.6449C16.5788 22.6568 16.6548 22.6388 16.7157 22.5947C16.7767 22.5506 16.8176 22.4841 16.8296 22.4099C16.9796 21.4899 17.1296 20.5499 17.1896 19.6099C17.2345 18.974 17.2345 18.3358 17.1896 17.6999C17.1778 17.2876 17.1377 16.8766 17.0696 16.4699C17.0274 16.2924 16.9375 16.1299 16.8096 15.9999C16.5897 15.8122 16.3438 15.6572 16.0796 15.5399C15.5796 15.3099 14.9896 15.1599 14.5596 14.9199C13.9785 14.5879 13.441 14.1848 12.9596 13.7199C12.479 13.2512 12.0468 12.7352 11.6696 12.1799C11.5296 11.9599 11.3996 11.7399 11.2796 11.5099C10.8596 10.7499 10.9596 10.7899 11.0196 10.5799C11.0451 10.4215 11.1085 10.2715 11.2042 10.1427C11.2999 10.0139 11.4252 9.91005 11.5696 9.83988C11.9096 9.70988 12.3596 9.83988 12.9996 10.2899C13.6396 10.7399 14.0996 12.1099 15.3496 12.7699C15.9401 13.0702 16.5975 13.2148 17.2596 13.1899C17.3561 13.2524 17.4563 13.3092 17.5596 13.3599C18.0518 13.5829 18.5803 13.715 19.1196 13.7499C19.6373 13.7763 20.1563 13.7528 20.6696 13.6799C20.7061 13.6762 20.7415 13.6652 20.7736 13.6474C20.8056 13.6296 20.8338 13.6055 20.8562 13.5765C20.8787 13.5475 20.895 13.5142 20.9042 13.4787C20.9134 13.4432 20.9152 13.4061 20.9096 13.3699C20.9044 13.3027 20.8734 13.2401 20.8231 13.1953C20.7727 13.1506 20.7069 13.1271 20.6396 13.1299Z" fill="black"/>
<path fill-rule="evenodd" clip-rule="evenodd" d="M21.54 12.7201C21.5147 12.6882 21.4827 12.6622 21.4464 12.6439C21.41 12.6256 21.3701 12.6155 21.3295 12.6142C21.2888 12.6129 21.2483 12.6204 21.2109 12.6364C21.1734 12.6523 21.1399 12.6762 21.1127 12.7064C21.0854 12.7366 21.065 12.7724 21.053 12.8113C21.041 12.8502 21.0376 12.8912 21.0431 12.9315C21.0485 12.9719 21.0627 13.0105 21.0846 13.0448C21.1065 13.0791 21.1356 13.1082 21.17 13.1301C22.0011 14.0707 22.5246 15.2432 22.67 16.4901C22.8003 17.2372 22.8805 17.9922 22.91 18.7501C22.9471 19.9242 22.917 21.0994 22.82 22.2701C22.8143 22.3108 22.8169 22.3523 22.8275 22.3921C22.8381 22.4318 22.8565 22.4691 22.8816 22.5017C22.9067 22.5342 22.9381 22.5615 22.9739 22.5818C23.0096 22.6021 23.0491 22.6152 23.09 22.6201C23.1719 22.6317 23.2553 22.6112 23.3224 22.5627C23.3895 22.5142 23.4353 22.4416 23.45 22.3601C23.7065 21.1719 23.8637 19.9644 23.92 18.7501C23.9529 17.9174 23.879 17.0839 23.7 16.2701C23.4014 14.8768 22.6401 13.6256 21.54 12.7201Z" fill="black"/>
<path fill-rule="evenodd" clip-rule="evenodd" d="M7.13978 4.64991C7.18826 4.81862 7.25185 4.98262 7.32978 5.13991C7.39983 5.29501 7.48 5.44534 7.56978 5.58991C7.79991 5.94026 8.05384 6.27438 8.32978 6.58991C8.36743 6.65295 8.42759 6.69935 8.49811 6.71977C8.56864 6.74018 8.64428 6.73309 8.70978 6.69991C8.77471 6.66406 8.82275 6.60391 8.84338 6.53266C8.864 6.46142 8.85551 6.38491 8.81978 6.31991C8.68978 5.92991 8.61978 5.54991 8.48978 5.16991C8.43346 5.00904 8.36665 4.85204 8.28978 4.69991C8.21968 4.54806 8.13951 4.40106 8.04978 4.25991C7.83978 3.90991 7.60978 3.57991 7.37978 3.25991C7.34257 3.18531 7.2777 3.12818 7.199 3.10068C7.1203 3.07317 7.03397 3.07747 6.95839 3.11266C6.88281 3.14784 6.82394 3.21113 6.79432 3.28906C6.7647 3.36699 6.76666 3.45341 6.79978 3.52991C6.91978 3.88991 6.99978 4.26991 7.13978 4.64991Z" fill="black"/>
<path fill-rule="evenodd" clip-rule="evenodd" d="M11.6699 4.88997C11.6698 4.96253 11.6979 5.03227 11.7483 5.0845C11.7987 5.13673 11.8673 5.16737 11.9399 5.16997C11.977 5.17272 12.0142 5.16778 12.0493 5.15545C12.0844 5.14312 12.1166 5.12367 12.1438 5.09832C12.1711 5.07297 12.1928 5.04226 12.2076 5.00813C12.2224 4.97399 12.23 4.93717 12.2299 4.89997C12.3199 4.47997 12.4299 4.08997 12.4799 3.65997C12.4901 3.48345 12.4901 3.30648 12.4799 3.12997C12.4895 2.95343 12.4895 2.7765 12.4799 2.59997C12.4799 2.18997 12.3599 1.78997 12.2999 1.36997C12.3 1.28845 12.2691 1.20995 12.2133 1.15048C12.1576 1.09101 12.0812 1.05506 11.9999 1.04997C11.9583 1.04863 11.9169 1.05565 11.8781 1.07063C11.8394 1.08561 11.804 1.10823 11.7742 1.13715C11.7443 1.16607 11.7206 1.2007 11.7044 1.23898C11.6882 1.27726 11.6798 1.3184 11.6799 1.35997C11.6099 1.77997 11.5299 2.17997 11.4899 2.59997C11.4799 2.77649 11.4799 2.95344 11.4899 3.12997C11.48 3.3065 11.48 3.48344 11.4899 3.65997C11.5099 4.07997 11.6099 4.46997 11.6699 4.88997Z" fill="black"/>
<path fill-rule="evenodd" clip-rule="evenodd" d="M15.3097 6.27004C15.6041 6.05854 15.8816 5.82451 16.1397 5.57004C16.2407 5.45868 16.3311 5.33816 16.4097 5.21004C16.4897 5.09004 16.5597 4.96004 16.6297 4.83004C16.7797 4.51004 16.8997 4.20004 17.0397 3.89004C17.0915 3.82401 17.1162 3.74072 17.1088 3.65712C17.1013 3.57352 17.0623 3.49589 16.9997 3.44004C16.9304 3.39328 16.8456 3.37547 16.7634 3.39042C16.6812 3.40537 16.6081 3.45189 16.5597 3.52004C16.2997 3.77004 16.0597 4.00004 15.8197 4.27004C15.7297 4.38004 15.6397 4.49004 15.5597 4.61004C15.4625 4.73268 15.3755 4.86312 15.2997 5.00004C15.1497 5.31004 15.0497 5.62004 14.8897 5.92004C14.864 5.94739 14.8442 5.97963 14.8312 6.01482C14.8182 6.05001 14.8125 6.08744 14.8143 6.1249C14.8161 6.16235 14.8254 6.19907 14.8416 6.23286C14.8579 6.26666 14.8807 6.29685 14.9089 6.32164C14.937 6.34642 14.9698 6.36531 15.0054 6.37717C15.041 6.38902 15.0786 6.39362 15.116 6.39067C15.1534 6.38772 15.1898 6.3773 15.223 6.36001C15.2563 6.34272 15.2858 6.31893 15.3097 6.29004V6.27004Z" fill="black"/>
</g>
<defs>
<clipPath id="clip0_42_1008">
<rect width="24" height="24" fill="white"/>
</clipPath>
</defs>
</svg>
