<svg width="22" height="22" viewBox="0 0 22 22" fill="none" xmlns="http://www.w3.org/2000/svg">
<path d="M3.5 6.5L3 2.5C4.33333 2.66667 7.1 3.1 7.5 3.5C7.9 3.9 19 15 19 16.5C19 17.7503 18.1 18.9 16.5 18.5C14.9 18.1 7.16667 10.3333 3.5 6.5Z" fill="white"/>
<path d="M7.80304 2.74456L7.76941 2.72339L7.73086 2.71369C6.15084 2.3161 4.5029 2.05821 2.80213 1.94201L2.72485 1.93673L2.65812 1.97607C2.54935 2.04019 2.45437 2.12987 2.38353 2.23456C2.31294 2.3389 2.26495 2.46042 2.25397 2.58667L2.25396 2.58667L2.25379 2.58886C2.24428 2.71079 2.24586 2.73093 2.26586 2.98583L2.26714 3.00216L2.26716 3.00243C2.28842 3.2735 2.33099 3.81627 2.4082 5.00473L2.40814 5.00473L2.40862 5.01025C2.42812 5.23368 2.42086 5.44886 2.40915 5.67205C2.40745 5.70448 2.40564 5.73725 2.40381 5.77031C2.39333 5.96014 2.38231 6.15961 2.38822 6.36039C2.40258 6.84878 2.51659 7.35617 2.94668 7.92678L2.95169 7.93343L2.95714 7.93974C3.37882 8.42785 3.8345 8.88393 4.32221 9.30603C5.00891 10.0234 5.68011 10.7533 6.35223 11.4843C8.50556 13.8263 10.6684 16.1785 13.3811 18.1581L13.3811 18.1581L13.3826 18.1591C14.0685 18.6521 14.9086 19.2184 15.8257 19.4681C16.7597 19.7226 17.7736 19.6482 18.7761 18.8705C19.7888 18.0848 20.0462 17.0837 19.8764 16.0948C19.7101 15.1259 19.1374 14.1754 18.509 13.4247L18.5019 13.4163L18.4941 13.4084C17.679 12.5934 17.2822 12.1544 16.8354 11.6603C16.6245 11.4271 16.4026 11.1816 16.1203 10.8785C15.2438 9.93732 13.8007 8.45751 10.3265 5.09377L10.304 5.0719L10.2968 5.06781L10.2867 5.05877C10.2683 5.04213 10.2418 5.01772 10.2079 4.98618C10.1402 4.92328 10.0453 4.83435 9.93185 4.72765C9.78019 4.58501 9.59614 4.41139 9.40065 4.22698C9.30369 4.13552 9.20392 4.04141 9.10389 3.9471C8.80245 3.6629 8.49877 3.37706 8.26414 3.15828C8.14692 3.04897 8.04631 2.95583 7.97161 2.8878C7.93438 2.85389 7.90269 2.82542 7.87822 2.80401L7.87637 2.80239C7.85969 2.78779 7.82889 2.76083 7.80304 2.74456ZM3.54154 3.3459C3.67568 3.36686 3.8075 3.39266 3.93679 3.42324L3.95339 3.42717L3.97038 3.4288C4.65024 3.49424 5.3083 3.61124 5.93981 3.77861C5.92281 3.83883 5.90434 3.90714 5.88491 3.98114C5.81977 4.22915 5.741 4.5515 5.66475 4.8726C5.55843 5.32031 5.45383 5.77893 5.39821 6.03132C5.08104 6.07059 4.89771 6.13462 4.72684 6.19429C4.69588 6.2051 4.66533 6.21577 4.63447 6.22612C4.4472 6.28894 4.21828 6.35175 3.70495 6.37316C3.69701 6.34144 3.69246 6.31457 3.6893 6.28626C3.68199 6.2208 3.68165 6.1467 3.68099 6.00333C3.68086 5.97358 3.68071 5.94085 3.68048 5.90459C3.67806 5.52228 3.66517 4.82963 3.54154 3.3459ZM14.3488 16.4421C14.2599 16.3834 14.1526 16.3125 14.0149 16.2165C14.8289 15.5234 15.5991 14.7749 16.3162 13.9797C16.405 14.0738 16.4962 14.1655 16.5899 14.2547C15.7496 14.8711 15.0297 15.6643 14.5085 16.5492C14.472 16.5238 14.4335 16.4982 14.3922 16.4708C14.3782 16.4616 14.3637 16.452 14.3488 16.4421ZM7.22577 6.52882C7.18086 5.82192 7.20001 5.09245 7.28329 4.34823C7.32962 4.38635 7.38065 4.42977 7.43627 4.47844C7.68066 4.69228 7.99965 4.99509 8.37197 5.36311C9.11587 6.09843 10.0621 7.08363 11.0298 8.11334C12.8015 9.99855 14.6371 12.0246 15.4227 12.9258C14.4504 13.5541 13.61 14.4193 13.0146 15.4054C11.149 13.887 9.44836 12.2257 7.69483 10.5127C6.93209 9.76762 6.15935 9.01276 5.35869 8.25564L4.84927 7.74622C4.91243 7.74813 4.97783 7.74993 5.04538 7.75139C5.3555 7.75805 5.69758 7.75643 6.01257 7.71414C6.32219 7.67258 6.63953 7.58777 6.87509 7.40298C7.12828 7.20436 7.26087 6.9108 7.22577 6.52882ZM16.9376 17.7687C16.5638 17.7258 16.1203 17.5825 15.6362 17.3173C16.321 16.7168 16.9549 16.0564 17.5251 15.3495C17.8941 15.8873 18.0807 16.3438 18.1357 16.7056C18.1985 17.1191 18.0897 17.3914 17.9053 17.5545C17.7132 17.7244 17.3889 17.8205 16.9376 17.7687Z" fill="#6D538B" stroke="white" stroke-width="0.5"/>
</svg>
